<svg width="32" height="24" viewBox="0 0 32 24" fill="none" xmlns="http://www.w3.org/2000/svg">
<rect x="0.5" y="0.5" width="31" height="23" rx="3.5" fill="white"/>
<rect x="0.5" y="0.5" width="31" height="23" rx="3.5" stroke="#E5E5E5"/>
<path d="M22.328 14.3494L23.0378 13.8586V11.0046L22.328 10.7489V9.13819C22.328 8.64458 22.1319 8.17119 21.7829 7.82216C21.6268 7.66611 20.4668 7.27704 20.4668 7.27704C20.4668 7.27704 18.6057 4.30165 17.482 4.32929C16.3583 4.35693 12.6724 7.27704 12.6724 7.27704H10.7889C10.2953 7.27704 9.82188 7.47313 9.47285 7.82216C9.12382 8.17119 8.92773 8.64458 8.92773 9.13819V15.8383C8.92773 16.3319 9.12382 16.8053 9.47285 17.1543C9.82188 17.5034 10.2953 17.6995 10.7889 17.6995L20.4668 17.6995C20.9605 17.6995 21.4338 17.5034 21.7829 17.1543C22.1319 16.8053 22.328 16.3319 22.328 15.8383L22.328 14.3494Z" fill="#FFE600"/>
<path d="M20.4668 17.699V18.299V17.699ZM20.4668 7.27658V7.87658V7.27658ZM18.7063 4.8944L19.1889 4.53778L19.1863 4.5344L18.7063 4.8944ZM16.6893 4.5489L16.3565 4.04967V4.04967L16.6893 4.5489ZM12.265 6.77733C11.9892 6.96115 11.9147 7.33367 12.0985 7.60938C12.2824 7.8851 12.6549 7.95961 12.9306 7.77579L12.265 6.77733ZM20.4668 10.6266V11.2266V10.6266ZM20.4668 14.3489L20.4668 13.7489H20.4668V14.3489ZM18.6057 12.4878H19.2057H18.6057ZM10.7889 7.27657L10.7889 6.67657H10.7889V7.27657ZM8.92773 9.13772H8.32773H8.92773ZM10.7889 17.699L10.7889 17.099H10.7889V17.699ZM22.328 15.8379L21.728 15.8379V15.8379H22.328ZM19.1863 4.5344C18.8659 4.10723 18.3941 3.81897 17.8679 3.72882L17.6653 4.91159C17.8892 4.94996 18.09 5.07262 18.2263 5.2544L19.1863 4.5344ZM17.8679 3.72882C17.3416 3.63867 16.8007 3.75348 16.3565 4.04967L17.0221 5.04813C17.2112 4.92209 17.4413 4.87323 17.6653 4.91159L17.8679 3.72882ZM16.3565 4.04967L12.265 6.77733L12.9306 7.77579L17.0221 5.04813L16.3565 4.04967ZM20.4668 11.2266H22.328V10.0266H20.4668V11.2266ZM22.328 11.2266C22.3663 11.2266 22.4031 11.2419 22.4301 11.2689L23.2787 10.4204C23.0265 10.1683 22.6846 10.0266 22.328 10.0266V11.2266ZM22.4301 11.2689C22.4572 11.296 22.4725 11.3328 22.4725 11.3711H23.6725C23.6725 11.0145 23.5308 10.6726 23.2787 10.4204L22.4301 11.2689ZM22.4725 11.3711V13.6045H23.6725V11.3711H22.4725ZM22.4725 13.6045C22.4725 13.6428 22.4572 13.6795 22.4301 13.7066L23.2787 14.5552C23.5308 14.303 23.6725 13.961 23.6725 13.6045H22.4725ZM22.4301 13.7066C22.403 13.7337 22.3663 13.7489 22.328 13.7489V14.9489C22.6846 14.9489 23.0265 14.8073 23.2787 14.5552L22.4301 13.7066ZM22.328 13.7489L20.4668 13.7489L20.4668 14.9489L22.328 14.9489L22.328 13.7489ZM20.4668 13.7489C20.1324 13.7489 19.8116 13.6161 19.5751 13.3796L18.7266 14.2281C19.1881 14.6896 19.8141 14.9489 20.4668 14.9489V13.7489ZM19.5751 13.3796C19.3386 13.143 19.2057 12.8223 19.2057 12.4878H18.0057C18.0057 13.1405 18.265 13.7665 18.7266 14.2281L19.5751 13.3796ZM19.2057 12.4878C19.2057 12.1533 19.3386 11.8325 19.5751 11.596L18.7266 10.7475C18.265 11.209 18.0057 11.835 18.0057 12.4878H19.2057ZM19.5751 11.596C19.8116 11.3595 20.1324 11.2266 20.4668 11.2266V10.0266C19.8141 10.0266 19.1881 10.2859 18.7266 10.7475L19.5751 11.596ZM22.928 10.6266V9.13772H21.728V10.6266H22.928ZM22.928 9.13772C22.928 8.48498 22.6687 7.85898 22.2071 7.39743L21.3586 8.24596C21.5951 8.48247 21.728 8.80325 21.728 9.13772H22.928ZM22.2071 7.39743C21.7456 6.93587 21.1196 6.67658 20.4668 6.67658V7.87658C20.8013 7.87658 21.1221 8.00945 21.3586 8.24596L22.2071 7.39743ZM20.4668 6.67658L10.7889 6.67657L10.7889 7.87657L20.4668 7.87658V6.67658ZM10.7889 6.67657C10.1361 6.67657 9.51014 6.93587 9.04859 7.39743L9.89712 8.24596C10.1336 8.00944 10.4544 7.87657 10.7889 7.87657V6.67657ZM9.04859 7.39743C8.58703 7.85898 8.32773 8.48498 8.32773 9.13772H9.52773C9.52773 8.80324 9.6606 8.48247 9.89712 8.24596L9.04859 7.39743ZM8.32773 9.13772V15.8379H9.52773V9.13772H8.32773ZM8.32773 15.8379C8.32773 16.4906 8.58703 17.1166 9.04859 17.5781L9.89712 16.7296C9.66061 16.4931 9.52773 16.1723 9.52773 15.8379H8.32773ZM9.04859 17.5781C9.51014 18.0397 10.1361 18.299 10.7889 18.299V17.099C10.4544 17.099 10.1336 16.9661 9.89712 16.7296L9.04859 17.5781ZM10.7889 18.299L20.4668 18.299V17.099L10.7889 17.099L10.7889 18.299ZM20.4668 18.299C21.1196 18.299 21.7456 18.0397 22.2071 17.5781L21.3586 16.7296C21.1221 16.9661 20.8013 17.099 20.4668 17.099V18.299ZM22.2071 17.5781C22.6687 17.1166 22.928 16.4906 22.928 15.8379H21.728C21.728 16.1723 21.5951 16.4931 21.3586 16.7296L22.2071 17.5781ZM22.928 15.8379L22.928 14.3489L21.728 14.3489L21.728 15.8379L22.928 15.8379ZM20.9494 6.91997L19.1888 4.53779L18.2238 5.25101L19.9843 7.63318L20.9494 6.91997Z" fill="black" fill-opacity="0.9"/>
</svg>
