<svg width="32" height="24" viewBox="0 0 32 24" fill="none" xmlns="http://www.w3.org/2000/svg">
<rect x="0.5" y="0.5" width="31" height="23" rx="3.5" fill="white"/>
<rect x="0.5" y="0.5" width="31" height="23" rx="3.5" stroke="#E5E5E5"/>
<path fill-rule="evenodd" clip-rule="evenodd" d="M13.3234 4H9.71066L6 12.4659H9.01243V19.9801L18.3048 19.9998L19.7645 18.363L21.2346 19.9932H24V17.6057L22.2674 15.7274L24 13.8662V11.5273L23.9997 11.5273V4H20.5933L19.8216 6.17095L19.0526 4H14.5925V6.89679L13.3234 4Z" fill="white"/>
<path fill-rule="evenodd" clip-rule="evenodd" d="M15.6081 11.5197L15.6088 11.5214H13.5589L13.0093 10.1996H10.0285L9.47878 11.5214H7.47852L10.394 4.92055H12.705L15.5801 11.4562V4.91895L18.3912 4.92945L19.8379 8.98653L21.2937 4.91895H23.999V11.5197L22.2586 11.5355V7.00065L20.6147 11.5197H19.0258L17.348 6.98621V11.5197H15.6081ZM10.6447 8.71775L11.5195 6.61636L12.393 8.71775H10.6447ZM10.0114 12.4463V19.0523H15.5555H15.584H17.8769L19.7754 16.9378L21.6921 19.0523H23.9991V18.9578L20.9818 15.7447L23.9991 12.4988V12.4463H21.7156L19.8263 14.5398L17.9422 12.4463H15.584H15.5555H10.0114ZM15.584 12.4767V13.9675H11.8158V15.0005H15.4939V16.4968H11.8158V17.5114H15.584V19.0218L18.6394 15.7447L15.584 12.4767Z" fill="#016FD0"/>
</svg>
