<svg width="32" height="24" viewBox="0 0 32 24" fill="none" xmlns="http://www.w3.org/2000/svg">
<rect x="0.5" y="0.5" width="31" height="23" rx="3.5" fill="white"/>
<rect x="0.5" y="0.5" width="31" height="23" rx="3.5" stroke="#E5E5E5"/>
<path d="M9.62723 12.17C9.69271 12.192 9.76891 12.2248 9.85584 12.2682C10.0082 12.3557 10.1386 12.4754 10.2481 12.6278C10.3791 12.8457 10.444 13.107 10.444 13.4118C10.444 14.4578 9.81181 14.9805 8.54854 14.9805H6.09822C6.03274 14.9805 6 14.9477 6 14.8823V9.84951C6 9.78404 6.03274 9.7513 6.09822 9.7513H8.68006C9.13784 9.7513 9.50756 9.87717 9.79092 10.1272C10.0737 10.3779 10.216 10.7103 10.216 11.1241C10.216 11.364 10.1612 11.5762 10.0528 11.7613C9.94333 11.9471 9.80165 12.0831 9.62723 12.17ZM8.51637 14.2286C8.88666 14.2286 9.15873 14.1688 9.33315 14.0491C9.507 13.9294 9.59449 13.7223 9.59449 13.4282C9.59449 13.1341 9.507 12.9275 9.33315 12.8073C9.15873 12.6876 8.88609 12.6278 8.51637 12.6278H6.98047C6.89298 12.6278 6.84951 12.6605 6.84951 12.726V14.1315C6.84951 14.197 6.89298 14.2297 6.98047 14.2297H8.51637V14.2286ZM6.98047 10.5032C6.91499 10.5032 6.88225 10.5359 6.88225 10.6014V11.7777C6.88225 11.8432 6.91499 11.8759 6.98047 11.8759H8.48363C9.04979 11.8759 9.33315 11.6473 9.33315 11.1895C9.33315 10.7318 9.04979 10.5032 8.48363 10.5032H6.98047ZM14.9219 12.17C14.9874 12.192 15.0528 12.2248 15.1177 12.2682C15.2916 12.3557 15.4226 12.4754 15.51 12.6278C15.6625 12.8457 15.7387 13.107 15.7387 13.4118C15.7387 14.4578 15.1065 14.9805 13.8432 14.9805H11.3923C11.3268 14.9805 11.2941 14.9477 11.2941 14.8823V9.84951C11.2941 9.78404 11.3268 9.7513 11.3923 9.7513H13.9741C14.4099 9.7513 14.7746 9.87717 15.0692 10.1272C15.3633 10.3779 15.5106 10.7103 15.5106 11.1241C15.5106 11.364 15.4559 11.5762 15.3475 11.7613C15.2374 11.9471 15.0957 12.0831 14.9219 12.17ZM12.2418 10.5032C12.1763 10.5032 12.1436 10.5359 12.1436 10.6014V11.7777C12.1436 11.8432 12.1763 11.8759 12.2418 11.8759H13.7777C14.3439 11.8759 14.6272 11.6473 14.6272 11.1895C14.6272 10.7318 14.3439 10.5032 13.7777 10.5032H12.2418ZM13.8105 14.2286C14.1807 14.2286 14.4528 14.1688 14.6272 14.0491C14.8011 13.9294 14.8886 13.7223 14.8886 13.4282C14.8886 13.1341 14.8011 12.9275 14.6272 12.8073C14.4528 12.6876 14.1802 12.6278 13.8105 12.6278H12.2418C12.1763 12.6278 12.1436 12.6605 12.1436 12.726V14.1315C12.1436 14.197 12.1763 14.2297 12.2418 14.2297H13.8105V14.2286ZM20.4118 9.81678C20.4333 9.77331 20.4553 9.7513 20.4773 9.7513H21.3268C21.3483 9.7513 21.3703 9.76259 21.3923 9.78404C21.4138 9.80605 21.4138 9.82807 21.3923 9.84951L18.6801 14.9477C18.658 14.9697 18.631 14.9805 18.5982 14.9805C18.5655 14.9805 18.5378 14.9697 18.5164 14.9477L15.8041 9.84951C15.7821 9.82807 15.7765 9.80605 15.7878 9.78404C15.7985 9.76259 15.8256 9.7513 15.8696 9.7513H16.6864C16.7298 9.7513 16.7626 9.77331 16.7846 9.81678L18.5164 13.085C18.5164 13.107 18.5378 13.1177 18.5818 13.1177C18.6253 13.1177 18.658 13.107 18.6801 13.085L20.4118 9.81678ZM21.3923 14.1637C21.3703 14.2077 21.3375 14.2292 21.2941 14.2292H20.4446C20.4226 14.2292 20.4062 14.2184 20.3955 14.1964C20.3842 14.175 20.3791 14.153 20.3791 14.131L23.0919 9.03274C23.1133 9.01129 23.1461 9 23.1901 9C23.2336 9 23.2663 9.01129 23.2883 9.03274L26 14.131C26 14.153 25.9944 14.175 25.9836 14.1964C25.9723 14.2184 25.956 14.2292 25.9345 14.2292H25.085C25.041 14.2292 25.0082 14.2077 24.9868 14.1637L23.2872 10.8955C23.2652 10.852 23.2324 10.83 23.189 10.83C23.145 10.83 23.1122 10.852 23.0908 10.8955L21.3923 14.1637Z" fill="#004580"/>
</svg>
