<svg width="32" height="24" viewBox="0 0 32 24" fill="none" xmlns="http://www.w3.org/2000/svg">
<rect x="0.5" y="0.5" width="31" height="23" rx="3.5" fill="white"/>
<rect x="0.5" y="0.5" width="31" height="23" rx="3.5" stroke="#E5E5E5"/>
<path d="M16.9231 3L24.8666 11.1731C25.3101 11.6241 25.3101 12.3759 24.8666 12.8269L16.9362 21V16.4351L20.6666 12.5809C20.9797 12.2665 20.9797 11.7472 20.6666 11.4191L16.9362 7.55125V3H16.9231ZM14.4623 7.55125L10.7318 11.4191C10.4188 11.7335 10.4188 12.2528 10.7318 12.5809L14.4623 16.4351V21L6.53183 12.8269C6.08835 12.3759 6.08835 11.6241 6.53183 11.1731L14.4753 3V7.55125H14.4623Z" fill="#00609C"/>
</svg>
