<svg width="32" height="32" viewBox="0 0 32 32" fill="none" xmlns="http://www.w3.org/2000/svg">
<path d="M13.1382 17.6724L12.0602 19.1844C12.8003 19.9365 13.8459 20.485 15.249 20.6303V22.7658H16.749V20.628C18.7673 20.3972 19.7462 19.2036 19.7462 17.6724C19.7462 15.5597 17.7885 15.097 16.249 14.7331L16.2184 14.7258C15.2225 14.4908 14.3842 14.2929 14.3842 13.6964C14.3842 13.1364 14.8602 12.7584 15.7142 12.7584C16.6662 12.7584 17.6742 13.0804 18.4302 13.7804L19.5362 12.3244C18.7954 11.6398 17.8568 11.2161 16.749 11.0749V9.2504H15.249V11.0617C13.4373 11.2887 12.3542 12.4694 12.3542 13.8644C12.3542 15.9638 14.2618 16.4008 15.7783 16.7482L15.8402 16.7624L15.9167 16.7813C16.9052 17.0245 17.7302 17.2276 17.7302 17.8964C17.7302 18.4284 17.1982 18.9324 16.1062 18.9324C14.8182 18.9324 13.7962 18.3584 13.1382 17.6724Z" fill="#3483FA"/>
<path d="M24.999 17.5004C25.8274 17.5004 26.499 16.8288 26.499 16.0004C26.499 15.172 25.8274 14.5004 24.999 14.5004C24.1706 14.5004 23.499 15.172 23.499 16.0004C23.499 16.8288 24.1706 17.5004 24.999 17.5004Z" fill="#3483FA"/>
<path d="M8.499 16.0004C8.499 16.8288 7.82743 17.5004 6.999 17.5004C6.17057 17.5004 5.499 16.8288 5.499 16.0004C5.499 15.172 6.17057 14.5004 6.999 14.5004C7.82743 14.5004 8.499 15.172 8.499 16.0004Z" fill="#3483FA"/>
<path fill-rule="evenodd" clip-rule="evenodd" d="M0.25 5.49707H31.749V26.5037H0.25V5.49707ZM1.75 6.99707V25.0037H30.249V6.99707H1.75Z" fill="#3483FA"/>
</svg>
