<svg width="32" height="25" viewBox="0 0 32 25" fill="none" xmlns="http://www.w3.org/2000/svg">
<g clip-path="url(#clip0_8585_72045)">
<rect y="0.548828" width="32" height="24" rx="4" fill="white"/>
<path d="M5.04693 10.3073C4.76105 9.24041 5.39422 8.14373 6.46115 7.85785L21.916 3.71675C22.9829 3.43086 24.0796 4.06403 24.3655 5.13096L26.9536 14.7902C27.2395 15.8571 26.6064 16.9538 25.5394 17.2397L10.0846 21.3808C9.01768 21.6667 7.92101 21.0335 7.63513 19.9666L5.04693 10.3073Z" fill="#F3CE13"/>
<path d="M19.5682 12.6228L19.3458 12.6824L19.268 12.9784L19.3808 12.9482L19.5682 12.6228Z" fill="#00559E"/>
<path d="M12.8861 15.2714L13.3258 15.1536L13.2939 15.0346L12.8542 15.1524L12.7872 14.9023L13.249 14.7786L13.2232 14.6567L12.6035 14.8228L12.8422 15.7135L13.465 15.5466L13.4403 15.4244L12.9615 15.5527L12.8861 15.2714Z" fill="#00559E"/>
<path d="M10.7342 15.4844C10.7792 15.4404 10.8394 15.408 10.9134 15.3882C10.9963 15.3659 11.0805 15.3635 11.1636 15.381L11.179 15.3842L11.2123 15.2586L11.1961 15.2548C11.1033 15.2328 10.997 15.2376 10.8799 15.269C10.8027 15.2897 10.7346 15.32 10.6772 15.3591C10.6195 15.3985 10.5741 15.4447 10.542 15.4965C10.5102 15.5481 10.4897 15.6059 10.4813 15.6682C10.473 15.7303 10.4777 15.7952 10.4954 15.8614C10.5137 15.9297 10.5414 15.9897 10.5777 16.0399C10.6142 16.0904 10.6591 16.131 10.7115 16.1607C10.764 16.1905 10.8255 16.2082 10.8946 16.2135C10.9632 16.2186 11.0376 16.2107 11.1162 16.1896C11.2355 16.1577 11.3269 16.1128 11.3877 16.0564L11.3969 16.0478L11.3388 15.94L11.3235 15.9516C11.2504 16.0071 11.1745 16.0457 11.0981 16.0662C11.0388 16.0821 10.9835 16.0877 10.9338 16.083C10.8847 16.0783 10.8415 16.0645 10.8057 16.042C10.7697 16.0191 10.7389 15.9892 10.7142 15.9528C10.6892 15.9161 10.6698 15.8723 10.6565 15.8226C10.6388 15.7564 10.636 15.6936 10.6485 15.6362C10.6608 15.5793 10.6896 15.5282 10.7342 15.4844Z" fill="#00559E"/>
<path d="M14.318 14.4757C14.2577 14.454 14.1898 14.4438 14.1161 14.445C14.0433 14.4462 13.9625 14.4585 13.876 14.4817L13.5762 14.562L13.8148 15.4527L14.1347 15.367C14.307 15.3209 14.4333 15.2461 14.5102 15.1445C14.588 15.0418 14.6077 14.9165 14.5691 14.7723C14.5489 14.6971 14.5172 14.6337 14.4748 14.584C14.4321 14.5341 14.3794 14.4976 14.318 14.4757ZM13.7598 14.6405L13.9045 14.6018C14.0417 14.565 14.1541 14.5633 14.2388 14.5966C14.3219 14.6293 14.3796 14.7038 14.4102 14.8181C14.4388 14.9251 14.4271 15.0156 14.3753 15.0871C14.3228 15.1596 14.23 15.2141 14.0996 15.249L13.9348 15.2932L13.7599 14.6405L13.7598 14.6405Z" fill="#00559E"/>
<path d="M13.1365 14.346L12.9142 14.4055L12.8364 14.7016L12.949 14.6714L13.1365 14.346Z" fill="#00559E"/>
<path d="M12.2244 15.4765C12.2065 15.4607 12.191 15.4474 12.1781 15.4365C12.1773 15.4358 12.1764 15.435 12.1756 15.4344C12.2263 15.4029 12.2632 15.364 12.2854 15.3186C12.3105 15.2669 12.3154 15.2116 12.2999 15.1537C12.2921 15.1248 12.2816 15.0993 12.2685 15.078C12.2554 15.0565 12.2401 15.0384 12.2232 15.0244C12.206 15.0103 12.1852 14.9996 12.1618 14.9924C12.1391 14.9856 12.1153 14.9814 12.091 14.9798C12.0667 14.9784 12.0389 14.9796 12.0084 14.9833C11.9786 14.9869 11.9482 14.9919 11.9179 14.9984C11.8877 15.0048 11.8534 15.0132 11.816 15.0232L11.4727 15.1152L11.714 16.0158L11.8682 15.9745L11.7606 15.5728L11.9294 15.5321C11.9713 15.5209 12.0086 15.51 12.0403 15.4998C12.0571 15.5153 12.0908 15.5502 12.1405 15.6035L12.3607 15.8426L12.5356 15.7958L12.2678 15.5177C12.2572 15.5063 12.2427 15.4926 12.2244 15.4765ZM12.1516 15.1953C12.1646 15.2439 12.1589 15.282 12.1343 15.3118C12.1086 15.3429 12.0527 15.37 11.9683 15.3927C11.936 15.4013 11.8902 15.4132 11.8307 15.4283C11.7846 15.4401 11.7506 15.4487 11.7288 15.4545L11.6593 15.1951L11.9176 15.1259C11.9919 15.106 12.0479 15.1023 12.0839 15.115C12.1183 15.1273 12.1404 15.1535 12.1516 15.1953Z" fill="#00559E"/>
<path d="M21.3038 12.4912L21.1523 12.5317L21.391 13.4225L21.5425 13.3819L21.3038 12.4912Z" fill="#00559E"/>
<path d="M19.2827 13.0309L19.1141 14.0326L19.2709 13.9906L19.3218 13.6848L19.7096 13.5809L19.9025 13.8213L20.0604 13.779L19.4259 12.9925L19.2827 13.0309ZM19.6268 13.4793L19.3445 13.5549L19.3967 13.1743C19.4346 13.2261 19.5118 13.3282 19.6268 13.4793Z" fill="#00559E"/>
<path d="M20.3867 12.898C20.4317 12.8539 20.4919 12.8215 20.5657 12.8017C20.6487 12.7795 20.7329 12.7771 20.8159 12.7946L20.8313 12.7978L20.8646 12.6722L20.8484 12.6684C20.7559 12.6463 20.6494 12.6511 20.5323 12.6825C20.455 12.7032 20.3869 12.7335 20.3296 12.7727C20.2718 12.8122 20.2264 12.8584 20.1945 12.9101C20.1624 12.9618 20.142 13.0196 20.1337 13.0817C20.1254 13.144 20.1301 13.209 20.1477 13.275C20.166 13.3432 20.1937 13.4033 20.2301 13.4535C20.2667 13.504 20.3117 13.5448 20.3638 13.5742C20.4162 13.6039 20.4777 13.6217 20.5468 13.627C20.6154 13.6321 20.69 13.6241 20.7685 13.6031C20.8878 13.5711 20.9791 13.5263 21.0399 13.4699L21.0489 13.4613L20.9912 13.3535L20.9757 13.3651C20.9025 13.4206 20.8266 13.4593 20.7501 13.4798C20.6909 13.4956 20.6355 13.5013 20.5858 13.4965C20.5365 13.4919 20.4934 13.4781 20.4578 13.4555C20.4217 13.4327 20.3909 13.4027 20.3662 13.3664C20.341 13.3294 20.3216 13.2856 20.3084 13.2361C20.2907 13.17 20.2881 13.1073 20.3006 13.0496C20.3131 12.9929 20.3418 12.9419 20.3867 12.898Z" fill="#00559E"/>
<path d="M22.0618 13.1134L21.8555 12.3434L21.7031 12.3843L21.9418 13.275L22.5401 13.1147L22.5132 12.9924L22.0618 13.1134Z" fill="#00559E"/>
<path d="M14.9543 14.1928L14.8027 14.2334L15.0414 15.1241L15.193 15.0835L14.9543 14.1928Z" fill="#00559E"/>
<path d="M18.3676 14.233L18.5191 14.1924L18.4164 13.8088L18.8395 13.6955L18.8082 13.5788L18.3851 13.6922L18.3127 13.4219L18.7556 13.3032L18.7302 13.1812L18.1289 13.3423L18.3676 14.233Z" fill="#00559E"/>
<path d="M15.2705 14.2369L15.5856 14.1525L15.792 14.923L15.9443 14.8822L15.7378 14.1117L16.0529 14.0272L16.0207 13.907L15.2383 14.1167L15.2705 14.2369Z" fill="#00559E"/>
<path d="M16.7412 13.6978C16.584 13.7399 16.4707 13.8147 16.4045 13.9203C16.3382 14.026 16.3237 14.1514 16.3616 14.2927C16.386 14.384 16.4269 14.4598 16.483 14.5176C16.5395 14.576 16.612 14.6147 16.6984 14.6326C16.784 14.6502 16.881 14.6449 16.9865 14.6166C17.0645 14.5957 17.133 14.5654 17.1901 14.5266C17.2473 14.4874 17.2922 14.4415 17.3233 14.3898C17.3543 14.3385 17.3736 14.2808 17.3808 14.2187C17.388 14.157 17.3826 14.0917 17.3645 14.0244C17.3269 13.884 17.2517 13.7827 17.141 13.7238C17.0305 13.665 16.896 13.6563 16.7412 13.6978ZM16.7732 13.8174C16.8849 13.7874 16.9784 13.7944 17.051 13.838C17.1238 13.8817 17.1756 13.959 17.2047 14.0674C17.2332 14.1737 17.2268 14.2653 17.1861 14.3399C17.1455 14.4142 17.0676 14.4673 16.9546 14.4976C16.8414 14.5279 16.7471 14.5209 16.6742 14.4767C16.6008 14.4324 16.5493 14.3563 16.5209 14.2506C16.4919 14.1422 16.4986 14.0495 16.5411 13.9748C16.5832 13.9003 16.6613 13.8473 16.7732 13.8174Z" fill="#00559E"/>
<path fill-rule="evenodd" clip-rule="evenodd" d="M7.77306 12.0468C7.89231 11.93 8.04912 11.8456 8.24363 11.7935C8.4603 11.7354 8.67712 11.7292 8.89404 11.7748L8.95743 11.5363C8.72952 11.4822 8.47066 11.494 8.18055 11.5717C7.98945 11.6229 7.82336 11.6968 7.68192 11.7933C7.54041 11.8899 7.43077 12.0012 7.35288 12.1274C7.27498 12.2536 7.22563 12.3928 7.2053 12.5448C7.18487 12.6969 7.19645 12.8541 7.23993 13.0163C7.28498 13.1845 7.35209 13.3302 7.44123 13.4534C7.53047 13.5766 7.6388 13.6744 7.76609 13.7466C7.89341 13.8189 8.04155 13.8613 8.21037 13.8743C8.3792 13.8872 8.56091 13.8676 8.75542 13.8155C9.05124 13.7362 9.27364 13.6273 9.42257 13.4889L9.31416 13.2869C9.12441 13.4311 8.92983 13.5298 8.7307 13.5832C8.57582 13.6247 8.43272 13.6391 8.30134 13.6267C8.17007 13.6143 8.05629 13.5777 7.96026 13.517C7.86411 13.4563 7.78299 13.3775 7.7171 13.2804C7.6511 13.1834 7.60057 13.0698 7.56576 12.9399C7.51912 12.7659 7.51231 12.6028 7.54523 12.4504C7.57808 12.2981 7.65404 12.1635 7.77306 12.0468ZM11.8448 12.2772C11.8623 12.1259 11.8491 11.9677 11.8048 11.8025C11.7124 11.4575 11.5309 11.213 11.2609 11.0689C10.9907 10.925 10.6646 10.9043 10.2827 11.0066C9.89474 11.1106 9.61982 11.2915 9.45804 11.5496C9.29625 11.8077 9.26194 12.1102 9.35491 12.4572C9.41517 12.6821 9.51374 12.8653 9.65107 13.0071C9.78833 13.149 9.96218 13.2417 10.1732 13.2852C10.3839 13.3288 10.6197 13.3157 10.8806 13.2458C11.074 13.194 11.2409 13.1202 11.3812 13.0244C11.5217 12.9287 11.6296 12.8181 11.7052 12.6926C11.7808 12.5671 11.8273 12.4286 11.8448 12.2772ZM10.0814 12.9674C9.88621 12.8494 9.75125 12.6511 9.67664 12.3727C9.60018 12.0873 9.61823 11.8453 9.73104 11.6464C9.84386 11.4475 10.0476 11.3086 10.3423 11.2296C10.6369 11.1507 10.8814 11.1695 11.0755 11.2862C11.2697 11.4028 11.405 11.6038 11.4815 11.8892C11.5564 12.1687 11.5396 12.4078 11.4313 12.6066C11.3227 12.8053 11.1194 12.9446 10.8213 13.0245C10.5232 13.1044 10.2765 13.0854 10.0814 12.9674ZM14.1858 12.0271C14.3748 11.7775 14.422 11.4763 14.3275 11.1234C14.278 10.9387 14.2014 10.7855 14.0977 10.6641C13.994 10.5425 13.868 10.4553 13.7195 10.4024C13.5712 10.3495 13.4062 10.3245 13.2249 10.3276C13.0432 10.3306 12.8449 10.361 12.6294 10.4187L11.913 10.6107L12.494 12.779L13.261 12.5735C13.6885 12.459 13.9967 12.2768 14.1858 12.0271ZM13.5495 10.631C13.7728 10.7189 13.9251 10.9143 14.0062 11.2173C14.0822 11.5007 14.0506 11.7383 13.9116 11.9301C13.7725 12.1218 13.5331 12.2633 13.1929 12.3545L12.7369 12.4767L12.2745 10.7511L12.68 10.6425C13.0364 10.547 13.3262 10.5432 13.5495 10.631ZM14.497 9.91832L15.078 12.0866L16.7446 11.6401L16.6845 11.4157L15.3201 11.7813L15.1088 10.9925L16.2183 10.6953L16.1589 10.4739L15.0495 10.7712L14.8593 10.0616L16.2236 9.69607L16.1635 9.47178L14.497 9.91832ZM19.0564 11.0206L19.4275 10.9212L18.8465 8.75288L18.5416 8.83456L18.881 10.1011C18.8941 10.1499 18.9468 10.3291 19.0392 10.6386L18.9155 10.5633L17.0003 9.24756L16.6349 9.34548L17.2159 11.5138L17.5226 11.4316L17.1856 10.1737C17.1424 10.0124 17.0882 9.83047 17.023 9.62802L17.1449 9.70381L19.0564 11.0206ZM20.7213 10.3702C20.4138 10.4526 20.1106 10.4742 19.8117 10.4348L19.7773 10.6704C19.8847 10.6941 20.024 10.702 20.1947 10.6945C20.3657 10.6869 20.5547 10.6553 20.7621 10.5998C21.0393 10.5255 21.2436 10.4109 21.375 10.2557C21.5063 10.1005 21.5424 9.91262 21.4831 9.69165C21.4376 9.52162 21.3483 9.4049 21.2152 9.34158C21.0821 9.27826 20.9051 9.25364 20.6842 9.26781L20.1665 9.29967C20.0301 9.30789 19.923 9.29557 19.8448 9.26256C19.7667 9.22943 19.7165 9.17146 19.6942 9.08836C19.6285 8.84307 19.8064 8.6639 20.2281 8.5509C20.3597 8.51564 20.4937 8.49492 20.63 8.48877C20.7662 8.48265 20.8783 8.48709 20.9661 8.50233L20.998 8.27224C20.8932 8.24906 20.7688 8.24146 20.6249 8.24965C20.4811 8.25782 20.3312 8.28278 20.175 8.32463C19.8769 8.40452 19.6568 8.51723 19.5147 8.66258C19.3727 8.80801 19.3293 8.98388 19.3846 9.19008C19.4566 9.45889 19.7 9.58214 20.1147 9.56009L20.6574 9.531C20.8247 9.52182 20.9463 9.53814 21.0218 9.58025C21.0974 9.62236 21.1478 9.69029 21.1729 9.78415C21.2504 10.0734 21.0998 10.2688 20.7213 10.3702ZM23.317 9.14199L23.8037 9.74859L24.1148 9.66523L22.5698 7.75048L22.2606 7.83334L21.8504 10.272L22.1578 10.1896L22.2863 9.41817L23.317 9.14199ZM22.4846 8.05464C22.53 8.12204 22.756 8.42241 23.1624 8.95564L22.3307 9.17849L22.4846 8.05464ZM7.34992 15.0358L24.7366 10.377L24.7791 10.5357L7.39244 15.1945L7.34992 15.0358Z" fill="black"/>
</g>
<rect x="0.5" y="1.04883" width="31" height="23" rx="3.5" stroke="#E5E5E5"/>
<defs>
<clipPath id="clip0_8585_72045">
<rect y="0.548828" width="32" height="24" rx="4" fill="white"/>
</clipPath>
</defs>
</svg>
