<svg width="16" height="16" viewBox="0 0 16 16" fill="none" xmlns="http://www.w3.org/2000/svg">
<g clip-path="url(#clip0_14011_2200)">
<path d="M0.733333 8.00065V8.60065H1.93333V8.00065H0.733333ZM0.5 10.0673H-0.1V11.2673H0.5V10.0673ZM2.5 12.0673H1.9V13.2673H2.5V12.0673ZM4.5 14.0673H3.9V15.2673H4.5V14.0673ZM8.02346 5.33398V4.73398V5.33398ZM7.87573 7.86054L8.0305 7.28083L8.02633 7.27975L7.87573 7.86054ZM8.04105 7.90485L8.19963 7.32618L8.19779 7.32568L8.04105 7.90485ZM8.1502 7.93476L8.311 7.35671L8.30878 7.3561L8.1502 7.93476ZM7.96017 10.6673L7.95883 11.2673L7.96017 10.6673ZM14.0667 8.00065C14.0667 11.3512 11.3505 14.0673 8 14.0673V15.2673C12.0133 15.2673 15.2667 12.0139 15.2667 8.00065H14.0667ZM1.93333 8.00065C1.93333 4.65012 4.64947 1.93398 8 1.93398V0.733984C3.98673 0.733984 0.733333 3.98738 0.733333 8.00065H1.93333ZM8 1.93398C11.3505 1.93398 14.0667 4.65012 14.0667 8.00065H15.2667C15.2667 3.98738 12.0133 0.733984 8 0.733984V1.93398ZM3.33333 10.0673H0.5V11.2673H3.33333V10.0673ZM5.33333 12.0673H2.5V13.2673H5.33333V12.0673ZM6.66667 14.0673H4.5V15.2673H6.66667V14.0673ZM10.3729 5.58569C10.092 5.36281 9.78412 5.14132 9.3982 4.98172C9.00669 4.81982 8.56629 4.73398 8.02346 4.73398V5.93398C8.43308 5.93398 8.71428 5.99746 8.93961 6.09064C9.17052 6.18613 9.37469 6.32552 9.62708 6.52576L10.3729 5.58569ZM8.02346 4.73398C7.47706 4.73398 6.93479 4.84447 6.50933 5.12479C6.05723 5.42266 5.76975 5.89547 5.76975 6.49405H6.96975C6.96975 6.32411 7.0329 6.21688 7.16955 6.12685C7.33282 6.01927 7.61741 5.93398 8.02346 5.93398V4.73398ZM5.76975 6.49405C5.76975 7.09497 6.01161 7.55415 6.4241 7.87712C6.79546 8.1679 7.27711 8.32516 7.72513 8.44133L8.02633 7.27975C7.5977 7.16861 7.32636 7.0595 7.16389 6.93229C7.04256 6.83729 6.96975 6.72687 6.96975 6.49405H5.76975ZM7.72097 8.44024C7.77667 8.45511 7.83069 8.46951 7.88431 8.48402L8.19779 7.32568C8.14172 7.31051 8.08537 7.29549 8.03049 7.28084L7.72097 8.44024ZM7.88247 8.48351L7.99162 8.51343L8.30878 7.3561L8.19963 7.32619L7.88247 8.48351ZM7.9894 8.51281C8.35412 8.61427 8.68275 8.71436 8.92197 8.86197C9.13796 8.99525 9.19473 9.109 9.19473 9.2485H10.3947C10.3947 8.55099 9.98202 8.10602 9.55213 7.84075C9.14547 7.58981 8.65183 7.45153 8.311 7.35671L7.9894 8.51281ZM9.19473 9.2485C9.19473 9.52045 9.10712 9.69378 8.96563 9.81132C8.80891 9.94153 8.50621 10.0685 7.96152 10.0673L7.95883 11.2673C8.67173 11.2689 9.28631 11.105 9.73246 10.7343C10.1939 10.351 10.3947 9.81355 10.3947 9.2485H9.19473ZM7.96152 10.0673C7.23177 10.0657 6.88223 9.78082 6.35989 9.38925L5.64011 10.3494C6.15276 10.7337 6.79076 11.2647 7.95883 11.2673L7.96152 10.0673ZM7.4 4.00063V5.33398H8.6V4.00063H7.4ZM7.4 10.6673V12.0007H8.6V10.6673H7.4Z" fill="black"/>
</g>
<defs>
<clipPath id="clip0_14011_2200">
<rect width="16" height="16" fill="white"/>
</clipPath>
</defs>
</svg>
