<svg width="32" height="25" viewBox="0 0 32 25" fill="none" xmlns="http://www.w3.org/2000/svg">
<g clip-path="url(#clip0_8585_72032)">
<rect y="0.548828" width="32" height="24" rx="4" fill="white"/>
<rect x="4" y="6.54883" width="24" height="12" rx="1" fill="#0D42FB"/>
<path d="M11.1352 12.5061C11.035 12.4861 10.9547 12.4861 10.8725 12.4861C10.4092 12.4861 10.0061 12.7067 10.0061 13.4327V14.9429H9.09961V11.6197H9.966V12.103C10.1666 11.6598 10.6298 11.5796 10.9126 11.5796C10.9928 11.5796 11.053 11.5796 11.1132 11.5996V12.5061H11.1352Z" fill="white"/>
<path d="M14.4982 13.9758C14.3378 14.5394 13.8144 15.0227 12.9881 15.0227C12.0816 15.0227 11.2773 14.3789 11.2773 13.2518C11.2773 12.1849 12.0635 11.501 12.9078 11.501C13.9347 11.501 14.5384 12.1448 14.5384 13.2117C14.5384 13.332 14.5183 13.4744 14.5183 13.4945H12.1618C12.1818 13.9377 12.5448 14.2606 13.0081 14.2606C13.4313 14.2606 13.6519 14.06 13.7742 13.7572L14.4982 13.9758ZM13.672 12.9089C13.6519 12.586 13.4513 12.2651 12.9279 12.2651C12.4646 12.2651 12.2039 12.608 12.1838 12.9089H13.672Z" fill="white"/>
<path d="M18.1031 14.3386C18.1031 14.5592 18.1232 14.8019 18.1232 14.9423H17.2568C17.2367 14.8821 17.2167 14.7217 17.2167 14.5592C17.0763 14.822 16.7334 15.0225 16.2901 15.0225C15.3435 15.0225 14.6797 14.2785 14.6797 13.2717C14.6797 12.305 15.3235 11.5409 16.2701 11.5409C16.8336 11.5409 17.1164 11.7816 17.2167 11.944V10.0508H18.1031C18.1031 10.0488 18.1031 14.3386 18.1031 14.3386ZM16.4325 14.2183C16.8958 14.2183 17.2588 13.8753 17.2588 13.2717C17.2588 12.6881 16.8958 12.3451 16.4325 12.3451C15.9692 12.3451 15.6062 12.6881 15.6062 13.2717C15.6062 13.8553 15.9492 14.2183 16.4325 14.2183Z" fill="white"/>
<path d="M18.9684 11.7213C19.2713 11.7213 19.5119 11.4807 19.5119 11.1778C19.5119 10.875 19.2713 10.6143 18.9684 10.6143C18.6656 10.6143 18.4249 10.8549 18.4249 11.1778C18.4049 11.4586 18.6656 11.7213 18.9684 11.7213Z" fill="white"/>
<path d="M18.5254 12.3451V14.479V14.9423H19.4118V14.479V12.3451V11.8818H18.5254V12.3451Z" fill="white"/>
<path d="M25.2697 13.9758C25.1093 14.5394 24.5858 15.0227 23.7596 15.0227C22.853 15.0227 22.0488 14.3789 22.0488 13.2518C22.0488 12.1849 22.835 11.501 23.6793 11.501C24.7062 11.501 25.3098 12.1448 25.3098 13.2117C25.3098 13.332 25.2898 13.4744 25.2898 13.4945H22.9353C22.9553 13.9377 23.3183 14.2606 23.7816 14.2606C24.2048 14.2606 24.4254 14.06 24.5477 13.7572L25.2697 13.9758ZM24.4454 12.9089C24.4254 12.586 24.2248 12.2651 23.7014 12.2651C23.2381 12.2651 22.9774 12.608 22.9573 12.9089H24.4454Z" fill="white"/>
<path d="M25.5938 14.9423V10.0488H26.5003V14.9223H25.5938V14.9423Z" fill="white"/>
<path d="M21.787 12.6679V11.8617H21.1432V11.599V10.6323H21.1031H20.2969H20.2367V11.3583V11.8818H19.7734V12.688H20.2367C20.2367 12.8083 20.2367 12.9287 20.2367 13.051C20.2367 13.2917 20.2367 13.5343 20.2367 13.7549C20.2367 13.8552 20.2367 13.9555 20.2367 14.0578C20.2367 14.0979 20.2367 14.138 20.2367 14.1781C20.2367 14.2784 20.2568 14.3586 20.2969 14.4609C20.4172 14.7437 20.6799 14.9242 20.9808 14.9843C21.0209 14.9843 21.081 15.0044 21.1412 15.0044C21.1813 15.0044 21.2214 15.0044 21.2615 15.0044C21.5243 15.0044 21.6847 14.9643 21.7649 14.9242V14.1581C21.7248 14.1781 21.6045 14.1781 21.4822 14.1781C21.3819 14.1781 21.2816 14.1581 21.1994 14.0979C21.1392 14.0377 21.1192 13.9575 21.1192 13.8773C21.1192 13.757 21.1192 13.6366 21.1192 13.5343C21.1192 13.4742 21.1192 12.6479 21.1192 12.6479C21.1432 12.6679 21.787 12.6679 21.787 12.6679Z" fill="white"/>
<path d="M8.035 13.6533C7.95478 13.916 7.73217 14.2169 7.26889 14.2169C6.80561 14.2169 6.42255 13.8739 6.42255 13.2703C6.42255 12.6666 6.80561 12.3437 7.26889 12.3437C7.71211 12.3437 7.93272 12.6265 8.01294 12.9073L8.81917 12.6445C8.79911 12.5844 8.77906 12.5242 8.759 12.464C8.45817 11.9426 7.89461 11.5796 7.23078 11.5796C6.52684 11.5796 5.92116 12.0028 5.64039 12.5864C5.56017 12.807 5.5 13.0296 5.5 13.2903C5.5 13.9541 5.82289 14.4976 6.32628 14.8005C6.34634 14.8205 6.36639 14.8205 6.38645 14.8406C6.62711 14.981 6.90989 15.0411 7.21273 15.0411C7.87656 15.0411 8.44012 14.6781 8.74296 14.1346C8.78307 14.0745 8.80312 13.9943 8.82318 13.914L8.035 13.6533Z" fill="#F5D912"/>
</g>
<rect x="0.5" y="1.04883" width="31" height="23" rx="3.5" stroke="#E5E5E5"/>
<defs>
<clipPath id="clip0_8585_72032">
<rect y="0.548828" width="32" height="24" rx="4" fill="white"/>
</clipPath>
</defs>
</svg>
