<svg width="32" height="25" viewBox="0 0 32 25" fill="none" xmlns="http://www.w3.org/2000/svg">
<g clip-path="url(#clip0_8585_72056)">
<rect y="0.548828" width="32" height="24" rx="4" fill="white"/>
<path d="M17.545 19.5487C21.4426 19.5671 25 16.4282 25 12.6096C25 8.43381 21.4426 5.54744 17.545 5.54883H14.1907C10.2465 5.54744 7 8.43467 7 12.6096C7 16.429 10.2465 19.5671 14.1907 19.5487H17.545Z" fill="#0079BE"/>
<path d="M14.2072 6.12744C10.603 6.12855 7.68249 8.99659 7.68164 12.5363C7.68249 16.0754 10.603 18.9432 14.2072 18.9443C17.8121 18.9432 20.7333 16.0754 20.7338 12.5363C20.7332 8.99659 17.8121 6.12855 14.2072 6.12744ZM10.0708 12.5363C10.0742 10.8066 11.1746 9.33162 12.7262 8.74548V16.3263C11.1746 15.7405 10.0742 14.2663 10.0708 12.5363ZM15.6875 16.3279V8.74523C17.2397 9.32995 18.3418 10.8058 18.3446 12.5363C18.3418 14.2674 17.2397 15.7421 15.6875 16.3279Z" fill="white"/>
</g>
<rect x="0.5" y="1.04883" width="31" height="23" rx="3.5" stroke="#E5E5E5"/>
<defs>
<clipPath id="clip0_8585_72056">
<rect y="0.548828" width="32" height="24" rx="4" fill="white"/>
</clipPath>
</defs>
</svg>
