<svg width="32" height="25" viewBox="0 0 32 25" fill="none" xmlns="http://www.w3.org/2000/svg">
<g clip-path="url(#clip0_8585_72043)">
<rect y="0.548828" width="32" height="24" rx="4" fill="white"/>
<path d="M16 22.5488C21.5228 22.5488 26 18.0717 26 12.5488C26 7.02598 21.5228 2.54883 16 2.54883C10.4772 2.54883 6 7.02598 6 12.5488C6 18.0717 10.4772 22.5488 16 22.5488Z" fill="#F9D94A"/>
<path fill-rule="evenodd" clip-rule="evenodd" d="M17.491 4.54883C21.8253 4.54883 24.6798 8.12523 23.8594 12.5488C23.0391 16.9724 18.8545 20.5488 14.5146 20.5488C10.1747 20.5488 7.32023 16.9724 8.14054 12.5488C8.9664 8.13092 13.1455 4.54883 17.491 4.54883ZM19.5584 5.58934C22.2465 6.55594 23.804 9.30789 23.1999 12.5488C22.496 16.3299 19.1094 19.4458 15.4291 19.8381C15.1353 19.8267 15.1298 19.6618 15.1243 19.406C15.1409 18.8829 15.1575 18.3541 15.1686 17.831C15.1741 17.7514 15.1464 17.7286 15.1132 17.7173C14.7363 17.6775 14.3649 17.5922 13.9936 17.4728C13.5945 17.3136 13.1954 17.0805 12.7964 16.8132C12.6134 16.7222 12.6356 16.2844 12.6412 16.1139C12.6744 15.8011 12.8961 15.0847 13.2564 15.0506C13.6832 15.0279 13.8883 15.261 14.315 15.4714C15.0633 15.8353 16.1053 16.0456 16.8757 15.676C17.2471 15.4429 17.3358 15.1302 17.1639 14.7322C16.8591 14.084 15.4125 13.5495 14.7584 13.2254C13.1843 12.5375 12.3086 11.1444 12.5857 9.48415C12.7908 8.26169 13.9104 7.32921 15.0799 7.15864V6.58436C13.6333 7.01649 12.5359 7.86937 11.5493 8.85871C10.1193 10.2915 9.27678 12.1053 9.21027 14.4195C9.32112 17.251 10.7567 18.5076 12.2587 19.4458C9.6814 18.4223 8.20706 15.7215 8.80012 12.5488C9.52066 8.66539 13.0735 5.48699 16.8702 5.23113C17.0198 5.3221 17.0309 5.33916 17.1085 5.54385C17.0753 6.03284 17.0476 6.52182 17.0143 7.0108C17.7626 7.16432 18.472 7.38607 19.0429 7.88074C19.0595 9.00654 18.2392 9.47278 17.9288 9.3022C17.9455 9.25103 16.6928 8.89282 16.4323 8.83028C16.1164 8.77911 15.806 8.79616 15.4901 8.94399C15.1243 9.12026 14.9469 9.38749 15.1243 9.80824C15.2739 10.121 15.5233 10.32 15.8005 10.4962C16.5875 10.934 17.3746 11.3719 18.1672 11.8097C18.8489 12.202 19.3311 12.708 19.647 13.3278C19.8743 13.9362 19.9242 14.5559 19.7912 15.1871C19.636 15.6988 19.4475 16.148 19.1593 16.4266C18.921 16.7052 18.6549 16.9269 18.3722 17.0805C17.9732 17.2965 17.5686 17.4898 17.1529 17.5581C17.1418 17.8196 17.1307 18.0755 17.1141 18.337C17.1473 18.3541 17.1806 18.3484 17.2194 18.337C18.1117 18.0414 18.8933 17.524 19.6581 16.9554C20.6503 16.057 21.5759 15.1188 22.0581 13.9077C22.3907 13.2311 22.6456 12.4806 22.7676 11.5993C23.0336 9.13163 22.1579 6.80611 19.5584 5.58934Z" fill="black"/>
</g>
<rect x="0.5" y="1.04883" width="31" height="23" rx="3.5" stroke="#E5E5E5"/>
<defs>
<clipPath id="clip0_8585_72043">
<rect y="0.548828" width="32" height="24" rx="4" fill="white"/>
</clipPath>
</defs>
</svg>
