<svg width="32" height="24" viewBox="0 0 32 24" fill="none" xmlns="http://www.w3.org/2000/svg">
<rect x="0.5" y="0.5" width="31" height="23" rx="3.5" fill="white"/>
<rect x="0.5" y="0.5" width="31" height="23" rx="3.5" stroke="#E5E5E5"/>
<path d="M14.5727 7.53349C15.0475 7.37677 15.554 7.29319 16.0794 7.29319C18.3796 7.29319 20.2999 8.91053 20.7388 11.0607L23.9992 10.4025C23.2521 6.7499 19.9897 4 16.0794 4C15.1826 4 14.3237 4.14418 13.5176 4.41165L14.5727 7.53349Z" fill="#FFCB05"/>
<path d="M10.7264 17.9938L12.9316 15.526C11.9483 14.663 11.3279 13.403 11.3279 11.9988C11.3279 10.5967 11.9483 9.33666 12.9316 8.47575L10.7264 6.00586C9.05512 7.47275 8 9.61457 8 11.9988C8 14.3851 9.05512 16.5269 10.7264 17.9938Z" fill="#00A4E0"/>
<path d="M20.7388 12.9434C20.2978 15.0915 18.3796 16.7067 16.0815 16.7067C15.554 16.7067 15.0454 16.6231 14.5727 16.4643L13.5176 19.5903C14.3237 19.8557 15.1847 19.9999 16.0815 19.9999C19.9876 19.9999 23.2479 17.2542 23.9992 13.6058L20.7388 12.9434Z" fill="#EF4123"/>
</svg>
