<svg width="273" height="24" viewBox="0 0 273 24" fill="none" xmlns="http://www.w3.org/2000/svg">
<rect x="1.26953" y="0.5" width="31" height="23" rx="3.5" fill="white"/>
<rect x="1.26953" y="0.5" width="31" height="23" rx="3.5" stroke="#E5E5E5"/>
<path fill-rule="evenodd" clip-rule="evenodd" d="M11.2697 15.2897H9.36577L7.93805 9.31627C7.87028 9.04149 7.72639 8.79857 7.51474 8.68408C6.98654 8.39636 6.40449 8.16738 5.76953 8.05189V7.82191H8.83664C9.25995 7.82191 9.57743 8.16738 9.63034 8.56859L10.3711 12.8774L12.2741 7.82191H14.1252L11.2697 15.2897ZM15.1839 15.2897H13.3857L14.8664 7.82191H16.6645L15.1839 15.2897ZM18.9908 9.89094C19.0437 9.48873 19.3612 9.25875 19.7316 9.25875C20.3136 9.20101 20.9476 9.31649 21.4768 9.60322L21.7942 7.99537C21.2651 7.76539 20.6831 7.6499 20.1549 7.6499C18.4097 7.6499 17.1397 8.6843 17.1397 10.1199C17.1397 11.2121 18.0393 11.7855 18.6742 12.131C19.3612 12.4754 19.6257 12.7054 19.5728 13.0499C19.5728 13.5666 19.0437 13.7966 18.5155 13.7966C17.8805 13.7966 17.2456 13.6243 16.6644 13.3366L16.347 14.9455C16.9819 15.2322 17.6689 15.3477 18.3038 15.3477C20.2607 15.4044 21.4768 14.371 21.4768 12.8199C21.4768 10.8666 18.9908 10.7521 18.9908 9.89094ZM27.7695 15.2897L26.3417 7.82191H24.8082C24.4907 7.82191 24.1732 8.05189 24.0674 8.39636L21.4236 15.2897H23.2746L23.6441 14.1986H25.9184L26.1301 15.2897H27.7695ZM25.0728 9.83307L25.601 12.6476H24.1204L25.0728 9.83307Z" fill="#1434CB"/>
<rect x="41.2695" y="0.5" width="31" height="23" rx="3.5" fill="white"/>
<rect x="41.2695" y="0.5" width="31" height="23" rx="3.5" stroke="#E5E5E5"/>
<ellipse cx="52.9373" cy="12" rx="6.16777" ry="6" fill="#EA001B"/>
<ellipse cx="60.6014" cy="12" rx="6.16777" ry="6" fill="#F79F1A"/>
<path fill-rule="evenodd" clip-rule="evenodd" d="M56.7693 16.7023C58.1925 15.6032 59.1051 13.9056 59.1051 12.0006C59.1051 10.0956 58.1925 8.39794 56.7693 7.29883C55.3462 8.39794 54.4336 10.0956 54.4336 12.0006C54.4336 13.9056 55.3462 15.6032 56.7693 16.7023Z" fill="#FF5F01"/>
<rect x="81.2695" y="0.5" width="31" height="23" rx="3.5" fill="white"/>
<rect x="81.2695" y="0.5" width="31" height="23" rx="3.5" stroke="#E5E5E5"/>
<path fill-rule="evenodd" clip-rule="evenodd" d="M94.0929 4H90.4802L86.7695 12.4659H89.782V19.9801L99.0743 19.9998L100.534 18.363L102.004 19.9932H104.77V17.6057L103.037 15.7274L104.77 13.8662V11.5273L104.769 11.5273V4H101.363L100.591 6.17095L99.8221 4H95.362V6.89679L94.0929 4Z" fill="white"/>
<path fill-rule="evenodd" clip-rule="evenodd" d="M96.3776 11.5197L96.3783 11.5214H94.3285L93.7788 10.1996H90.798L90.2483 11.5214H88.248L91.1636 4.92055H93.4746L96.3497 11.4562V4.91895L99.1607 4.92945L100.607 8.98653L102.063 4.91895H104.769V11.5197L103.028 11.5355V7.00065L101.384 11.5197H99.7953L98.1175 6.98621V11.5197H96.3776ZM91.4143 8.71775L92.289 6.61636L93.1625 8.71775H91.4143ZM90.781 12.4463V19.0523H96.325H96.3535H98.6465L100.545 16.9378L102.462 19.0523H104.769V18.9578L101.751 15.7447L104.769 12.4988V12.4463H102.485L100.596 14.5398L98.7118 12.4463H96.3535H96.325H90.781ZM96.3535 12.4767V13.9675H92.5854V15.0005H96.2634V16.4968H92.5854V17.5114H96.3535V19.0218L99.409 15.7447L96.3535 12.4767Z" fill="#016FD0"/>
<rect x="121.27" y="0.5" width="31" height="23" rx="3.5" fill="white"/>
<rect x="121.27" y="0.5" width="31" height="23" rx="3.5" stroke="#E5E5E5"/>
<path d="M143.02 11.868L139.707 6.72265C139.633 6.60721 139.507 6.53833 139.369 6.53833H137.162C137.093 6.53833 137.03 6.5758 136.998 6.63598C136.965 6.69653 136.967 6.76958 137.005 6.82749L140.458 12.1909C140.465 12.2022 140.465 12.2166 140.458 12.228L137.005 17.5758C136.967 17.6337 136.965 17.7068 136.998 17.7673C137.03 17.8279 137.094 17.8653 137.163 17.8653H139.371C139.508 17.8653 139.634 17.7965 139.708 17.6814L143.02 12.5523C143.154 12.3441 143.154 12.0758 143.02 11.868Z" fill="#FE5000"/>
<path d="M143.7 12.9153C143.665 12.8615 143.606 12.8293 143.542 12.8293C143.478 12.8293 143.419 12.8615 143.385 12.9153L142.475 14.3232C142.282 14.6229 142.282 15.0101 142.476 15.3095L144.026 17.703C144.091 17.804 144.202 17.8646 144.323 17.8646H146.609C146.668 17.8646 146.722 17.8328 146.75 17.7817C146.778 17.7306 146.775 17.6682 146.743 17.619L143.7 12.9153Z" fill="#50007F"/>
<path d="M143.385 11.4877C143.42 11.5414 143.479 11.5736 143.543 11.5736C143.607 11.5736 143.666 11.5414 143.7 11.4877L146.743 6.78361C146.775 6.7344 146.777 6.67233 146.749 6.62086C146.721 6.56939 146.668 6.5376 146.609 6.5376H144.323C144.202 6.5376 144.091 6.59815 144.026 6.69921L142.476 9.09269C142.282 9.39206 142.281 9.77924 142.475 10.079L143.385 11.4877Z" fill="#50007F"/>
<path d="M136.074 6.53418H134.14C134.036 6.53418 133.953 6.6182 133.953 6.72153V13.5992C133.949 13.7127 133.891 13.7468 133.826 13.6363L129.36 6.70487C129.291 6.59852 129.174 6.53418 129.047 6.53418H126.959C126.848 6.53418 126.77 6.62464 126.77 6.7238V17.6803C126.77 17.7897 126.859 17.8699 126.959 17.8699H128.893C128.997 17.8699 129.081 17.7859 129.081 17.6826V10.8049C129.084 10.6914 129.142 10.6573 129.207 10.7678L133.673 17.6992C133.742 17.8056 133.86 17.8699 133.986 17.8699H136.074C136.185 17.8699 136.264 17.7794 136.264 17.6803V6.7238C136.264 6.61442 136.174 6.53418 136.074 6.53418Z" fill="#FE5000"/>
<rect x="161.27" y="0.5" width="31" height="23" rx="3.5" fill="white"/>
<rect x="161.27" y="0.5" width="31" height="23" rx="3.5" stroke="#E5E5E5"/>
<path d="M186.579 15.6304V15.3904H186.519L186.449 15.5504L186.379 15.3904H186.319V15.6304H186.359V15.4504L186.429 15.6104H186.479L186.549 15.4504V15.6304H186.579ZM186.179 15.6304V15.4304H186.259V15.3904H186.059V15.4304H186.139V15.6304H186.179Z" fill="#00A2E5"/>
<path d="M179.469 16.6604H174.059V6.94043H179.469V16.6604Z" fill="#7375CF"/>
<path d="M174.41 11.8001C174.41 9.83012 175.33 8.07012 176.77 6.94012C175.72 6.11012 174.39 5.62012 172.95 5.62012C169.54 5.62012 166.77 8.39012 166.77 11.8001C166.77 15.2101 169.54 17.9801 172.95 17.9801C174.39 17.9801 175.72 17.4901 176.77 16.6601C175.33 15.5301 174.41 13.7701 174.41 11.8001Z" fill="#EB001B"/>
<path d="M186.77 11.8004C186.77 15.2104 184 17.9804 180.59 17.9804C179.15 17.9804 177.82 17.4904 176.77 16.6604C178.21 15.5304 179.13 13.7704 179.13 11.8004C179.13 9.83036 178.21 8.07036 176.77 6.94036C177.82 6.11036 179.15 5.62036 180.59 5.62036C184 5.62036 186.77 8.39036 186.77 11.8004Z" fill="#00A2E5"/>
<rect x="201.27" y="0.5" width="31" height="23" rx="3.5" fill="white"/>
<rect x="201.27" y="0.5" width="31" height="23" rx="3.5" stroke="#E5E5E5"/>
<path d="M217.693 3L225.636 11.1731C226.08 11.6241 226.08 12.3759 225.636 12.8269L217.706 21V16.4351L221.436 12.5809C221.749 12.2665 221.749 11.7472 221.436 11.4191L217.706 7.55125V3H217.693ZM215.232 7.55125L211.501 11.4191C211.188 11.7335 211.188 12.2528 211.501 12.5809L215.232 16.4351V21L207.301 12.8269C206.858 12.3759 206.858 11.6241 207.301 11.1731L215.245 3V7.55125H215.232Z" fill="#00609C"/>
<rect x="241.27" y="0.5" width="31" height="23" rx="3.5" fill="white"/>
<rect x="241.27" y="0.5" width="31" height="23" rx="3.5" stroke="#E5E5E5"/>
<path d="M263.098 14.3492L263.807 13.8583V11.0044L263.098 10.7487V9.13795C263.098 8.64434 262.901 8.17095 262.552 7.82192C262.396 7.66587 261.236 7.2768 261.236 7.2768C261.236 7.2768 259.375 4.30141 258.252 4.32905C257.128 4.35669 253.442 7.2768 253.442 7.2768H251.558C251.065 7.2768 250.591 7.47288 250.242 7.82192C249.893 8.17095 249.697 8.64434 249.697 9.13795V15.8381C249.697 16.3317 249.893 16.8051 250.242 17.1541C250.591 17.5031 251.065 17.6992 251.558 17.6992L261.236 17.6992C261.73 17.6992 262.203 17.5031 262.552 17.1541C262.901 16.8051 263.098 16.3317 263.098 15.8381L263.098 14.3492Z" fill="#FFE600"/>
<path d="M261.236 17.6992V18.2992V17.6992ZM261.236 7.27682V7.87682V7.27682ZM259.476 4.89464L259.958 4.53803L259.956 4.53464L259.476 4.89464ZM257.459 4.54914L257.126 4.04991V4.04991L257.459 4.54914ZM253.034 6.77758C252.759 6.96139 252.684 7.33391 252.868 7.60963C253.052 7.88535 253.424 7.95985 253.7 7.77604L253.034 6.77758ZM261.236 10.6269V11.2269V10.6269ZM261.236 14.3492L261.236 13.7492H261.236V14.3492ZM259.375 12.488H259.975H259.375ZM251.558 7.27682L251.558 6.67682H251.558V7.27682ZM249.697 9.13797H249.097H249.697ZM251.558 17.6992L251.558 17.0992H251.558V17.6992ZM263.098 15.8381L262.498 15.8381V15.8381H263.098ZM259.956 4.53464C259.635 4.10748 259.164 3.81921 258.637 3.72906L258.435 4.91184C258.659 4.9502 258.86 5.07287 258.996 5.25464L259.956 4.53464ZM258.637 3.72906C258.111 3.63891 257.57 3.75372 257.126 4.04991L257.792 5.04837C257.981 4.92233 258.211 4.87348 258.435 4.91184L258.637 3.72906ZM257.126 4.04991L253.034 6.77758L253.7 7.77604L257.792 5.04837L257.126 4.04991ZM261.236 11.2269H263.098V10.0269H261.236V11.2269ZM263.098 11.2269C263.136 11.2269 263.173 11.2421 263.2 11.2692L264.048 10.4207C263.796 10.1685 263.454 10.0269 263.098 10.0269V11.2269ZM263.2 11.2692C263.227 11.2963 263.242 11.333 263.242 11.3713H264.442C264.442 11.0148 264.3 10.6728 264.048 10.4207L263.2 11.2692ZM263.242 11.3713V13.6047H264.442V11.3713H263.242ZM263.242 13.6047C263.242 13.643 263.227 13.6798 263.2 13.7069L264.048 14.5554C264.3 14.3033 264.442 13.9613 264.442 13.6047H263.242ZM263.2 13.7069C263.173 13.734 263.136 13.7492 263.098 13.7492V14.9492C263.454 14.9492 263.796 14.8075 264.048 14.5554L263.2 13.7069ZM263.098 13.7492L261.236 13.7492L261.236 14.9492L263.098 14.9492L263.098 13.7492ZM261.236 13.7492C260.902 13.7492 260.581 13.6163 260.345 13.3798L259.496 14.2283C259.958 14.6899 260.584 14.9492 261.236 14.9492V13.7492ZM260.345 13.3798C260.108 13.1433 259.975 12.8225 259.975 12.488H258.775C258.775 13.1408 259.035 13.7668 259.496 14.2283L260.345 13.3798ZM259.975 12.488C259.975 12.1536 260.108 11.8328 260.345 11.5963L259.496 10.7477C259.035 11.2093 258.775 11.8353 258.775 12.488H259.975ZM260.345 11.5963C260.581 11.3598 260.902 11.2269 261.236 11.2269V10.0269C260.584 10.0269 259.958 10.2862 259.496 10.7477L260.345 11.5963ZM263.698 10.6269V9.13797H262.498V10.6269H263.698ZM263.698 9.13797C263.698 8.48523 263.438 7.85922 262.977 7.39767L262.128 8.2462C262.365 8.48271 262.498 8.80349 262.498 9.13797H263.698ZM262.977 7.39767C262.515 6.93612 261.889 6.67682 261.236 6.67682V7.87682C261.571 7.87682 261.892 8.00969 262.128 8.2462L262.977 7.39767ZM261.236 6.67682L251.558 6.67682L251.558 7.87682L261.236 7.87682V6.67682ZM251.558 6.67682C250.906 6.67682 250.28 6.93612 249.818 7.39767L250.667 8.2462C250.903 8.00969 251.224 7.87682 251.558 7.87682V6.67682ZM249.818 7.39767C249.357 7.85923 249.097 8.48523 249.097 9.13797H250.297C250.297 8.80349 250.43 8.48271 250.667 8.2462L249.818 7.39767ZM249.097 9.13797V15.8381H250.297V9.13797H249.097ZM249.097 15.8381C249.097 16.4908 249.357 17.1168 249.818 17.5784L250.667 16.7299C250.43 16.4934 250.297 16.1726 250.297 15.8381H249.097ZM249.818 17.5784C250.28 18.0399 250.906 18.2992 251.558 18.2992V17.0992C251.224 17.0992 250.903 16.9664 250.667 16.7299L249.818 17.5784ZM251.558 18.2992L261.236 18.2992V17.0992L251.558 17.0992L251.558 18.2992ZM261.236 18.2992C261.889 18.2992 262.515 18.0399 262.977 17.5784L262.128 16.7299C261.892 16.9664 261.571 17.0992 261.236 17.0992V18.2992ZM262.977 17.5784C263.438 17.1168 263.698 16.4908 263.698 15.8381H262.498C262.498 16.1726 262.365 16.4934 262.128 16.7299L262.977 17.5784ZM263.698 15.8381L263.698 14.3492L262.498 14.3492L262.498 15.8381L263.698 15.8381ZM261.719 6.92021L259.958 4.53804L258.993 5.25125L260.754 7.63343L261.719 6.92021Z" fill="black" fill-opacity="0.9"/>
</svg>
