<svg width="272" height="24" viewBox="0 0 272 24" fill="none" xmlns="http://www.w3.org/2000/svg">
<rect x="0.5" y="0.5" width="31" height="23" rx="3.5" fill="white"/>
<rect x="0.5" y="0.5" width="31" height="23" rx="3.5" stroke="#E5E5E5"/>
<path fill-rule="evenodd" clip-rule="evenodd" d="M10.5002 15.2897H8.59624L7.16851 9.31627C7.10075 9.04149 6.95686 8.79857 6.74521 8.68408C6.217 8.39636 5.63496 8.16738 5 8.05189V7.82191H8.06711C8.49042 7.82191 8.8079 8.16738 8.86081 8.56859L9.60159 12.8774L11.5046 7.82191H13.3556L10.5002 15.2897ZM14.4143 15.2897H12.6162L14.0969 7.82191H15.895L14.4143 15.2897ZM18.2212 9.89094C18.2742 9.48873 18.5916 9.25875 18.962 9.25875C19.5441 9.20101 20.1781 9.31649 20.7072 9.60322L21.0247 7.99537C20.4956 7.76539 19.9135 7.6499 19.3853 7.6499C17.6401 7.6499 16.3702 8.6843 16.3702 10.1199C16.3702 11.2121 17.2697 11.7855 17.9047 12.131C18.5916 12.4754 18.8562 12.7054 18.8033 13.0499C18.8033 13.5666 18.2742 13.7966 17.746 13.7966C17.111 13.7966 16.476 13.6243 15.8949 13.3366L15.5774 14.9455C16.2124 15.2322 16.8993 15.3477 17.5343 15.3477C19.4912 15.4044 20.7072 14.371 20.7072 12.8199C20.7072 10.8666 18.2212 10.7521 18.2212 9.89094ZM26.9999 15.2897L25.5722 7.82191H24.0386C23.7212 7.82191 23.4037 8.05189 23.2979 8.39636L20.6541 15.2897H22.5051L22.8746 14.1986H25.1489L25.3605 15.2897H26.9999ZM24.3033 9.83307L24.8315 12.6476H23.3509L24.3033 9.83307Z" fill="#1434CB"/>
<rect x="40.5" y="0.5" width="31" height="23" rx="3.5" fill="white"/>
<rect x="40.5" y="0.5" width="31" height="23" rx="3.5" stroke="#E5E5E5"/>
<path d="M49.7261 9C47.899 9 46.242 10.4608 46.0238 12.259C45.8056 14.0572 47.1112 15.518 48.9346 15.518C50.7579 15.518 52.4186 14.0572 52.6368 12.259C52.855 10.4608 51.5494 9 49.7261 9ZM50.9059 12.259C50.7986 13.1488 50.0737 13.8718 49.175 13.8718C48.2762 13.8718 47.6364 13.1488 47.7436 12.259C47.8509 11.3692 48.6683 10.6462 49.5633 10.6462C50.4584 10.6462 51.0094 11.3692 50.9022 12.259H50.9059ZM65.1859 9.30773C65.1748 9.21504 65.0935 9.1446 64.9973 9.1446H62.8337C62.7264 9.1446 62.6265 9.20392 62.5748 9.30032L59.3237 15.3141C59.3053 15.3475 59.3311 15.392 59.3718 15.392H60.8882C60.9955 15.392 61.0953 15.3327 61.1471 15.2363L63.6029 10.6462H63.6806L63.958 12.8893C63.9617 12.919 63.9358 12.9486 63.9062 12.9486H63.0297C62.7967 12.9486 62.6894 13.2378 62.8632 13.3936L63.847 14.2463C64.0468 14.4206 64.1762 14.6616 64.2095 14.9248L64.2465 15.2251C64.2576 15.3215 64.339 15.392 64.4351 15.392H65.9478C65.9811 15.392 66.0033 15.3623 65.9996 15.3326L65.1896 9.31144L65.1859 9.30773ZM59.2794 13.6902L58.1957 13.1118C58.0588 13.0376 57.8887 13.071 57.7926 13.1933C57.7334 13.2675 57.6705 13.3416 57.6224 13.3861C57.3006 13.7013 56.9234 13.8793 56.4389 13.8793C55.5106 13.8793 54.9854 13.1748 54.9854 12.4481C54.9854 11.7214 55.8175 10.6499 56.8161 10.6499C57.8147 10.6499 57.6964 10.8612 57.9553 11.1801C58.0477 11.295 58.2142 11.3284 58.3473 11.2617C58.6765 11.0985 59.5605 10.6573 59.5937 10.6425C59.6196 10.6277 59.6307 10.5943 59.6196 10.5683C59.6048 10.5387 59.5863 10.5053 59.5863 10.5016C59.1092 9.61918 58.1513 9.00371 56.9789 9.00371C54.9521 9.00371 53.2508 10.7352 53.2508 12.6594C53.2508 14.5837 54.4972 15.5217 56.1874 15.5217C57.8776 15.5217 58.5692 14.8395 59.2535 13.8348C59.2646 13.8199 59.2831 13.7903 59.2979 13.7643C59.3163 13.7384 59.3053 13.7013 59.2794 13.6865V13.6902Z" fill="#0F6EE2"/>
<rect x="80.5" y="0.5" width="31" height="23" rx="3.5" fill="white"/>
<rect x="80.5" y="0.5" width="31" height="23" rx="3.5" stroke="#E5E5E5"/>
<ellipse cx="92.1678" cy="12" rx="6.16777" ry="6" fill="#EA001B"/>
<ellipse cx="99.8318" cy="12" rx="6.16777" ry="6" fill="#F79F1A"/>
<path fill-rule="evenodd" clip-rule="evenodd" d="M95.9998 16.7023C97.4229 15.6032 98.3355 13.9056 98.3355 12.0006C98.3355 10.0956 97.4229 8.39794 95.9998 7.29883C94.5767 8.39794 93.6641 10.0956 93.6641 12.0006C93.6641 13.9056 94.5767 15.6032 95.9998 16.7023Z" fill="#FF5F01"/>
<rect x="120.5" y="0.5" width="31" height="23" rx="3.5" fill="white"/>
<rect x="120.5" y="0.5" width="31" height="23" rx="3.5" stroke="#E5E5E5"/>
<path fill-rule="evenodd" clip-rule="evenodd" d="M133.323 4H129.711L126 12.4659H129.012V19.9801L138.305 19.9998L139.764 18.363L141.235 19.9932H144V17.6057L142.267 15.7274L144 13.8662V11.5273L144 11.5273V4H140.593L139.822 6.17095L139.053 4H134.593V6.89679L133.323 4Z" fill="white"/>
<path fill-rule="evenodd" clip-rule="evenodd" d="M135.608 11.5197L135.609 11.5214H133.559L133.009 10.1996H130.028L129.479 11.5214H127.479L130.394 4.92055H132.705L135.58 11.4562V4.91895L138.391 4.92945L139.838 8.98653L141.294 4.91895H143.999V11.5197L142.259 11.5355V7.00065L140.615 11.5197H139.026L137.348 6.98621V11.5197H135.608ZM130.645 8.71775L131.52 6.61636L132.393 8.71775H130.645ZM130.011 12.4463V19.0523H135.555H135.584H137.877L139.775 16.9378L141.692 19.0523H143.999V18.9578L140.982 15.7447L143.999 12.4988V12.4463H141.716L139.826 14.5398L137.942 12.4463H135.584H135.555H130.011ZM135.584 12.4767V13.9675H131.816V15.0005H135.494V16.4968H131.816V17.5114H135.584V19.0218L138.639 15.7447L135.584 12.4767Z" fill="#016FD0"/>
<rect x="160.5" y="0.5" width="31" height="23" rx="3.5" fill="white"/>
<rect x="160.5" y="0.5" width="31" height="23" rx="3.5" stroke="#E5E5E5"/>
<path fill-rule="evenodd" clip-rule="evenodd" d="M185.873 18.9409H168.116C166.947 18.9409 166 18.0465 166 16.9433V5.11986C166 5.0537 166.057 5 166.127 5H183.884C185.053 5 186 5.8944 186 6.99771V18.8211C186 18.8873 185.943 18.9409 185.873 18.9409Z" fill="white"/>
<path fill-rule="evenodd" clip-rule="evenodd" d="M174.875 15.443C174.903 15.4376 174.995 15.4284 175.08 15.4022C175.509 15.2711 175.79 14.8631 175.781 14.3914C175.772 13.939 175.47 13.5337 175.052 13.4141C174.572 13.2768 174.07 13.5476 173.894 14.0389C173.643 14.7386 174.106 15.4457 174.875 15.443ZM175.783 12.6004C175.783 11.9838 175.792 11.4058 175.778 10.8282C175.774 10.6375 175.842 10.5859 176.031 10.5941C176.305 10.6059 176.58 10.6007 176.855 10.596C176.987 10.5937 177.042 10.6347 177.042 10.7686C177.038 12.0324 177.073 13.2974 177.029 14.5599C176.987 15.7686 175.968 16.6128 174.694 16.5661C173.505 16.5226 172.567 15.6246 172.563 14.4817C172.559 13.4659 173.132 12.6354 174.05 12.3613C174.643 12.1841 175.217 12.2449 175.783 12.6004Z" fill="#CA2939"/>
<path fill-rule="evenodd" clip-rule="evenodd" d="M167.065 5.0001C167.05 5.09874 167.031 5.11636 167.03 5.19099C167.029 9.07294 167.027 12.9549 167.031 16.8368C167.032 18.045 167.937 18.9065 169.206 18.9234C169.218 18.9235 169.217 18.9234 169.23 18.9234C169.326 18.9234 169.308 18.9246 169.266 18.9233C169.254 18.923 169.242 18.9233 169.23 18.9234C168.946 18.9235 168.645 18.9402 168.33 18.9402C166.958 18.9402 166.044 18.0816 166.044 16.7887C166.043 12.9401 166.043 9.14841 166.043 5.29975C166.043 5.00389 166.047 5.00054 166.363 5.00014C166.6 4.99986 166.837 5.0001 167.065 5.0001Z" fill="#CA2939"/>
<path fill-rule="evenodd" clip-rule="evenodd" d="M178.549 14.2082C179.132 13.9758 179.672 13.7601 180.241 13.533C179.904 13.2912 179.572 13.238 179.216 13.3684C178.835 13.508 178.636 13.788 178.549 14.2082ZM178.859 15.1882C179.266 15.6057 179.968 15.5774 180.327 15.1569C180.382 15.092 180.493 15.0389 180.581 15.0344C180.876 15.0193 181.173 15.0281 181.469 15.0288C181.713 15.0294 181.739 15.0637 181.647 15.2887C181.353 16.0068 180.783 16.4046 179.994 16.5268C178.785 16.7139 177.7 16.0295 177.407 14.9073C177.169 13.9952 177.596 13.0245 178.454 12.5298C179.265 12.0622 180.331 12.1506 181.05 12.7503C181.418 13.057 181.614 13.4558 181.723 13.9004C181.757 14.0398 181.661 14.0689 181.559 14.109C180.728 14.4377 179.898 14.7683 179.068 15.0987C179.004 15.1242 178.941 15.1529 178.859 15.1882Z" fill="#CA2939"/>
<path fill-rule="evenodd" clip-rule="evenodd" d="M168.332 12.7658C168.332 12.1007 168.336 11.4357 168.328 10.7707C168.326 10.6027 168.388 10.5476 168.561 10.5539C168.828 10.5637 169.096 10.5633 169.364 10.5541C169.538 10.548 169.596 10.6098 169.595 10.7749C169.59 12.0251 169.592 13.2754 169.592 14.5256C169.592 15.1109 169.917 15.387 170.543 15.323C170.675 15.3095 170.726 15.3461 170.725 15.4683C170.722 15.7409 170.721 16.0136 170.726 16.2862C170.728 16.4082 170.662 16.4447 170.546 16.4571C169.25 16.5955 168.333 15.8285 168.332 14.6013C168.331 13.9894 168.332 13.3776 168.332 12.7658Z" fill="#CA2939"/>
<path fill-rule="evenodd" clip-rule="evenodd" d="M182.142 13.6571C182.34 12.4644 183.47 12.1451 184.332 12.2509C184.451 12.2654 184.484 12.3206 184.482 12.4234C184.478 12.6895 184.477 12.9558 184.482 13.222C184.484 13.3451 184.431 13.3855 184.303 13.3768C184.178 13.3682 184.048 13.3632 183.925 13.3842C183.569 13.4453 183.351 13.7082 183.35 14.0722C183.346 14.7843 183.343 15.4965 183.353 16.2084C183.355 16.3942 183.31 16.4732 183.097 16.4595C182.837 16.4426 182.575 16.4469 182.315 16.4584C182.143 16.4661 182.079 16.4176 182.084 16.2474C182.096 15.8617 182.088 15.4755 182.088 15.0895C182.102 15.0895 182.065 14.1238 182.142 13.6571Z" fill="#CA2939"/>
<path fill-rule="evenodd" clip-rule="evenodd" d="M170.999 14.4167C170.999 13.8049 171.004 13.1931 170.995 12.5815C170.993 12.4067 171.055 12.3443 171.24 12.3517C171.514 12.3626 171.789 12.3584 172.064 12.3532C172.208 12.3505 172.26 12.4034 172.26 12.5416C172.256 13.785 172.256 15.0284 172.259 16.2718C172.26 16.4108 172.21 16.4587 172.063 16.4538C171.756 16.4634 171.622 16.4519 171.26 16.455C171.059 16.4662 170.99 16.4082 170.994 16.2119C171.007 15.6137 170.999 15.0151 170.999 14.4167Z" fill="#CA2939"/>
<path fill-rule="evenodd" clip-rule="evenodd" d="M172.275 10.6035C172.275 10.9565 172.279 11.3056 172.268 11.6544C172.267 11.689 172.177 11.7485 172.127 11.7499C171.811 11.7588 171.495 11.7538 171.18 11.755C171.078 11.7554 171 11.7277 171.051 11.617C171.275 11.1341 171.641 10.7859 172.167 10.5968C172.19 10.5885 172.221 10.5995 172.275 10.6035Z" fill="#CA2939"/>
<path fill-rule="evenodd" clip-rule="evenodd" d="M185.873 18.9409H168.116C166.947 18.9409 166 18.0465 166 16.9433V5.11986C166 5.0537 166.057 5 166.127 5H183.884C185.053 5 186 5.8944 186 6.99771V18.8211C186 18.8873 185.943 18.9409 185.873 18.9409V18.9409Z" stroke="#CA2939" stroke-width="0.590909"/>
<rect x="200.5" y="0.5" width="31" height="23" rx="3.5" fill="white"/>
<rect x="200.5" y="0.5" width="31" height="23" rx="3.5" stroke="#E5E5E5"/>
<rect x="204" y="6" width="24" height="12" rx="1" fill="#0D42FB"/>
<path d="M211.135 11.9573C211.035 11.9373 210.955 11.9373 210.873 11.9373C210.409 11.9373 210.006 12.1579 210.006 12.8839V14.3941H209.1V11.0709H209.966V11.5542C210.167 11.111 210.63 11.0308 210.913 11.0308C210.993 11.0308 211.053 11.0308 211.113 11.0508V11.9573H211.135Z" fill="white"/>
<path d="M214.498 13.427C214.338 13.9905 213.814 14.4739 212.988 14.4739C212.082 14.4739 211.277 13.8301 211.277 12.703C211.277 11.636 212.064 10.9521 212.908 10.9521C213.935 10.9521 214.538 11.5959 214.538 12.6629C214.538 12.7832 214.518 12.9256 214.518 12.9457H212.162C212.182 13.3889 212.545 13.7118 213.008 13.7118C213.431 13.7118 213.652 13.5112 213.774 13.2084L214.498 13.427ZM213.672 12.36C213.652 12.0371 213.451 11.7163 212.928 11.7163C212.465 11.7163 212.204 12.0592 212.184 12.36H213.672Z" fill="white"/>
<path d="M218.103 13.7898C218.103 14.0104 218.123 14.2531 218.123 14.3935H217.257C217.237 14.3333 217.217 14.1729 217.217 14.0104C217.076 14.2731 216.733 14.4737 216.29 14.4737C215.344 14.4737 214.68 13.7296 214.68 12.7229C214.68 11.7562 215.323 10.9921 216.27 10.9921C216.834 10.9921 217.116 11.2327 217.217 11.3952V9.50195H218.103C218.103 9.49995 218.103 13.7898 218.103 13.7898ZM216.433 13.6695C216.896 13.6695 217.259 13.3265 217.259 12.7229C217.259 12.1392 216.896 11.7963 216.433 11.7963C215.969 11.7963 215.606 12.1392 215.606 12.7229C215.606 13.3065 215.949 13.6695 216.433 13.6695Z" fill="white"/>
<path d="M218.968 11.1727C219.271 11.1727 219.512 10.9321 219.512 10.6292C219.512 10.3264 219.271 10.0657 218.968 10.0657C218.666 10.0657 218.425 10.3063 218.425 10.6292C218.405 10.91 218.666 11.1727 218.968 11.1727Z" fill="white"/>
<path d="M218.525 11.7963V13.9302V14.3935H219.412V13.9302V11.7963V11.333H218.525V11.7963Z" fill="white"/>
<path d="M225.27 13.427C225.109 13.9905 224.586 14.4739 223.76 14.4739C222.853 14.4739 222.049 13.8301 222.049 12.703C222.049 11.636 222.835 10.9521 223.679 10.9521C224.706 10.9521 225.31 11.5959 225.31 12.6629C225.31 12.7832 225.29 12.9256 225.29 12.9457H222.935C222.955 13.3889 223.318 13.7118 223.782 13.7118C224.205 13.7118 224.425 13.5112 224.548 13.2084L225.27 13.427ZM224.445 12.36C224.425 12.0371 224.225 11.7163 223.701 11.7163C223.238 11.7163 222.977 12.0592 222.957 12.36H224.445Z" fill="white"/>
<path d="M225.594 14.3938V9.50024H226.5V14.3737H225.594V14.3938Z" fill="white"/>
<path d="M221.787 12.1194V11.3131H221.143V11.0504V10.0837H221.103H220.297H220.237V10.8097V11.3332H219.773V12.1394H220.237C220.237 12.2598 220.237 12.3801 220.237 12.5024C220.237 12.7431 220.237 12.9858 220.237 13.2064C220.237 13.3066 220.237 13.4069 220.237 13.5092C220.237 13.5493 220.237 13.5894 220.237 13.6295C220.237 13.7298 220.257 13.81 220.297 13.9123C220.417 14.1951 220.68 14.3756 220.981 14.4358C221.021 14.4358 221.081 14.4558 221.141 14.4558C221.181 14.4558 221.221 14.4558 221.262 14.4558C221.524 14.4558 221.685 14.4157 221.765 14.3756V13.6095C221.725 13.6295 221.604 13.6295 221.482 13.6295C221.382 13.6295 221.282 13.6095 221.199 13.5493C221.139 13.4891 221.119 13.4089 221.119 13.3287C221.119 13.2084 221.119 13.088 221.119 12.9858C221.119 12.9256 221.119 12.0993 221.119 12.0993C221.143 12.1194 221.787 12.1194 221.787 12.1194Z" fill="white"/>
<path d="M208.035 13.1045C207.955 13.3672 207.732 13.668 207.269 13.668C206.806 13.668 206.423 13.3251 206.423 12.7214C206.423 12.1178 206.806 11.7949 207.269 11.7949C207.712 11.7949 207.933 12.0777 208.013 12.3584L208.819 12.0957C208.799 12.0355 208.779 11.9754 208.759 11.9152C208.458 11.3938 207.895 11.0308 207.231 11.0308C206.527 11.0308 205.921 11.4539 205.64 12.0375C205.56 12.2582 205.5 12.4808 205.5 12.7415C205.5 13.4053 205.823 13.9488 206.326 14.2517C206.346 14.2717 206.366 14.2717 206.386 14.2918C206.627 14.4322 206.91 14.4923 207.213 14.4923C207.877 14.4923 208.44 14.1293 208.743 13.5858C208.783 13.5257 208.803 13.4454 208.823 13.3652L208.035 13.1045Z" fill="#F5D912"/>
<rect x="240.5" y="0.5" width="31" height="23" rx="3.5" fill="white"/>
<rect x="240.5" y="0.5" width="31" height="23" rx="3.5" stroke="#E5E5E5"/>
<path d="M262.328 14.3492L263.038 13.8583V11.0044L262.328 10.7487V9.13795C262.328 8.64434 262.132 8.17095 261.783 7.82192C261.627 7.66587 260.467 7.2768 260.467 7.2768C260.467 7.2768 258.606 4.30141 257.482 4.32905C256.358 4.35669 252.672 7.2768 252.672 7.2768H250.789C250.295 7.2768 249.822 7.47288 249.473 7.82192C249.124 8.17095 248.928 8.64434 248.928 9.13795V15.8381C248.928 16.3317 249.124 16.8051 249.473 17.1541C249.822 17.5031 250.295 17.6992 250.789 17.6992L260.467 17.6992C260.96 17.6992 261.434 17.5031 261.783 17.1541C262.132 16.8051 262.328 16.3317 262.328 15.8381L262.328 14.3492Z" fill="#FFE600"/>
<path d="M260.467 17.6992V18.2992V17.6992ZM260.467 7.27682V7.87682V7.27682ZM258.706 4.89464L259.189 4.53803L259.186 4.53464L258.706 4.89464ZM256.689 4.54914L256.356 4.04991V4.04991L256.689 4.54914ZM252.265 6.77758C251.989 6.96139 251.915 7.33391 252.099 7.60963C252.282 7.88535 252.655 7.95985 252.931 7.77604L252.265 6.77758ZM260.467 10.6269V11.2269V10.6269ZM260.467 14.3492L260.467 13.7492H260.467V14.3492ZM258.606 12.488H259.206H258.606ZM250.789 7.27682L250.789 6.67682H250.789V7.27682ZM248.928 9.13797H248.328H248.928ZM250.789 17.6992L250.789 17.0992H250.789V17.6992ZM262.328 15.8381L261.728 15.8381V15.8381H262.328ZM259.186 4.53464C258.866 4.10748 258.394 3.81921 257.868 3.72906L257.665 4.91184C257.889 4.9502 258.09 5.07287 258.226 5.25464L259.186 4.53464ZM257.868 3.72906C257.342 3.63891 256.801 3.75372 256.356 4.04991L257.022 5.04837C257.211 4.92233 257.441 4.87348 257.665 4.91184L257.868 3.72906ZM256.356 4.04991L252.265 6.77758L252.931 7.77604L257.022 5.04837L256.356 4.04991ZM260.467 11.2269H262.328V10.0269H260.467V11.2269ZM262.328 11.2269C262.366 11.2269 262.403 11.2421 262.43 11.2692L263.279 10.4207C263.027 10.1685 262.685 10.0269 262.328 10.0269V11.2269ZM262.43 11.2692C262.457 11.2963 262.472 11.333 262.472 11.3713H263.672C263.672 11.0148 263.531 10.6728 263.279 10.4207L262.43 11.2692ZM262.472 11.3713V13.6047H263.672V11.3713H262.472ZM262.472 13.6047C262.472 13.643 262.457 13.6798 262.43 13.7069L263.279 14.5554C263.531 14.3033 263.672 13.9613 263.672 13.6047H262.472ZM262.43 13.7069C262.403 13.734 262.366 13.7492 262.328 13.7492V14.9492C262.685 14.9492 263.027 14.8075 263.279 14.5554L262.43 13.7069ZM262.328 13.7492L260.467 13.7492L260.467 14.9492L262.328 14.9492L262.328 13.7492ZM260.467 13.7492C260.132 13.7492 259.812 13.6163 259.575 13.3798L258.727 14.2283C259.188 14.6899 259.814 14.9492 260.467 14.9492V13.7492ZM259.575 13.3798C259.339 13.1433 259.206 12.8225 259.206 12.488H258.006C258.006 13.1408 258.265 13.7668 258.727 14.2283L259.575 13.3798ZM259.206 12.488C259.206 12.1536 259.339 11.8328 259.575 11.5963L258.727 10.7477C258.265 11.2093 258.006 11.8353 258.006 12.488H259.206ZM259.575 11.5963C259.812 11.3598 260.132 11.2269 260.467 11.2269V10.0269C259.814 10.0269 259.188 10.2862 258.727 10.7477L259.575 11.5963ZM262.928 10.6269V9.13797H261.728V10.6269H262.928ZM262.928 9.13797C262.928 8.48523 262.669 7.85922 262.207 7.39767L261.359 8.2462C261.595 8.48271 261.728 8.80349 261.728 9.13797H262.928ZM262.207 7.39767C261.746 6.93612 261.12 6.67682 260.467 6.67682V7.87682C260.801 7.87682 261.122 8.00969 261.359 8.2462L262.207 7.39767ZM260.467 6.67682L250.789 6.67682L250.789 7.87682L260.467 7.87682V6.67682ZM250.789 6.67682C250.136 6.67682 249.51 6.93612 249.049 7.39767L249.897 8.2462C250.134 8.00969 250.454 7.87682 250.789 7.87682V6.67682ZM249.049 7.39767C248.587 7.85923 248.328 8.48523 248.328 9.13797H249.528C249.528 8.80349 249.661 8.48271 249.897 8.2462L249.049 7.39767ZM248.328 9.13797V15.8381H249.528V9.13797H248.328ZM248.328 15.8381C248.328 16.4908 248.587 17.1168 249.049 17.5784L249.897 16.7299C249.661 16.4934 249.528 16.1726 249.528 15.8381H248.328ZM249.049 17.5784C249.51 18.0399 250.136 18.2992 250.789 18.2992V17.0992C250.454 17.0992 250.134 16.9664 249.897 16.7299L249.049 17.5784ZM250.789 18.2992L260.467 18.2992V17.0992L250.789 17.0992L250.789 18.2992ZM260.467 18.2992C261.12 18.2992 261.746 18.0399 262.207 17.5784L261.359 16.7299C261.122 16.9664 260.801 17.0992 260.467 17.0992V18.2992ZM262.207 17.5784C262.669 17.1168 262.928 16.4908 262.928 15.8381H261.728C261.728 16.1726 261.595 16.4934 261.359 16.7299L262.207 17.5784ZM262.928 15.8381L262.928 14.3492L261.728 14.3492L261.728 15.8381L262.928 15.8381ZM260.949 6.92021L259.189 4.53804L258.224 5.25125L259.984 7.63343L260.949 6.92021Z" fill="black" fill-opacity="0.9"/>
</svg>
