<svg width="232" height="24" viewBox="0 0 232 24" fill="none" xmlns="http://www.w3.org/2000/svg">
<rect x="0.5" y="0.5" width="31" height="23" rx="3.5" fill="white"/>
<rect x="0.5" y="0.5" width="31" height="23" rx="3.5" stroke="#E5E5E5"/>
<path fill-rule="evenodd" clip-rule="evenodd" d="M10.5002 15.2897H8.59624L7.16851 9.31627C7.10075 9.04149 6.95686 8.79857 6.74521 8.68408C6.217 8.39636 5.63496 8.16738 5 8.05189V7.82191H8.06711C8.49042 7.82191 8.8079 8.16738 8.86081 8.56859L9.60159 12.8774L11.5046 7.82191H13.3556L10.5002 15.2897ZM14.4143 15.2897H12.6162L14.0969 7.82191H15.895L14.4143 15.2897ZM18.2212 9.89094C18.2742 9.48873 18.5916 9.25875 18.962 9.25875C19.5441 9.20101 20.1781 9.31649 20.7072 9.60322L21.0247 7.99537C20.4956 7.76539 19.9135 7.6499 19.3853 7.6499C17.6401 7.6499 16.3702 8.6843 16.3702 10.1199C16.3702 11.2121 17.2697 11.7855 17.9047 12.131C18.5916 12.4754 18.8562 12.7054 18.8033 13.0499C18.8033 13.5666 18.2742 13.7966 17.746 13.7966C17.111 13.7966 16.476 13.6243 15.8949 13.3366L15.5774 14.9455C16.2124 15.2322 16.8993 15.3477 17.5343 15.3477C19.4912 15.4044 20.7072 14.371 20.7072 12.8199C20.7072 10.8666 18.2212 10.7521 18.2212 9.89094ZM26.9999 15.2897L25.5722 7.82191H24.0386C23.7212 7.82191 23.4037 8.05189 23.2979 8.39636L20.6541 15.2897H22.5051L22.8746 14.1986H25.1489L25.3605 15.2897H26.9999ZM24.3033 9.83307L24.8315 12.6476H23.3509L24.3033 9.83307Z" fill="#1434CB"/>
<rect x="40.5" y="0.5" width="31" height="23" rx="3.5" fill="white"/>
<rect x="40.5" y="0.5" width="31" height="23" rx="3.5" stroke="#E5E5E5"/>
<ellipse cx="52.1678" cy="12" rx="6.16777" ry="6" fill="#EA001B"/>
<ellipse cx="59.8318" cy="12" rx="6.16777" ry="6" fill="#F79F1A"/>
<path fill-rule="evenodd" clip-rule="evenodd" d="M55.9998 16.7023C57.4229 15.6032 58.3355 13.9056 58.3355 12.0006C58.3355 10.0956 57.4229 8.39794 55.9998 7.29883C54.5767 8.39794 53.6641 10.0956 53.6641 12.0006C53.6641 13.9056 54.5767 15.6032 55.9998 16.7023Z" fill="#FF5F01"/>
<rect x="80.5" y="0.5" width="31" height="23" rx="3.5" fill="white"/>
<rect x="80.5" y="0.5" width="31" height="23" rx="3.5" stroke="#E5E5E5"/>
<path fill-rule="evenodd" clip-rule="evenodd" d="M93.3234 4H89.7107L86 12.4659H89.0124V19.9801L98.3048 19.9998L99.7645 18.363L101.235 19.9932H104V17.6057L102.267 15.7274L104 13.8662V11.5273L104 11.5273V4H100.593L99.8216 6.17095L99.0526 4H94.5925V6.89679L93.3234 4Z" fill="white"/>
<path fill-rule="evenodd" clip-rule="evenodd" d="M95.6081 11.5197L95.6088 11.5214H93.5589L93.0093 10.1996H90.0285L89.4788 11.5214H87.4785L90.394 4.92055H92.705L95.5801 11.4562V4.91895L98.3912 4.92945L99.8379 8.98653L101.294 4.91895H103.999V11.5197L102.259 11.5355V7.00065L100.615 11.5197H99.0258L97.348 6.98621V11.5197H95.6081ZM90.6447 8.71775L91.5195 6.61636L92.393 8.71775H90.6447ZM90.0114 12.4463V19.0523H95.5555H95.584H97.8769L99.7754 16.9378L101.692 19.0523H103.999V18.9578L100.982 15.7447L103.999 12.4988V12.4463H101.716L99.8263 14.5398L97.9422 12.4463H95.584H95.5555H90.0114ZM95.584 12.4767V13.9675H91.8158V15.0005H95.4939V16.4968H91.8158V17.5114H95.584V19.0218L98.6394 15.7447L95.584 12.4767Z" fill="#016FD0"/>
<rect x="120.5" y="0.5" width="31" height="23" rx="3.5" fill="white"/>
<rect x="120.5" y="0.5" width="31" height="23" rx="3.5" stroke="#E5E5E5"/>
<path d="M137.545 18.9999C141.443 19.0182 145 15.8794 145 12.0608C145 7.88498 141.443 4.99861 137.545 5H134.191C130.246 4.99861 127 7.88585 127 12.0608C127 15.8802 130.246 19.0183 134.191 18.9999H137.545Z" fill="#0079BE"/>
<path d="M134.207 5.57861C130.603 5.57972 127.682 8.44776 127.682 11.9875C127.682 15.5266 130.603 18.3944 134.207 18.3955C137.812 18.3944 140.733 15.5266 140.734 11.9875C140.733 8.44776 137.812 5.57972 134.207 5.57861ZM130.071 11.9875C130.074 10.2578 131.175 8.78279 132.726 8.19665V15.7774C131.175 15.1916 130.074 13.7175 130.071 11.9875ZM135.688 15.7791V8.1964C137.24 8.78112 138.342 10.2569 138.345 11.9875C138.342 13.7186 137.24 15.1933 135.688 15.7791Z" fill="white"/>
<rect x="160.5" y="0.5" width="31" height="23" rx="3.5" fill="white"/>
<rect x="160.5" y="0.5" width="31" height="23" rx="3.5" stroke="#E5E5E5"/>
<path fill-rule="evenodd" clip-rule="evenodd" d="M167.895 7.67692L175.937 3L183.981 7.67688V10.5205L182.13 10.5226V15.7246H183.153L185 20.0681H167L168.709 15.7246H169.754V10.5364L167.895 10.5385V7.67692ZM169.551 16.962L168.816 18.8307H183.129L182.334 16.962H169.551ZM180.893 15.7246V10.5239L176.556 10.5288V15.7246H180.893ZM170.991 10.535L175.319 10.5302V15.7246H170.991V10.535ZM169.133 8.38872V9.29972L182.744 9.28452V8.38876L175.937 4.43136L169.133 8.38872Z" fill="#3483FA"/>
<rect x="200.5" y="0.5" width="31" height="23" rx="3.5" fill="white"/>
<rect x="200.5" y="0.5" width="31" height="23" rx="3.5" stroke="#E5E5E5"/>
<path d="M222.328 14.3492L223.038 13.8583V11.0044L222.328 10.7487V9.13795C222.328 8.64434 222.132 8.17095 221.783 7.82192C221.627 7.66587 220.467 7.2768 220.467 7.2768C220.467 7.2768 218.606 4.30141 217.482 4.32905C216.358 4.35669 212.672 7.2768 212.672 7.2768H210.789C210.295 7.2768 209.822 7.47288 209.473 7.82192C209.124 8.17095 208.928 8.64434 208.928 9.13795V15.8381C208.928 16.3317 209.124 16.8051 209.473 17.1541C209.822 17.5031 210.295 17.6992 210.789 17.6992L220.467 17.6992C220.96 17.6992 221.434 17.5031 221.783 17.1541C222.132 16.8051 222.328 16.3317 222.328 15.8381L222.328 14.3492Z" fill="#FFE600"/>
<path d="M220.467 17.6992V18.2992V17.6992ZM220.467 7.27682V7.87682V7.27682ZM218.706 4.89464L219.189 4.53803L219.186 4.53464L218.706 4.89464ZM216.689 4.54914L216.356 4.04991V4.04991L216.689 4.54914ZM212.265 6.77758C211.989 6.96139 211.915 7.33391 212.099 7.60963C212.282 7.88535 212.655 7.95985 212.931 7.77604L212.265 6.77758ZM220.467 10.6269V11.2269V10.6269ZM220.467 14.3492L220.467 13.7492H220.467V14.3492ZM218.606 12.488H219.206H218.606ZM210.789 7.27682L210.789 6.67682H210.789V7.27682ZM208.928 9.13797H208.328H208.928ZM210.789 17.6992L210.789 17.0992H210.789V17.6992ZM222.328 15.8381L221.728 15.8381V15.8381H222.328ZM219.186 4.53464C218.866 4.10748 218.394 3.81921 217.868 3.72906L217.665 4.91184C217.889 4.9502 218.09 5.07287 218.226 5.25464L219.186 4.53464ZM217.868 3.72906C217.342 3.63891 216.801 3.75372 216.356 4.04991L217.022 5.04837C217.211 4.92233 217.441 4.87348 217.665 4.91184L217.868 3.72906ZM216.356 4.04991L212.265 6.77758L212.931 7.77604L217.022 5.04837L216.356 4.04991ZM220.467 11.2269H222.328V10.0269H220.467V11.2269ZM222.328 11.2269C222.366 11.2269 222.403 11.2421 222.43 11.2692L223.279 10.4207C223.027 10.1685 222.685 10.0269 222.328 10.0269V11.2269ZM222.43 11.2692C222.457 11.2963 222.472 11.333 222.472 11.3713H223.672C223.672 11.0148 223.531 10.6728 223.279 10.4207L222.43 11.2692ZM222.472 11.3713V13.6047H223.672V11.3713H222.472ZM222.472 13.6047C222.472 13.643 222.457 13.6798 222.43 13.7069L223.279 14.5554C223.531 14.3033 223.672 13.9613 223.672 13.6047H222.472ZM222.43 13.7069C222.403 13.734 222.366 13.7492 222.328 13.7492V14.9492C222.685 14.9492 223.027 14.8075 223.279 14.5554L222.43 13.7069ZM222.328 13.7492L220.467 13.7492L220.467 14.9492L222.328 14.9492L222.328 13.7492ZM220.467 13.7492C220.132 13.7492 219.812 13.6163 219.575 13.3798L218.727 14.2283C219.188 14.6899 219.814 14.9492 220.467 14.9492V13.7492ZM219.575 13.3798C219.339 13.1433 219.206 12.8225 219.206 12.488H218.006C218.006 13.1408 218.265 13.7668 218.727 14.2283L219.575 13.3798ZM219.206 12.488C219.206 12.1536 219.339 11.8328 219.575 11.5963L218.727 10.7477C218.265 11.2093 218.006 11.8353 218.006 12.488H219.206ZM219.575 11.5963C219.812 11.3598 220.132 11.2269 220.467 11.2269V10.0269C219.814 10.0269 219.188 10.2862 218.727 10.7477L219.575 11.5963ZM222.928 10.6269V9.13797H221.728V10.6269H222.928ZM222.928 9.13797C222.928 8.48523 222.669 7.85922 222.207 7.39767L221.359 8.2462C221.595 8.48271 221.728 8.80349 221.728 9.13797H222.928ZM222.207 7.39767C221.746 6.93612 221.12 6.67682 220.467 6.67682V7.87682C220.801 7.87682 221.122 8.00969 221.359 8.2462L222.207 7.39767ZM220.467 6.67682L210.789 6.67682L210.789 7.87682L220.467 7.87682V6.67682ZM210.789 6.67682C210.136 6.67682 209.51 6.93612 209.049 7.39767L209.897 8.2462C210.134 8.00969 210.454 7.87682 210.789 7.87682V6.67682ZM209.049 7.39767C208.587 7.85923 208.328 8.48523 208.328 9.13797H209.528C209.528 8.80349 209.661 8.48271 209.897 8.2462L209.049 7.39767ZM208.328 9.13797V15.8381H209.528V9.13797H208.328ZM208.328 15.8381C208.328 16.4908 208.587 17.1168 209.049 17.5784L209.897 16.7299C209.661 16.4934 209.528 16.1726 209.528 15.8381H208.328ZM209.049 17.5784C209.51 18.0399 210.136 18.2992 210.789 18.2992V17.0992C210.454 17.0992 210.134 16.9664 209.897 16.7299L209.049 17.5784ZM210.789 18.2992L220.467 18.2992V17.0992L210.789 17.0992L210.789 18.2992ZM220.467 18.2992C221.12 18.2992 221.746 18.0399 222.207 17.5784L221.359 16.7299C221.122 16.9664 220.801 17.0992 220.467 17.0992V18.2992ZM222.207 17.5784C222.669 17.1168 222.928 16.4908 222.928 15.8381H221.728C221.728 16.1726 221.595 16.4934 221.359 16.7299L222.207 17.5784ZM222.928 15.8381L222.928 14.3492L221.728 14.3492L221.728 15.8381L222.928 15.8381ZM220.949 6.92021L219.189 4.53804L218.224 5.25125L219.984 7.63343L220.949 6.92021Z" fill="black" fill-opacity="0.9"/>
</svg>
