<svg width="192" height="24" viewBox="0 0 192 24" fill="none" xmlns="http://www.w3.org/2000/svg">
<rect x="0.5" y="0.5" width="31" height="23" rx="3.5" fill="white"/>
<rect x="0.5" y="0.5" width="31" height="23" rx="3.5" stroke="#E5E5E5"/>
<ellipse cx="12.1678" cy="12" rx="6.16777" ry="6" fill="#EA001B"/>
<ellipse cx="19.8318" cy="12" rx="6.16777" ry="6" fill="#F79F1A"/>
<path fill-rule="evenodd" clip-rule="evenodd" d="M15.9998 16.7023C17.4229 15.6032 18.3355 13.9056 18.3355 12.0006C18.3355 10.0956 17.4229 8.39794 15.9998 7.29883C14.5767 8.39794 13.6641 10.0956 13.6641 12.0006C13.6641 13.9056 14.5767 15.6032 15.9998 16.7023Z" fill="#FF5F01"/>
<rect x="40.5" y="0.5" width="31" height="23" rx="3.5" fill="white"/>
<rect x="40.5" y="0.5" width="31" height="23" rx="3.5" stroke="#E5E5E5"/>
<path fill-rule="evenodd" clip-rule="evenodd" d="M50.5002 15.2897H48.5962L47.1685 9.31627C47.1007 9.04149 46.9569 8.79857 46.7452 8.68408C46.217 8.39636 45.635 8.16738 45 8.05189V7.82191H48.0671C48.4904 7.82191 48.8079 8.16738 48.8608 8.56859L49.6016 12.8774L51.5046 7.82191H53.3556L50.5002 15.2897ZM54.4143 15.2897H52.6162L54.0969 7.82191H55.895L54.4143 15.2897ZM58.2212 9.89094C58.2742 9.48873 58.5916 9.25875 58.962 9.25875C59.5441 9.20101 60.1781 9.31649 60.7072 9.60322L61.0247 7.99537C60.4956 7.76539 59.9135 7.6499 59.3853 7.6499C57.6401 7.6499 56.3702 8.6843 56.3702 10.1199C56.3702 11.2121 57.2697 11.7855 57.9047 12.131C58.5916 12.4754 58.8562 12.7054 58.8033 13.0499C58.8033 13.5666 58.2742 13.7966 57.746 13.7966C57.111 13.7966 56.476 13.6243 55.8949 13.3366L55.5774 14.9455C56.2124 15.2322 56.8993 15.3477 57.5343 15.3477C59.4912 15.4044 60.7072 14.371 60.7072 12.8199C60.7072 10.8666 58.2212 10.7521 58.2212 9.89094ZM66.9999 15.2897L65.5722 7.82191H64.0386C63.7212 7.82191 63.4037 8.05189 63.2979 8.39636L60.6541 15.2897H62.5051L62.8746 14.1986H65.1489L65.3605 15.2897H66.9999ZM64.3033 9.83307L64.8315 12.6476H63.3509L64.3033 9.83307Z" fill="#1434CB"/>
<rect x="80.5" y="0.5" width="31" height="23" rx="3.5" fill="white"/>
<rect x="80.5" y="0.5" width="31" height="23" rx="3.5" stroke="#E5E5E5"/>
<path fill-rule="evenodd" clip-rule="evenodd" d="M93.3234 4H89.7107L86 12.4659H89.0124V19.9801L98.3048 19.9998L99.7645 18.363L101.235 19.9932H104V17.6057L102.267 15.7274L104 13.8662V11.5273L104 11.5273V4H100.593L99.8216 6.17095L99.0526 4H94.5925V6.89679L93.3234 4Z" fill="white"/>
<path fill-rule="evenodd" clip-rule="evenodd" d="M95.6081 11.5197L95.6088 11.5214H93.5589L93.0093 10.1996H90.0285L89.4788 11.5214H87.4785L90.394 4.92055H92.705L95.5801 11.4562V4.91895L98.3912 4.92945L99.8379 8.98653L101.294 4.91895H103.999V11.5197L102.259 11.5355V7.00065L100.615 11.5197H99.0258L97.348 6.98621V11.5197H95.6081ZM90.6447 8.71775L91.5195 6.61636L92.393 8.71775H90.6447ZM90.0114 12.4463V19.0523H95.5555H95.584H97.8769L99.7754 16.9378L101.692 19.0523H103.999V18.9578L100.982 15.7447L103.999 12.4988V12.4463H101.716L99.8263 14.5398L97.9422 12.4463H95.584H95.5555H90.0114ZM95.584 12.4767V13.9675H91.8158V15.0005H95.4939V16.4968H91.8158V17.5114H95.584V19.0218L98.6394 15.7447L95.584 12.4767Z" fill="#016FD0"/>
<rect x="120.5" y="0.5" width="31" height="23" rx="3.5" fill="white"/>
<rect x="120.5" y="0.5" width="31" height="23" rx="3.5" stroke="#E5E5E5"/>
<path fill-rule="evenodd" clip-rule="evenodd" d="M125 10H135.607L134.371 14.4373H125V10Z" fill="#E30613"/>
<path fill-rule="evenodd" clip-rule="evenodd" d="M147 10L145.745 14.4373H134.371L135.607 10H147Z" fill="#312783"/>
<path d="M137.2 12.1053C137.224 11.9583 137.232 11.8352 137.228 11.7319C137.224 11.6286 137.204 11.5452 137.177 11.4777C137.149 11.4101 137.113 11.3545 137.069 11.3188C137.026 11.279 136.978 11.2512 136.922 11.2353C136.867 11.2194 136.815 11.2115 136.756 11.2115C136.648 11.2115 136.541 11.2353 136.442 11.279C136.338 11.3227 136.243 11.3942 136.156 11.4896C136.064 11.5849 135.981 11.7081 135.905 11.855C135.83 12.006 135.762 12.1848 135.707 12.3913C135.651 12.6019 135.615 12.7807 135.607 12.9356C135.6 13.0865 135.615 13.2137 135.651 13.313C135.687 13.4123 135.743 13.4838 135.818 13.5315C135.89 13.5791 135.981 13.603 136.088 13.603C136.18 13.603 136.271 13.5911 136.358 13.5632C136.446 13.5354 136.529 13.4838 136.613 13.4123C136.696 13.3408 136.771 13.2415 136.851 13.1143C136.926 12.9872 136.998 12.8243 137.065 12.6257C136.938 12.6257 136.811 12.6257 136.688 12.6257C136.656 12.7211 136.617 12.8005 136.573 12.868C136.525 12.9356 136.477 12.9872 136.426 13.0269C136.374 13.0627 136.319 13.0826 136.263 13.0826C136.187 13.0826 136.128 13.0548 136.092 13.0031C136.052 12.9515 136.033 12.872 136.033 12.7687C136.033 12.6654 136.052 12.5423 136.092 12.3993C136.132 12.2523 136.18 12.1331 136.235 12.0298C136.291 11.9305 136.35 11.8511 136.418 11.7994C136.485 11.7478 136.557 11.72 136.632 11.72C136.684 11.72 136.724 11.7319 136.76 11.7557C136.791 11.7796 136.815 11.8193 136.831 11.8789C136.843 11.9345 136.847 12.0139 136.835 12.1093C136.95 12.1053 137.073 12.1053 137.2 12.1053ZM137.248 12.3953C137.193 12.6059 137.165 12.7846 137.161 12.9396C137.157 13.0905 137.173 13.2176 137.212 13.3169C137.252 13.4163 137.312 13.4878 137.391 13.5354C137.471 13.5831 137.566 13.6069 137.677 13.6069C137.788 13.6069 137.896 13.5831 137.999 13.5354C138.102 13.4878 138.198 13.4163 138.289 13.3169C138.38 13.2176 138.46 13.0945 138.535 12.9396C138.607 12.7886 138.67 12.6059 138.726 12.3953C138.778 12.1848 138.805 12.006 138.805 11.859C138.809 11.7081 138.789 11.5849 138.75 11.4896C138.71 11.3942 138.65 11.3227 138.571 11.279C138.496 11.2353 138.4 11.2115 138.289 11.2115C138.182 11.2115 138.074 11.2353 137.975 11.279C137.876 11.3227 137.78 11.3942 137.689 11.4896C137.598 11.5849 137.518 11.7081 137.443 11.859C137.367 12.01 137.3 12.1887 137.248 12.3953ZM137.626 12.3953C137.661 12.2483 137.709 12.1292 137.765 12.0259C137.82 11.9266 137.88 11.8471 137.943 11.7955C138.011 11.7438 138.082 11.716 138.158 11.716C138.233 11.716 138.289 11.7438 138.329 11.7955C138.368 11.8471 138.388 11.9226 138.392 12.0259C138.396 12.1252 138.376 12.2483 138.341 12.3953C138.305 12.5423 138.257 12.6654 138.206 12.7648C138.15 12.868 138.09 12.9435 138.023 12.9991C137.955 13.0508 137.884 13.0786 137.808 13.0786C137.733 13.0786 137.673 13.0508 137.633 12.9991C137.594 12.9475 137.574 12.868 137.57 12.7648C137.57 12.6654 137.586 12.5423 137.626 12.3953ZM140.386 13.5195C140.51 13.5195 140.633 13.5195 140.756 13.5195C140.815 13.2653 140.871 13.0111 140.931 12.7568C140.99 12.5065 141.046 12.2523 141.105 12.006C141.137 11.863 141.153 11.7398 141.153 11.6405C141.153 11.5412 141.137 11.4618 141.109 11.4061C141.082 11.3466 141.046 11.3068 140.998 11.279C140.951 11.2512 140.899 11.2393 140.843 11.2393C140.744 11.2393 140.645 11.2751 140.553 11.3466C140.462 11.4181 140.371 11.5174 140.291 11.6524C140.291 11.569 140.283 11.4975 140.267 11.434C140.251 11.3744 140.22 11.3267 140.176 11.2909C140.132 11.2552 140.077 11.2393 140.009 11.2393C139.957 11.2393 139.902 11.2512 139.85 11.2711C139.799 11.2949 139.747 11.3227 139.699 11.3585C139.652 11.3942 139.608 11.434 139.568 11.4777C139.528 11.5214 139.497 11.569 139.465 11.6127H139.461C139.489 11.5055 139.512 11.4022 139.54 11.2949C139.425 11.2949 139.306 11.2949 139.191 11.2949C139.099 11.6604 139.008 12.0259 138.917 12.3953C138.825 12.7648 138.734 13.1422 138.639 13.5156C138.762 13.5156 138.885 13.5156 139.008 13.5156C139.06 13.313 139.107 13.1104 139.155 12.9078C139.203 12.7052 139.254 12.5065 139.302 12.3039C139.322 12.2165 139.35 12.1411 139.377 12.0775C139.409 12.0139 139.441 11.9583 139.477 11.9186C139.512 11.8749 139.548 11.8471 139.588 11.8233C139.628 11.8034 139.663 11.7915 139.703 11.7915C139.731 11.7915 139.755 11.7955 139.775 11.8074C139.799 11.8193 139.814 11.8392 139.83 11.867C139.846 11.8948 139.854 11.9345 139.854 11.9822C139.854 12.0298 139.846 12.0934 139.83 12.1649C139.779 12.3874 139.723 12.6098 139.671 12.8323C139.616 13.0548 139.564 13.2812 139.509 13.5076C139.632 13.5076 139.755 13.5076 139.878 13.5076C139.926 13.305 139.973 13.1024 140.021 12.8998C140.069 12.6972 140.116 12.4986 140.164 12.296C140.184 12.2086 140.212 12.1331 140.239 12.0696C140.267 12.006 140.303 11.9504 140.335 11.9107C140.371 11.867 140.406 11.8392 140.446 11.8153C140.482 11.7955 140.522 11.7835 140.557 11.7835C140.585 11.7835 140.609 11.7875 140.633 11.7994C140.657 11.8113 140.676 11.8312 140.688 11.859C140.704 11.8868 140.712 11.9266 140.712 11.9742C140.712 12.0219 140.708 12.0855 140.688 12.157C140.637 12.3794 140.585 12.6019 140.533 12.8243C140.49 13.0667 140.438 13.2931 140.386 13.5195ZM141.614 12.4072C141.638 12.3 141.67 12.2086 141.705 12.1291C141.741 12.0497 141.781 11.9822 141.825 11.9305C141.868 11.8789 141.912 11.8392 141.96 11.8113C142.007 11.7835 142.051 11.7716 142.099 11.7716C142.146 11.7716 142.186 11.7835 142.222 11.8113C142.258 11.8392 142.285 11.8789 142.305 11.9305C142.325 11.9822 142.337 12.0497 142.337 12.1291C142.337 12.2086 142.325 12.3 142.305 12.4072C142.281 12.5145 142.254 12.6059 142.218 12.6853C142.182 12.7648 142.142 12.8323 142.099 12.8879C142.055 12.9435 142.011 12.9832 141.964 13.0111C141.916 13.0389 141.868 13.0508 141.821 13.0508C141.773 13.0508 141.733 13.0389 141.697 13.0111C141.662 12.9832 141.634 12.9435 141.614 12.8879C141.594 12.8323 141.586 12.7648 141.586 12.6853C141.578 12.6098 141.59 12.5145 141.614 12.4072ZM140.815 14.3657C140.939 14.3657 141.062 14.3657 141.189 14.3657C141.229 14.183 141.272 13.9963 141.312 13.8135C141.352 13.6308 141.395 13.448 141.435 13.2653C141.435 13.2653 141.435 13.2653 141.439 13.2653C141.447 13.3328 141.467 13.3924 141.499 13.4441C141.527 13.4957 141.57 13.5354 141.618 13.5632C141.67 13.5911 141.729 13.603 141.797 13.6069C141.884 13.6069 141.975 13.5752 142.063 13.5195C142.15 13.46 142.234 13.3805 142.313 13.2732C142.393 13.166 142.464 13.0389 142.528 12.8919C142.591 12.7449 142.643 12.582 142.683 12.3993C142.726 12.2046 142.746 12.0338 142.742 11.8908C142.742 11.7438 142.722 11.6246 142.683 11.5293C142.643 11.434 142.591 11.3624 142.528 11.3148C142.46 11.2671 142.381 11.2433 142.293 11.2433C142.242 11.2433 142.194 11.2512 142.142 11.2711C142.091 11.2909 142.039 11.3267 141.983 11.3783C141.928 11.43 141.868 11.5015 141.801 11.6008H141.797C141.821 11.5015 141.84 11.4022 141.864 11.3029C141.749 11.3029 141.63 11.3029 141.515 11.3029C141.399 11.8034 141.284 12.3079 141.169 12.8164C141.05 13.3249 140.935 13.8413 140.815 14.3657ZM142.639 13.5195C142.762 13.5195 142.885 13.5195 143.008 13.5195C143.044 13.3567 143.076 13.1938 143.112 13.0349C143.147 12.872 143.179 12.7131 143.215 12.5542C143.247 12.4112 143.286 12.2881 143.334 12.1848C143.382 12.0855 143.437 12.006 143.505 11.9544C143.568 11.9027 143.644 11.8749 143.727 11.8749C143.759 11.8749 143.795 11.8829 143.823 11.8948C143.854 11.9067 143.882 11.9226 143.914 11.9424C143.962 11.716 144.009 11.4896 144.053 11.2671C144.033 11.2592 144.013 11.2552 143.99 11.2512C143.966 11.2472 143.946 11.2472 143.926 11.2472C143.874 11.2472 143.827 11.2552 143.783 11.2751C143.739 11.2949 143.696 11.3227 143.652 11.3624C143.608 11.4022 143.568 11.4538 143.525 11.5134C143.481 11.573 143.433 11.6485 143.382 11.7319H143.378C143.41 11.5889 143.437 11.4459 143.469 11.3029C143.354 11.3029 143.235 11.3029 143.12 11.3029C143.04 11.6683 142.961 12.0338 142.881 12.4033C142.802 12.7687 142.718 13.1422 142.639 13.5195ZM144.86 12.6098C144.844 12.6853 144.824 12.7528 144.796 12.8124C144.768 12.872 144.736 12.9237 144.705 12.9674C144.669 13.0111 144.633 13.0468 144.593 13.0786C144.554 13.1064 144.514 13.1302 144.474 13.1461C144.434 13.162 144.395 13.166 144.359 13.166C144.311 13.166 144.276 13.1541 144.244 13.1302C144.216 13.1064 144.192 13.0706 144.184 13.023C144.176 12.9753 144.176 12.9197 144.188 12.8522C144.2 12.7846 144.22 12.733 144.244 12.6933C144.268 12.6535 144.295 12.6217 144.327 12.6019C144.359 12.582 144.399 12.5701 144.442 12.5622C144.514 12.5502 144.589 12.5383 144.661 12.5264C144.697 12.5224 144.736 12.5105 144.776 12.4986C144.816 12.4867 144.856 12.4628 144.895 12.4311C144.887 12.4867 144.871 12.5463 144.86 12.6098ZM144.403 11.9663C144.431 11.8908 144.458 11.8312 144.482 11.7875C144.51 11.7438 144.534 11.712 144.562 11.6882C144.589 11.6683 144.617 11.6524 144.649 11.6485C144.681 11.6405 144.717 11.6405 144.752 11.6405C144.824 11.6405 144.875 11.6485 144.915 11.6683C144.951 11.6882 144.979 11.716 144.987 11.7557C144.999 11.7955 144.999 11.8431 144.987 11.9027C144.975 11.9623 144.963 12.006 144.947 12.0378C144.931 12.0696 144.911 12.0934 144.887 12.1053C144.864 12.1172 144.832 12.1292 144.792 12.1331C144.661 12.153 144.526 12.1689 144.395 12.1848C144.347 12.1887 144.303 12.2007 144.256 12.2165C144.208 12.2324 144.16 12.2563 144.117 12.2841C144.073 12.3119 144.029 12.3556 143.986 12.4033C143.946 12.4549 143.91 12.5185 143.874 12.5939C143.843 12.6694 143.811 12.7648 143.791 12.872C143.763 13.0031 143.755 13.1143 143.759 13.2057C143.763 13.2971 143.783 13.3726 143.815 13.4321C143.847 13.4917 143.89 13.5354 143.946 13.5593C144.001 13.5871 144.065 13.599 144.141 13.599C144.184 13.599 144.228 13.595 144.28 13.5831C144.331 13.5712 144.383 13.5553 144.434 13.5315C144.486 13.5076 144.538 13.4719 144.589 13.4321C144.641 13.3885 144.689 13.3368 144.732 13.2732C144.728 13.313 144.721 13.3527 144.717 13.3924C144.713 13.4321 144.713 13.4719 144.709 13.5116C144.832 13.5116 144.955 13.5116 145.078 13.5116C145.074 13.456 145.078 13.3885 145.086 13.3169C145.094 13.2415 145.106 13.1541 145.126 13.0587C145.161 12.872 145.197 12.6893 145.233 12.5026C145.269 12.3198 145.304 12.1371 145.34 11.9544C145.356 11.8709 145.368 11.7915 145.372 11.72C145.376 11.6445 145.372 11.577 145.356 11.5134C145.34 11.4498 145.312 11.3982 145.277 11.3545C145.237 11.3108 145.185 11.2751 145.118 11.2472C145.05 11.2234 144.963 11.2075 144.86 11.2075C144.8 11.2075 144.74 11.2115 144.681 11.2194C144.617 11.2274 144.562 11.2472 144.502 11.2751C144.442 11.3029 144.387 11.3466 144.331 11.4022C144.276 11.4578 144.228 11.5293 144.18 11.6207C144.133 11.712 144.093 11.8233 144.057 11.9583C144.168 11.9663 144.284 11.9663 144.403 11.9663Z" fill="white"/>
<path d="M129.501 11.0767C129.707 11.0767 129.914 11.0767 130.125 11.0767C130.156 11.0767 130.184 11.0807 130.212 11.0926C130.24 11.1046 130.26 11.1244 130.28 11.1522C130.295 11.18 130.303 11.2198 130.307 11.2674C130.307 11.3151 130.295 11.3787 130.276 11.4541C130.256 11.5256 130.228 11.5852 130.2 11.6329C130.172 11.6806 130.14 11.7203 130.109 11.7521C130.077 11.7839 130.045 11.8037 130.013 11.8196C129.982 11.8315 129.954 11.8395 129.926 11.8395C129.711 11.8395 129.493 11.8395 129.278 11.8395C129.342 11.5852 129.421 11.331 129.501 11.0767ZM128.905 11.4144H125V11.7799H128.794L128.73 11.9825H125V12.3519H128.615L128.551 12.5545H125V12.92H128.44L128.365 13.1623H125V13.5278H128.25H128.257H128.265H128.273H128.277H128.281H128.289H128.297H128.305H128.313H128.321H128.329H128.337H128.345H128.353H128.361H128.369H128.377H128.385H128.393H128.397H128.401H128.408H128.416H128.424H128.432H128.44H128.448H128.456H128.464H128.472H128.48H128.488H128.496H128.504H128.512H128.52H128.75L129.116 12.4115C129.31 12.4115 129.505 12.4115 129.704 12.4115C129.743 12.4115 129.775 12.4195 129.803 12.4354C129.831 12.4513 129.85 12.4791 129.858 12.5188C129.87 12.5585 129.87 12.6102 129.862 12.6817C129.854 12.7492 129.835 12.8366 129.803 12.9438C129.779 13.0233 129.759 13.0908 129.739 13.1504C129.723 13.21 129.707 13.2617 129.7 13.3014C129.688 13.3451 129.68 13.3848 129.676 13.4206C129.672 13.4563 129.668 13.4921 129.668 13.5278C129.847 13.5278 130.025 13.5278 130.204 13.5278C130.196 13.4881 130.192 13.4404 130.196 13.3808C130.2 13.3212 130.212 13.2617 130.224 13.1941C130.236 13.1306 130.252 13.067 130.268 13.0074C130.283 12.9518 130.295 12.9041 130.307 12.8644C130.327 12.8048 130.343 12.7412 130.363 12.6697C130.379 12.6022 130.395 12.5347 130.407 12.4671C130.419 12.3996 130.423 12.336 130.423 12.2765C130.423 12.2169 130.411 12.1692 130.395 12.1295C130.379 12.0897 130.351 12.0659 130.311 12.054C130.311 12.05 130.311 12.05 130.315 12.0461C130.434 11.9825 130.538 11.8951 130.621 11.7719C130.705 11.6528 130.776 11.4978 130.832 11.3151C130.852 11.2515 130.867 11.184 130.879 11.1125C130.891 11.037 130.899 10.9655 130.895 10.894C130.895 10.8225 130.879 10.755 130.856 10.6954C130.832 10.6358 130.788 10.5881 130.732 10.5524C130.677 10.5166 130.597 10.4968 130.498 10.4968C130.061 10.4968 129.624 10.4968 129.191 10.4968L128.905 11.4144ZM131.789 12.8525C131.726 12.9518 131.658 13.0233 131.579 13.0749C131.503 13.1266 131.416 13.1504 131.328 13.1504C131.253 13.1504 131.193 13.1306 131.15 13.0948C131.106 13.0591 131.074 13.0114 131.054 12.9558C131.034 12.9002 131.026 12.8406 131.03 12.777C131.034 12.7134 131.042 12.6539 131.058 12.5982C131.058 12.5943 131.058 12.5943 131.062 12.5903C131.499 12.5903 131.932 12.5903 132.369 12.5903C132.377 12.5665 132.381 12.5466 132.389 12.5228C132.476 12.2367 132.516 11.9944 132.516 11.7918C132.512 11.5892 132.464 11.4383 132.369 11.331C132.274 11.2237 132.127 11.1721 131.932 11.1721C131.797 11.1721 131.67 11.1959 131.547 11.2436C131.424 11.2913 131.308 11.3628 131.197 11.4621C131.09 11.5614 130.991 11.6885 130.899 11.8435C130.808 11.9984 130.732 12.1811 130.665 12.3956C130.601 12.6102 130.566 12.7929 130.562 12.9478C130.558 13.1028 130.577 13.2299 130.629 13.3292C130.677 13.4285 130.748 13.504 130.844 13.5477C130.939 13.5953 131.054 13.6192 131.189 13.6192C131.324 13.6192 131.459 13.5914 131.586 13.5397C131.714 13.4881 131.837 13.4047 131.948 13.2895C132.063 13.1743 132.17 13.0312 132.266 12.8485C132.107 12.8525 131.948 12.8525 131.789 12.8525ZM131.197 12.1493C131.197 12.1454 131.197 12.1454 131.201 12.1414C131.205 12.1295 131.217 12.1056 131.233 12.0699C131.253 12.0302 131.277 11.9904 131.308 11.9428C131.34 11.8951 131.38 11.8474 131.428 11.8037C131.475 11.7561 131.527 11.7203 131.586 11.6885C131.646 11.6567 131.71 11.6409 131.781 11.6409C131.845 11.6409 131.896 11.6528 131.936 11.6806C131.976 11.7084 132.004 11.7402 132.023 11.7839C132.043 11.8276 132.055 11.8713 132.059 11.915C132.063 11.9626 132.063 12.0063 132.059 12.0461C132.055 12.0858 132.051 12.1215 132.039 12.1454C132.039 12.1493 132.039 12.1493 132.035 12.1533C131.757 12.1493 131.479 12.1493 131.197 12.1493ZM133.048 12.4036C133.08 12.2963 133.12 12.201 133.168 12.1176C133.215 12.0341 133.267 11.9666 133.322 11.911C133.378 11.8554 133.434 11.8156 133.493 11.7878C133.553 11.76 133.609 11.7441 133.668 11.7441C133.724 11.7441 133.771 11.7561 133.815 11.7878C133.855 11.8156 133.887 11.8554 133.91 11.911C133.934 11.9666 133.942 12.0341 133.942 12.1176C133.938 12.201 133.922 12.2963 133.891 12.4036C133.859 12.5108 133.819 12.6062 133.771 12.6896C133.724 12.773 133.672 12.8406 133.616 12.8962C133.561 12.9518 133.505 12.9915 133.446 13.0193C133.386 13.0471 133.33 13.063 133.275 13.063C133.219 13.063 133.168 13.0471 133.128 13.0193C133.084 12.9915 133.052 12.9518 133.033 12.8962C133.009 12.8406 133.001 12.773 133.005 12.6896C133.001 12.6062 133.017 12.5108 133.048 12.4036ZM133.549 13.5318C133.692 13.5318 133.835 13.5318 133.982 13.5318C134.137 13.0154 134.288 12.5029 134.443 11.9904C134.594 11.478 134.749 10.9655 134.9 10.457C134.753 10.457 134.602 10.457 134.455 10.457C134.399 10.6358 134.347 10.8185 134.292 10.9973C134.236 11.1761 134.185 11.3588 134.129 11.5376H134.125C134.117 11.47 134.097 11.4104 134.061 11.3588C134.026 11.3072 133.982 11.2674 133.922 11.2396C133.863 11.2118 133.791 11.1959 133.708 11.1959C133.601 11.1959 133.493 11.2237 133.386 11.2833C133.279 11.3389 133.172 11.4224 133.072 11.5296C132.973 11.6369 132.882 11.764 132.798 11.915C132.715 12.0659 132.643 12.2328 132.588 12.4155C132.528 12.6141 132.496 12.7889 132.488 12.9399C132.48 13.0908 132.496 13.214 132.536 13.3133C132.576 13.4126 132.631 13.4881 132.707 13.5397C132.782 13.5914 132.874 13.6152 132.981 13.6152C133.048 13.6152 133.116 13.6073 133.187 13.5834C133.259 13.5636 133.33 13.5238 133.402 13.4682C133.473 13.4126 133.549 13.3371 133.628 13.2418H133.632C133.605 13.3411 133.577 13.4364 133.549 13.5318Z" fill="white"/>
<rect x="160.5" y="0.5" width="31" height="23" rx="3.5" fill="white"/>
<rect x="160.5" y="0.5" width="31" height="23" rx="3.5" stroke="#E5E5E5"/>
<path d="M182.328 14.3492L183.038 13.8583V11.0044L182.328 10.7487V9.13795C182.328 8.64434 182.132 8.17095 181.783 7.82192C181.627 7.66587 180.467 7.2768 180.467 7.2768C180.467 7.2768 178.606 4.30141 177.482 4.32905C176.358 4.35669 172.672 7.2768 172.672 7.2768H170.789C170.295 7.2768 169.822 7.47288 169.473 7.82192C169.124 8.17095 168.928 8.64434 168.928 9.13795V15.8381C168.928 16.3317 169.124 16.8051 169.473 17.1541C169.822 17.5031 170.295 17.6992 170.789 17.6992L180.467 17.6992C180.96 17.6992 181.434 17.5031 181.783 17.1541C182.132 16.8051 182.328 16.3317 182.328 15.8381L182.328 14.3492Z" fill="#FFE600"/>
<path d="M180.467 17.6992V18.2992V17.6992ZM180.467 7.27682V7.87682V7.27682ZM178.706 4.89464L179.189 4.53803L179.186 4.53464L178.706 4.89464ZM176.689 4.54914L176.356 4.04991V4.04991L176.689 4.54914ZM172.265 6.77758C171.989 6.96139 171.915 7.33391 172.099 7.60963C172.282 7.88535 172.655 7.95985 172.931 7.77604L172.265 6.77758ZM180.467 10.6269V11.2269V10.6269ZM180.467 14.3492L180.467 13.7492H180.467V14.3492ZM178.606 12.488H179.206H178.606ZM170.789 7.27682L170.789 6.67682H170.789V7.27682ZM168.928 9.13797H168.328H168.928ZM170.789 17.6992L170.789 17.0992H170.789V17.6992ZM182.328 15.8381L181.728 15.8381V15.8381H182.328ZM179.186 4.53464C178.866 4.10748 178.394 3.81921 177.868 3.72906L177.665 4.91184C177.889 4.9502 178.09 5.07287 178.226 5.25464L179.186 4.53464ZM177.868 3.72906C177.342 3.63891 176.801 3.75372 176.356 4.04991L177.022 5.04837C177.211 4.92233 177.441 4.87348 177.665 4.91184L177.868 3.72906ZM176.356 4.04991L172.265 6.77758L172.931 7.77604L177.022 5.04837L176.356 4.04991ZM180.467 11.2269H182.328V10.0269H180.467V11.2269ZM182.328 11.2269C182.366 11.2269 182.403 11.2421 182.43 11.2692L183.279 10.4207C183.027 10.1685 182.685 10.0269 182.328 10.0269V11.2269ZM182.43 11.2692C182.457 11.2963 182.472 11.333 182.472 11.3713H183.672C183.672 11.0148 183.531 10.6728 183.279 10.4207L182.43 11.2692ZM182.472 11.3713V13.6047H183.672V11.3713H182.472ZM182.472 13.6047C182.472 13.643 182.457 13.6798 182.43 13.7069L183.279 14.5554C183.531 14.3033 183.672 13.9613 183.672 13.6047H182.472ZM182.43 13.7069C182.403 13.734 182.366 13.7492 182.328 13.7492V14.9492C182.685 14.9492 183.027 14.8075 183.279 14.5554L182.43 13.7069ZM182.328 13.7492L180.467 13.7492L180.467 14.9492L182.328 14.9492L182.328 13.7492ZM180.467 13.7492C180.132 13.7492 179.812 13.6163 179.575 13.3798L178.727 14.2283C179.188 14.6899 179.814 14.9492 180.467 14.9492V13.7492ZM179.575 13.3798C179.339 13.1433 179.206 12.8225 179.206 12.488H178.006C178.006 13.1408 178.265 13.7668 178.727 14.2283L179.575 13.3798ZM179.206 12.488C179.206 12.1536 179.339 11.8328 179.575 11.5963L178.727 10.7477C178.265 11.2093 178.006 11.8353 178.006 12.488H179.206ZM179.575 11.5963C179.812 11.3598 180.132 11.2269 180.467 11.2269V10.0269C179.814 10.0269 179.188 10.2862 178.727 10.7477L179.575 11.5963ZM182.928 10.6269V9.13797H181.728V10.6269H182.928ZM182.928 9.13797C182.928 8.48523 182.669 7.85922 182.207 7.39767L181.359 8.2462C181.595 8.48271 181.728 8.80349 181.728 9.13797H182.928ZM182.207 7.39767C181.746 6.93612 181.12 6.67682 180.467 6.67682V7.87682C180.801 7.87682 181.122 8.00969 181.359 8.2462L182.207 7.39767ZM180.467 6.67682L170.789 6.67682L170.789 7.87682L180.467 7.87682V6.67682ZM170.789 6.67682C170.136 6.67682 169.51 6.93612 169.049 7.39767L169.897 8.2462C170.134 8.00969 170.454 7.87682 170.789 7.87682V6.67682ZM169.049 7.39767C168.587 7.85923 168.328 8.48523 168.328 9.13797H169.528C169.528 8.80349 169.661 8.48271 169.897 8.2462L169.049 7.39767ZM168.328 9.13797V15.8381H169.528V9.13797H168.328ZM168.328 15.8381C168.328 16.4908 168.587 17.1168 169.049 17.5784L169.897 16.7299C169.661 16.4934 169.528 16.1726 169.528 15.8381H168.328ZM169.049 17.5784C169.51 18.0399 170.136 18.2992 170.789 18.2992V17.0992C170.454 17.0992 170.134 16.9664 169.897 16.7299L169.049 17.5784ZM170.789 18.2992L180.467 18.2992V17.0992L170.789 17.0992L170.789 18.2992ZM180.467 18.2992C181.12 18.2992 181.746 18.0399 182.207 17.5784L181.359 16.7299C181.122 16.9664 180.801 17.0992 180.467 17.0992V18.2992ZM182.207 17.5784C182.669 17.1168 182.928 16.4908 182.928 15.8381H181.728C181.728 16.1726 181.595 16.4934 181.359 16.7299L182.207 17.5784ZM182.928 15.8381L182.928 14.3492L181.728 14.3492L181.728 15.8381L182.928 15.8381ZM180.949 6.92021L179.189 4.53804L178.224 5.25125L179.984 7.63343L180.949 6.92021Z" fill="black" fill-opacity="0.9"/>
</svg>
