<svg width="273" height="24" viewBox="0 0 273 24" fill="none" xmlns="http://www.w3.org/2000/svg">
<rect x="1.26953" y="0.5" width="31" height="23" rx="3.5" fill="white"/>
<rect x="1.26953" y="0.5" width="31" height="23" rx="3.5" stroke="#E5E5E5"/>
<path fill-rule="evenodd" clip-rule="evenodd" d="M11.2697 15.2897H9.36577L7.93805 9.31627C7.87028 9.04149 7.72639 8.79857 7.51474 8.68408C6.98654 8.39636 6.40449 8.16738 5.76953 8.05189V7.82191H8.83664C9.25995 7.82191 9.57743 8.16738 9.63034 8.56859L10.3711 12.8774L12.2741 7.82191H14.1252L11.2697 15.2897ZM15.1839 15.2897H13.3857L14.8664 7.82191H16.6645L15.1839 15.2897ZM18.9908 9.89094C19.0437 9.48873 19.3612 9.25875 19.7316 9.25875C20.3136 9.20101 20.9476 9.31649 21.4768 9.60322L21.7942 7.99537C21.2651 7.76539 20.6831 7.6499 20.1549 7.6499C18.4097 7.6499 17.1397 8.6843 17.1397 10.1199C17.1397 11.2121 18.0393 11.7855 18.6742 12.131C19.3612 12.4754 19.6257 12.7054 19.5728 13.0499C19.5728 13.5666 19.0437 13.7966 18.5155 13.7966C17.8805 13.7966 17.2456 13.6243 16.6644 13.3366L16.347 14.9455C16.9819 15.2322 17.6689 15.3477 18.3038 15.3477C20.2607 15.4044 21.4768 14.371 21.4768 12.8199C21.4768 10.8666 18.9908 10.7521 18.9908 9.89094ZM27.7695 15.2897L26.3417 7.82191H24.8082C24.4907 7.82191 24.1732 8.05189 24.0674 8.39636L21.4236 15.2897H23.2746L23.6441 14.1986H25.9184L26.1301 15.2897H27.7695ZM25.0728 9.83307L25.601 12.6476H24.1204L25.0728 9.83307Z" fill="#1434CB"/>
<rect x="41.2695" y="0.5" width="31" height="23" rx="3.5" fill="white"/>
<rect x="41.2695" y="0.5" width="31" height="23" rx="3.5" stroke="#E5E5E5"/>
<ellipse cx="52.9373" cy="12" rx="6.16777" ry="6" fill="#EA001B"/>
<ellipse cx="60.6014" cy="12" rx="6.16777" ry="6" fill="#F79F1A"/>
<path fill-rule="evenodd" clip-rule="evenodd" d="M56.7693 16.7023C58.1925 15.6032 59.1051 13.9056 59.1051 12.0006C59.1051 10.0956 58.1925 8.39794 56.7693 7.29883C55.3462 8.39794 54.4336 10.0956 54.4336 12.0006C54.4336 13.9056 55.3462 15.6032 56.7693 16.7023Z" fill="#FF5F01"/>
<rect x="81.2695" y="0.5" width="31" height="23" rx="3.5" fill="white"/>
<rect x="81.2695" y="0.5" width="31" height="23" rx="3.5" stroke="#E5E5E5"/>
<path fill-rule="evenodd" clip-rule="evenodd" d="M94.0929 4H90.4802L86.7695 12.4659H89.782V19.9801L99.0743 19.9998L100.534 18.363L102.004 19.9932H104.77V17.6057L103.037 15.7274L104.77 13.8662V11.5273L104.769 11.5273V4H101.363L100.591 6.17095L99.8221 4H95.362V6.89679L94.0929 4Z" fill="white"/>
<path fill-rule="evenodd" clip-rule="evenodd" d="M96.3776 11.5197L96.3783 11.5214H94.3285L93.7788 10.1996H90.798L90.2483 11.5214H88.248L91.1636 4.92055H93.4746L96.3497 11.4562V4.91895L99.1607 4.92945L100.607 8.98653L102.063 4.91895H104.769V11.5197L103.028 11.5355V7.00065L101.384 11.5197H99.7953L98.1175 6.98621V11.5197H96.3776ZM91.4143 8.71775L92.289 6.61636L93.1625 8.71775H91.4143ZM90.781 12.4463V19.0523H96.325H96.3535H98.6465L100.545 16.9378L102.462 19.0523H104.769V18.9578L101.751 15.7447L104.769 12.4988V12.4463H102.485L100.596 14.5398L98.7118 12.4463H96.3535H96.325H90.781ZM96.3535 12.4767V13.9675H92.5854V15.0005H96.2634V16.4968H92.5854V17.5114H96.3535V19.0218L99.409 15.7447L96.3535 12.4767Z" fill="#016FD0"/>
<rect x="121.27" y="0.5" width="31" height="23" rx="3.5" fill="white"/>
<rect x="121.27" y="0.5" width="31" height="23" rx="3.5" stroke="#E5E5E5"/>
<path d="M126.77 8.2191C126.77 7.5597 127.306 7.02466 127.969 7.02466H145.567C146.229 7.02466 146.767 7.5597 146.767 8.2191V15.7746C146.767 16.434 146.229 16.9685 145.567 16.9685H127.969C127.306 16.9685 126.77 16.434 126.77 15.7746V8.2191Z" fill="white"/>
<path fill-rule="evenodd" clip-rule="evenodd" d="M127.887 7C127.277 7 126.783 7.49196 126.783 8.09845V8.13335H146.769V8.09845C146.769 7.49196 146.276 7 145.667 7H127.887ZM146.77 15.9012V15.874H126.783V15.9012C126.783 16.5077 127.278 16.9997 127.887 16.9997H145.667C146.276 16.9997 146.77 16.5077 146.77 15.9012Z" fill="#FBB110"/>
<path d="M140.615 11.988C140.615 13.5234 141.865 14.768 143.407 14.768C144.949 14.768 146.199 13.5234 146.199 11.988C146.199 10.4522 144.949 9.20756 143.407 9.20756C141.865 9.20756 140.615 10.4522 140.615 11.988ZM127.303 11.988C127.303 13.5234 128.554 14.768 130.096 14.768C131.638 14.768 132.888 13.5234 132.888 11.988C132.888 10.4522 131.638 9.20756 130.096 9.20756C128.554 9.20756 127.303 10.4522 127.303 11.988ZM146.769 15.3477H133.002C133.251 15.1743 133.482 14.937 133.734 14.6169L135.136 12.8351L135.749 13.6057L136.43 12.7031L135.834 11.9477L137.262 10.1337C137.715 9.55825 136.848 8.88195 136.395 9.45735L135.133 11.0608L133.851 9.43608C133.397 8.86231 132.532 9.54025 132.986 10.1146L134.435 11.9482L132.867 13.9406C132.31 14.6485 131.754 15.2976 130.65 15.3477H126.783V8.65942H140.478C140.242 8.83068 140.02 9.0603 139.779 9.36681L138.377 11.1481L137.764 10.378L137.083 11.2806L137.679 12.0355L136.251 13.8495C135.798 14.4249 136.665 15.1012 137.118 14.5258L138.38 12.9229L139.662 14.5471C140.116 15.1214 140.981 14.4435 140.527 13.8691L139.078 12.0349L140.646 10.0431C141.158 9.3919 141.669 8.79087 142.606 8.65942H146.769V15.3477ZM141.736 11.988C141.736 11.0685 142.484 10.3235 143.407 10.3235C144.331 10.3235 145.078 11.0685 145.078 11.988C145.078 12.907 144.331 13.6521 143.407 13.6521C142.484 13.6521 141.736 12.907 141.736 11.988ZM128.424 11.988C128.424 11.0685 129.173 10.3235 130.096 10.3235C131.019 10.3235 131.767 11.0685 131.767 11.988C131.767 12.907 131.019 13.6521 130.096 13.6521C129.173 13.6521 128.424 12.907 128.424 11.988Z" fill="#E70020"/>
<rect x="161.27" y="0.5" width="31" height="23" rx="3.5" fill="white"/>
<rect x="161.27" y="0.5" width="31" height="23" rx="3.5" stroke="#E5E5E5"/>
<g clip-path="url(#clip0_8272_11596)">
<path d="M178.08 9.24683V15.6345H183.503V14.2544H180.108V12.7765H183.185V11.4819H180.108V10.8224H183.503V9.24683H178.08Z" fill="#F3921A"/>
<path d="M184.236 11.2865H184.969V9.91863L186.288 11.6774V9.13696H184.236V11.2865Z" fill="#323184"/>
<path d="M184.236 12.6543H184.969V13.9733L186.288 12.2146V15.5367H184.236V12.6543Z" fill="#323184"/>
<path d="M187.025 9.77103V9.24536H187.249C187.305 9.24536 187.346 9.25025 187.371 9.25953C187.397 9.26881 187.417 9.28591 187.432 9.30985C187.447 9.33379 187.455 9.36163 187.455 9.3929C187.455 9.43247 187.444 9.46472 187.421 9.49061C187.398 9.5165 187.363 9.53262 187.317 9.53897C187.34 9.55217 187.359 9.56731 187.373 9.58294C187.388 9.59858 187.408 9.6274 187.434 9.66844L187.498 9.77103H187.371L187.294 9.65671C187.267 9.61568 187.248 9.59027 187.238 9.57952C187.228 9.56878 187.217 9.56145 187.206 9.55754C187.195 9.55363 187.177 9.55168 187.153 9.55168H187.131V9.77103H187.025ZM187.131 9.46765H187.21C187.261 9.46765 187.293 9.46569 187.305 9.4613C187.318 9.4569 187.328 9.44957 187.335 9.43882C187.342 9.42808 187.346 9.41537 187.346 9.39925C187.346 9.38166 187.341 9.3675 187.332 9.35626C187.322 9.34502 187.309 9.33867 187.292 9.33574C187.283 9.33476 187.257 9.33379 187.214 9.33379H187.131V9.46716L187.131 9.46765Z" fill="#323184"/>
<path d="M187.262 10.0162C186.982 10.0162 186.754 9.78802 186.754 9.50808C186.754 9.22815 186.982 9 187.262 9C187.542 9 187.77 9.22815 187.77 9.50808C187.77 9.78802 187.542 10.0162 187.262 10.0162ZM187.262 9.09771C187.036 9.09771 186.852 9.28189 186.852 9.50808C186.852 9.73428 187.036 9.91846 187.262 9.91846C187.488 9.91846 187.672 9.73428 187.672 9.50808C187.672 9.28189 187.488 9.09771 187.262 9.09771Z" fill="#323184"/>
<path d="M172.104 15.5955V9.14673H174.568C175.408 9.14673 175.957 9.17995 176.212 9.2459C176.604 9.34508 176.933 9.56003 177.198 9.89127C177.463 10.2225 177.595 10.6509 177.595 11.1756C177.595 11.5806 177.519 11.9212 177.366 12.1967C177.214 12.4727 177.02 12.6891 176.784 12.8469C176.549 13.0043 176.31 13.1088 176.067 13.1596C175.737 13.2226 175.259 13.2539 174.633 13.2539H174.122V15.595H172.104L172.104 15.5955ZM174.074 10.4658V11.8826H174.575C174.935 11.8826 175.176 11.8567 175.297 11.8044C175.419 11.7521 175.514 11.6705 175.583 11.5591C175.652 11.4478 175.686 11.3183 175.686 11.1708C175.686 10.989 175.638 10.8395 175.541 10.7213C175.445 10.6031 175.322 10.5293 175.174 10.5C175.065 10.4775 174.846 10.4658 174.516 10.4658H174.074Z" fill="#323184"/>
<path d="M165.77 13.4359L167.626 13.3382C167.699 13.6738 167.799 14.0095 168.023 14.1834C168.246 14.3573 168.364 14.4443 168.767 14.4443C169.21 14.4443 169.25 14.3627 169.474 14.1985C169.624 14.0842 169.699 13.9303 169.699 13.7383C169.699 13.6074 169.659 13.4989 169.577 13.413C169.492 13.3314 169.301 13.1579 169.004 13.0881C167.621 12.7813 167.038 12.5008 166.668 12.2473C166.155 11.8955 166.046 11.5042 166.046 10.8779C166.046 10.3132 166.317 9.9365 166.76 9.55152C167.203 9.16753 167.793 9.07275 168.724 9.07275C169.655 9.07275 170.269 9.21785 170.7 9.50853C171.131 9.79922 171.25 10.4001 171.412 10.9688L169.556 11.0665C169.486 10.8129 169.432 10.5525 169.239 10.4172C169.046 10.2824 168.823 10.1871 168.579 10.1871C168.334 10.1871 168.224 10.2296 168.029 10.3562C167.899 10.446 167.833 10.5628 167.833 10.7059C167.833 10.8286 167.89 10.9331 168.004 11.0191C168.158 11.1339 168.35 11.1974 169.263 11.4065C170.176 11.6151 170.716 11.92 171.078 12.2224C171.435 12.5292 171.614 12.9571 171.614 13.5053C171.614 14.1028 171.366 14.6162 170.87 15.0462C170.374 15.4756 169.738 15.6905 168.766 15.6905C167.884 15.6905 167.088 15.5108 166.574 15.1502C166.059 14.7902 165.928 14.0539 165.77 13.4359Z" fill="#323184"/>
</g>
<rect x="201.27" y="0.5" width="31" height="23" rx="3.5" fill="white"/>
<rect x="201.27" y="0.5" width="31" height="23" rx="3.5" stroke="#E5E5E5"/>
<path d="M210.397 12.17C210.462 12.192 210.538 12.2248 210.625 12.2682C210.778 12.3557 210.908 12.4754 211.018 12.6278C211.149 12.8457 211.214 13.107 211.214 13.4118C211.214 14.4578 210.581 14.9805 209.318 14.9805H206.868C206.802 14.9805 206.77 14.9477 206.77 14.8823V9.84951C206.77 9.78404 206.802 9.7513 206.868 9.7513H209.45C209.907 9.7513 210.277 9.87717 210.56 10.1272C210.843 10.3779 210.985 10.7103 210.985 11.1241C210.985 11.364 210.931 11.5762 210.822 11.7613C210.713 11.9471 210.571 12.0831 210.397 12.17ZM209.286 14.2286C209.656 14.2286 209.928 14.1688 210.103 14.0491C210.277 13.9294 210.364 13.7223 210.364 13.4282C210.364 13.1341 210.277 12.9275 210.103 12.8073C209.928 12.6876 209.656 12.6278 209.286 12.6278H207.75C207.663 12.6278 207.619 12.6605 207.619 12.726V14.1315C207.619 14.197 207.663 14.2297 207.75 14.2297H209.286V14.2286ZM207.75 10.5032C207.685 10.5032 207.652 10.5359 207.652 10.6014V11.7777C207.652 11.8432 207.685 11.8759 207.75 11.8759H209.253C209.819 11.8759 210.103 11.6473 210.103 11.1895C210.103 10.7318 209.819 10.5032 209.253 10.5032H207.75ZM215.691 12.17C215.757 12.192 215.822 12.2248 215.887 12.2682C216.061 12.3557 216.192 12.4754 216.28 12.6278C216.432 12.8457 216.508 13.107 216.508 13.4118C216.508 14.4578 215.876 14.9805 214.613 14.9805H212.162C212.096 14.9805 212.064 14.9477 212.064 14.8823V9.84951C212.064 9.78404 212.096 9.7513 212.162 9.7513H214.744C215.179 9.7513 215.544 9.87717 215.839 10.1272C216.133 10.3779 216.28 10.7103 216.28 11.1241C216.28 11.364 216.225 11.5762 216.117 11.7613C216.007 11.9471 215.865 12.0831 215.691 12.17ZM213.011 10.5032C212.946 10.5032 212.913 10.5359 212.913 10.6014V11.7777C212.913 11.8432 212.946 11.8759 213.011 11.8759H214.547C215.113 11.8759 215.397 11.6473 215.397 11.1895C215.397 10.7318 215.113 10.5032 214.547 10.5032H213.011ZM214.58 14.2286C214.95 14.2286 215.222 14.1688 215.397 14.0491C215.571 13.9294 215.658 13.7223 215.658 13.4282C215.658 13.1341 215.571 12.9275 215.397 12.8073C215.222 12.6876 214.95 12.6278 214.58 12.6278H213.011C212.946 12.6278 212.913 12.6605 212.913 12.726V14.1315C212.913 14.197 212.946 14.2297 213.011 14.2297H214.58V14.2286ZM221.181 9.81678C221.203 9.77331 221.225 9.7513 221.247 9.7513H222.096C222.118 9.7513 222.14 9.76259 222.162 9.78404C222.183 9.80605 222.183 9.82807 222.162 9.84951L219.45 14.9477C219.428 14.9697 219.4 14.9805 219.368 14.9805C219.335 14.9805 219.307 14.9697 219.286 14.9477L216.574 9.84951C216.552 9.82807 216.546 9.80605 216.557 9.78404C216.568 9.76259 216.595 9.7513 216.639 9.7513H217.456C217.499 9.7513 217.532 9.77331 217.554 9.81678L219.286 13.085C219.286 13.107 219.307 13.1177 219.351 13.1177C219.395 13.1177 219.428 13.107 219.45 13.085L221.181 9.81678ZM222.162 14.1637C222.14 14.2077 222.107 14.2292 222.064 14.2292H221.214C221.192 14.2292 221.176 14.2184 221.165 14.1964C221.154 14.175 221.149 14.153 221.149 14.131L223.861 9.03274C223.883 9.01129 223.916 9 223.96 9C224.003 9 224.036 9.01129 224.058 9.03274L226.77 14.131C226.77 14.153 226.764 14.175 226.753 14.1964C226.742 14.2184 226.726 14.2292 226.704 14.2292H225.855C225.811 14.2292 225.778 14.2077 225.756 14.1637L224.057 10.8955C224.035 10.852 224.002 10.83 223.959 10.83C223.914 10.83 223.882 10.852 223.86 10.8955L222.162 14.1637Z" fill="#004580"/>
<rect x="241.27" y="0.5" width="31" height="23" rx="3.5" fill="white"/>
<rect x="241.27" y="0.5" width="31" height="23" rx="3.5" stroke="#E5E5E5"/>
<path d="M263.098 14.3492L263.807 13.8583V11.0044L263.098 10.7487V9.13795C263.098 8.64434 262.901 8.17095 262.552 7.82192C262.396 7.66587 261.236 7.2768 261.236 7.2768C261.236 7.2768 259.375 4.30141 258.252 4.32905C257.128 4.35669 253.442 7.2768 253.442 7.2768H251.558C251.065 7.2768 250.591 7.47288 250.242 7.82192C249.893 8.17095 249.697 8.64434 249.697 9.13795V15.8381C249.697 16.3317 249.893 16.8051 250.242 17.1541C250.591 17.5031 251.065 17.6992 251.558 17.6992L261.236 17.6992C261.73 17.6992 262.203 17.5031 262.552 17.1541C262.901 16.8051 263.098 16.3317 263.098 15.8381L263.098 14.3492Z" fill="#FFE600"/>
<path d="M261.236 17.6992V18.2992V17.6992ZM261.236 7.27682V7.87682V7.27682ZM259.476 4.89464L259.958 4.53803L259.956 4.53464L259.476 4.89464ZM257.459 4.54914L257.126 4.04991V4.04991L257.459 4.54914ZM253.034 6.77758C252.759 6.96139 252.684 7.33391 252.868 7.60963C253.052 7.88535 253.424 7.95985 253.7 7.77604L253.034 6.77758ZM261.236 10.6269V11.2269V10.6269ZM261.236 14.3492L261.236 13.7492H261.236V14.3492ZM259.375 12.488H259.975H259.375ZM251.558 7.27682L251.558 6.67682H251.558V7.27682ZM249.697 9.13797H249.097H249.697ZM251.558 17.6992L251.558 17.0992H251.558V17.6992ZM263.098 15.8381L262.498 15.8381V15.8381H263.098ZM259.956 4.53464C259.635 4.10748 259.164 3.81921 258.637 3.72906L258.435 4.91184C258.659 4.9502 258.86 5.07287 258.996 5.25464L259.956 4.53464ZM258.637 3.72906C258.111 3.63891 257.57 3.75372 257.126 4.04991L257.792 5.04837C257.981 4.92233 258.211 4.87348 258.435 4.91184L258.637 3.72906ZM257.126 4.04991L253.034 6.77758L253.7 7.77604L257.792 5.04837L257.126 4.04991ZM261.236 11.2269H263.098V10.0269H261.236V11.2269ZM263.098 11.2269C263.136 11.2269 263.173 11.2421 263.2 11.2692L264.048 10.4207C263.796 10.1685 263.454 10.0269 263.098 10.0269V11.2269ZM263.2 11.2692C263.227 11.2963 263.242 11.333 263.242 11.3713H264.442C264.442 11.0148 264.3 10.6728 264.048 10.4207L263.2 11.2692ZM263.242 11.3713V13.6047H264.442V11.3713H263.242ZM263.242 13.6047C263.242 13.643 263.227 13.6798 263.2 13.7069L264.048 14.5554C264.3 14.3033 264.442 13.9613 264.442 13.6047H263.242ZM263.2 13.7069C263.173 13.734 263.136 13.7492 263.098 13.7492V14.9492C263.454 14.9492 263.796 14.8075 264.048 14.5554L263.2 13.7069ZM263.098 13.7492L261.236 13.7492L261.236 14.9492L263.098 14.9492L263.098 13.7492ZM261.236 13.7492C260.902 13.7492 260.581 13.6163 260.345 13.3798L259.496 14.2283C259.958 14.6899 260.584 14.9492 261.236 14.9492V13.7492ZM260.345 13.3798C260.108 13.1433 259.975 12.8225 259.975 12.488H258.775C258.775 13.1408 259.035 13.7668 259.496 14.2283L260.345 13.3798ZM259.975 12.488C259.975 12.1536 260.108 11.8328 260.345 11.5963L259.496 10.7477C259.035 11.2093 258.775 11.8353 258.775 12.488H259.975ZM260.345 11.5963C260.581 11.3598 260.902 11.2269 261.236 11.2269V10.0269C260.584 10.0269 259.958 10.2862 259.496 10.7477L260.345 11.5963ZM263.698 10.6269V9.13797H262.498V10.6269H263.698ZM263.698 9.13797C263.698 8.48523 263.438 7.85922 262.977 7.39767L262.128 8.2462C262.365 8.48271 262.498 8.80349 262.498 9.13797H263.698ZM262.977 7.39767C262.515 6.93612 261.889 6.67682 261.236 6.67682V7.87682C261.571 7.87682 261.892 8.00969 262.128 8.2462L262.977 7.39767ZM261.236 6.67682L251.558 6.67682L251.558 7.87682L261.236 7.87682V6.67682ZM251.558 6.67682C250.906 6.67682 250.28 6.93612 249.818 7.39767L250.667 8.2462C250.903 8.00969 251.224 7.87682 251.558 7.87682V6.67682ZM249.818 7.39767C249.357 7.85923 249.097 8.48523 249.097 9.13797H250.297C250.297 8.80349 250.43 8.48271 250.667 8.2462L249.818 7.39767ZM249.097 9.13797V15.8381H250.297V9.13797H249.097ZM249.097 15.8381C249.097 16.4908 249.357 17.1168 249.818 17.5784L250.667 16.7299C250.43 16.4934 250.297 16.1726 250.297 15.8381H249.097ZM249.818 17.5784C250.28 18.0399 250.906 18.2992 251.558 18.2992V17.0992C251.224 17.0992 250.903 16.9664 250.667 16.7299L249.818 17.5784ZM251.558 18.2992L261.236 18.2992V17.0992L251.558 17.0992L251.558 18.2992ZM261.236 18.2992C261.889 18.2992 262.515 18.0399 262.977 17.5784L262.128 16.7299C261.892 16.9664 261.571 17.0992 261.236 17.0992V18.2992ZM262.977 17.5784C263.438 17.1168 263.698 16.4908 263.698 15.8381H262.498C262.498 16.1726 262.365 16.4934 262.128 16.7299L262.977 17.5784ZM263.698 15.8381L263.698 14.3492L262.498 14.3492L262.498 15.8381L263.698 15.8381ZM261.719 6.92021L259.958 4.53804L258.993 5.25125L260.754 7.63343L261.719 6.92021Z" fill="black" fill-opacity="0.9"/>
<defs>
<clipPath id="clip0_8272_11596">
<rect width="22" height="6.69058" fill="white" transform="translate(165.77 9)"/>
</clipPath>
</defs>
</svg>
