<svg width="272" height="24" viewBox="0 0 272 24" fill="none" xmlns="http://www.w3.org/2000/svg">
<rect x="0.5" y="0.5" width="31" height="23" rx="3.5" fill="white"/>
<rect x="0.5" y="0.5" width="31" height="23" rx="3.5" stroke="#E5E5E5"/>
<g clip-path="url(#clip0_8585_24456)">
<path d="M16 22.0444C21.5228 22.0444 26 17.5573 26 12.0222C26 6.48709 21.5228 2 16 2C10.4772 2 6 6.48709 6 12.0222C6 17.5573 10.4772 22.0444 16 22.0444Z" fill="url(#paint0_radial_8585_24456)"/>
<path fill-rule="evenodd" clip-rule="evenodd" d="M22.2602 9.5266C22.253 9.52454 22.2455 9.52954 22.238 9.5346C22.2316 9.53892 22.2252 9.54328 22.2187 9.54328H20.4681C19.6756 9.54328 19.3177 10.4609 19.3029 10.5009C19.3017 10.5041 19.2998 10.505 19.2998 10.505C19.2998 10.505 19.2979 10.5059 19.2971 10.5094C19.2789 10.5916 18.8522 12.5213 18.8666 13.1585C18.8803 13.7579 19.4907 13.9758 19.8116 14.0101C19.8144 14.0104 19.8172 14.0092 19.82 14.0079C19.8225 14.0067 19.8251 14.0055 19.8276 14.0055H22.2614C22.3441 14.0055 22.4112 13.9288 22.4112 13.8462C22.4112 13.7635 22.3442 13.6868 22.2614 13.6868H19.8368C19.7606 13.6868 19.1768 13.5978 19.1663 13.1338C19.1606 12.8848 19.2315 12.4082 19.3169 11.9267L22.704 11.9014C22.7763 11.9009 22.8379 11.8502 22.8503 11.7789C22.8569 11.7417 23.009 10.8755 23.009 10.3561C23.0089 9.74371 22.3038 9.53922 22.2612 9.52689L22.2602 9.5266ZM22.5755 11.6059L19.3719 11.6326C19.4567 11.1825 19.5428 10.8025 19.5757 10.6571L19.5872 10.606C19.6214 10.5205 19.9153 9.8619 20.4681 9.8619H22.195C22.2885 9.8619 22.7094 10.0272 22.7094 10.3775C22.7094 10.7605 22.6174 11.3449 22.5755 11.6059ZM18.6929 9.54323H16.35L16.3408 9.54298C16.3333 9.54267 16.3259 9.54236 16.3186 9.54387C15.9458 9.62472 15.2433 10.0058 15.2469 10.8381C15.2275 11.1583 15.3678 11.6681 16.0374 11.8805H17.7075C17.7815 11.8805 18.2376 11.9849 18.2073 12.7804C18.1833 13.409 17.7581 13.6089 17.528 13.7172C17.4645 13.747 17.4158 13.7699 17.3946 13.7929H14.8067C14.7251 13.7929 14.6589 13.8707 14.6589 13.9523C14.6589 14.0339 14.7251 14.1116 14.8067 14.1116H17.4088C17.4131 14.1116 17.4173 14.1015 17.4216 14.0913C17.4257 14.0816 17.4297 14.072 17.4338 14.0713C17.789 14.0105 18.4695 13.6461 18.5028 12.7744C18.5457 11.647 17.7301 11.5758 17.7218 11.5753L16.0733 11.5705C15.5101 11.4675 15.5405 10.8696 15.5422 10.8435C15.5424 10.8413 15.5425 10.8456 15.5425 10.8456C15.5364 10.0906 16.254 9.86196 16.3674 9.86196H18.693C18.7746 9.86196 18.8408 9.78419 18.8408 9.70259C18.8407 9.621 18.7745 9.54323 18.6929 9.54323ZM13.9929 9.54333C14.1342 9.54333 14.8892 9.84262 14.8014 10.4404C14.801 10.4428 14.8008 10.4466 14.8006 10.4507C14.8003 10.456 14.8 10.4617 14.7994 10.4647L14.3931 12.9538C14.3922 12.9592 14.3909 12.9645 14.3896 12.9697C14.3807 13.0009 14.1672 13.7337 13.457 13.9467C13.4448 13.9505 13.4322 13.9525 13.4194 13.9528L11.9223 13.9956C11.9163 13.9961 11.9104 13.9957 11.9046 13.9951C11.8809 13.9928 11.4079 13.9425 11.0276 13.4628C10.8664 14.3485 10.7054 15.2369 10.6073 15.7794C10.5946 15.8499 10.5332 15.8992 10.4641 15.8992C10.4555 15.8992 10.4468 15.8984 10.4381 15.8968C10.359 15.8825 10.3064 15.8066 10.3207 15.7275C10.3207 15.7275 10.5527 14.4442 10.7865 13.1609C10.9033 12.5192 11.0205 11.8771 11.1093 11.3959C11.1539 11.155 11.1912 10.9537 11.2178 10.8131L11.2195 10.8043C11.2406 10.693 11.2547 10.6183 11.2707 10.5694L11.2682 10.5663C11.4329 10.1165 11.9456 9.63024 12.3232 9.57011C12.3285 9.5693 12.3339 9.56745 12.3392 9.56561C12.3471 9.56286 12.355 9.56014 12.3627 9.56097C12.4028 9.56234 12.5863 9.55952 12.8308 9.55575C13.1737 9.55047 13.637 9.54333 13.9929 9.54333ZM14.1073 12.8971L14.5107 10.4348C14.5527 10.1604 14.1322 9.86684 13.9593 9.86812C13.8525 9.86854 13.5114 9.86971 13.17 9.87024C12.964 9.87067 12.7578 9.87077 12.6034 9.87056L12.599 9.87055C12.4956 9.87034 12.4205 9.87019 12.3654 9.86684C12.1189 9.90902 11.6793 10.3013 11.5435 10.6663C11.5178 10.7809 11.3196 11.8609 11.1037 13.0458C11.4001 13.6104 11.8576 13.6945 11.9252 13.704L13.3913 13.6621C13.9007 13.4983 14.0862 12.963 14.1073 12.8971Z" fill="white"/>
<path fill-rule="evenodd" clip-rule="evenodd" d="M7.51048 7.62293C7.51048 7.42712 7.39159 7.26261 7.22734 7.20288C7.08859 7.45449 6.96036 7.7128 6.84338 7.97719C6.91329 8.03373 6.99935 8.06854 7.09369 8.06854C7.32392 8.06854 7.51048 7.869 7.51048 7.62293ZM7.93131 9.47521C8.1615 9.47521 8.3481 9.2757 8.3481 9.0296C8.3481 8.7835 8.1615 8.58399 7.93131 8.58399C7.70113 8.58399 7.51453 8.7835 7.51453 9.0296C7.51453 9.2757 7.70113 9.47521 7.93131 9.47521ZM6.55043 8.71918C6.62352 8.79946 6.66888 8.90882 6.66888 9.02967C6.66888 9.25018 6.51866 9.43205 6.3219 9.46772C6.38841 9.21409 6.46479 8.9645 6.55043 8.71918ZM7.98942 14.9041C8.2196 14.9041 8.4062 14.7046 8.4062 14.4585C8.4062 14.2124 8.2196 14.0129 7.98942 14.0129C7.75923 14.0129 7.57263 14.2124 7.57263 14.4585C7.57263 14.7046 7.75923 14.9041 7.98942 14.9041ZM6.2207 14.0952C6.38803 14.1206 6.51712 14.2727 6.51712 14.4585C6.51712 14.5762 6.46453 14.6798 6.3841 14.7473C6.32238 14.5328 6.26809 14.3153 6.2207 14.0952ZM7.50857 15.9115C7.50857 15.6655 7.32201 15.4659 7.09178 15.4659C6.92742 15.4659 6.78676 15.5685 6.71887 15.7162C6.80514 15.9295 6.89842 16.1393 6.99882 16.345C7.02878 16.3524 7.0597 16.357 7.09178 16.357C7.3219 16.3572 7.50857 16.1576 7.50857 15.9115ZM7.38019 13.0737H8.21599L8.94098 11.7959H6C6.00138 11.7247 6.00372 11.6537 6.00659 11.5829H8.03432L7.28871 10.3052H6.14098C6.15936 10.1982 6.17891 10.0916 6.20058 9.98578H7.12319H7.35766H7.4212L8.33222 11.5829H10.5484V11.7959H9.19649L8.31989 13.3931H8.29992H8.06438H7.38019C7.326 13.606 7.17078 13.6934 6.9855 13.6934C6.75527 13.6934 6.56871 13.4853 6.56871 13.2392C6.56871 12.9931 6.75527 12.784 6.9855 12.784C7.17078 12.784 7.326 12.9673 7.38019 13.0737Z" fill="#FDB718"/>
<path fill-rule="evenodd" clip-rule="evenodd" d="M13.429 7.87728L13.3244 7.8584L13.1145 9.02635L13.2191 9.04523L13.3355 8.39718C13.3367 8.39511 13.3382 8.39256 13.34 8.38963C13.3456 8.38038 13.354 8.3675 13.365 8.3534C13.3858 8.32668 13.4133 8.29865 13.4456 8.28101L13.4494 8.28069C13.4584 8.27998 13.4714 8.27907 13.4871 8.27822C13.5188 8.27652 13.5613 8.27513 13.6053 8.2763C13.6497 8.27747 13.6936 8.2812 13.7288 8.28901C13.7464 8.29291 13.7602 8.29748 13.7702 8.30232C13.7805 8.30731 13.7841 8.31168 13.7841 8.31168L13.792 8.32293L13.8034 8.32849L13.8067 8.33066C13.8099 8.33302 13.8147 8.33705 13.8195 8.343C13.8281 8.35372 13.8387 8.3727 13.8381 8.40504L13.7347 9.00755L13.8394 9.0256L13.9438 8.4195L13.9441 8.41257C13.9466 8.35028 13.9258 8.30546 13.902 8.276C13.8905 8.26167 13.8786 8.25146 13.8693 8.24466L13.8628 8.24016C13.8493 8.22503 13.8326 8.21428 13.8164 8.20646C13.7966 8.19683 13.7742 8.19002 13.7518 8.18505C13.707 8.17511 13.6554 8.17111 13.6081 8.16986C13.5604 8.1686 13.5149 8.1701 13.4815 8.17189C13.4647 8.17279 13.4509 8.17377 13.4412 8.17453L13.4298 8.17547L13.4268 8.17575L13.4256 8.17586L13.4162 8.17677L13.4077 8.18084C13.3946 8.18716 13.3822 8.19442 13.3706 8.20228L13.429 7.87728ZM13.3706 8.20228C13.3321 8.22831 13.3022 8.26096 13.2812 8.28795C13.2672 8.30589 13.2565 8.32227 13.2492 8.33427C13.2456 8.34029 13.2428 8.34526 13.2408 8.34885L13.2385 8.35317L13.2374 8.35515L13.3324 8.40283L13.3338 8.40027C13.3343 8.3994 13.3349 8.39837 13.3355 8.39718L13.3706 8.20228ZM12.1998 8.28211H11.7626V8.17563H12.2171L12.2244 8.1778L12.2257 8.17819L12.2278 8.17887L12.234 8.18112C12.239 8.18304 12.2457 8.18587 12.2535 8.1898C12.2689 8.1976 12.2893 8.21015 12.309 8.22924C12.3501 8.2692 12.384 8.33423 12.3698 8.42962L12.2785 9.06972H11.7529L11.744 9.06641L11.7425 9.06584L11.7398 9.06476L11.7314 9.06102C11.7244 9.0578 11.715 9.05303 11.7043 9.04655C11.683 9.03373 11.655 9.01335 11.6308 8.98357C11.6062 8.9534 11.5853 8.91339 11.5796 8.86282C11.574 8.81232 11.584 8.75545 11.6144 8.69222L11.62 8.68055L11.6623 8.71536L11.6213 8.68152L11.6229 8.67961L11.6267 8.67517C11.6299 8.67145 11.6345 8.66627 11.6403 8.66012C11.6519 8.64788 11.6683 8.63143 11.688 8.61482C11.7075 8.59835 11.7312 8.58082 11.7571 8.56721C11.7827 8.55379 11.8138 8.54244 11.8472 8.54244H11.849L12.2445 8.55578L12.2647 8.41438C12.2735 8.35549 12.2536 8.32368 12.2351 8.30575C12.2249 8.29588 12.214 8.28911 12.2056 8.28484L12.1998 8.28211ZM12.2294 8.66181L11.8465 8.64893C11.8366 8.6491 11.8232 8.65275 11.8064 8.66156C11.7895 8.67039 11.7724 8.68278 11.7565 8.69622C11.7407 8.70954 11.7272 8.72301 11.7176 8.73321C11.7132 8.73787 11.7097 8.74178 11.7072 8.74457C11.6863 8.79031 11.6823 8.82512 11.6852 8.85094C11.6882 8.87782 11.6991 8.8991 11.7131 8.91622C11.7273 8.93373 11.7446 8.94665 11.759 8.9553C11.7647 8.95874 11.7697 8.96137 11.7736 8.96324H12.1864L12.2294 8.66181ZM12.6591 8.17563H13.1186V8.28211H12.6859L12.6771 8.28793C12.6644 8.29669 12.6467 8.31044 12.6278 8.3298C12.5901 8.36835 12.5481 8.42881 12.5312 8.51694L12.5297 8.52491L12.5283 8.52705L12.5255 8.53563C12.5232 8.5433 12.5199 8.55473 12.5162 8.56921C12.5088 8.59824 12.5002 8.63912 12.4952 8.68623C12.4859 8.77508 12.4901 8.88001 12.5337 8.96985L12.5561 8.97485H12.9702V9.08133H12.5385L12.5388 9.08006L12.4638 9.06334L12.4521 9.0429C12.3825 8.92076 12.3785 8.78018 12.3896 8.67502C12.3952 8.62175 12.4049 8.57575 12.4132 8.54301C12.4174 8.5266 12.4212 8.51342 12.424 8.5042L12.4275 8.49341C12.4496 8.38271 12.5033 8.30503 12.5518 8.25534C12.5763 8.23029 12.5995 8.2122 12.6169 8.20021C12.6256 8.1942 12.6329 8.18969 12.6382 8.18657L12.6447 8.18292L12.6467 8.18184L12.6477 8.18135L12.6591 8.17563Z" fill="white"/>
</g>
<rect x="40.5" y="0.5" width="31" height="23" rx="3.5" fill="white"/>
<rect x="40.5" y="0.5" width="31" height="23" rx="3.5" stroke="#E5E5E5"/>
<path fill-rule="evenodd" clip-rule="evenodd" d="M50.5002 15.2897H48.5962L47.1685 9.31627C47.1007 9.04149 46.9569 8.79857 46.7452 8.68408C46.217 8.39636 45.635 8.16738 45 8.05189V7.82191H48.0671C48.4904 7.82191 48.8079 8.16738 48.8608 8.56859L49.6016 12.8774L51.5046 7.82191H53.3556L50.5002 15.2897ZM54.4143 15.2897H52.6162L54.0969 7.82191H55.895L54.4143 15.2897ZM58.2212 9.89094C58.2742 9.48873 58.5916 9.25875 58.962 9.25875C59.5441 9.20101 60.1781 9.31649 60.7072 9.60322L61.0247 7.99537C60.4956 7.76539 59.9135 7.6499 59.3853 7.6499C57.6401 7.6499 56.3702 8.6843 56.3702 10.1199C56.3702 11.2121 57.2697 11.7855 57.9047 12.131C58.5916 12.4754 58.8562 12.7054 58.8033 13.0499C58.8033 13.5666 58.2742 13.7966 57.746 13.7966C57.111 13.7966 56.476 13.6243 55.8949 13.3366L55.5774 14.9455C56.2124 15.2322 56.8993 15.3477 57.5343 15.3477C59.4912 15.4044 60.7072 14.371 60.7072 12.8199C60.7072 10.8666 58.2212 10.7521 58.2212 9.89094ZM66.9999 15.2897L65.5722 7.82191H64.0386C63.7212 7.82191 63.4037 8.05189 63.2979 8.39636L60.6541 15.2897H62.5051L62.8746 14.1986H65.1489L65.3605 15.2897H66.9999ZM64.3033 9.83307L64.8315 12.6476H63.3509L64.3033 9.83307Z" fill="#1434CB"/>
<rect x="80.5" y="0.5" width="31" height="23" rx="3.5" fill="white"/>
<rect x="80.5" y="0.5" width="31" height="23" rx="3.5" stroke="#E5E5E5"/>
<ellipse cx="92.1678" cy="12" rx="6.16777" ry="6" fill="#EA001B"/>
<ellipse cx="99.8318" cy="12" rx="6.16777" ry="6" fill="#F79F1A"/>
<path fill-rule="evenodd" clip-rule="evenodd" d="M95.9998 16.7023C97.4229 15.6032 98.3355 13.9056 98.3355 12.0006C98.3355 10.0956 97.4229 8.39794 95.9998 7.29883C94.5767 8.39794 93.6641 10.0956 93.6641 12.0006C93.6641 13.9056 94.5767 15.6032 95.9998 16.7023Z" fill="#FF5F01"/>
<rect x="120.5" y="0.5" width="31" height="23" rx="3.5" fill="white"/>
<rect x="120.5" y="0.5" width="31" height="23" rx="3.5" stroke="#E5E5E5"/>
<path d="M136 22C141.523 22 146 17.5228 146 12C146 6.47715 141.523 2 136 2C130.477 2 126 6.47715 126 12C126 17.5228 130.477 22 136 22Z" fill="#F9D94A"/>
<path fill-rule="evenodd" clip-rule="evenodd" d="M137.491 4C141.825 4 144.68 7.5764 143.859 12C143.039 16.4236 138.854 20 134.515 20C130.175 20 127.32 16.4236 128.141 12C128.966 7.58209 133.146 4 137.491 4ZM139.558 5.04051C142.247 6.00711 143.804 8.75906 143.2 12C142.496 15.7811 139.109 18.8969 135.429 19.2893C135.135 19.2779 135.13 19.113 135.124 18.8571C135.141 18.334 135.158 17.8053 135.169 17.2822C135.174 17.2026 135.146 17.1798 135.113 17.1684C134.736 17.1286 134.365 17.0434 133.994 16.924C133.594 16.7647 133.195 16.5316 132.796 16.2644C132.613 16.1734 132.636 15.7356 132.641 15.565C132.674 15.2523 132.896 14.5359 133.256 14.5018C133.683 14.479 133.888 14.7122 134.315 14.9225C135.063 15.2864 136.105 15.4968 136.876 15.1272C137.247 14.8941 137.336 14.5814 137.164 14.1834C136.859 13.5352 135.412 13.0007 134.758 12.6766C133.184 11.9886 132.309 10.5956 132.586 8.93532C132.791 7.71286 133.91 6.78038 135.08 6.60981V6.03554C133.633 6.46766 132.536 7.32054 131.549 8.30988C130.119 9.74271 129.277 11.5565 129.21 13.8706C129.321 16.7022 130.757 17.9588 132.259 18.8969C129.681 17.8735 128.207 15.1727 128.8 12C129.521 8.11656 133.073 4.93817 136.87 4.6823C137.02 4.77328 137.031 4.79033 137.109 4.99502C137.075 5.48401 137.048 5.97299 137.014 6.46198C137.763 6.61549 138.472 6.83724 139.043 7.33191C139.06 8.45771 138.239 8.92395 137.929 8.75338C137.945 8.7022 136.693 8.34399 136.432 8.28145C136.116 8.23028 135.806 8.24733 135.49 8.39517C135.124 8.57143 134.947 8.83866 135.124 9.25942C135.274 9.57214 135.523 9.77114 135.8 9.9474C136.588 10.3852 137.375 10.823 138.167 11.2608C138.849 11.6532 139.331 12.1592 139.647 12.779C139.874 13.3873 139.924 14.0071 139.791 14.6382C139.636 15.15 139.448 15.5991 139.159 15.8778C138.921 16.1564 138.655 16.3781 138.372 16.5316C137.973 16.7477 137.569 16.941 137.153 17.0092C137.142 17.2708 137.131 17.5267 137.114 17.7882C137.147 17.8053 137.181 17.7996 137.219 17.7882C138.112 17.4925 138.893 16.9751 139.658 16.4065C140.65 15.5082 141.576 14.57 142.058 13.3589C142.391 12.6823 142.646 11.9318 142.768 11.0505C143.034 8.5828 142.158 6.25728 139.558 5.04051Z" fill="black"/>
<rect x="160.5" y="0.5" width="31" height="23" rx="3.5" fill="white"/>
<rect x="160.5" y="0.5" width="31" height="23" rx="3.5" stroke="#E5E5E5"/>
<path fill-rule="evenodd" clip-rule="evenodd" d="M173.323 4H169.711L166 12.4659H169.012V19.9801L178.305 19.9998L179.764 18.363L181.235 19.9932H184V17.6057L182.267 15.7274L184 13.8662V11.5273L184 11.5273V4H180.593L179.822 6.17095L179.053 4H174.593V6.89679L173.323 4Z" fill="white"/>
<path fill-rule="evenodd" clip-rule="evenodd" d="M175.608 11.5197L175.609 11.5214H173.559L173.009 10.1996H170.028L169.479 11.5214H167.479L170.394 4.92055H172.705L175.58 11.4562V4.91895L178.391 4.92945L179.838 8.98653L181.294 4.91895H183.999V11.5197L182.259 11.5355V7.00065L180.615 11.5197H179.026L177.348 6.98621V11.5197H175.608ZM170.645 8.71775L171.52 6.61636L172.393 8.71775H170.645ZM170.011 12.4463V19.0523H175.555H175.584H177.877L179.775 16.9378L181.692 19.0523H183.999V18.9578L180.982 15.7447L183.999 12.4988V12.4463H181.716L179.826 14.5398L177.942 12.4463H175.584H175.555H170.011ZM175.584 12.4767V13.9675H171.816V15.0005H175.494V16.4968H171.816V17.5114H175.584V19.0218L178.639 15.7447L175.584 12.4767Z" fill="#016FD0"/>
<rect x="200.5" y="0.5" width="31" height="23" rx="3.5" fill="white"/>
<rect x="200.5" y="0.5" width="31" height="23" rx="3.5" stroke="#E5E5E5"/>
<path d="M205.047 9.75851C204.761 8.69158 205.394 7.59491 206.461 7.30902L221.916 3.16792C222.983 2.88203 224.08 3.5152 224.365 4.58213L226.954 14.2414C227.24 15.3083 226.606 16.405 225.539 16.6909L210.085 20.832C209.018 21.1179 207.921 20.4847 207.635 19.4178L205.047 9.75851Z" fill="#F3CE13"/>
<path d="M219.568 12.074L219.346 12.1336L219.268 12.4296L219.381 12.3994L219.568 12.074Z" fill="#00559E"/>
<path d="M212.886 14.7226L213.326 14.6048L213.294 14.4857L212.854 14.6035L212.787 14.3535L213.249 14.2298L213.223 14.1079L212.604 14.2739L212.842 15.1646L213.465 14.9978L213.44 14.8756L212.961 15.0039L212.886 14.7226Z" fill="#00559E"/>
<path d="M210.734 14.9356C210.779 14.8916 210.839 14.8592 210.913 14.8393C210.996 14.8171 211.081 14.8147 211.164 14.8322L211.179 14.8354L211.212 14.7098L211.196 14.706C211.103 14.684 210.997 14.6888 210.88 14.7201C210.803 14.7408 210.735 14.7711 210.677 14.8103C210.62 14.8497 210.574 14.8959 210.542 14.9477C210.51 14.9993 210.49 15.0571 210.481 15.1194C210.473 15.1815 210.478 15.2464 210.495 15.3126C210.514 15.3809 210.541 15.4409 210.578 15.4911C210.614 15.5416 210.659 15.5822 210.712 15.6119C210.764 15.6417 210.825 15.6593 210.895 15.6646C210.963 15.6697 211.038 15.6618 211.116 15.6408C211.235 15.6088 211.327 15.564 211.388 15.5075L211.397 15.4989L211.339 15.3912L211.323 15.4028C211.25 15.4583 211.175 15.4969 211.098 15.5174C211.039 15.5333 210.984 15.5389 210.934 15.5342C210.885 15.5294 210.842 15.5157 210.806 15.4932C210.77 15.4703 210.739 15.4403 210.714 15.404C210.689 15.3673 210.67 15.3235 210.656 15.2738C210.639 15.2076 210.636 15.1448 210.648 15.0874C210.661 15.0304 210.69 14.9794 210.734 14.9356Z" fill="#00559E"/>
<path d="M214.318 13.9268C214.258 13.9052 214.19 13.895 214.116 13.8962C214.043 13.8974 213.962 13.9097 213.876 13.9328L213.576 14.0132L213.815 14.9039L214.135 14.8182C214.307 14.772 214.433 14.6973 214.51 14.5957C214.588 14.493 214.608 14.3677 214.569 14.2235C214.549 14.1482 214.517 14.0849 214.475 14.0352C214.432 13.9852 214.379 13.9488 214.318 13.9268ZM213.76 14.0917L213.905 14.0529C214.042 14.0162 214.154 14.0145 214.239 14.0478C214.322 14.0805 214.38 14.1549 214.41 14.2693C214.439 14.3762 214.427 14.4667 214.375 14.5382C214.323 14.6108 214.23 14.6653 214.1 14.7002L213.935 14.7444L213.76 14.0917L213.76 14.0917Z" fill="#00559E"/>
<path d="M213.137 13.7971L212.914 13.8567L212.836 14.1527L212.949 14.1226L213.137 13.7971Z" fill="#00559E"/>
<path d="M212.224 14.9277C212.207 14.9118 212.191 14.8985 212.178 14.8877C212.177 14.8869 212.176 14.8862 212.176 14.8855C212.226 14.8541 212.263 14.8152 212.285 14.7697C212.311 14.7181 212.315 14.6627 212.3 14.6049C212.292 14.576 212.282 14.5505 212.268 14.5291C212.255 14.5077 212.24 14.4896 212.223 14.4756C212.206 14.4615 212.185 14.4508 212.162 14.4436C212.139 14.4367 212.115 14.4325 212.091 14.431C212.067 14.4295 212.039 14.4307 212.008 14.4345C211.979 14.438 211.948 14.4431 211.918 14.4496C211.888 14.4559 211.853 14.4644 211.816 14.4744L211.473 14.5664L211.714 15.467L211.868 15.4256L211.761 15.024L211.929 14.9833C211.971 14.9721 212.009 14.9612 212.04 14.951C212.057 14.9665 212.091 15.0013 212.141 15.0547L212.361 15.2938L212.536 15.2469L212.268 14.9689C212.257 14.9575 212.243 14.9438 212.224 14.9277ZM212.152 14.6464C212.165 14.6951 212.159 14.7332 212.134 14.763C212.109 14.7941 212.053 14.8212 211.968 14.8438C211.936 14.8525 211.89 14.8643 211.831 14.8795C211.785 14.8912 211.751 14.8999 211.729 14.9056L211.659 14.6463L211.918 14.5771C211.992 14.5572 212.048 14.5535 212.084 14.5662C212.118 14.5784 212.14 14.6046 212.152 14.6464Z" fill="#00559E"/>
<path d="M221.304 11.9423L221.152 11.9829L221.391 12.8736L221.542 12.833L221.304 11.9423Z" fill="#00559E"/>
<path d="M219.283 12.4823L219.114 13.484L219.271 13.442L219.322 13.1363L219.71 13.0323L219.902 13.2727L220.06 13.2304L219.426 12.4439L219.283 12.4823ZM219.627 12.9307L219.344 13.0063L219.397 12.6257C219.435 12.6775 219.512 12.7796 219.627 12.9307Z" fill="#00559E"/>
<path d="M220.387 12.3491C220.432 12.3051 220.492 12.2727 220.566 12.2529C220.649 12.2307 220.733 12.2283 220.816 12.2458L220.831 12.249L220.865 12.1234L220.848 12.1195C220.756 12.0975 220.649 12.1023 220.532 12.1337C220.455 12.1544 220.387 12.1847 220.33 12.2239C220.272 12.2634 220.226 12.3096 220.194 12.3612C220.162 12.413 220.142 12.4708 220.134 12.5329C220.125 12.5951 220.13 12.6601 220.148 12.7261C220.166 12.7944 220.194 12.8545 220.23 12.9046C220.267 12.9552 220.312 12.9959 220.364 13.0254C220.416 13.0551 220.478 13.0728 220.547 13.0781C220.615 13.0832 220.69 13.0753 220.769 13.0543C220.888 13.0223 220.979 12.9775 221.04 12.921L221.049 12.9125L220.991 12.8046L220.976 12.8163C220.902 12.8718 220.827 12.9104 220.75 12.9309C220.691 12.9468 220.636 12.9525 220.586 12.9477C220.536 12.943 220.493 12.9293 220.458 12.9067C220.422 12.8839 220.391 12.8539 220.366 12.8175C220.341 12.7806 220.322 12.7367 220.308 12.6873C220.291 12.6212 220.288 12.5584 220.301 12.5008C220.313 12.444 220.342 12.393 220.387 12.3491Z" fill="#00559E"/>
<path d="M222.062 12.5648L221.856 11.7949L221.703 11.8357L221.942 12.7264L222.54 12.5661L222.513 12.4438L222.062 12.5648Z" fill="#00559E"/>
<path d="M214.954 13.6437L214.803 13.6843L215.041 14.575L215.193 14.5344L214.954 13.6437Z" fill="#00559E"/>
<path d="M218.368 13.6842L218.519 13.6436L218.416 13.26L218.839 13.1466L218.808 13.03L218.385 13.1433L218.313 12.873L218.756 12.7544L218.73 12.6323L218.129 12.7935L218.368 13.6842Z" fill="#00559E"/>
<path d="M215.27 13.6883L215.586 13.6039L215.792 14.3744L215.944 14.3336L215.738 13.5631L216.053 13.4786L216.021 13.3585L215.238 13.5681L215.27 13.6883Z" fill="#00559E"/>
<path d="M216.741 13.1492C216.584 13.1913 216.471 13.2661 216.404 13.3717C216.338 13.4774 216.324 13.6028 216.362 13.7441C216.386 13.8354 216.427 13.9112 216.483 13.969C216.54 14.0275 216.612 14.0661 216.698 14.084C216.784 14.1016 216.881 14.0963 216.987 14.0681C217.065 14.0472 217.133 14.0169 217.19 13.978C217.247 13.9388 217.292 13.8929 217.323 13.8412C217.354 13.7899 217.374 13.7323 217.381 13.6701C217.388 13.6084 217.383 13.5431 217.365 13.4759C217.327 13.3354 217.252 13.2341 217.141 13.1752C217.031 13.1165 216.896 13.1077 216.741 13.1492ZM216.773 13.2688C216.885 13.2388 216.978 13.2458 217.051 13.2894C217.124 13.3331 217.176 13.4104 217.205 13.5188C217.233 13.6251 217.227 13.7167 217.186 13.7913C217.145 13.8656 217.068 13.9187 216.955 13.949C216.841 13.9793 216.747 13.9723 216.674 13.9282C216.601 13.8838 216.549 13.8077 216.521 13.702C216.492 13.5936 216.499 13.5009 216.541 13.4262C216.583 13.3517 216.661 13.2987 216.773 13.2688Z" fill="#00559E"/>
<path fill-rule="evenodd" clip-rule="evenodd" d="M207.773 11.4979C207.892 11.3812 208.049 11.2968 208.244 11.2447C208.46 11.1866 208.677 11.1804 208.894 11.226L208.957 10.9875C208.73 10.9334 208.471 10.9452 208.181 11.0229C207.989 11.0741 207.823 11.148 207.682 11.2445C207.54 11.3411 207.431 11.4523 207.353 11.5785C207.275 11.7047 207.226 11.844 207.205 11.996C207.185 12.1481 207.196 12.3052 207.24 12.4675C207.285 12.6356 207.352 12.7814 207.441 12.9046C207.53 13.0278 207.639 13.1255 207.766 13.1977C207.893 13.27 208.042 13.3125 208.21 13.3254C208.379 13.3384 208.561 13.3187 208.755 13.2666C209.051 13.1874 209.274 13.0784 209.423 12.9401L209.314 12.7381C209.124 12.8822 208.93 12.981 208.731 13.0344C208.576 13.0759 208.433 13.0903 208.301 13.0779C208.17 13.0655 208.056 13.0289 207.96 12.9682C207.864 12.9075 207.783 12.8286 207.717 12.7316C207.651 12.6346 207.601 12.521 207.566 12.3911C207.519 12.217 207.512 12.054 207.545 11.9016C207.578 11.7493 207.654 11.6147 207.773 11.4979ZM211.845 11.7284C211.862 11.577 211.849 11.4188 211.805 11.2536C211.712 10.9086 211.531 10.6642 211.261 10.5201C210.991 10.3762 210.665 10.3554 210.283 10.4578C209.895 10.5617 209.62 10.7427 209.458 11.0008C209.296 11.2589 209.262 11.5614 209.355 11.9083C209.415 12.1332 209.514 12.3165 209.651 12.4583C209.788 12.6002 209.962 12.6929 210.173 12.7364C210.384 12.78 210.62 12.7669 210.881 12.697C211.074 12.6451 211.241 12.5714 211.381 12.4756C211.522 12.3799 211.63 12.2693 211.705 12.1438C211.781 12.0183 211.827 11.8798 211.845 11.7284ZM210.081 12.4186C209.886 12.3006 209.751 12.1023 209.677 11.8239C209.6 11.5385 209.618 11.2965 209.731 11.0976C209.844 10.8987 210.048 10.7598 210.342 10.6808C210.637 10.6019 210.881 10.6207 211.076 10.7373C211.27 10.854 211.405 11.055 211.482 11.3404C211.556 11.6199 211.54 11.859 211.431 12.0578C211.323 12.2565 211.119 12.3958 210.821 12.4757C210.523 12.5556 210.277 12.5366 210.081 12.4186ZM214.186 11.4783C214.375 11.2286 214.422 10.9275 214.327 10.5745C214.278 10.3898 214.201 10.2367 214.098 10.1153C213.994 9.99367 213.868 9.90649 213.719 9.85354C213.571 9.80064 213.406 9.77572 213.225 9.77875C213.043 9.78175 212.845 9.81218 212.629 9.86992L211.913 10.0619L212.494 12.2302L213.261 12.0247C213.688 11.9101 213.997 11.728 214.186 11.4783ZM213.549 10.0822C213.773 10.1701 213.925 10.3655 214.006 10.6685C214.082 10.9519 214.051 11.1895 213.912 11.3813C213.773 11.573 213.533 11.7145 213.193 11.8057L212.737 11.9278L212.275 10.2023L212.68 10.0936C213.036 9.99813 213.326 9.99436 213.549 10.0822ZM214.497 9.36949L215.078 11.5378L216.745 11.0912L216.684 10.8669L215.32 11.2324L215.109 10.4437L216.218 10.1464L216.159 9.92506L215.049 10.2223L214.859 9.51279L216.224 9.14724L216.164 8.92295L214.497 9.36949ZM219.056 10.4718L219.427 10.3724L218.846 8.20405L218.542 8.28574L218.881 9.55228C218.894 9.60112 218.947 9.78031 219.039 10.0898L218.915 10.0145L217 8.69873L216.635 8.79665L217.216 10.965L217.523 10.8828L217.186 9.62487C217.142 9.46359 217.088 9.28164 217.023 9.07919L217.145 9.15498L219.056 10.4718ZM220.721 9.82138C220.414 9.90377 220.111 9.92535 219.812 9.886L219.777 10.1216C219.885 10.1453 220.024 10.1532 220.195 10.1457C220.366 10.1381 220.555 10.1065 220.762 10.051C221.039 9.97667 221.244 9.86204 221.375 9.70687C221.506 9.55171 221.542 9.36379 221.483 9.14282C221.438 8.9728 221.348 8.85607 221.215 8.79275C221.082 8.72944 220.905 8.70481 220.684 8.71899L220.167 8.75085C220.03 8.75906 219.923 8.74674 219.845 8.71374C219.767 8.6806 219.717 8.62263 219.694 8.53953C219.629 8.29424 219.806 8.11507 220.228 8.00207C220.36 7.96681 220.494 7.94609 220.63 7.93994C220.766 7.93382 220.878 7.93826 220.966 7.9535L220.998 7.72341C220.893 7.70023 220.769 7.69263 220.625 7.70082C220.481 7.70899 220.331 7.73395 220.175 7.7758C219.877 7.85569 219.657 7.9684 219.515 8.11375C219.373 8.25918 219.329 8.43505 219.385 8.64125C219.457 8.91006 219.7 9.03331 220.115 9.01126L220.657 8.98217C220.825 8.97299 220.946 8.98931 221.022 9.03142C221.097 9.07353 221.148 9.14146 221.173 9.23532C221.25 9.52462 221.1 9.71997 220.721 9.82138ZM223.317 8.59316L223.804 9.19976L224.115 9.11641L222.57 7.20165L222.261 7.28451L221.85 9.72314L222.158 9.64079L222.286 8.86934L223.317 8.59316ZM222.485 7.50581C222.53 7.57322 222.756 7.87358 223.162 8.40681L222.331 8.62966L222.485 7.50581ZM207.35 14.487L224.737 9.82822L224.779 9.98689L207.392 14.6456L207.35 14.487Z" fill="black"/>
<rect x="240.5" y="0.5" width="31" height="23" rx="3.5" fill="white"/>
<rect x="240.5" y="0.5" width="31" height="23" rx="3.5" stroke="#E5E5E5"/>
<path d="M262.328 14.3492L263.038 13.8583V11.0044L262.328 10.7487V9.13795C262.328 8.64434 262.132 8.17095 261.783 7.82192C261.627 7.66587 260.467 7.2768 260.467 7.2768C260.467 7.2768 258.606 4.30141 257.482 4.32905C256.358 4.35669 252.672 7.2768 252.672 7.2768H250.789C250.295 7.2768 249.822 7.47288 249.473 7.82192C249.124 8.17095 248.928 8.64434 248.928 9.13795V15.8381C248.928 16.3317 249.124 16.8051 249.473 17.1541C249.822 17.5031 250.295 17.6992 250.789 17.6992L260.467 17.6992C260.96 17.6992 261.434 17.5031 261.783 17.1541C262.132 16.8051 262.328 16.3317 262.328 15.8381L262.328 14.3492Z" fill="#FFE600"/>
<path d="M260.467 17.6992V18.2992V17.6992ZM260.467 7.27682V7.87682V7.27682ZM258.706 4.89464L259.189 4.53803L259.186 4.53464L258.706 4.89464ZM256.689 4.54914L256.356 4.04991V4.04991L256.689 4.54914ZM252.265 6.77758C251.989 6.96139 251.915 7.33391 252.099 7.60963C252.282 7.88535 252.655 7.95985 252.931 7.77604L252.265 6.77758ZM260.467 10.6269V11.2269V10.6269ZM260.467 14.3492L260.467 13.7492H260.467V14.3492ZM258.606 12.488H259.206H258.606ZM250.789 7.27682L250.789 6.67682H250.789V7.27682ZM248.928 9.13797H248.328H248.928ZM250.789 17.6992L250.789 17.0992H250.789V17.6992ZM262.328 15.8381L261.728 15.8381V15.8381H262.328ZM259.186 4.53464C258.866 4.10748 258.394 3.81921 257.868 3.72906L257.665 4.91184C257.889 4.9502 258.09 5.07287 258.226 5.25464L259.186 4.53464ZM257.868 3.72906C257.342 3.63891 256.801 3.75372 256.356 4.04991L257.022 5.04837C257.211 4.92233 257.441 4.87348 257.665 4.91184L257.868 3.72906ZM256.356 4.04991L252.265 6.77758L252.931 7.77604L257.022 5.04837L256.356 4.04991ZM260.467 11.2269H262.328V10.0269H260.467V11.2269ZM262.328 11.2269C262.366 11.2269 262.403 11.2421 262.43 11.2692L263.279 10.4207C263.027 10.1685 262.685 10.0269 262.328 10.0269V11.2269ZM262.43 11.2692C262.457 11.2963 262.472 11.333 262.472 11.3713H263.672C263.672 11.0148 263.531 10.6728 263.279 10.4207L262.43 11.2692ZM262.472 11.3713V13.6047H263.672V11.3713H262.472ZM262.472 13.6047C262.472 13.643 262.457 13.6798 262.43 13.7069L263.279 14.5554C263.531 14.3033 263.672 13.9613 263.672 13.6047H262.472ZM262.43 13.7069C262.403 13.734 262.366 13.7492 262.328 13.7492V14.9492C262.685 14.9492 263.027 14.8075 263.279 14.5554L262.43 13.7069ZM262.328 13.7492L260.467 13.7492L260.467 14.9492L262.328 14.9492L262.328 13.7492ZM260.467 13.7492C260.132 13.7492 259.812 13.6163 259.575 13.3798L258.727 14.2283C259.188 14.6899 259.814 14.9492 260.467 14.9492V13.7492ZM259.575 13.3798C259.339 13.1433 259.206 12.8225 259.206 12.488H258.006C258.006 13.1408 258.265 13.7668 258.727 14.2283L259.575 13.3798ZM259.206 12.488C259.206 12.1536 259.339 11.8328 259.575 11.5963L258.727 10.7477C258.265 11.2093 258.006 11.8353 258.006 12.488H259.206ZM259.575 11.5963C259.812 11.3598 260.132 11.2269 260.467 11.2269V10.0269C259.814 10.0269 259.188 10.2862 258.727 10.7477L259.575 11.5963ZM262.928 10.6269V9.13797H261.728V10.6269H262.928ZM262.928 9.13797C262.928 8.48523 262.669 7.85922 262.207 7.39767L261.359 8.2462C261.595 8.48271 261.728 8.80349 261.728 9.13797H262.928ZM262.207 7.39767C261.746 6.93612 261.12 6.67682 260.467 6.67682V7.87682C260.801 7.87682 261.122 8.00969 261.359 8.2462L262.207 7.39767ZM260.467 6.67682L250.789 6.67682L250.789 7.87682L260.467 7.87682V6.67682ZM250.789 6.67682C250.136 6.67682 249.51 6.93612 249.049 7.39767L249.897 8.2462C250.134 8.00969 250.454 7.87682 250.789 7.87682V6.67682ZM249.049 7.39767C248.587 7.85923 248.328 8.48523 248.328 9.13797H249.528C249.528 8.80349 249.661 8.48271 249.897 8.2462L249.049 7.39767ZM248.328 9.13797V15.8381H249.528V9.13797H248.328ZM248.328 15.8381C248.328 16.4908 248.587 17.1168 249.049 17.5784L249.897 16.7299C249.661 16.4934 249.528 16.1726 249.528 15.8381H248.328ZM249.049 17.5784C249.51 18.0399 250.136 18.2992 250.789 18.2992V17.0992C250.454 17.0992 250.134 16.9664 249.897 16.7299L249.049 17.5784ZM250.789 18.2992L260.467 18.2992V17.0992L250.789 17.0992L250.789 18.2992ZM260.467 18.2992C261.12 18.2992 261.746 18.0399 262.207 17.5784L261.359 16.7299C261.122 16.9664 260.801 17.0992 260.467 17.0992V18.2992ZM262.207 17.5784C262.669 17.1168 262.928 16.4908 262.928 15.8381H261.728C261.728 16.1726 261.595 16.4934 261.359 16.7299L262.207 17.5784ZM262.928 15.8381L262.928 14.3492L261.728 14.3492L261.728 15.8381L262.928 15.8381ZM260.949 6.92021L259.189 4.53804L258.224 5.25125L259.984 7.63343L260.949 6.92021Z" fill="black" fill-opacity="0.9"/>
<defs>
<radialGradient id="paint0_radial_8585_24456" cx="0" cy="0" r="1" gradientUnits="userSpaceOnUse" gradientTransform="translate(16.1788 11.9863) scale(9.99981 10.0224)">
<stop offset="0.3155" stop-color="#2D5CA8"/>
<stop offset="0.5312" stop-color="#285496"/>
<stop offset="0.7289" stop-color="#1F4272"/>
<stop offset="1" stop-color="#0D2D4D"/>
</radialGradient>
<clipPath id="clip0_8585_24456">
<rect width="20" height="20" fill="white" transform="translate(6 2)"/>
</clipPath>
</defs>
</svg>
