<svg width="273" height="24" viewBox="0 0 273 24" fill="none" xmlns="http://www.w3.org/2000/svg">
<rect x="1.26953" y="0.5" width="31" height="23" rx="3.5" fill="white"/>
<rect x="1.26953" y="0.5" width="31" height="23" rx="3.5" stroke="#E5E5E5"/>
<path fill-rule="evenodd" clip-rule="evenodd" d="M12.6112 7.75111C13.239 7.75111 13.8294 7.99552 14.2733 8.43919L16.6818 10.8481C16.8553 11.0216 17.1385 11.0223 17.3124 10.8479L19.7122 8.44797C20.1561 8.0043 20.7465 7.75989 21.3742 7.75989H21.6633L18.6153 4.71193C17.666 3.76269 16.1269 3.76269 15.1778 4.71193L12.1385 7.75112L12.6112 7.75111ZM21.3744 16.2401C20.7467 16.2401 20.1563 15.9957 19.7124 15.552L17.3126 13.1522C17.1441 12.9833 16.8504 12.9838 16.682 13.1522L14.2734 15.5608C13.8295 16.0044 13.2391 16.2489 12.6114 16.2489H12.1385L15.1779 19.2881C16.1271 20.2373 17.6661 20.2373 18.6154 19.2881L21.6634 16.2401H21.3744ZM22.2156 8.43855L24.0575 10.2804C25.0067 11.2297 25.0067 12.7686 24.0575 13.7178L22.2156 15.5597C22.175 15.5434 22.1311 15.5333 22.0847 15.5333H21.2472C20.8143 15.5333 20.3904 15.3577 20.0845 15.0515L17.6847 12.652C17.2498 12.2167 16.4909 12.2169 16.0556 12.6518L13.647 15.0603C13.3411 15.3665 12.9172 15.542 12.4842 15.542H11.4545C11.4106 15.542 11.3695 15.5524 11.3307 15.567L9.48148 13.7178C8.53222 12.7686 8.53222 11.2297 9.48148 10.2804L11.3308 8.43121C11.3695 8.44581 11.4106 8.45616 11.4545 8.45616H12.4842C12.9172 8.45616 13.3411 8.6317 13.647 8.93793L16.0558 11.3466C16.2803 11.571 16.5752 11.6833 16.8703 11.6833C17.1651 11.6833 17.4602 11.571 17.6847 11.3464L20.0845 8.9467C20.3904 8.64054 20.8143 8.46493 21.2472 8.46493H22.0847C22.1311 8.46493 22.175 8.45479 22.2156 8.43855Z" fill="#4AB7A8"/>
<rect x="41.2695" y="0.5" width="31" height="23" rx="3.5" fill="white"/>
<rect x="41.2695" y="0.5" width="31" height="23" rx="3.5" stroke="#E5E5E5"/>
<ellipse cx="52.9373" cy="12" rx="6.16777" ry="6" fill="#EA001B"/>
<ellipse cx="60.6014" cy="12" rx="6.16777" ry="6" fill="#F79F1A"/>
<path fill-rule="evenodd" clip-rule="evenodd" d="M56.7693 16.7023C58.1925 15.6032 59.1051 13.9056 59.1051 12.0006C59.1051 10.0956 58.1925 8.39794 56.7693 7.29883C55.3462 8.39794 54.4336 10.0956 54.4336 12.0006C54.4336 13.9056 55.3462 15.6032 56.7693 16.7023Z" fill="#FF5F01"/>
<rect x="81.2695" y="0.5" width="31" height="23" rx="3.5" fill="white"/>
<rect x="81.2695" y="0.5" width="31" height="23" rx="3.5" stroke="#E5E5E5"/>
<path fill-rule="evenodd" clip-rule="evenodd" d="M91.2697 15.2897H89.3658L87.938 9.31627C87.8703 9.04149 87.7264 8.79857 87.5147 8.68408C86.9865 8.39636 86.4045 8.16738 85.7695 8.05189V7.82191H88.8366C89.2599 7.82191 89.5774 8.16738 89.6303 8.56859L90.3711 12.8774L92.2741 7.82191H94.1252L91.2697 15.2897ZM95.1839 15.2897H93.3857L94.8664 7.82191H96.6645L95.1839 15.2897ZM98.9908 9.89094C99.0437 9.48873 99.3612 9.25875 99.7316 9.25875C100.314 9.20101 100.948 9.31649 101.477 9.60322L101.794 7.99537C101.265 7.76539 100.683 7.6499 100.155 7.6499C98.4097 7.6499 97.1397 8.6843 97.1397 10.1199C97.1397 11.2121 98.0393 11.7855 98.6742 12.131C99.3612 12.4754 99.6257 12.7054 99.5728 13.0499C99.5728 13.5666 99.0437 13.7966 98.5155 13.7966C97.8805 13.7966 97.2456 13.6243 96.6644 13.3366L96.347 14.9455C96.9819 15.2322 97.6689 15.3477 98.3038 15.3477C100.261 15.4044 101.477 14.371 101.477 12.8199C101.477 10.8666 98.9908 10.7521 98.9908 9.89094ZM107.769 15.2897L106.342 7.82191H104.808C104.491 7.82191 104.173 8.05189 104.067 8.39636L101.424 15.2897H103.275L103.644 14.1986H105.918L106.13 15.2897H107.769ZM105.073 9.83307L105.601 12.6476H104.12L105.073 9.83307Z" fill="#1434CB"/>
<rect x="121.27" y="0.5" width="31" height="23" rx="3.5" fill="white"/>
<rect x="121.27" y="0.5" width="31" height="23" rx="3.5" stroke="#E5E5E5"/>
<path d="M135.342 7.53349C135.817 7.37677 136.323 7.29319 136.849 7.29319C139.149 7.29319 141.069 8.91053 141.508 11.0607L144.769 10.4025C144.022 6.7499 140.759 4 136.849 4C135.952 4 135.093 4.14418 134.287 4.41165L135.342 7.53349Z" fill="#FFCB05"/>
<path d="M131.496 17.9941L133.701 15.5263C132.718 14.6633 132.097 13.4032 132.097 11.999C132.097 10.5969 132.718 9.3369 133.701 8.47599L131.496 6.0061C129.825 7.47299 128.77 9.61482 128.77 11.999C128.77 14.3853 129.825 16.5272 131.496 17.9941Z" fill="#00A4E0"/>
<path d="M141.508 12.9434C141.067 15.0915 139.149 16.7067 136.851 16.7067C136.323 16.7067 135.815 16.6231 135.342 16.4643L134.287 19.5903C135.093 19.8557 135.954 19.9999 136.851 19.9999C140.757 19.9999 144.017 17.2542 144.769 13.6058L141.508 12.9434Z" fill="#EF4123"/>
<rect x="161.27" y="0.5" width="31" height="23" rx="3.5" fill="white"/>
<rect x="161.27" y="0.5" width="31" height="23" rx="3.5" stroke="#E5E5E5"/>
<path fill-rule="evenodd" clip-rule="evenodd" d="M174.093 4H170.48L166.77 12.4659H169.782V19.9801L179.074 19.9998L180.534 18.363L182.004 19.9932H184.77V17.6057L183.037 15.7274L184.77 13.8662V11.5273L184.769 11.5273V4H181.363L180.591 6.17095L179.822 4H175.362V6.89679L174.093 4Z" fill="white"/>
<path fill-rule="evenodd" clip-rule="evenodd" d="M176.378 11.5197L176.378 11.5214H174.328L173.779 10.1996H170.798L170.248 11.5214H168.248L171.164 4.92055H173.475L176.35 11.4562V4.91895L179.161 4.92945L180.607 8.98653L182.063 4.91895H184.769V11.5197L183.028 11.5355V7.00065L181.384 11.5197H179.795L178.118 6.98621V11.5197H176.378ZM171.414 8.71775L172.289 6.61636L173.163 8.71775H171.414ZM170.781 12.4463V19.0523H176.325H176.353H178.646L180.545 16.9378L182.462 19.0523H184.769V18.9578L181.751 15.7447L184.769 12.4988V12.4463H182.485L180.596 14.5398L178.712 12.4463H176.353H176.325H170.781ZM176.353 12.4767V13.9675H172.585V15.0005H176.263V16.4968H172.585V17.5114H176.353V19.0218L179.409 15.7447L176.353 12.4767Z" fill="#016FD0"/>
<rect x="201.27" y="0.5" width="31" height="23" rx="3.5" fill="white"/>
<rect x="201.27" y="0.5" width="31" height="23" rx="3.5" stroke="#E5E5E5"/>
<g clip-path="url(#clip0_9791_4947)">
<path d="M211.809 7H209.529C208.521 7.04798 207.698 7.45671 207.46 8.29956C207.336 8.73913 207.268 9.2219 207.171 9.67756C206.678 11.9945 206.241 14.3752 205.77 16.6459H223.521C224.893 16.6459 225.835 16.3538 226.09 15.2567C226.208 14.7471 226.322 14.1698 226.435 13.6098C226.876 11.4267 227.318 9.2436 227.77 7H211.809Z" fill="#B82126"/>
<path d="M220.968 12.7631C220.722 13.0058 220.031 13.0748 220.102 12.4945C220.16 12.0126 220.681 11.9102 221.246 11.9798C221.204 12.2434 221.156 12.5781 220.968 12.7631ZM220.19 10.8831C220.167 11.0161 220.131 11.1364 220.102 11.2636C220.383 11.1924 221.261 10.9741 221.346 11.3531C221.374 11.479 221.325 11.6128 221.29 11.7112C220.496 11.6355 219.849 11.7683 219.679 12.3378C219.565 12.7193 219.692 13.0947 219.935 13.1995C220.402 13.4013 220.971 13.1702 221.168 12.8526C221.148 12.9626 221.128 13.0736 221.135 13.2107H221.546C221.55 12.8142 221.607 12.4932 221.668 12.1364C221.72 11.8326 221.817 11.5317 221.801 11.2636C221.766 10.6494 220.756 10.8666 220.19 10.8831ZM224.312 12.9533C223.99 12.9603 223.831 12.7598 223.823 12.4274C223.81 11.8452 224.064 11.1985 224.579 11.1405C224.818 11.1135 224.992 11.1696 225.167 11.23C225.006 11.8839 225.064 12.9371 224.312 12.9533ZM225.379 9.87598C225.338 10.2376 225.283 10.5853 225.212 10.9167C224.04 10.5431 223.321 11.4115 223.334 12.4833C223.337 12.6906 223.372 12.8962 223.501 13.0428C223.723 13.2955 224.358 13.356 224.679 13.1436C224.741 13.1025 224.804 13.0277 224.845 12.9757C224.876 12.9366 224.925 12.8343 224.934 12.8638C224.917 12.9774 224.892 13.0826 224.89 13.2107H225.323C225.407 12.0042 225.665 10.9736 225.856 9.87598H225.379ZM213.147 12.7743C212.891 13.047 212.263 13.0428 212.214 12.584C212.192 12.3844 212.266 12.1751 212.303 11.9686C212.339 11.7596 212.366 11.559 212.402 11.3755C212.654 11.0658 213.394 11.0285 213.469 11.5433C213.534 11.9904 213.359 12.5485 213.147 12.7743ZM213.525 10.8831C213.12 10.7301 212.627 10.9127 212.414 11.0865C212.415 11.0941 212.409 11.0952 212.402 11.0957C212.406 11.0926 212.41 11.0895 212.414 11.0865C212.414 11.0858 212.414 11.0852 212.414 11.0846C212.417 11.0098 212.443 10.9578 212.447 10.8831H212.036C211.865 12.031 211.661 13.1468 211.447 14.2514H211.925C211.994 13.8212 212.04 13.3674 212.136 12.9645C212.245 13.3883 212.957 13.3073 213.258 13.1436C213.878 12.8058 214.357 11.1979 213.525 10.8831ZM215.791 11.6888H214.669C214.704 11.429 214.936 11.1434 215.302 11.1293C215.646 11.1161 215.893 11.2566 215.791 11.6888ZM215.335 10.8384C214.99 10.8651 214.698 10.9652 214.491 11.1852C214.237 11.4551 214.031 12.0518 214.091 12.5952C214.177 13.3705 215.136 13.3427 215.902 13.1548C215.915 13.0187 215.948 12.9024 215.969 12.7743C215.653 12.8933 215.105 13.0594 214.78 12.8526C214.535 12.6965 214.533 12.301 214.613 11.9574C215.128 11.9409 215.664 11.944 216.18 11.9574C216.213 11.7138 216.306 11.4482 216.224 11.2076C216.116 10.89 215.729 10.8078 215.335 10.8384ZM211.136 10.8831C211.123 10.885 211.124 10.9008 211.125 10.9167C211.02 11.7096 210.877 12.4651 210.725 13.2107H211.203C211.317 12.4124 211.449 11.631 211.614 10.8831H211.136ZM223.601 10.8943C223.179 10.6817 222.827 11.0385 222.69 11.2524C222.729 11.1426 222.731 10.9957 222.768 10.8831H222.346C222.232 11.6823 222.095 12.458 221.935 13.2107H222.423C222.427 12.9022 222.487 12.674 222.534 12.3714C222.637 11.7254 222.787 11.017 223.534 11.23C223.559 11.1207 223.57 10.9968 223.601 10.8943ZM218.235 12.6624C218.191 12.5478 218.18 12.3586 218.191 12.2147C218.215 11.8914 218.332 11.4977 218.513 11.3195C218.762 11.0736 219.254 11.1143 219.646 11.2524C219.658 11.1192 219.685 11.0004 219.702 10.8719C219.058 10.7661 218.448 10.8319 218.124 11.1741C217.807 11.509 217.599 12.2787 217.746 12.7631C217.918 13.3299 218.689 13.3607 219.313 13.1436C219.34 13.0297 219.355 12.9027 219.379 12.7855C219.038 12.9639 218.387 13.0566 218.235 12.6624ZM217.968 10.8831C217.545 10.7108 217.212 11.002 217.057 11.2748C217.092 11.1534 217.107 11.0113 217.135 10.8831H216.713C216.61 11.6893 216.458 12.4462 216.313 13.2107H216.791C216.858 12.7569 216.887 12.1453 217.035 11.7112C217.154 11.3643 217.465 11.0688 217.913 11.23C217.919 11.1021 217.956 11.0044 217.968 10.8831ZM210.269 9.94311C210.201 10.3891 210.124 10.8265 210.047 11.2636C209.552 11.2688 209.047 11.2882 208.57 11.2524C208.66 10.8248 208.724 10.3714 208.814 9.94311H208.281C208.09 11.034 207.916 12.1423 207.703 13.2107H208.247C208.333 12.6626 208.413 12.1089 208.525 11.5881C208.989 11.5766 209.546 11.5565 209.992 11.5993C209.9 12.1408 209.789 12.6629 209.703 13.2107H210.247C210.422 12.1037 210.606 11.0062 210.825 9.94311H210.269ZM211.625 10.4355C211.72 10.3694 211.843 10.0684 211.703 9.94311C211.658 9.90344 211.584 9.89192 211.48 9.90956C211.384 9.9259 211.329 9.95875 211.292 10.0102C211.231 10.0931 211.176 10.3427 211.269 10.4355C211.36 10.5258 211.564 10.4775 211.625 10.4355Z" fill="white"/>
</g>
<rect x="241.27" y="0.5" width="31" height="23" rx="3.5" fill="white"/>
<rect x="241.27" y="0.5" width="31" height="23" rx="3.5" stroke="#E5E5E5"/>
<path d="M263.098 14.3492L263.807 13.8583V11.0044L263.098 10.7487V9.13795C263.098 8.64434 262.901 8.17095 262.552 7.82192C262.396 7.66587 261.236 7.2768 261.236 7.2768C261.236 7.2768 259.375 4.30141 258.252 4.32905C257.128 4.35669 253.442 7.2768 253.442 7.2768H251.558C251.065 7.2768 250.591 7.47288 250.242 7.82192C249.893 8.17095 249.697 8.64434 249.697 9.13795V15.8381C249.697 16.3317 249.893 16.8051 250.242 17.1541C250.591 17.5031 251.065 17.6992 251.558 17.6992L261.236 17.6992C261.73 17.6992 262.203 17.5031 262.552 17.1541C262.901 16.8051 263.098 16.3317 263.098 15.8381L263.098 14.3492Z" fill="#FFE600"/>
<path d="M261.236 17.6992V18.2992V17.6992ZM261.236 7.27682V7.87682V7.27682ZM259.476 4.89464L259.958 4.53803L259.956 4.53464L259.476 4.89464ZM257.459 4.54914L257.126 4.04991V4.04991L257.459 4.54914ZM253.034 6.77758C252.759 6.96139 252.684 7.33391 252.868 7.60963C253.052 7.88535 253.424 7.95985 253.7 7.77604L253.034 6.77758ZM261.236 10.6269V11.2269V10.6269ZM261.236 14.3492L261.236 13.7492H261.236V14.3492ZM259.375 12.488H259.975H259.375ZM251.558 7.27682L251.558 6.67682H251.558V7.27682ZM249.697 9.13797H249.097H249.697ZM251.558 17.6992L251.558 17.0992H251.558V17.6992ZM263.098 15.8381L262.498 15.8381V15.8381H263.098ZM259.956 4.53464C259.635 4.10748 259.164 3.81921 258.637 3.72906L258.435 4.91184C258.659 4.9502 258.86 5.07287 258.996 5.25464L259.956 4.53464ZM258.637 3.72906C258.111 3.63891 257.57 3.75372 257.126 4.04991L257.792 5.04837C257.981 4.92233 258.211 4.87348 258.435 4.91184L258.637 3.72906ZM257.126 4.04991L253.034 6.77758L253.7 7.77604L257.792 5.04837L257.126 4.04991ZM261.236 11.2269H263.098V10.0269H261.236V11.2269ZM263.098 11.2269C263.136 11.2269 263.173 11.2421 263.2 11.2692L264.048 10.4207C263.796 10.1685 263.454 10.0269 263.098 10.0269V11.2269ZM263.2 11.2692C263.227 11.2963 263.242 11.333 263.242 11.3713H264.442C264.442 11.0148 264.3 10.6728 264.048 10.4207L263.2 11.2692ZM263.242 11.3713V13.6047H264.442V11.3713H263.242ZM263.242 13.6047C263.242 13.643 263.227 13.6798 263.2 13.7069L264.048 14.5554C264.3 14.3033 264.442 13.9613 264.442 13.6047H263.242ZM263.2 13.7069C263.173 13.734 263.136 13.7492 263.098 13.7492V14.9492C263.454 14.9492 263.796 14.8075 264.048 14.5554L263.2 13.7069ZM263.098 13.7492L261.236 13.7492L261.236 14.9492L263.098 14.9492L263.098 13.7492ZM261.236 13.7492C260.902 13.7492 260.581 13.6163 260.345 13.3798L259.496 14.2283C259.958 14.6899 260.584 14.9492 261.236 14.9492V13.7492ZM260.345 13.3798C260.108 13.1433 259.975 12.8225 259.975 12.488H258.775C258.775 13.1408 259.035 13.7668 259.496 14.2283L260.345 13.3798ZM259.975 12.488C259.975 12.1536 260.108 11.8328 260.345 11.5963L259.496 10.7477C259.035 11.2093 258.775 11.8353 258.775 12.488H259.975ZM260.345 11.5963C260.581 11.3598 260.902 11.2269 261.236 11.2269V10.0269C260.584 10.0269 259.958 10.2862 259.496 10.7477L260.345 11.5963ZM263.698 10.6269V9.13797H262.498V10.6269H263.698ZM263.698 9.13797C263.698 8.48523 263.438 7.85922 262.977 7.39767L262.128 8.2462C262.365 8.48271 262.498 8.80349 262.498 9.13797H263.698ZM262.977 7.39767C262.515 6.93612 261.889 6.67682 261.236 6.67682V7.87682C261.571 7.87682 261.892 8.00969 262.128 8.2462L262.977 7.39767ZM261.236 6.67682L251.558 6.67682L251.558 7.87682L261.236 7.87682V6.67682ZM251.558 6.67682C250.906 6.67682 250.28 6.93612 249.818 7.39767L250.667 8.2462C250.903 8.00969 251.224 7.87682 251.558 7.87682V6.67682ZM249.818 7.39767C249.357 7.85923 249.097 8.48523 249.097 9.13797H250.297C250.297 8.80349 250.43 8.48271 250.667 8.2462L249.818 7.39767ZM249.097 9.13797V15.8381H250.297V9.13797H249.097ZM249.097 15.8381C249.097 16.4908 249.357 17.1168 249.818 17.5784L250.667 16.7299C250.43 16.4934 250.297 16.1726 250.297 15.8381H249.097ZM249.818 17.5784C250.28 18.0399 250.906 18.2992 251.558 18.2992V17.0992C251.224 17.0992 250.903 16.9664 250.667 16.7299L249.818 17.5784ZM251.558 18.2992L261.236 18.2992V17.0992L251.558 17.0992L251.558 18.2992ZM261.236 18.2992C261.889 18.2992 262.515 18.0399 262.977 17.5784L262.128 16.7299C261.892 16.9664 261.571 17.0992 261.236 17.0992V18.2992ZM262.977 17.5784C263.438 17.1168 263.698 16.4908 263.698 15.8381H262.498C262.498 16.1726 262.365 16.4934 262.128 16.7299L262.977 17.5784ZM263.698 15.8381L263.698 14.3492L262.498 14.3492L262.498 15.8381L263.698 15.8381ZM261.719 6.92021L259.958 4.53804L258.993 5.25125L260.754 7.63343L261.719 6.92021Z" fill="black" fill-opacity="0.9"/>
<defs>
<clipPath id="clip0_9791_4947">
<rect width="22" height="9.65161" fill="white" transform="translate(205.77 7)"/>
</clipPath>
</defs>
</svg>
