<?xml version="1.0" encoding="UTF-8"?>
<!DOCTYPE svg PUBLIC "-//W3C//DTD SVG 1.1//EN" "http://www.w3.org/Graphics/SVG/1.1/DTD/svg11.dtd">
<svg xmlns="http://www.w3.org/2000/svg" version="1.1" width="314px" height="206px" style="shape-rendering:geometricPrecision; text-rendering:geometricPrecision; image-rendering:optimizeQuality; fill-rule:evenodd; clip-rule:evenodd" xmlns:xlink="http://www.w3.org/1999/xlink">
<g><path style="opacity:0.999" fill="#cacacc" d="M 308.5,12.5 C 308.491,14.3084 308.991,15.9751 310,17.5C 310.5,28.495 310.667,39.495 310.5,50.5C 309.167,50.5 307.833,50.5 306.5,50.5C 306.5,50.1667 306.5,49.8333 306.5,49.5C 307.117,49.3893 307.617,49.056 308,48.5C 308.824,38.9908 308.658,29.6575 307.5,20.5C 307.461,17.4649 306.461,14.7982 304.5,12.5C 304.586,11.5041 304.252,10.6708 303.5,10C 301.956,9.71039 300.623,9.04373 299.5,8C 204.833,7.33333 110.167,7.33333 15.5,8C 14.944,8.38258 14.6107,8.88258 14.5,9.5C 12.4202,11.5732 10.7536,13.9066 9.5,16.5C 9.5,16.8333 9.5,17.1667 9.5,17.5C 9.16667,17.5 8.83333,17.5 8.5,17.5C 6.52472,27.4459 5.85805,37.7792 6.5,48.5C 5.50523,37.3456 5.1719,26.0123 5.5,14.5C 8.0702,9.43364 12.0702,5.93364 17.5,4C 111.167,3.33333 204.833,3.33333 298.5,4C 301.167,5.66667 303.833,7.33333 306.5,9C 307.823,9.81595 308.489,10.9826 308.5,12.5 Z"/></g>
<g><path style="opacity:1" fill="#a2a3c9" d="M 304.5,12.5 C 303.395,11.3995 302.062,10.7329 300.5,10.5C 299.711,10.2172 299.044,9.71719 298.5,9C 205.834,8.5 113.167,8.33334 20.5,8.5C 18.4352,8.51715 16.4352,8.85048 14.5,9.5C 14.6107,8.88258 14.944,8.38258 15.5,8C 110.167,7.33333 204.833,7.33333 299.5,8C 300.623,9.04373 301.956,9.71039 303.5,10C 304.252,10.6708 304.586,11.5041 304.5,12.5 Z"/></g>
<g><path style="opacity:1" fill="#7677c6" d="M 20.5,9.5 C 20.5,9.16667 20.5,8.83333 20.5,8.5C 113.167,8.33334 205.834,8.5 298.5,9C 299.044,9.71719 299.711,10.2172 300.5,10.5C 300.5,10.8333 300.5,11.1667 300.5,11.5C 299.833,11.5 299.167,11.5 298.5,11.5C 297.737,10.7321 296.737,10.2321 295.5,10C 203.834,9.5 112.167,9.33334 20.5,9.5 Z"/></g>
<g><path style="opacity:1" fill="#6b6ec7" d="M 20.5,9.5 C 112.167,9.33334 203.834,9.5 295.5,10C 296.737,10.2321 297.737,10.7321 298.5,11.5C 236.195,11.2693 175.029,10.936 115,10.5C 95.6584,11.7108 76.6584,12.3775 58,12.5C 46.3333,11.8333 34.6667,11.1667 23,10.5C 22.3005,12.032 21.1338,13.032 19.5,13.5C 17.5184,12.3775 15.5184,12.3775 13.5,13.5C 15.1209,11.058 17.4542,9.72466 20.5,9.5 Z"/></g>
<g><path style="opacity:1" fill="#686ac7" d="M 298.5,11.5 C 299.167,11.5 299.833,11.5 300.5,11.5C 302.918,12.9143 304.585,14.9143 305.5,17.5C 305.5,27.1667 305.5,36.8333 305.5,46.5C 207.167,46.5 108.833,46.5 10.5,46.5C 10.5,36.5 10.5,26.5 10.5,16.5C 11.1667,15.1667 12.1667,14.1667 13.5,13.5C 15.5184,12.3775 17.5184,12.3775 19.5,13.5C 21.1338,13.032 22.3005,12.032 23,10.5C 34.6667,11.1667 46.3333,11.8333 58,12.5C 76.6584,12.3775 95.6584,11.7108 115,10.5C 175.029,10.936 236.195,11.2693 298.5,11.5 Z"/></g>
<g><path style="opacity:1" fill="#8f90c9" d="M 20.5,8.5 C 20.5,8.83333 20.5,9.16667 20.5,9.5C 17.4542,9.72466 15.1209,11.058 13.5,13.5C 12.1667,14.1667 11.1667,15.1667 10.5,16.5C 10.1667,16.5 9.83333,16.5 9.5,16.5C 10.7536,13.9066 12.4202,11.5732 14.5,9.5C 16.4352,8.85048 18.4352,8.51715 20.5,8.5 Z"/></g>
<g><path style="opacity:0.98" fill="#d6d6db" d="M 5.5,14.5 C 5.1719,26.0123 5.50523,37.3456 6.5,48.5C 106.288,50.4941 206.288,51.1608 306.5,50.5C 306.5,50.8333 306.5,51.1667 306.5,51.5C 306.167,51.5 305.833,51.5 305.5,51.5C 207.167,51.5 108.833,51.5 10.5,51.5C 9.83333,51.5 9.16667,51.5 8.5,51.5C 6.5069,84.8168 5.84023,118.483 6.5,152.5C 5.34033,164.326 5.17366,176.326 6,188.5C 8.23773,191.07 9.73773,194.07 10.5,197.5C 8.67273,195.868 6.8394,194.201 5,192.5C 4.66667,190.167 4.33333,187.833 4,185.5C 3.33333,130.167 3.33333,74.8333 4,19.5C 4.19808,17.6183 4.69808,15.9516 5.5,14.5 Z"/></g>
<g><path style="opacity:0.654" fill="#d1cec7" d="M 308.5,12.5 C 309.558,13.6002 310.392,14.9336 311,16.5C 311.169,61.0709 311.669,105.571 312.5,150C 311.676,163.092 311.176,176.258 311,189.5C 308.399,196.937 303.233,201.27 295.5,202.5C 295.953,201.542 296.619,200.708 297.5,200C 203.332,199.833 109.332,199.333 15.5,198.5C 109.167,198.5 202.833,198.5 296.5,198.5C 299.902,197.931 302.569,196.264 304.5,193.5C 304.5,193.167 304.5,192.833 304.5,192.5C 306.61,191.547 307.777,189.881 308,187.5C 308.167,181.833 308.333,176.167 308.5,170.5C 308.496,164.458 307.829,158.792 306.5,153.5C 306.5,153.167 306.5,152.833 306.5,152.5C 307.833,136.014 308.5,119.18 308.5,102C 308.5,84.9967 308.167,68.1633 307.5,51.5C 307.167,51.5 306.833,51.5 306.5,51.5C 306.5,51.1667 306.5,50.8333 306.5,50.5C 307.833,50.5 309.167,50.5 310.5,50.5C 310.667,39.495 310.5,28.495 310,17.5C 308.991,15.9751 308.491,14.3084 308.5,12.5 Z"/></g>
<g><path style="opacity:1" fill="#8e8ec8" d="M 300.5,11.5 C 300.5,11.1667 300.5,10.8333 300.5,10.5C 302.062,10.7329 303.395,11.3995 304.5,12.5C 306.461,14.7982 307.461,17.4649 307.5,20.5C 307.827,29.6822 307.493,38.6822 306.5,47.5C 306.827,37.3194 306.494,27.3194 305.5,17.5C 304.585,14.9143 302.918,12.9143 300.5,11.5 Z"/></g>
<g><path style="opacity:1" fill="#b7b8d9" d="M 8.5,17.5 C 8.17244,28.0135 8.50577,38.3468 9.5,48.5C 108.332,49.4994 207.332,49.8328 306.5,49.5C 306.5,49.8333 306.5,50.1667 306.5,50.5C 206.288,51.1608 106.288,50.4941 6.5,48.5C 5.85805,37.7792 6.52472,27.4459 8.5,17.5 Z"/></g>
<g><path style="opacity:1" fill="#6d70c9" d="M 9.5,16.5 C 9.83333,16.5 10.1667,16.5 10.5,16.5C 10.5,26.5 10.5,36.5 10.5,46.5C 108.833,46.5 207.167,46.5 305.5,46.5C 305.5,36.8333 305.5,27.1667 305.5,17.5C 306.494,27.3194 306.827,37.3194 306.5,47.5C 207.5,47.5 108.5,47.5 9.5,47.5C 9.5,37.5 9.5,27.5 9.5,17.5C 9.5,17.1667 9.5,16.8333 9.5,16.5 Z"/></g>
<g><path style="opacity:1" fill="#898ad3" d="M 8.5,17.5 C 8.83333,17.5 9.16667,17.5 9.5,17.5C 9.5,27.5 9.5,37.5 9.5,47.5C 108.5,47.5 207.5,47.5 306.5,47.5C 207.668,48.4994 108.668,48.8328 9.5,48.5C 8.50577,38.3468 8.17244,28.0135 8.5,17.5 Z"/></g>
<g><path style="opacity:1" fill="#adaedf" d="M 307.5,20.5 C 308.658,29.6575 308.824,38.9908 308,48.5C 307.617,49.056 307.117,49.3893 306.5,49.5C 207.332,49.8328 108.332,49.4994 9.5,48.5C 108.668,48.8328 207.668,48.4994 306.5,47.5C 307.493,38.6822 307.827,29.6822 307.5,20.5 Z"/></g>
<g><path style="opacity:1" fill="#dfdfdf" d="M 8.5,51.5 C 8.17407,85.2398 8.5074,118.906 9.5,152.5C 8.83333,152.5 8.16667,152.5 7.5,152.5C 7.16667,152.5 6.83333,152.5 6.5,152.5C 5.84023,118.483 6.5069,84.8168 8.5,51.5 Z"/></g>
<g><path style="opacity:1" fill="#e2e1e1" d="M 307.5,51.5 C 308.167,68.1633 308.5,84.9967 308.5,102C 308.5,119.18 307.833,136.014 306.5,152.5C 307.493,118.906 307.826,85.2398 307.5,51.5 Z"/></g>
<g><path style="opacity:1" fill="#faf7f1" d="M 8.5,51.5 C 9.16667,51.5 9.83333,51.5 10.5,51.5C 9.1701,84.3333 9.1701,117.167 10.5,150C 108.833,150.5 207.166,150.667 305.5,150.5C 305.5,117.5 305.5,84.5 305.5,51.5C 305.833,51.5 306.167,51.5 306.5,51.5C 306.833,51.5 307.167,51.5 307.5,51.5C 307.826,85.2398 307.493,118.906 306.5,152.5C 207.5,152.5 108.5,152.5 9.5,152.5C 8.5074,118.906 8.17407,85.2398 8.5,51.5 Z"/></g>
<g><path style="opacity:1" fill="#fefefe" d="M 10.5,51.5 C 108.833,51.5 207.167,51.5 305.5,51.5C 305.5,84.5 305.5,117.5 305.5,150.5C 207.166,150.667 108.833,150.5 10.5,150C 9.1701,117.167 9.1701,84.3333 10.5,51.5 Z"/></g>
<g><path style="opacity:1" fill="#e1e2f1" d="M 65.5,123.5 C 66.5,123.5 67.5,123.5 68.5,123.5C 70.2897,124.997 72.4563,125.664 75,125.5C 76.9855,125.431 78.4855,124.765 79.5,123.5C 80.8333,123.5 82.1667,123.5 83.5,123.5C 78.5965,126.456 73.2632,127.123 67.5,125.5C 66.7573,124.818 66.0906,124.151 65.5,123.5 Z"/></g>
<g><path style="opacity:1" fill="#d9daec" d="M 134.5,123.5 C 144.167,123.5 153.833,123.5 163.5,123.5C 159.049,124.827 154.216,125.494 149,125.5C 143.988,125.499 139.155,125.166 134.5,124.5C 134.5,124.167 134.5,123.833 134.5,123.5 Z"/></g>
<g><path style="opacity:1" fill="#dfdfef" d="M 111.5,116.5 C 112.609,116.557 113.609,116.89 114.5,117.5C 114.5,117.833 114.5,118.167 114.5,118.5C 114.738,120.404 115.738,121.738 117.5,122.5C 121.298,123.483 125.298,123.817 129.5,123.5C 121.045,127.603 115.045,125.27 111.5,116.5 Z"/></g>
<g><path style="opacity:1" fill="#b8b9de" d="M 68.5,123.5 C 72.1667,123.5 75.8333,123.5 79.5,123.5C 78.4855,124.765 76.9855,125.431 75,125.5C 72.4563,125.664 70.2897,124.997 68.5,123.5 Z"/></g>
<g><path style="opacity:1" fill="#a7a7d5" d="M 124.5,115.5 C 127.666,117.154 129.333,119.821 129.5,123.5C 125.298,123.817 121.298,123.483 117.5,122.5C 120.5,122.5 123.5,122.5 126.5,122.5C 126.88,120.302 126.213,118.635 124.5,117.5C 124.5,116.833 124.5,116.167 124.5,115.5 Z"/></g>
<g><path style="opacity:1" fill="#a3a5d3" d="M 86.5,119.5 C 86.1667,120.167 85.8333,120.833 85.5,121.5C 84.6618,121.842 84.3284,122.508 84.5,123.5C 84.1667,123.5 83.8333,123.5 83.5,123.5C 82.1667,123.5 80.8333,123.5 79.5,123.5C 79.8417,122.662 80.5084,122.328 81.5,122.5C 82.922,121.075 84.5887,120.075 86.5,119.5 Z"/></g>
<g><path style="opacity:1" fill="#a9aad6" d="M 59.5,118.5 C 62.4513,120.362 65.4513,122.028 68.5,123.5C 67.5,123.5 66.5,123.5 65.5,123.5C 62.2429,123.236 60.2429,121.57 59.5,118.5 Z"/></g>
<g><path style="opacity:1" fill="#e0e1f0" d="M 202.5,116.5 C 201.074,120.26 198.407,122.593 194.5,123.5C 196.222,122 197.888,120.333 199.5,118.5C 199.5,118.167 199.5,117.833 199.5,117.5C 200.391,116.89 201.391,116.557 202.5,116.5 Z"/></g>
<g><path style="opacity:1" fill="#a3a5d3" d="M 199.5,118.5 C 197.888,120.333 196.222,122 194.5,123.5C 192.833,123.5 191.167,123.5 189.5,123.5C 189.5,123.167 189.5,122.833 189.5,122.5C 192.627,120.721 195.96,119.387 199.5,118.5 Z"/></g>
<g><path style="opacity:1" fill="#aaabd6" d="M 114.5,118.5 C 116.262,119.262 117.262,120.596 117.5,122.5C 115.738,121.738 114.738,120.404 114.5,118.5 Z"/></g>
<g><path style="opacity:1" fill="#aaacd7" d="M 204.5,110.5 C 204.5,111.5 204.5,112.5 204.5,113.5C 203.833,114.5 203.167,115.5 202.5,116.5C 201.391,116.557 200.391,116.89 199.5,117.5C 199.557,116.391 199.89,115.391 200.5,114.5C 201.338,114.158 201.672,113.492 201.5,112.5C 202.778,112.218 203.778,111.551 204.5,110.5 Z"/></g>
<g><path style="opacity:1" fill="#8284c3" d="M 144.5,115.5 C 150.833,115.5 157.167,115.5 163.5,115.5C 164.01,118.388 163.344,120.721 161.5,122.5C 161.5,120.5 161.5,118.5 161.5,116.5C 155.642,116.822 149.975,116.489 144.5,115.5 Z"/></g>
<g><path style="opacity:1" fill="#a2a3d3" d="M 144.5,115.5 C 144.5,115.167 144.5,114.833 144.5,114.5C 150.167,114.5 155.833,114.5 161.5,114.5C 162.5,114.5 163.5,114.5 164.5,114.5C 164.81,117.713 164.477,120.713 163.5,123.5C 153.833,123.5 144.167,123.5 134.5,123.5C 134.5,123.167 134.5,122.833 134.5,122.5C 134.833,122.5 135.167,122.5 135.5,122.5C 144.167,122.5 152.833,122.5 161.5,122.5C 163.344,120.721 164.01,118.388 163.5,115.5C 157.167,115.5 150.833,115.5 144.5,115.5 Z"/></g>
<g><path style="opacity:1" fill="#696ab7" d="M 120.5,108.5 C 121.485,110.506 122.818,112.173 124.5,113.5C 124.5,114.167 124.5,114.833 124.5,115.5C 124.5,116.167 124.5,116.833 124.5,117.5C 121.642,115.288 120.309,112.288 120.5,108.5 Z"/></g>
<g><path style="opacity:1" fill="#9394cc" d="M 84.5,113.5 C 87.3489,114.92 88.0156,116.92 86.5,119.5C 86.2964,117.315 85.6298,115.315 84.5,113.5 Z"/></g>
<g><path style="opacity:1" fill="#b4b5db" d="M 65.5,109.5 C 66.8333,110.5 68.1667,111.5 69.5,112.5C 73.1667,115.167 76.8333,115.167 80.5,112.5C 82.099,112.232 83.4324,112.566 84.5,113.5C 81.321,114.632 77.9877,115.299 74.5,115.5C 71.392,115.363 68.7253,114.363 66.5,112.5C 66.4431,111.391 66.1098,110.391 65.5,109.5 Z"/></g>
<g><path style="opacity:1" fill="#6465b5" d="M 64.5,93.5 C 64.5,98.8333 64.5,104.167 64.5,109.5C 64.427,111.027 65.0937,112.027 66.5,112.5C 68.7253,114.363 71.392,115.363 74.5,115.5C 77.9877,115.299 81.321,114.632 84.5,113.5C 85.6298,115.315 86.2964,117.315 86.5,119.5C 84.5887,120.075 82.922,121.075 81.5,122.5C 81.5,121.167 81.5,119.833 81.5,118.5C 84.9877,118.101 85.1544,117.434 82,116.5C 75.774,117.969 69.6073,117.802 63.5,116C 64.3081,115.692 64.9747,115.192 65.5,114.5C 60.7984,107.589 60.4651,100.589 64.5,93.5 Z"/></g>
<g><path style="opacity:1" fill="#d2d3ea" d="M 53.5,107.5 C 54.1842,111.54 56.1842,114.874 59.5,117.5C 59.5,117.833 59.5,118.167 59.5,118.5C 57.0968,118.607 55.2635,117.607 54,115.5C 53.5026,112.854 53.3359,110.187 53.5,107.5 Z"/></g>
<g><path style="opacity:1" fill="#c7c8e4" d="M 159.5,104.5 C 159.5,104.833 159.5,105.167 159.5,105.5C 155.03,106.486 150.363,106.819 145.5,106.5C 145.5,108.833 145.5,111.167 145.5,113.5C 151.026,113.179 156.36,113.512 161.5,114.5C 155.833,114.5 150.167,114.5 144.5,114.5C 144.216,111.223 144.549,108.057 145.5,105C 150.155,104.501 154.821,104.334 159.5,104.5 Z"/></g>
<g><path style="opacity:1" fill="#d6d6eb" d="M 89.5,115.5 C 89.6254,118.608 88.2921,120.608 85.5,121.5C 85.8333,120.833 86.1667,120.167 86.5,119.5C 88.0156,116.92 87.3489,114.92 84.5,113.5C 83.4324,112.566 82.099,112.232 80.5,112.5C 80.8565,111.13 81.6898,110.13 83,109.5C 84.9727,111.637 87.1394,113.637 89.5,115.5 Z"/></g>
<g><path style="opacity:1" fill="#5557ae" d="M 173.5,82.5 C 173.5,95.5 173.5,108.5 173.5,121.5C 178.833,121.5 184.167,121.5 189.5,121.5C 189.5,120.5 189.5,119.5 189.5,118.5C 196.82,118.155 196.82,117.488 189.5,116.5C 189.733,114.938 190.4,113.605 191.5,112.5C 192.89,111.101 193.89,109.434 194.5,107.5C 194.833,107.5 195.167,107.5 195.5,107.5C 195.78,110.272 195.113,112.772 193.5,115C 194.263,115.944 195.263,116.444 196.5,116.5C 197.867,115.775 199.2,115.108 200.5,114.5C 199.89,115.391 199.557,116.391 199.5,117.5C 199.5,117.833 199.5,118.167 199.5,118.5C 195.96,119.387 192.627,120.721 189.5,122.5C 183.833,122.5 178.167,122.5 172.5,122.5C 172.171,108.99 172.504,95.6562 173.5,82.5 Z"/></g>
<g><path style="opacity:1" fill="#bdbedf" d="M 109.5,108.5 C 110.458,108.953 111.292,109.619 112,110.5C 112.384,113.06 113.217,115.394 114.5,117.5C 113.609,116.89 112.609,116.557 111.5,116.5C 110.361,113.996 109.694,111.33 109.5,108.5 Z"/></g>
<g><path style="opacity:1" fill="#d5d5ea" d="M 104.5,107.5 C 106.415,107.216 108.081,107.549 109.5,108.5C 108.167,108.5 106.833,108.5 105.5,108.5C 105.821,113.695 105.487,118.695 104.5,123.5C 104.5,118.5 104.5,113.5 104.5,108.5C 104.5,108.167 104.5,107.833 104.5,107.5 Z"/></g>
<g><path style="opacity:1" fill="#6767b6" d="M 104.5,107.5 C 104.5,107.833 104.5,108.167 104.5,108.5C 104.138,113.421 103.138,118.087 101.5,122.5C 101.5,117.5 101.5,112.5 101.5,107.5C 102.5,107.5 103.5,107.5 104.5,107.5 Z"/></g>
<g><path style="opacity:1" fill="#888bc6" d="M 64.5,109.5 C 64.8333,109.5 65.1667,109.5 65.5,109.5C 66.1098,110.391 66.4431,111.391 66.5,112.5C 65.0937,112.027 64.427,111.027 64.5,109.5 Z"/></g>
<g><path style="opacity:1" fill="#9697cd" d="M 104.5,108.5 C 104.5,113.5 104.5,118.5 104.5,123.5C 101.167,123.5 97.8333,123.5 94.5,123.5C 94.5,123.167 94.5,122.833 94.5,122.5C 94.8333,122.5 95.1667,122.5 95.5,122.5C 97.5,122.5 99.5,122.5 101.5,122.5C 103.138,118.087 104.138,113.421 104.5,108.5 Z"/></g>
<g><path style="opacity:1" fill="#4b4daa" d="M 119.5,81.5 C 120.605,82.6005 121.938,83.2671 123.5,83.5C 124.91,86.9496 125.576,90.6163 125.5,94.5C 123.027,94.6043 122.361,95.6043 123.5,97.5C 121.803,98.3636 120.637,99.6969 120,101.5C 117.974,101.085 116.474,100.085 115.5,98.5C 115.833,98.5 116.167,98.5 116.5,98.5C 118.414,95.3157 119.08,91.649 118.5,87.5C 117.167,87.5 115.833,87.5 114.5,87.5C 114.586,86.5041 114.252,85.6708 113.5,85C 110.5,84.3333 107.5,84.3333 104.5,85C 103.748,85.6708 103.414,86.5041 103.5,87.5C 102.883,87.6107 102.383,87.944 102,88.5C 101.333,91.8333 101.333,95.1667 102,98.5C 102.708,99.3805 103.542,100.047 104.5,100.5C 108.982,102.225 113.648,102.725 118.5,102C 116.464,104.5 116.13,107.167 117.5,110C 116.234,110.309 115.067,110.809 114,111.5C 113.482,105.714 110.315,103.38 104.5,104.5C 104.5,105.5 104.5,106.5 104.5,107.5C 103.5,107.5 102.5,107.5 101.5,107.5C 101.5,112.5 101.5,117.5 101.5,122.5C 99.5,122.5 97.5,122.5 95.5,122.5C 95.5,108.5 95.5,94.5 95.5,80.5C 103.525,80.3903 111.525,80.7237 119.5,81.5 Z"/></g>
<g><path style="opacity:1" fill="#dddeef" d="M 211.5,78.5 C 211.171,93.3428 211.504,108.01 212.5,122.5C 215.287,123.477 218.287,123.81 221.5,123.5C 222.167,123.5 222.833,123.5 223.5,123.5C 223.389,124.117 223.056,124.617 222.5,125C 218.428,125.956 214.595,125.456 211,123.5C 210.172,108.328 210.339,93.3277 211.5,78.5 Z"/></g>
<g><path style="opacity:1" fill="#dbdcee" d="M 127.5,99.5 C 126.861,101.76 125.694,103.76 124,105.5C 123.57,108.192 123.737,110.859 124.5,113.5C 122.818,112.173 121.485,110.506 120.5,108.5C 120.461,105.911 121.461,103.911 123.5,102.5C 124.167,102.5 124.5,102.167 124.5,101.5C 125.5,100.833 126.5,100.167 127.5,99.5 Z"/></g>
<g><path style="opacity:1" fill="#9798cd" d="M 123.5,102.5 C 121.461,103.911 120.461,105.911 120.5,108.5C 118.821,105.256 119.821,103.256 123.5,102.5 Z"/></g>
<g><path style="opacity:1" fill="#9091ca" d="M 239.5,88.5 C 239.841,100.037 240.841,111.37 242.5,122.5C 244.833,122.5 247.167,122.5 249.5,122.5C 249.5,122.833 249.5,123.167 249.5,123.5C 246.167,123.5 242.833,123.5 239.5,123.5C 239.5,111.833 239.5,100.167 239.5,88.5 Z"/></g>
<g><path style="opacity:1" fill="#8183c3" d="M 221.5,78.5 C 221.833,78.5 222.167,78.5 222.5,78.5C 222.829,93.3428 222.496,108.01 221.5,122.5C 221.5,122.833 221.5,123.167 221.5,123.5C 218.287,123.81 215.287,123.477 212.5,122.5C 212.5,107.833 212.5,93.1667 212.5,78.5C 215.5,78.5 218.5,78.5 221.5,78.5 Z"/></g>
<g><path style="opacity:1" fill="#bbbcdf" d="M 94.5,78.5 C 94.5,93.1667 94.5,107.833 94.5,122.5C 94.5,122.833 94.5,123.167 94.5,123.5C 93.1692,116.364 92.5025,108.864 92.5,101C 92.5025,93.1356 93.1692,85.6356 94.5,78.5 Z"/></g>
<g><path style="opacity:1" fill="#7e80c2" d="M 144.5,103.5 C 149.5,103.5 154.5,103.5 159.5,103.5C 159.5,103.833 159.5,104.167 159.5,104.5C 154.821,104.334 150.155,104.501 145.5,105C 144.549,108.057 144.216,111.223 144.5,114.5C 144.5,114.833 144.5,115.167 144.5,115.5C 143.167,111.5 143.167,107.5 144.5,103.5 Z"/></g>
<g><path style="opacity:1" fill="#d7d7ec" d="M 69.5,89.5 C 69.2882,91.3841 68.2882,92.7174 66.5,93.5C 65.5059,98.456 65.1725,103.456 65.5,108.5C 66.5,108.5 67.5,108.5 68.5,108.5C 68.4326,109.959 68.7659,111.292 69.5,112.5C 68.1667,111.5 66.8333,110.5 65.5,109.5C 65.1667,109.5 64.8333,109.5 64.5,109.5C 64.5,104.167 64.5,98.8333 64.5,93.5C 64.5,93.1667 64.5,92.8333 64.5,92.5C 64.8333,92.5 65.1667,92.5 65.5,92.5C 66.8333,91.5 68.1667,90.5 69.5,89.5 Z"/></g>
<g><path style="opacity:1" fill="#6a6bb8" d="M 203.5,92.5 C 203.833,92.5 204.167,92.5 204.5,92.5C 204.5,98.5 204.5,104.5 204.5,110.5C 203.778,111.551 202.778,112.218 201.5,112.5C 203.244,106.001 203.911,99.334 203.5,92.5 Z"/></g>
<g><path style="opacity:1" fill="#5556ae" d="M 125.5,94.5 C 125.371,96.2161 125.038,97.8828 124.5,99.5C 124.5,100.167 124.5,100.833 124.5,101.5C 124.5,102.167 124.167,102.5 123.5,102.5C 119.821,103.256 118.821,105.256 120.5,108.5C 120.309,112.288 121.642,115.288 124.5,117.5C 126.213,118.635 126.88,120.302 126.5,122.5C 123.5,122.5 120.5,122.5 117.5,122.5C 117.262,120.596 116.262,119.262 114.5,118.5C 114.5,118.167 114.5,117.833 114.5,117.5C 113.217,115.394 112.384,113.06 112,110.5C 111.292,109.619 110.458,108.953 109.5,108.5C 108.081,107.549 106.415,107.216 104.5,107.5C 104.5,106.5 104.5,105.5 104.5,104.5C 110.315,103.38 113.482,105.714 114,111.5C 115.067,110.809 116.234,110.309 117.5,110C 116.13,107.167 116.464,104.5 118.5,102C 113.648,102.725 108.982,102.225 104.5,100.5C 107.877,100.932 110.877,100.265 113.5,98.5C 113.833,98.5 114.167,98.5 114.5,98.5C 114.833,98.5 115.167,98.5 115.5,98.5C 116.474,100.085 117.974,101.085 120,101.5C 120.637,99.6969 121.803,98.3636 123.5,97.5C 122.361,95.6043 123.027,94.6043 125.5,94.5 Z"/></g>
<g><path style="opacity:1" fill="#8e90c9" d="M 104.5,98.5 C 107.5,98.5 110.5,98.5 113.5,98.5C 110.877,100.265 107.877,100.932 104.5,100.5C 104.5,99.8333 104.5,99.1667 104.5,98.5 Z"/></g>
<g><path style="opacity:1" fill="#e1e1ef" d="M 159.5,95.5 C 160.117,95.6107 160.617,95.944 161,96.5C 161.667,99.1667 161.667,101.833 161,104.5C 160.617,105.056 160.117,105.389 159.5,105.5C 159.5,105.167 159.5,104.833 159.5,104.5C 159.5,104.167 159.5,103.833 159.5,103.5C 159.5,101.5 159.5,99.5 159.5,97.5C 159.5,96.8333 159.5,96.1667 159.5,95.5 Z"/></g>
<g><path style="opacity:1" fill="#7172bb" d="M 57.5,89.5 C 55.336,96.3066 55.0026,103.307 56.5,110.5C 58.0818,112.577 59.0818,114.91 59.5,117.5C 56.1842,114.874 54.1842,111.54 53.5,107.5C 53.5,103.167 53.5,98.8333 53.5,94.5C 53.8333,93.8333 54.1667,93.1667 54.5,92.5C 55.2719,91.3065 56.2719,90.3065 57.5,89.5 Z"/></g>
<g><path style="opacity:1" fill="#cbcbe6" d="M 53.5,94.5 C 53.5,98.8333 53.5,103.167 53.5,107.5C 52.2132,106.129 51.5465,104.295 51.5,102C 51.2999,99.1345 51.9666,96.6345 53.5,94.5 Z"/></g>
<g><path style="opacity:1" fill="#696ab8" d="M 144.5,96.5 C 149.595,96.2213 154.595,96.5546 159.5,97.5C 159.5,99.5 159.5,101.5 159.5,103.5C 154.5,103.5 149.5,103.5 144.5,103.5C 148.97,102.514 153.637,102.181 158.5,102.5C 158.5,101.167 158.5,99.8333 158.5,98.5C 153.381,99.1031 148.715,98.4364 144.5,96.5 Z"/></g>
<g><path style="opacity:1" fill="#8486c5" d="M 116.5,88.5 C 117.782,91.7307 117.782,95.0641 116.5,98.5C 116.167,98.5 115.833,98.5 115.5,98.5C 115.167,98.5 114.833,98.5 114.5,98.5C 114.5,98.1667 114.5,97.8333 114.5,97.5C 115.117,97.3893 115.617,97.056 116,96.5C 116.497,93.854 116.664,91.1873 116.5,88.5 Z"/></g>
<g><path style="opacity:1" fill="#bebfe0" d="M 115.5,88.5 C 115.833,88.5 116.167,88.5 116.5,88.5C 116.664,91.1873 116.497,93.854 116,96.5C 115.617,97.056 115.117,97.3893 114.5,97.5C 115.299,94.5701 115.632,91.5701 115.5,88.5 Z"/></g>
<g><path style="opacity:1" fill="#a8a8d5" d="M 144.5,96.5 C 144.5,96.1667 144.5,95.8333 144.5,95.5C 149.5,95.5 154.5,95.5 159.5,95.5C 159.5,96.1667 159.5,96.8333 159.5,97.5C 154.595,96.5546 149.595,96.2213 144.5,96.5 Z"/></g>
<g><path style="opacity:1" fill="#dcddee" d="M 204.5,92.5 C 206.124,92.3601 207.29,93.0267 208,94.5C 208.667,98.8333 208.667,103.167 208,107.5C 206.224,109.211 205.058,111.211 204.5,113.5C 204.5,112.5 204.5,111.5 204.5,110.5C 204.5,104.5 204.5,98.5 204.5,92.5 Z"/></g>
<g><path style="opacity:1" fill="#cacae5" d="M 144.5,87.5 C 144.833,87.5 145.167,87.5 145.5,87.5C 150.833,87.5 156.167,87.5 161.5,87.5C 156.36,88.4881 151.026,88.8214 145.5,88.5C 145.5,90.5 145.5,92.5 145.5,94.5C 150.363,94.1805 155.03,94.5139 159.5,95.5C 154.5,95.5 149.5,95.5 144.5,95.5C 144.5,92.8333 144.5,90.1667 144.5,87.5 Z"/></g>
<g><path style="opacity:1" fill="#dcddee" d="M 121.5,80.5 C 123.764,81.5813 125.931,82.9146 128,84.5C 128.815,89.3522 128.648,94.0189 127.5,98.5C 127.666,94.4862 127.499,90.4862 127,86.5C 126.292,85.6195 125.458,84.9528 124.5,84.5C 124.5,83.8333 124.167,83.5 123.5,83.5C 122.833,82.5 122.167,81.5 121.5,80.5 Z"/></g>
<g><path style="opacity:1" fill="#6365b5" d="M 114.5,88.5 C 114.5,88.1667 114.5,87.8333 114.5,87.5C 115.833,87.5 117.167,87.5 118.5,87.5C 119.08,91.649 118.414,95.3157 116.5,98.5C 117.782,95.0641 117.782,91.7307 116.5,88.5C 116.167,88.5 115.833,88.5 115.5,88.5C 115.167,88.5 114.833,88.5 114.5,88.5 Z"/></g>
<g><path style="opacity:1" fill="#4e4fab" d="M 64.5,92.5 C 64.5,92.8333 64.5,93.1667 64.5,93.5C 60.4651,100.589 60.7984,107.589 65.5,114.5C 64.9747,115.192 64.3081,115.692 63.5,116C 69.6073,117.802 75.774,117.969 82,116.5C 85.1544,117.434 84.9877,118.101 81.5,118.5C 81.5,119.833 81.5,121.167 81.5,122.5C 80.5084,122.328 79.8417,122.662 79.5,123.5C 75.8333,123.5 72.1667,123.5 68.5,123.5C 65.4513,122.028 62.4513,120.362 59.5,118.5C 59.5,118.167 59.5,117.833 59.5,117.5C 59.0818,114.91 58.0818,112.577 56.5,110.5C 55.0026,103.307 55.336,96.3066 57.5,89.5C 57.5,89.1667 57.5,88.8333 57.5,88.5C 59.5272,86.9795 61.6939,85.6462 64,84.5C 65.2247,84.8623 66.3914,85.3623 67.5,86C 65.4503,87.6356 64.4503,89.8023 64.5,92.5 Z"/></g>
<g><path style="opacity:1" fill="#7274bc" d="M 123.5,83.5 C 124.167,83.5 124.5,83.8333 124.5,84.5C 126.463,88.9129 126.963,93.5795 126,98.5C 125.617,99.056 125.117,99.3893 124.5,99.5C 125.038,97.8828 125.371,96.2161 125.5,94.5C 125.576,90.6163 124.91,86.9496 123.5,83.5 Z"/></g>
<g><path style="opacity:1" fill="#d2d3e9" d="M 114.5,87.5 C 114.5,87.8333 114.5,88.1667 114.5,88.5C 111.5,88.5 108.5,88.5 105.5,88.5C 105.5,91.5 105.5,94.5 105.5,97.5C 108.5,97.5 111.5,97.5 114.5,97.5C 114.5,97.8333 114.5,98.1667 114.5,98.5C 114.167,98.5 113.833,98.5 113.5,98.5C 110.5,98.5 107.5,98.5 104.5,98.5C 104.5,94.8333 104.5,91.1667 104.5,87.5C 107.833,87.5 111.167,87.5 114.5,87.5 Z"/></g>
<g><path style="opacity:1" fill="#6b6cb8" d="M 103.5,87.5 C 103.185,91.3714 103.518,95.0381 104.5,98.5C 104.5,99.1667 104.5,99.8333 104.5,100.5C 103.542,100.047 102.708,99.3805 102,98.5C 101.333,95.1667 101.333,91.8333 102,88.5C 102.383,87.944 102.883,87.6107 103.5,87.5 Z"/></g>
<g><path style="opacity:1" fill="#a1a2d3" d="M 69.5,88.5 C 69.5,88.8333 69.5,89.1667 69.5,89.5C 68.1667,90.5 66.8333,91.5 65.5,92.5C 65.8333,90.1667 67.1667,88.8333 69.5,88.5 Z"/></g>
<g><path style="opacity:1" fill="#eeeef6" d="M 261.5,87.5 C 261.833,87.5 262.167,87.5 262.5,87.5C 262.833,87.5 263.167,87.5 263.5,87.5C 263.389,88.1174 263.056,88.6174 262.5,89C 259.518,89.498 256.518,89.6646 253.5,89.5C 253.667,100.838 253.5,112.172 253,123.5C 248.943,126.12 244.443,127.12 239.5,126.5C 239.5,125.5 239.5,124.5 239.5,123.5C 242.833,123.5 246.167,123.5 249.5,123.5C 250.496,123.586 251.329,123.252 252,122.5C 252.5,111.172 252.667,99.8382 252.5,88.5C 255.713,88.81 258.713,88.4767 261.5,87.5 Z"/></g>
<g><path style="opacity:1" fill="#dcdcee" d="M 252.5,88.5 C 252.667,99.8382 252.5,111.172 252,122.5C 251.329,123.252 250.496,123.586 249.5,123.5C 249.5,123.167 249.5,122.833 249.5,122.5C 249.841,110.963 250.841,99.6299 252.5,88.5 Z"/></g>
<g><path style="opacity:1" fill="#aaabd7" d="M 249.5,87.5 C 249.833,87.5 250.167,87.5 250.5,87.5C 254.167,87.5 257.833,87.5 261.5,87.5C 258.713,88.4767 255.713,88.81 252.5,88.5C 250.841,99.6299 249.841,110.963 249.5,122.5C 249.5,110.833 249.5,99.1667 249.5,87.5 Z"/></g>
<g><path style="opacity:1" fill="#6162b3" d="M 229.5,85.5 C 233.759,85.0025 237.759,85.6692 241.5,87.5C 242.499,99.1477 242.832,110.814 242.5,122.5C 240.841,111.37 239.841,100.037 239.5,88.5C 239.5,88.1667 239.5,87.8333 239.5,87.5C 236.167,86.8333 232.833,86.1667 229.5,85.5 Z"/></g>
<g><path style="opacity:1" fill="#5f62b3" d="M 184.5,81.5 C 180.629,81.185 176.962,81.5184 173.5,82.5C 172.504,95.6562 172.171,108.99 172.5,122.5C 172.167,122.5 171.833,122.5 171.5,122.5C 171.333,108.829 171.5,95.1626 172,81.5C 176.267,80.178 180.434,80.178 184.5,81.5 Z"/></g>
<g><path style="opacity:1" fill="#6f70bb" d="M 190.5,81.5 C 188.5,81.5 186.5,81.5 184.5,81.5C 180.434,80.178 176.267,80.178 172,81.5C 171.5,95.1626 171.333,108.829 171.5,122.5C 170.339,108.673 170.173,94.6728 171,80.5C 173.578,79.8586 176.245,79.5252 179,79.5C 183.112,79.3489 186.946,80.0156 190.5,81.5 Z"/></g>
<g><path style="opacity:1" fill="#aeafd8" d="M 124.5,84.5 C 125.458,84.9528 126.292,85.6195 127,86.5C 127.499,90.4862 127.666,94.4862 127.5,98.5C 127.5,98.8333 127.5,99.1667 127.5,99.5C 126.5,100.167 125.5,100.833 124.5,101.5C 124.5,100.833 124.5,100.167 124.5,99.5C 125.117,99.3893 125.617,99.056 126,98.5C 126.963,93.5795 126.463,88.9129 124.5,84.5 Z"/></g>
<g><path style="opacity:1" fill="#fbfbfd" d="M 114.5,88.5 C 114.833,88.5 115.167,88.5 115.5,88.5C 115.632,91.5701 115.299,94.5701 114.5,97.5C 111.5,97.5 108.5,97.5 105.5,97.5C 105.5,94.5 105.5,91.5 105.5,88.5C 108.5,88.5 111.5,88.5 114.5,88.5 Z"/></g>
<g><path style="opacity:1" fill="#c7c8e4" d="M 79.5,88.5 C 81.1667,88.5 82.8333,88.5 84.5,88.5C 82.9622,91.0479 81.2956,91.0479 79.5,88.5 Z"/></g>
<g><path style="opacity:1" fill="#999ace" d="M 59.5,83.5 C 58.8333,85.1667 58.1667,86.8333 57.5,88.5C 57.5,88.8333 57.5,89.1667 57.5,89.5C 56.2719,90.3065 55.2719,91.3065 54.5,92.5C 55.0609,88.8316 56.7276,85.8316 59.5,83.5 Z"/></g>
<g><path style="opacity:1" fill="#4e50ab" d="M 249.5,87.5 C 249.5,99.1667 249.5,110.833 249.5,122.5C 247.167,122.5 244.833,122.5 242.5,122.5C 242.832,110.814 242.499,99.1477 241.5,87.5C 237.759,85.6692 233.759,85.0025 229.5,85.5C 229.5,85.1667 229.5,84.8333 229.5,84.5C 229.5,83.5 229.5,82.5 229.5,81.5C 239.833,81.5 250.167,81.5 260.5,81.5C 260.5,82.5 260.5,83.5 260.5,84.5C 256.833,84.5 253.167,84.5 249.5,84.5C 249.5,85.5 249.5,86.5 249.5,87.5 Z"/></g>
<g><path style="opacity:1" fill="#999bcf" d="M 198.5,83.5 C 202.151,85.4698 204.151,88.4698 204.5,92.5C 204.167,92.5 203.833,92.5 203.5,92.5C 203.649,91.448 203.483,90.448 203,89.5C 200.873,87.8863 199.373,85.8863 198.5,83.5 Z"/></g>
<g><path style="opacity:1" fill="#eaebf5" d="M 94.5,77.5 C 94.5,77.8333 94.5,78.1667 94.5,78.5C 93.1692,85.6356 92.5025,93.1356 92.5,101C 92.5025,108.864 93.1692,116.364 94.5,123.5C 97.8333,123.5 101.167,123.5 104.5,123.5C 104.5,124.5 104.5,125.5 104.5,126.5C 100.818,126.665 97.1516,126.499 93.5,126C 91.2344,124.486 90.0677,122.319 90,119.5C 88.9127,121.814 87.0794,123.148 84.5,123.5C 84.3284,122.508 84.6618,121.842 85.5,121.5C 88.2921,120.608 89.6254,118.608 89.5,115.5C 90.3308,103.34 90.8308,91.0068 91,78.5C 92.0113,77.6634 93.1779,77.33 94.5,77.5 Z"/></g>
<g><path style="opacity:1" fill="#9c9ccf" d="M 84.5,81.5 C 88.3958,83.2408 88.3958,85.2408 84.5,87.5C 85.6414,85.4513 85.6414,83.4513 84.5,81.5 Z"/></g>
<g><path style="opacity:1" fill="#4c4eaa" d="M 184.5,81.5 C 186.5,81.5 188.5,81.5 190.5,81.5C 191.833,81.5 193.167,81.5 194.5,81.5C 195.183,83.1765 196.517,83.8432 198.5,83.5C 199.373,85.8863 200.873,87.8863 203,89.5C 203.483,90.448 203.649,91.448 203.5,92.5C 203.911,99.334 203.244,106.001 201.5,112.5C 201.672,113.492 201.338,114.158 200.5,114.5C 199.2,115.108 197.867,115.775 196.5,116.5C 195.263,116.444 194.263,115.944 193.5,115C 195.113,112.772 195.78,110.272 195.5,107.5C 195.779,102.405 195.445,97.4053 194.5,92.5C 193.931,89.6655 192.264,87.9988 189.5,87.5C 186.761,84.9758 183.428,83.9758 179.5,84.5C 178.23,94.6408 178.23,104.641 179.5,114.5C 179.5,114.833 179.5,115.167 179.5,115.5C 182.625,116.479 185.958,116.813 189.5,116.5C 196.82,117.488 196.82,118.155 189.5,118.5C 189.5,119.5 189.5,120.5 189.5,121.5C 184.167,121.5 178.833,121.5 173.5,121.5C 173.5,108.5 173.5,95.5 173.5,82.5C 176.962,81.5184 180.629,81.185 184.5,81.5 Z"/></g>
<g><path style="opacity:1" fill="#7c7dc1" d="M 189.5,112.5 C 190.167,112.5 190.833,112.5 191.5,112.5C 190.4,113.605 189.733,114.938 189.5,116.5C 185.958,116.813 182.625,116.479 179.5,115.5C 182.187,115.664 184.854,115.497 187.5,115C 188.056,114.617 188.389,114.117 188.5,113.5C 189.167,113.5 189.5,113.167 189.5,112.5 Z"/></g>
<g><path style="opacity:1" fill="#d1d2e9" d="M 190.5,91.5 C 191.794,92.2899 192.961,93.2899 194,94.5C 194.499,98.8206 194.666,103.154 194.5,107.5C 193.89,109.434 192.89,111.101 191.5,112.5C 190.833,112.5 190.167,112.5 189.5,112.5C 190.301,110.958 190.634,109.292 190.5,107.5C 191.5,107.5 192.5,107.5 193.5,107.5C 193.666,103.486 193.499,99.4862 193,95.5C 191.519,94.5291 190.685,93.1958 190.5,91.5 Z"/></g>
<g><path style="opacity:1" fill="#a1a2d3" d="M 180.5,88.5 C 179.864,97.5645 180.53,106.231 182.5,114.5C 184.5,114.167 186.5,113.833 188.5,113.5C 188.389,114.117 188.056,114.617 187.5,115C 184.854,115.497 182.187,115.664 179.5,115.5C 179.5,115.167 179.5,114.833 179.5,114.5C 179.174,105.651 179.507,96.9839 180.5,88.5 Z"/></g>
<g><path style="opacity:1" fill="#a0a1d2" d="M 189.5,88.5 C 191.167,89.8333 192.833,91.1667 194.5,92.5C 195.445,97.4053 195.779,102.405 195.5,107.5C 195.167,107.5 194.833,107.5 194.5,107.5C 194.666,103.154 194.499,98.8206 194,94.5C 192.961,93.2899 191.794,92.2899 190.5,91.5C 190.5,90.8333 190.167,90.5 189.5,90.5C 189.5,89.8333 189.5,89.1667 189.5,88.5 Z"/></g>
<g><path style="opacity:1" fill="#fdfdfe" d="M 189.5,90.5 C 190.167,90.5 190.5,90.8333 190.5,91.5C 190.685,93.1958 191.519,94.5291 193,95.5C 193.499,99.4862 193.666,103.486 193.5,107.5C 192.5,107.5 191.5,107.5 190.5,107.5C 190.634,109.292 190.301,110.958 189.5,112.5C 187.5,112.5 185.5,112.5 183.5,112.5C 183.5,104.833 183.5,97.1667 183.5,89.5C 185.621,89.3253 187.621,89.6586 189.5,90.5 Z"/></g>
<g><path style="opacity:1" fill="#e9e9f4" d="M 189.5,88.5 C 189.5,89.1667 189.5,89.8333 189.5,90.5C 187.621,89.6586 185.621,89.3253 183.5,89.5C 183.5,97.1667 183.5,104.833 183.5,112.5C 185.5,112.5 187.5,112.5 189.5,112.5C 189.5,113.167 189.167,113.5 188.5,113.5C 186.5,113.833 184.5,114.167 182.5,114.5C 181.53,105.918 181.197,97.2511 181.5,88.5C 184.167,88.5 186.833,88.5 189.5,88.5 Z"/></g>
<g><path style="opacity:1" fill="#c1c3e2" d="M 189.5,87.5 C 189.5,87.8333 189.5,88.1667 189.5,88.5C 186.833,88.5 184.167,88.5 181.5,88.5C 181.197,97.2511 181.53,105.918 182.5,114.5C 180.53,106.231 179.864,97.5645 180.5,88.5C 183.287,87.5233 186.287,87.19 189.5,87.5 Z"/></g>
<g><path style="opacity:1" fill="#7577be" d="M 189.5,88.5 C 189.5,88.1667 189.5,87.8333 189.5,87.5C 192.264,87.9988 193.931,89.6655 194.5,92.5C 192.833,91.1667 191.167,89.8333 189.5,88.5 Z"/></g>
<g><path style="opacity:1" fill="#6869b7" d="M 189.5,87.5 C 186.287,87.19 183.287,87.5233 180.5,88.5C 179.507,96.9839 179.174,105.651 179.5,114.5C 178.23,104.641 178.23,94.6408 179.5,84.5C 183.428,83.9758 186.761,84.9758 189.5,87.5 Z"/></g>
<g><path style="opacity:1" fill="#8182c3" d="M 114.5,87.5 C 111.167,87.5 107.833,87.5 104.5,87.5C 104.5,91.1667 104.5,94.8333 104.5,98.5C 103.518,95.0381 103.185,91.3714 103.5,87.5C 103.414,86.5041 103.748,85.6708 104.5,85C 107.5,84.3333 110.5,84.3333 113.5,85C 114.252,85.6708 114.586,86.5041 114.5,87.5 Z"/></g>
<g><path style="opacity:1" fill="#6a6bb8" d="M 94.5,78.5 C 101.175,78.3337 107.842,78.5004 114.5,79C 116.315,79.7568 117.981,80.5902 119.5,81.5C 111.525,80.7237 103.525,80.3903 95.5,80.5C 95.5,94.5 95.5,108.5 95.5,122.5C 95.1667,122.5 94.8333,122.5 94.5,122.5C 94.5,107.833 94.5,93.1667 94.5,78.5 Z"/></g>
<g><path style="opacity:1" fill="#4a4ca9" d="M 213.5,81.5 C 215.833,81.5 218.167,81.5 220.5,81.5C 220.5,95.1667 220.5,108.833 220.5,122.5C 218.167,122.5 215.833,122.5 213.5,122.5C 213.5,108.833 213.5,95.1667 213.5,81.5 Z"/></g>
<g><path style="opacity:1" fill="#8385c4" d="M 194.5,81.5 C 195.833,81.8333 197.167,82.1667 198.5,82.5C 198.5,82.8333 198.5,83.1667 198.5,83.5C 196.517,83.8432 195.183,83.1765 194.5,81.5 Z"/></g>
<g><path style="opacity:1" fill="#9a9bcf" d="M 189.5,78.5 C 191.072,79.6873 192.739,80.6873 194.5,81.5C 193.167,81.5 191.833,81.5 190.5,81.5C 186.946,80.0156 183.112,79.3489 179,79.5C 176.245,79.5252 173.578,79.8586 171,80.5C 170.173,94.6728 170.339,108.673 171.5,122.5C 171.833,122.5 172.167,122.5 172.5,122.5C 178.167,122.5 183.833,122.5 189.5,122.5C 189.5,122.833 189.5,123.167 189.5,123.5C 182.833,123.5 176.167,123.5 169.5,123.5C 169.5,108.167 169.5,92.8333 169.5,77.5C 176.354,77.176 183.021,77.5093 189.5,78.5 Z"/></g>
<g><path style="opacity:1" fill="#e0e0f0" d="M 161.5,78.5 C 152.105,77.8623 143.105,78.5289 134.5,80.5C 134.5,94.5 134.5,108.5 134.5,122.5C 134.5,122.833 134.5,123.167 134.5,123.5C 134.5,123.833 134.5,124.167 134.5,124.5C 133.504,124.586 132.671,124.252 132,123.5C 131.167,108.489 131.334,93.4889 132.5,78.5C 142.295,77.1813 151.961,77.1813 161.5,78.5 Z"/></g>
<g><path style="opacity:1" fill="#5657ae" d="M 69.5,78.5 C 72.8333,78.5 76.1667,78.5 79.5,78.5C 80.4006,80.7271 82.0672,81.7271 84.5,81.5C 85.6414,83.4513 85.6414,85.4513 84.5,87.5C 84.5,87.8333 84.5,88.1667 84.5,88.5C 82.8333,88.5 81.1667,88.5 79.5,88.5C 79.5,87.8333 79.1667,87.5 78.5,87.5C 77.8478,86.2749 76.6811,85.6083 75,85.5C 72.9919,85.3068 71.4919,85.9735 70.5,87.5C 69.8333,87.5 69.5,87.8333 69.5,88.5C 67.1667,88.8333 65.8333,90.1667 65.5,92.5C 65.1667,92.5 64.8333,92.5 64.5,92.5C 64.4503,89.8023 65.4503,87.6356 67.5,86C 66.3914,85.3623 65.2247,84.8623 64,84.5C 61.6939,85.6462 59.5272,86.9795 57.5,88.5C 58.1667,86.8333 58.8333,85.1667 59.5,83.5C 61.0618,83.2671 62.3951,82.6005 63.5,81.5C 65.8185,81.0075 67.8185,80.0075 69.5,78.5 Z"/></g>
<g><path style="opacity:1" fill="#8383c3" d="M 78.5,87.5 C 75.8333,87.5 73.1667,87.5 70.5,87.5C 71.4919,85.9735 72.9919,85.3068 75,85.5C 76.6811,85.6083 77.8478,86.2749 78.5,87.5 Z"/></g>
<g><path style="opacity:1" fill="#c4c5e3" d="M 222.5,78.5 C 223.496,93.324 223.829,108.324 223.5,123.5C 222.833,123.5 222.167,123.5 221.5,123.5C 221.5,123.167 221.5,122.833 221.5,122.5C 222.496,108.01 222.829,93.3428 222.5,78.5 Z"/></g>
<g><path style="opacity:1" fill="#6566b6" d="M 221.5,122.5 C 221.167,122.5 220.833,122.5 220.5,122.5C 220.5,108.833 220.5,95.1667 220.5,81.5C 218.167,81.5 215.833,81.5 213.5,81.5C 214.152,80.2749 215.319,79.6083 217,79.5C 218.436,79.5589 219.769,79.8922 221,80.5C 221.5,94.496 221.667,108.496 221.5,122.5 Z"/></g>
<g><path style="opacity:1" fill="#afb0d9" d="M 221.5,78.5 C 218.5,78.5 215.5,78.5 212.5,78.5C 212.5,93.1667 212.5,107.833 212.5,122.5C 211.504,108.01 211.171,93.3428 211.5,78.5C 214.833,77.1667 218.167,77.1667 221.5,78.5 Z"/></g>
<g><path style="opacity:1" fill="#4c4eaa" d="M 144.5,87.5 C 144.5,90.1667 144.5,92.8333 144.5,95.5C 144.5,95.8333 144.5,96.1667 144.5,96.5C 148.715,98.4364 153.381,99.1031 158.5,98.5C 158.5,99.8333 158.5,101.167 158.5,102.5C 153.637,102.181 148.97,102.514 144.5,103.5C 143.167,107.5 143.167,111.5 144.5,115.5C 149.975,116.489 155.642,116.822 161.5,116.5C 161.5,118.5 161.5,120.5 161.5,122.5C 152.833,122.5 144.167,122.5 135.5,122.5C 135.5,108.833 135.5,95.1667 135.5,81.5C 143.833,81.5 152.167,81.5 160.5,81.5C 160.5,82.5 160.5,83.5 160.5,84.5C 155.167,84.5 149.833,84.5 144.5,84.5C 144.5,85.5 144.5,86.5 144.5,87.5 Z"/></g>
<g><path style="opacity:1" fill="#6465b5" d="M 145.5,87.5 C 145.167,87.5 144.833,87.5 144.5,87.5C 144.5,86.5 144.5,85.5 144.5,84.5C 149.833,84.5 155.167,84.5 160.5,84.5C 160.5,83.5 160.5,82.5 160.5,81.5C 152.167,81.5 143.833,81.5 135.5,81.5C 135.5,95.1667 135.5,108.833 135.5,122.5C 135.167,122.5 134.833,122.5 134.5,122.5C 134.5,108.5 134.5,94.5 134.5,80.5C 143.088,79.3643 151.755,79.1977 160.5,80C 161.833,82 161.833,84 160.5,86C 155.316,86.1739 150.316,86.6739 145.5,87.5 Z"/></g>
<g><path style="opacity:1" fill="#cbcce6" d="M 189.5,78.5 C 192.216,78.6785 194.883,79.1785 197.5,80C 198.252,80.6708 198.586,81.5041 198.5,82.5C 197.167,82.1667 195.833,81.8333 194.5,81.5C 192.739,80.6873 191.072,79.6873 189.5,78.5 Z"/></g>
<g><path style="opacity:1" fill="#abacd7" d="M 79.5,78.5 C 82.285,77.9162 83.9517,78.9162 84.5,81.5C 82.0672,81.7271 80.4006,80.7271 79.5,78.5 Z"/></g>
<g><path style="opacity:1" fill="#9697cc" d="M 69.5,78.5 C 67.8185,80.0075 65.8185,81.0075 63.5,81.5C 63.5,80.8333 63.5,80.1667 63.5,79.5C 63.8333,79.5 64.1667,79.5 64.5,79.5C 66.0418,78.6993 67.7085,78.366 69.5,78.5 Z"/></g>
<g><path style="opacity:1" fill="#cacce6" d="M 63.5,79.5 C 63.5,80.1667 63.5,80.8333 63.5,81.5C 62.3951,82.6005 61.0618,83.2671 59.5,83.5C 60.2341,82.2921 60.5674,80.9587 60.5,79.5C 61.5,79.5 62.5,79.5 63.5,79.5 Z"/></g>
<g><path style="opacity:1" fill="#8686c5" d="M 161.5,78.5 C 162.833,81.5 162.833,84.5 161.5,87.5C 156.167,87.5 150.833,87.5 145.5,87.5C 150.316,86.6739 155.316,86.1739 160.5,86C 161.833,84 161.833,82 160.5,80C 151.755,79.1977 143.088,79.3643 134.5,80.5C 143.105,78.5289 152.105,77.8623 161.5,78.5 Z"/></g>
<g><path style="opacity:1" fill="#cbcbe6" d="M 263.5,87.5 C 263.167,87.5 262.833,87.5 262.5,87.5C 262.5,84.5 262.5,81.5 262.5,78.5C 250.833,78.5 239.167,78.5 227.5,78.5C 227.5,81.5 227.5,84.5 227.5,87.5C 231.5,87.5 235.5,87.5 239.5,87.5C 239.5,87.8333 239.5,88.1667 239.5,88.5C 239.5,100.167 239.5,111.833 239.5,123.5C 238.505,112.012 238.172,100.345 238.5,88.5C 234.5,88.5 230.5,88.5 226.5,88.5C 226.5,84.8333 226.5,81.1667 226.5,77.5C 238.838,77.3335 251.171,77.5001 263.5,78C 264.818,81.2688 264.818,84.4355 263.5,87.5 Z"/></g>
<g><path style="opacity:1" fill="#8687c5" d="M 262.5,87.5 C 262.167,87.5 261.833,87.5 261.5,87.5C 257.833,87.5 254.167,87.5 250.5,87.5C 253.641,86.6787 256.975,86.1787 260.5,86C 261.833,84 261.833,82 260.5,80C 249.839,79.5002 239.172,79.3335 228.5,79.5C 228.216,81.4147 228.549,83.0813 229.5,84.5C 229.5,84.8333 229.5,85.1667 229.5,85.5C 232.833,86.1667 236.167,86.8333 239.5,87.5C 235.5,87.5 231.5,87.5 227.5,87.5C 227.5,84.5 227.5,81.5 227.5,78.5C 239.167,78.5 250.833,78.5 262.5,78.5C 262.5,81.5 262.5,84.5 262.5,87.5 Z"/></g>
<g><path style="opacity:1" fill="#6162b4" d="M 250.5,87.5 C 250.167,87.5 249.833,87.5 249.5,87.5C 249.5,86.5 249.5,85.5 249.5,84.5C 253.167,84.5 256.833,84.5 260.5,84.5C 260.5,83.5 260.5,82.5 260.5,81.5C 250.167,81.5 239.833,81.5 229.5,81.5C 229.5,82.5 229.5,83.5 229.5,84.5C 228.549,83.0813 228.216,81.4147 228.5,79.5C 239.172,79.3335 249.839,79.5002 260.5,80C 261.833,82 261.833,84 260.5,86C 256.975,86.1787 253.641,86.6787 250.5,87.5 Z"/></g>
<g><path style="opacity:1" fill="#b9bade" d="M 94.5,78.5 C 94.5,78.1667 94.5,77.8333 94.5,77.5C 101.508,77.3337 108.508,77.5004 115.5,78C 117.852,78.2401 119.852,79.0735 121.5,80.5C 122.167,81.5 122.833,82.5 123.5,83.5C 121.938,83.2671 120.605,82.6005 119.5,81.5C 117.981,80.5902 116.315,79.7568 114.5,79C 107.842,78.5004 101.175,78.3337 94.5,78.5 Z"/></g>
<g><path style="opacity:1" fill="#b9badd" d="M 79.5,78.5 C 76.1667,78.5 72.8333,78.5 69.5,78.5C 67.7085,78.366 66.0418,78.6993 64.5,79.5C 66.5706,78.1914 69.0706,77.5248 72,77.5C 74.6903,77.5029 77.1903,77.8362 79.5,78.5 Z"/></g>
<g><path style="opacity:1" fill="#e6a415" d="M 306.5,153.5 C 306.828,165.345 306.495,177.012 305.5,188.5C 305.5,177.167 305.5,165.833 305.5,154.5C 207.167,154.5 108.833,154.5 10.5,154.5C 10.3335,164.839 10.5002,175.172 11,185.5C 11.804,186.804 12.9707,187.471 14.5,187.5C 16.4731,186.669 18.4731,186.502 20.5,187C 18.4701,188.896 16.8034,191.063 15.5,193.5C 17.7695,194.005 19.1028,195.338 19.5,197.5C 16.6967,197.039 14.3634,195.705 12.5,193.5C 11.4884,192.128 10.4884,190.795 9.5,189.5C 9.67158,188.508 9.33825,187.842 8.5,187.5C 8.5,186.5 8.5,185.5 8.5,184.5C 8.5,174.167 8.5,163.833 8.5,153.5C 107.833,153.5 207.167,153.5 306.5,153.5 Z"/></g>
<g><path style="opacity:1" fill="#e59c00" d="M 305.5,188.5 C 305.167,189.833 304.833,191.167 304.5,192.5C 304.5,192.833 304.5,193.167 304.5,193.5C 301.588,194.429 298.921,195.762 296.5,197.5C 204.167,197.5 111.833,197.5 19.5,197.5C 19.1028,195.338 17.7695,194.005 15.5,193.5C 16.8034,191.063 18.4701,188.896 20.5,187C 18.4731,186.502 16.4731,186.669 14.5,187.5C 12.9707,187.471 11.804,186.804 11,185.5C 10.5002,175.172 10.3335,164.839 10.5,154.5C 108.833,154.5 207.167,154.5 305.5,154.5C 305.5,165.833 305.5,177.167 305.5,188.5 Z"/></g>
<g><path style="opacity:1" fill="#e6c16f" d="M 7.5,152.5 C 8.16667,152.5 8.83333,152.5 9.5,152.5C 108.5,152.5 207.5,152.5 306.5,152.5C 306.5,152.833 306.5,153.167 306.5,153.5C 207.167,153.5 107.833,153.5 8.5,153.5C 8.5,163.833 8.5,174.167 8.5,184.5C 7.50577,174.347 7.17244,164.014 7.5,153.5C 7.5,153.167 7.5,152.833 7.5,152.5 Z"/></g>
<g><path style="opacity:1" fill="#d4bd87" d="M 7.5,153.5 C 7.17244,164.014 7.50577,174.347 8.5,184.5C 8.5,185.5 8.5,186.5 8.5,187.5C 7.17116,182.208 6.50449,176.542 6.5,170.5C 6.50053,164.657 6.83387,158.99 7.5,153.5 Z"/></g>
<g><path style="opacity:1" fill="#cfc7b3" d="M 6.5,152.5 C 6.83333,152.5 7.16667,152.5 7.5,152.5C 7.5,152.833 7.5,153.167 7.5,153.5C 6.83387,158.99 6.50053,164.657 6.5,170.5C 6.50449,176.542 7.17116,182.208 8.5,187.5C 9.33825,187.842 9.67158,188.508 9.5,189.5C 9.08824,191.973 10.0882,193.306 12.5,193.5C 13.075,195.411 14.075,197.078 15.5,198.5C 13.8828,197.962 12.2161,197.629 10.5,197.5C 9.73773,194.07 8.23773,191.07 6,188.5C 5.17366,176.326 5.34033,164.326 6.5,152.5 Z"/></g>
<g><path style="opacity:1" fill="#dbb35c" d="M 306.5,153.5 C 307.829,158.792 308.496,164.458 308.5,170.5C 308.333,176.167 308.167,181.833 308,187.5C 307.777,189.881 306.61,191.547 304.5,192.5C 304.833,191.167 305.167,189.833 305.5,188.5C 306.495,177.012 306.828,165.345 306.5,153.5 Z"/></g>
<g><path style="opacity:1" fill="#d9b45e" d="M 9.5,189.5 C 10.4884,190.795 11.4884,192.128 12.5,193.5C 10.0882,193.306 9.08824,191.973 9.5,189.5 Z"/></g>
<g><path style="opacity:1" fill="#d9b76e" d="M 12.5,193.5 C 14.3634,195.705 16.6967,197.039 19.5,197.5C 111.833,197.5 204.167,197.5 296.5,197.5C 296.5,197.833 296.5,198.167 296.5,198.5C 202.833,198.5 109.167,198.5 15.5,198.5C 14.075,197.078 13.075,195.411 12.5,193.5 Z"/></g>
<g><path style="opacity:1" fill="#d5bc83" d="M 304.5,193.5 C 302.569,196.264 299.902,197.931 296.5,198.5C 296.5,198.167 296.5,197.833 296.5,197.5C 298.921,195.762 301.588,194.429 304.5,193.5 Z"/></g>
<g><path style="opacity:0.879" fill="#cbcbcc" d="M 10.5,197.5 C 12.2161,197.629 13.8828,197.962 15.5,198.5C 109.332,199.333 203.332,199.833 297.5,200C 296.619,200.708 295.953,201.542 295.5,202.5C 202.833,202.667 110.166,202.5 17.5,202C 14.7613,200.974 12.428,199.474 10.5,197.5 Z"/></g>
</svg>
