<svg width="21" height="15" viewBox="0 0 21 15" fill="none" xmlns="http://www.w3.org/2000/svg">
<path d="M10.4773 0.579102C4.95449 0.579102 0.47769 3.51651 0.47769 7.1195C0.47769 7.21267 0.476562 7.46975 0.476562 7.50238C0.476562 11.3251 4.38954 14.4207 10.476 14.4207C16.5993 14.4207 20.4766 11.3258 20.4766 7.50309V7.1195C20.4764 3.51651 15.9996 0.579102 10.4773 0.579102ZM20.0257 6.39465C18.5848 6.71348 17.1781 7.17076 15.8252 7.76012C14.8765 6.93236 12.6845 5.02623 12.0909 4.58084C11.8607 4.38725 11.5988 4.23487 11.3168 4.1304C11.1939 4.09166 11.0659 4.07166 10.937 4.07106C10.7729 4.07324 10.6102 4.10067 10.4545 4.15237C10.0376 4.32545 9.65341 4.56868 9.31864 4.87151L9.29959 4.88656C8.95513 5.16046 8.59907 5.44377 8.32968 5.5037C8.21182 5.53028 8.09138 5.54377 7.97056 5.54393C7.84934 5.55403 7.72732 5.54005 7.61153 5.5028C7.49574 5.46554 7.38846 5.40575 7.29588 5.32685C7.27911 5.30535 7.29019 5.27073 7.32923 5.22095L7.33425 5.21418L8.169 4.31499C8.82262 3.66132 9.44007 3.04414 10.861 3.01153C10.8846 3.01085 10.9085 3.0104 10.9319 3.0104C11.5772 3.03673 12.2115 3.18696 12.8001 3.4529C13.591 3.84822 14.4619 4.05709 15.346 4.06346C16.3132 4.04677 17.2651 3.81915 18.1351 3.3965C19.1489 4.24908 19.8213 5.27592 20.0257 6.39465ZM10.479 0.965324C13.4103 0.965324 16.0334 1.80552 17.7969 3.12881C17.0275 3.48028 16.1938 3.66926 15.348 3.68393C14.5206 3.67719 13.7057 3.48105 12.9658 3.11055C12.3261 2.81858 11.6352 2.65534 10.9325 2.63014C10.9058 2.63014 10.8788 2.63056 10.8523 2.63115C10.0059 2.61876 9.18314 2.91084 8.53399 3.4542C8.14095 3.4748 7.75218 3.54577 7.37721 3.66537C7.11365 3.75328 6.83957 3.80579 6.56218 3.82152C6.45764 3.82152 6.2696 3.81195 6.25273 3.81122C5.25542 3.63566 4.27723 3.36495 3.33155 3.0028C5.09151 1.75214 7.64125 0.965324 10.479 0.965324ZM2.98555 3.2639C4.20517 3.76274 5.68483 4.14796 6.15273 4.17827C6.28326 4.18685 6.42231 4.20161 6.56144 4.2019C6.8744 4.18672 7.18385 4.12922 7.48137 4.03097C7.65851 3.98132 7.85384 3.92715 8.05942 3.88792C8.0044 3.94164 7.94969 3.99623 7.89467 4.05137L7.04695 4.96844C6.98248 5.02559 6.93686 5.10095 6.91614 5.18457C6.89541 5.26819 6.90055 5.35614 6.93087 5.43678C6.98007 5.53877 7.0574 5.62459 7.15373 5.68412C7.42797 5.83911 7.73867 5.91793 8.05363 5.9124C8.1743 5.91325 8.29469 5.90065 8.41256 5.87484C8.76811 5.79524 9.14099 5.49813 9.53575 5.18414C9.86281 4.90176 10.2364 4.67824 10.6398 4.52354C10.7403 4.49685 10.8437 4.48268 10.9476 4.48134C10.9742 4.48113 11.0008 4.48273 11.0272 4.48612C11.3377 4.5371 11.6273 4.67526 11.8623 4.8845C12.5583 5.40755 15.6377 8.10159 15.6681 8.12817C15.7292 8.18617 15.7774 8.25652 15.8092 8.33454C15.8411 8.41257 15.856 8.49649 15.8529 8.58072C15.8473 8.66148 15.822 8.73961 15.779 8.80823C15.7361 8.87685 15.6769 8.93384 15.6067 8.97418C15.487 9.0542 15.3467 9.09792 15.2027 9.10009C15.0763 9.10021 14.9525 9.06435 14.8457 8.99671C14.8345 8.98742 13.7794 8.01984 13.3908 7.69467C13.3422 7.6433 13.2783 7.60913 13.2085 7.59733C13.1931 7.59703 13.1777 7.6003 13.1637 7.60689C13.1497 7.61349 13.1374 7.62322 13.1278 7.63533C13.0667 7.71059 13.1352 7.81495 13.2159 7.88333L14.4483 9.12282C14.5403 9.21237 14.6002 9.32967 14.6188 9.45664C14.622 9.56052 14.5963 9.66325 14.5447 9.75344C14.493 9.84363 14.4174 9.91775 14.3262 9.96757C14.198 10.0579 14.046 10.1081 13.8893 10.112C13.7641 10.112 13.6417 10.0749 13.5376 10.0053L13.3609 9.83117C13.0376 9.51323 12.7039 9.18434 12.4598 8.98065C12.4104 8.92984 12.346 8.89637 12.276 8.88526C12.2615 8.88501 12.247 8.88784 12.2337 8.89356C12.2203 8.89928 12.2083 8.90777 12.1984 8.91846C12.1705 8.94941 12.1511 9.00497 12.2209 9.09727C12.2397 9.12206 12.2605 9.14526 12.2831 9.16661L13.1823 10.1769C13.2342 10.2357 13.2645 10.3104 13.2682 10.3888C13.2719 10.4672 13.2488 10.5445 13.2027 10.608L13.1708 10.6482C13.1445 10.6767 13.1165 10.7037 13.087 10.7289C12.9598 10.8224 12.8053 10.8713 12.6475 10.8682C12.6067 10.8684 12.5661 10.865 12.5259 10.8579C12.4604 10.8528 12.3982 10.8266 12.3487 10.7832L12.3374 10.7719C12.2885 10.7211 11.8352 10.2582 11.4602 9.94511C11.4137 9.89564 11.3522 9.86278 11.2852 9.85157C11.2699 9.85143 11.2547 9.85458 11.2406 9.86082C11.2266 9.86706 11.2141 9.87624 11.2039 9.88773C11.1299 9.96902 11.2413 10.0904 11.2885 10.135L12.0552 10.9812C12.0487 10.9999 12.039 11.0174 12.0266 11.0328C11.999 11.0708 11.9061 11.1639 11.6279 11.1988C11.5941 11.2031 11.5601 11.2052 11.526 11.205C11.2621 11.188 11.0054 11.1119 10.7749 10.9822C10.857 10.8078 10.8938 10.6155 10.8818 10.4232C10.8698 10.2308 10.8094 10.0446 10.7062 9.88187C10.603 9.7191 10.4604 9.58502 10.2915 9.49209C10.1227 9.39917 9.93312 9.35039 9.7404 9.3503C9.72693 9.3503 9.71257 9.35071 9.69908 9.35115C9.73192 9.13334 9.69306 8.91075 9.58836 8.71694C9.48366 8.52313 9.3188 8.36861 9.11863 8.27667C8.96807 8.20912 8.80522 8.17323 8.64021 8.17123C8.52036 8.17065 8.40143 8.19221 8.2894 8.23481C8.17283 8.00846 7.97143 7.83745 7.72918 7.75911C7.59725 7.71234 7.45843 7.68791 7.31846 7.68683C7.08889 7.68553 6.86487 7.75731 6.67879 7.89177C6.59422 7.7855 6.48814 7.69831 6.36751 7.63591C6.24688 7.5735 6.11442 7.53729 5.97882 7.52965C5.84322 7.52201 5.70754 7.54312 5.58066 7.59158C5.45379 7.64003 5.33859 7.71476 5.24261 7.81085C5.00375 7.6283 4.05655 7.02661 1.52113 6.45099C1.40003 6.42356 1.12513 6.34485 0.95199 6.29406C1.18984 5.15597 1.91302 4.11665 2.9856 3.2639H2.98555ZM7.6885 9.86375L7.66106 9.83923H7.63335C7.60487 9.84134 7.57776 9.85231 7.55582 9.87059C7.44689 9.95442 7.31423 10.0016 7.17683 10.0055C7.10443 10.0049 7.03275 9.99095 6.96539 9.96439C6.77932 9.89494 6.62479 9.76031 6.5305 9.58551C6.4362 9.41071 6.40857 9.20763 6.45272 9.014C6.45575 8.99991 6.45496 8.98528 6.45044 8.9716C6.44593 8.95792 6.43784 8.9457 6.42702 8.93619L6.38553 8.90231L6.34674 8.93928C6.23376 9.04898 6.08246 9.11031 5.92499 9.11022C5.80752 9.1107 5.69241 9.07726 5.59348 9.01392C5.49455 8.95057 5.41601 8.86002 5.36729 8.75313C5.31858 8.64623 5.30176 8.52755 5.31885 8.41133C5.33594 8.29511 5.38622 8.1863 5.46365 8.09795C5.54108 8.00961 5.64236 7.9455 5.75534 7.91332C5.86831 7.88114 5.98818 7.88226 6.10053 7.91654C6.21289 7.95083 6.31296 8.01682 6.38873 8.10659C6.46449 8.19636 6.51273 8.30609 6.52765 8.42261L6.54866 8.58648L6.6387 8.44777C6.74014 8.29035 6.89083 8.17094 7.06726 8.10816C7.24369 8.04539 7.43594 8.04277 7.61401 8.10073C7.737 8.13935 7.84481 8.21553 7.92227 8.31858C7.99973 8.42163 8.04295 8.54636 8.04586 8.67525C8.05246 8.75472 8.10903 8.75862 8.11999 8.75862C8.13367 8.75766 8.14702 8.75388 8.15917 8.74751C8.17133 8.74115 8.18204 8.73234 8.19063 8.72164C8.24863 8.6611 8.31839 8.61305 8.39563 8.58044C8.47287 8.54783 8.55596 8.53135 8.6398 8.532C8.75596 8.53455 8.87043 8.5604 8.97641 8.60801C9.55093 8.85447 9.2904 9.58456 9.28733 9.59202C9.23778 9.713 9.23584 9.76646 9.28226 9.79728L9.30489 9.80794H9.32176C9.36006 9.80364 9.39755 9.79383 9.43306 9.77884C9.53094 9.74014 9.63437 9.7173 9.73944 9.71116H9.73973C9.84265 9.71119 9.94455 9.73149 10.0396 9.7709C10.1347 9.81031 10.2211 9.86806 10.2938 9.94085C10.3666 10.0136 10.4243 10.1001 10.4636 10.1951C10.503 10.2902 10.5233 10.3922 10.5232 10.4951C10.5232 10.598 10.5029 10.6999 10.4635 10.795C10.4241 10.89 10.3663 10.9764 10.2935 11.0492C10.2207 11.1219 10.1343 11.1796 10.0392 11.219C9.94415 11.2583 9.84223 11.2786 9.73932 11.2786C9.53744 11.2798 9.343 11.2025 9.19709 11.0629C9.05118 10.9234 8.96524 10.7326 8.95743 10.5309C8.95628 10.495 8.95253 10.3996 8.87161 10.3996C8.83482 10.4039 8.80095 10.4218 8.77667 10.4497C8.67665 10.5562 8.53846 10.6186 8.39246 10.6232C8.30529 10.6214 8.21929 10.6027 8.13921 10.5683C7.69294 10.3871 7.68681 10.0807 7.70483 9.95742C7.70922 9.94157 7.71003 9.92495 7.70721 9.90875C7.70438 9.89255 7.69799 9.87718 7.6885 9.86375ZM10.4789 13.2672C5.16868 13.2672 0.863986 10.5132 0.863986 7.11626C0.864811 6.98047 0.872545 6.84481 0.887158 6.70981C0.929554 6.71993 1.35128 6.82076 1.43862 6.8404C4.0286 7.41575 4.88444 8.01391 5.02906 8.12702C4.96756 8.27448 4.94343 8.43485 4.9588 8.59388C4.97417 8.75291 5.02858 8.90568 5.11718 9.03864C5.20578 9.17159 5.32585 9.28061 5.46671 9.35601C5.60757 9.43141 5.76487 9.47086 5.92464 9.47086C5.98435 9.47097 6.04394 9.46546 6.10261 9.45441C6.14087 9.64674 6.22847 9.82583 6.35681 9.97409C6.48516 10.1224 6.64985 10.2347 6.83472 10.3001C6.9449 10.3434 7.0621 10.366 7.18046 10.3668C7.25496 10.3672 7.32921 10.3581 7.40136 10.3395C7.4903 10.5267 7.6292 10.6857 7.80275 10.799C7.97631 10.9123 8.17777 10.9755 8.38493 10.9815C8.48601 10.9815 8.5863 10.9636 8.68114 10.9287C8.75296 11.1044 8.86746 11.2595 9.01429 11.3798C9.16111 11.5002 9.33562 11.5821 9.52204 11.6181C9.70846 11.654 9.90091 11.643 10.082 11.5859C10.263 11.5288 10.427 11.4274 10.5591 11.291C10.8545 11.4631 11.1867 11.5623 11.5281 11.5804C11.5771 11.5802 11.626 11.5771 11.6747 11.5711C11.8007 11.5673 11.9245 11.5366 12.0378 11.4812C12.151 11.4258 12.2512 11.3468 12.3316 11.2497C12.3468 11.2288 12.3603 11.2068 12.3722 11.1838C12.4728 11.2145 12.5772 11.2308 12.6824 11.2324C12.9099 11.2278 13.1297 11.1492 13.3084 11.0085C13.4972 10.8846 13.6298 10.6917 13.6778 10.4711C13.6783 10.4686 13.6785 10.4662 13.6787 10.4637C13.7477 10.4777 13.8179 10.4848 13.8883 10.4848C14.1181 10.4819 14.342 10.411 14.5315 10.2808C14.6756 10.1973 14.7945 10.0764 14.8757 9.9309C14.9569 9.78543 14.9974 9.62075 14.9929 9.45421C15.0628 9.46875 15.1339 9.47614 15.2053 9.47628C15.4198 9.47396 15.629 9.40956 15.8076 9.29086C15.9264 9.21832 16.0262 9.11874 16.0991 9.00024C16.172 8.88174 16.2158 8.74768 16.2269 8.60902C16.2412 8.41605 16.1946 8.22347 16.0939 8.05829C17.3858 7.53097 18.7197 7.11322 20.0816 6.80946C20.0895 6.91119 20.0938 7.01349 20.0938 7.11646C20.0938 10.5132 15.7892 13.2672 10.479 13.2672L10.4789 13.2672Z" fill="black" fill-opacity="0.55"/>
</svg>
