<svg width="32" height="24" viewBox="0 0 32 24" fill="none" xmlns="http://www.w3.org/2000/svg">
<rect x="0.5" y="0.5" width="31" height="23" rx="3.5" fill="white"/>
<rect x="0.5" y="0.5" width="31" height="23" rx="3.5" stroke="#E5E5E5"/>
<g clip-path="url(#clip0_10514_6067)">
<path d="M11.0395 7H8.75934C7.75188 7.04798 6.92836 7.45671 6.69058 8.29956C6.56659 8.73913 6.49835 9.2219 6.4014 9.67756C5.90851 11.9945 5.47147 14.3752 5 16.6459H22.7513C24.1236 16.6459 25.0659 16.3538 25.3205 15.2567C25.4388 14.7471 25.5521 14.1698 25.6653 13.6098C26.1065 11.4267 26.5481 9.2436 27 7H11.0395Z" fill="#B82126"/>
<path d="M20.1985 12.7631C19.9523 13.0058 19.2613 13.0748 19.332 12.4945C19.3907 12.0126 19.9116 11.9102 20.4762 11.9798C20.4343 12.2434 20.3861 12.5781 20.1985 12.7631ZM19.4208 10.8831C19.3973 11.0161 19.3612 11.1364 19.332 11.2636C19.6139 11.1924 20.4917 10.9741 20.5763 11.3531C20.6043 11.479 20.5559 11.6128 20.5207 11.7112C19.7269 11.6355 19.0799 11.7683 18.9098 12.3378C18.7958 12.7193 18.9226 13.0947 19.1653 13.1995C19.6329 13.4013 20.2016 13.1702 20.3985 12.8526C20.378 12.9626 20.3587 13.0736 20.3652 13.2107H20.7762C20.7806 12.8142 20.8379 12.4932 20.8984 12.1364C20.9501 11.8326 21.0472 11.5317 21.0317 11.2636C20.9964 10.6494 19.9863 10.8666 19.4208 10.8831ZM23.5425 12.9533C23.2209 12.9603 23.061 12.7598 23.0537 12.4274C23.0409 11.8452 23.2944 11.1985 23.8091 11.1405C24.0488 11.1135 24.2224 11.1696 24.398 11.23C24.2368 11.8839 24.295 12.9371 23.5425 12.9533ZM24.609 9.87598C24.5681 10.2376 24.5134 10.5853 24.4424 10.9167C23.2706 10.5431 22.552 11.4115 22.5648 12.4833C22.5674 12.6906 22.6028 12.8962 22.7315 13.0428C22.9533 13.2955 23.5885 13.356 23.9091 13.1436C23.9713 13.1025 24.0347 13.0277 24.0758 12.9757C24.1067 12.9366 24.1558 12.8343 24.1646 12.8638C24.1478 12.9774 24.1226 13.0826 24.1202 13.2107H24.5535C24.637 12.0042 24.8952 10.9736 25.0868 9.87598H24.609ZM12.3773 12.7743C12.1217 13.047 11.4934 13.0428 11.4441 12.584C11.4226 12.3844 11.4965 12.1751 11.533 11.9686C11.5699 11.7596 11.5965 11.559 11.6329 11.3755C11.8847 11.0658 12.6244 11.0285 12.6995 11.5433C12.7646 11.9904 12.589 12.5485 12.3773 12.7743ZM12.7551 10.8831C12.3507 10.7301 11.8579 10.9127 11.6443 11.0865C11.645 11.0941 11.6392 11.0952 11.6329 11.0957C11.6366 11.0926 11.6405 11.0895 11.6443 11.0865C11.6443 11.0858 11.6442 11.0852 11.6441 11.0846C11.6477 11.0098 11.6738 10.9578 11.6774 10.8831H11.2663C11.095 12.031 10.8919 13.1468 10.6775 14.2514H11.1552C11.2244 13.8212 11.2701 13.3674 11.3663 12.9645C11.4754 13.3883 12.1878 13.3073 12.4884 13.1436C13.1086 12.8058 13.587 11.1979 12.7551 10.8831ZM15.0214 11.6888H13.8994C13.9349 11.429 14.1669 11.1434 14.5326 11.1293C14.8767 11.1161 15.1231 11.2566 15.0214 11.6888ZM14.5659 10.8384C14.2207 10.8651 13.9289 10.9652 13.7216 11.1852C13.4672 11.4551 13.2613 12.0518 13.3216 12.5952C13.4077 13.3705 14.366 13.3427 15.1325 13.1548C15.1455 13.0187 15.1782 12.9024 15.1992 12.7743C14.8834 12.8933 14.3352 13.0594 14.0104 12.8526C13.7652 12.6965 13.7638 12.301 13.8438 11.9574C14.3589 11.9409 14.8944 11.944 15.4102 11.9574C15.443 11.7138 15.5366 11.4482 15.4547 11.2076C15.3466 10.89 14.9597 10.8078 14.5659 10.8384ZM10.3665 10.8831C10.3535 10.885 10.3544 10.9008 10.3553 10.9167C10.2501 11.7096 10.1076 12.4651 9.9554 13.2107H10.4331C10.5479 12.4124 10.6794 11.631 10.8442 10.8831H10.3665ZM22.8315 10.8943C22.4093 10.6817 22.0578 11.0385 21.9206 11.2524C21.9596 11.1426 21.9619 10.9957 21.9983 10.8831H21.5761C21.4623 11.6823 21.325 12.458 21.165 13.2107H21.6539C21.657 12.9022 21.7171 12.674 21.765 12.3714C21.8671 11.7254 22.0171 11.017 22.7649 11.23C22.7897 11.1207 22.8 10.9968 22.8315 10.8943ZM17.4655 12.6624C17.4215 12.5478 17.4101 12.3586 17.4211 12.2147C17.4458 11.8914 17.5627 11.4977 17.7433 11.3195C17.9924 11.0736 18.4842 11.1143 18.8764 11.2524C18.8886 11.1192 18.9152 11.0004 18.932 10.8719C18.2887 10.7661 17.6781 10.8319 17.3544 11.1741C17.0376 11.509 16.8298 12.2787 16.9767 12.7631C17.1486 13.3299 17.9192 13.3607 18.5432 13.1436C18.5708 13.0297 18.5854 12.9027 18.6099 12.7855C18.2689 12.9639 17.6171 13.0566 17.4655 12.6624ZM17.1989 10.8831C16.7753 10.7108 16.4423 11.002 16.2879 11.2748C16.3229 11.1534 16.3374 11.0113 16.3657 10.8831H15.9435C15.8403 11.6893 15.6882 12.4462 15.5436 13.2107H16.0213C16.0883 12.7569 16.1172 12.1453 16.2657 11.7112C16.3844 11.3643 16.6951 11.0688 17.1434 11.23C17.1497 11.1021 17.186 11.0044 17.1989 10.8831ZM9.49991 9.94311C9.43167 10.3891 9.3548 10.8265 9.27771 11.2636C8.7828 11.2688 8.27749 11.2882 7.80013 11.2524C7.89029 10.8248 7.95495 10.3714 8.04451 9.94311H7.51129C7.32036 11.034 7.14673 12.1423 6.93359 13.2107H7.47794C7.56335 12.6626 7.6432 12.1089 7.75566 11.5881C8.21982 11.5766 8.77611 11.5565 9.22215 11.5993C9.13019 12.1408 9.01906 12.6629 8.93331 13.2107H9.4777C9.65258 12.1037 9.8369 11.0062 10.0554 9.94311H9.49991ZM10.8553 10.4355C10.9505 10.3694 11.0732 10.0684 10.9331 9.94311C10.8887 9.90344 10.8144 9.89192 10.7109 9.90956C10.6148 9.9259 10.5595 9.95875 10.522 10.0102C10.4616 10.0931 10.4063 10.3427 10.4997 10.4355C10.5908 10.5258 10.7947 10.4775 10.8553 10.4355Z" fill="white"/>
</g>
<defs>
<clipPath id="clip0_10514_6067">
<rect width="22" height="9.65161" fill="white" transform="translate(5 7)"/>
</clipPath>
</defs>
</svg>
