<svg width="32" height="25" viewBox="0 0 32 25" fill="none" xmlns="http://www.w3.org/2000/svg">
<g clip-path="url(#clip0_8585_72031)">
<rect y="0.548828" width="32" height="24" rx="4" fill="white"/>
<path fill-rule="evenodd" clip-rule="evenodd" d="M25.873 19.4898H8.11605C6.9474 19.4898 6 18.5954 6 17.4921V5.66869C6 5.60253 6.05684 5.54883 6.12696 5.54883H23.884C25.0526 5.54883 26 6.44322 26 7.54654V19.3699C26 19.4361 25.9432 19.4898 25.873 19.4898Z" fill="white"/>
<path fill-rule="evenodd" clip-rule="evenodd" d="M14.8747 15.9918C14.903 15.9864 14.9946 15.9772 15.0803 15.951C15.5091 15.8199 15.7896 15.412 15.7807 14.9402C15.7722 14.4878 15.47 14.0826 15.0517 13.9629C14.5716 13.8256 14.0698 14.0964 13.8939 14.5878C13.6435 15.2874 14.1056 15.9945 14.8747 15.9918ZM15.7832 13.1492C15.7832 12.5326 15.792 11.9546 15.7783 11.377C15.7737 11.1863 15.8418 11.1347 16.0307 11.1429C16.305 11.1548 16.5803 11.1495 16.855 11.1448C16.9871 11.1425 17.0423 11.1835 17.0419 11.3174C17.0377 12.5813 17.0733 13.8462 17.0293 15.1087C16.9871 16.3174 15.9676 17.1616 14.6939 17.115C13.5048 17.0714 12.5668 16.1734 12.5625 15.0305C12.5586 14.0147 13.132 13.1843 14.0501 12.9101C14.6435 12.7329 15.2168 12.7937 15.7832 13.1492Z" fill="#CA2939"/>
<path fill-rule="evenodd" clip-rule="evenodd" d="M7.0646 5.54892C7.05038 5.64757 7.03053 5.66519 7.03049 5.73982C7.02896 9.62177 7.02655 13.5037 7.0307 17.3857C7.03197 18.5938 7.93708 19.4553 9.20561 19.4722C9.21848 19.4724 9.21729 19.4722 9.23024 19.4722C9.32551 19.4722 9.30795 19.4734 9.26554 19.4722C9.25382 19.4718 9.24205 19.4722 9.23024 19.4722C8.94572 19.4724 8.64545 19.4891 8.32957 19.4891C6.95786 19.489 6.04398 18.6304 6.04364 17.3376C6.04267 13.4889 6.04301 9.69724 6.04309 5.84857C6.04309 5.55272 6.04699 5.54936 6.36274 5.54896C6.59983 5.54868 6.83691 5.54892 7.0646 5.54892Z" fill="#CA2939"/>
<path fill-rule="evenodd" clip-rule="evenodd" d="M18.5495 14.757C19.1316 14.5246 19.6719 14.309 20.2408 14.0819C19.9038 13.84 19.5719 13.7869 19.2162 13.9172C18.8351 14.0568 18.6359 14.3368 18.5495 14.757ZM18.8587 15.737C19.2659 16.1545 19.9681 16.1262 20.3271 15.7057C20.3825 15.6409 20.4927 15.5877 20.5807 15.5832C20.8759 15.5681 21.1726 15.5769 21.4688 15.5777C21.7132 15.5783 21.7386 15.6125 21.6467 15.8375C21.3533 16.5556 20.7833 16.9534 19.9939 17.0756C18.7851 17.2627 17.7002 16.5783 17.4071 15.4561C17.1689 14.5441 17.5964 13.5733 18.4541 13.0787C19.2649 12.611 20.331 12.6994 21.0499 13.2991C21.4176 13.6058 21.6142 14.0047 21.7232 14.4492C21.7573 14.5887 21.6607 14.6177 21.5593 14.6578C20.7285 14.9865 19.8985 15.3171 19.0684 15.6475C19.0042 15.6731 18.9413 15.7017 18.8587 15.737Z" fill="#CA2939"/>
<path fill-rule="evenodd" clip-rule="evenodd" d="M8.33156 13.3143C8.33156 12.6493 8.33647 11.9843 8.32818 11.3193C8.32606 11.1513 8.38785 11.0962 8.56065 11.1025C8.82795 11.1123 9.09618 11.1119 9.36352 11.1027C9.53847 11.0966 9.59586 11.1583 9.59514 11.3235C9.5896 12.5737 9.59197 13.824 9.59218 15.0742C9.5923 15.6595 9.91733 15.9356 10.5427 15.8716C10.675 15.8581 10.726 15.8947 10.7249 16.0169C10.7225 16.2895 10.7211 16.5622 10.7255 16.8348C10.7275 16.9567 10.662 16.9933 10.5459 17.0056C9.25035 17.144 8.33338 16.3771 8.33169 15.1498C8.33084 14.538 8.33152 13.9262 8.33156 13.3143Z" fill="#CA2939"/>
<path fill-rule="evenodd" clip-rule="evenodd" d="M22.1423 14.2059C22.3395 13.0132 23.4695 12.6939 24.3324 12.7997C24.4509 12.8143 24.4835 12.8694 24.482 12.9722C24.4781 13.2384 24.4774 13.5047 24.4821 13.7708C24.4843 13.894 24.4312 13.9344 24.3035 13.9256C24.1779 13.9171 24.0477 13.912 23.9249 13.9331C23.5694 13.9942 23.3515 14.2571 23.3497 14.621C23.3464 15.3331 23.3427 16.0453 23.3527 16.7573C23.3553 16.943 23.3098 17.022 23.097 17.0083C22.8374 16.9915 22.5752 16.9957 22.315 17.0072C22.1431 17.0149 22.079 16.9665 22.0843 16.7962C22.0963 16.4105 22.088 16.0243 22.088 15.6383C22.1019 15.6383 22.0652 14.6726 22.1423 14.2059Z" fill="#CA2939"/>
<path fill-rule="evenodd" clip-rule="evenodd" d="M10.9987 14.9655C10.9987 14.3537 11.004 13.7419 10.9954 13.1303C10.993 12.9555 11.0553 12.8931 11.2397 12.9005C11.514 12.9115 11.7891 12.9072 12.0637 12.902C12.2081 12.8993 12.26 12.9523 12.2596 13.0904C12.2556 14.3338 12.2557 15.5772 12.2595 16.8207C12.2599 16.9596 12.2096 17.0075 12.0626 17.0026C11.7564 17.0122 11.6224 17.0007 11.26 17.0038C11.0592 17.015 10.9903 16.957 10.9943 16.7607C11.0066 16.1625 10.9987 15.5639 10.9987 14.9655Z" fill="#CA2939"/>
<path fill-rule="evenodd" clip-rule="evenodd" d="M12.2745 11.1523C12.2745 11.5053 12.2787 11.8545 12.2681 12.2033C12.267 12.2378 12.1771 12.2973 12.1269 12.2988C11.8114 12.3076 11.4954 12.3027 11.1796 12.3039C11.0776 12.3042 11.0001 12.2765 11.0514 12.1658C11.275 11.6829 11.6406 11.3347 12.1668 11.1456C12.1898 11.1373 12.2205 11.1483 12.2745 11.1523Z" fill="#CA2939"/>
<path fill-rule="evenodd" clip-rule="evenodd" d="M25.873 19.4898H8.11605C6.9474 19.4898 6 18.5954 6 17.4921V5.66869C6 5.60253 6.05684 5.54883 6.12696 5.54883H23.884C25.0526 5.54883 26 6.44322 26 7.54654V19.3699C26 19.4361 25.9432 19.4898 25.873 19.4898V19.4898Z" stroke="#CA2939" stroke-width="0.590909"/>
</g>
<rect x="0.5" y="1.04883" width="31" height="23" rx="3.5" stroke="#E5E5E5"/>
<defs>
<clipPath id="clip0_8585_72031">
<rect y="0.548828" width="32" height="24" rx="4" fill="white"/>
</clipPath>
</defs>
</svg>
