<svg width="32" height="24" viewBox="0 0 32 24" fill="none" xmlns="http://www.w3.org/2000/svg">
<rect x="0.5" y="0.5" width="31" height="23" rx="3.5" fill="white"/>
<rect x="0.5" y="0.5" width="31" height="23" rx="3.5" stroke="#E5E5E5"/>
<path d="M25.8091 15.6301V15.3901H25.7491L25.6791 15.5501L25.6091 15.3901H25.5491V15.6301H25.5891V15.4501L25.6591 15.6101H25.7091L25.7791 15.4501V15.6301H25.8091ZM25.4091 15.6301V15.4301H25.4891V15.3901H25.2891V15.4301H25.3691V15.6301H25.4091Z" fill="#00A2E5"/>
<path d="M18.6991 16.6604H13.2891V6.94043H18.6991V16.6604Z" fill="#7375CF"/>
<path d="M13.64 11.8001C13.64 9.83012 14.56 8.07012 16 6.94012C14.95 6.11012 13.62 5.62012 12.18 5.62012C8.77 5.62012 6 8.39012 6 11.8001C6 15.2101 8.77 17.9801 12.18 17.9801C13.62 17.9801 14.95 17.4901 16 16.6601C14.56 15.5301 13.64 13.7701 13.64 11.8001Z" fill="#EB001B"/>
<path d="M26 11.8001C26 15.2101 23.23 17.9801 19.82 17.9801C18.38 17.9801 17.05 17.4901 16 16.6601C17.44 15.5301 18.36 13.7701 18.36 11.8001C18.36 9.83012 17.44 8.07012 16 6.94012C17.05 6.11012 18.38 5.62012 19.82 5.62012C23.23 5.62012 26 8.39012 26 11.8001Z" fill="#00A2E5"/>
</svg>
