<svg width="20" height="20" viewBox="0 0 20 20" fill="none" xmlns="http://www.w3.org/2000/svg">
<path d="M13.6 11.1996C14.5494 11.1996 15.4774 10.9181 16.2667 10.3907C17.0561 9.86324 17.6713 9.11358 18.0346 8.23649C18.3979 7.35941 18.493 6.39429 18.3078 5.46318C18.1226 4.53207 17.6654 3.67679 16.9941 3.0055C16.3228 2.33421 15.4675 1.87705 14.5364 1.69184C13.6053 1.50663 12.6402 1.60169 11.7631 1.96499C10.886 2.32829 10.1364 2.94352 9.60895 3.73287C9.08152 4.52223 8.8 5.45026 8.8 6.39961C8.8 7.67265 9.30571 8.89355 10.2059 9.79372C11.1061 10.6939 12.327 11.1996 13.6 11.1996ZM13.6 2.79961C14.312 2.79961 15.008 3.01075 15.6001 3.40632C16.1921 3.80189 16.6535 4.36414 16.926 5.02195C17.1984 5.67977 17.2697 6.4036 17.1308 7.10194C16.9919 7.80027 16.6491 8.44173 16.1456 8.9452C15.6421 9.44866 15.0007 9.79153 14.3023 9.93044C13.604 10.0693 12.8802 9.99805 12.2223 9.72558C11.5645 9.4531 11.0023 8.99168 10.6067 8.39966C10.2111 7.80765 10 7.11162 10 6.39961C10.0026 5.44564 10.3828 4.5315 11.0573 3.85694C11.7319 3.18238 12.646 2.80225 13.6 2.79961Z" fill="#3483FA"/>
<path d="M17.11 11.8496C16.8922 11.8522 16.6762 11.8893 16.47 11.9596L12.15 13.6596C12.1511 13.2715 12.0327 12.8925 11.8108 12.574C11.589 12.2555 11.2744 12.0131 10.91 11.8796L6.6 10.1796C6.25563 10.0481 5.88841 9.98689 5.52 9.99961C4.37085 10.0787 3.24576 10.3667 2.2 10.8496V9.39961H1V18.3996H2.2V16.8996H2.85L7.05 18.7896C7.39351 18.9151 7.75455 18.9859 8.12 18.9996C8.48426 18.9911 8.84508 18.927 9.19 18.8096L17.93 15.4096C18.3178 15.2313 18.6321 14.9244 18.8195 14.5409C19.0069 14.1573 19.0559 13.7208 18.9582 13.3053C18.8605 12.8898 18.6221 12.5208 18.2834 12.261C17.9447 12.0011 17.5267 11.8664 17.1 11.8796L17.11 11.8496ZM17.47 14.2796L8.79 17.6496C8.5788 17.7282 8.35536 17.7689 8.13 17.7696C7.86 17.7696 7.49 17.6696 7.48 17.6696L3.11 15.6696H2.2V12.1696C3.24054 11.6559 4.36521 11.3341 5.52 11.2196C5.73984 11.2187 5.95869 11.249 6.17 11.3096C6.51 11.4296 10.45 12.9996 10.5 13.0096C10.6357 13.0621 10.7512 13.1561 10.8303 13.2783C10.9093 13.4004 10.9477 13.5444 10.94 13.6896C10.9486 13.7842 10.9369 13.8796 10.9058 13.9693C10.8747 14.0591 10.8249 14.1412 10.7596 14.2102C10.6944 14.2793 10.6152 14.3336 10.5273 14.3697C10.4395 14.4058 10.3449 14.4228 10.25 14.4196C10.1644 14.4175 10.0798 14.4006 10 14.3696L6.62 12.9996L6.17 14.1096L9.55 15.4496C9.76947 15.5382 10.0034 15.5856 10.24 15.5896C10.6687 15.6028 11.0877 15.4607 11.42 15.1896L16.87 13.0496C16.943 13.0401 17.017 13.0401 17.09 13.0496C17.2696 13.0495 17.4421 13.1195 17.571 13.2446C17.6998 13.3697 17.7748 13.5401 17.78 13.7196C17.7792 13.8314 17.7503 13.9412 17.6962 14.039C17.6421 14.1368 17.5643 14.2195 17.47 14.2796Z" fill="#3483FA"/>
</svg>
