<?xml version="1.0" encoding="UTF-8"?>
<!DOCTYPE svg PUBLIC "-//W3C//DTD SVG 1.1//EN" "http://www.w3.org/Graphics/SVG/1.1/DTD/svg11.dtd">
<svg xmlns="http://www.w3.org/2000/svg" version="1.1" width="256px" height="256px" style="shape-rendering:geometricPrecision; text-rendering:geometricPrecision; image-rendering:optimizeQuality; fill-rule:evenodd; clip-rule:evenodd" xmlns:xlink="http://www.w3.org/1999/xlink">
<g><path style="opacity:0.973" fill="#3483FA" d="M 111.5,-0.5 C 122.167,-0.5 132.833,-0.5 143.5,-0.5C 193.491,7.98224 228.324,35.6489 248,82.5C 251.314,92.0939 253.814,101.761 255.5,111.5C 255.5,122.167 255.5,132.833 255.5,143.5C 245.266,200.405 212.266,236.738 156.5,252.5C 151.263,252.096 148.597,249.263 148.5,244C 148.408,241.186 149.408,238.853 151.5,237C 193.655,225.511 221.488,199.011 235,157.5C 246.073,107.712 231.573,67.2123 191.5,36C 150.249,9.58351 108.582,8.91685 66.5,34C 43.7351,49.7765 28.2351,70.9431 20,97.5C 14.5135,103.08 9.51352,102.747 5,96.5C 4.1915,91.6365 4.85816,86.9699 7,82.5C 26.6775,35.6467 61.5108,7.98005 111.5,-0.5 Z"/></g>
</svg>
