<svg width="32" height="24" viewBox="0 0 32 24" fill="none" xmlns="http://www.w3.org/2000/svg">
<rect x="0.5" y="0.5" width="31" height="23" rx="3.5" fill="white"/>
<rect x="0.5" y="0.5" width="31" height="23" rx="3.5" stroke="#E5E5E5"/>
<path d="M22.2507 11.8683L18.9379 6.72289C18.8637 6.60746 18.7373 6.53857 18.5999 6.53857H16.3926C16.3238 6.53857 16.2606 6.57604 16.228 6.63622C16.1951 6.69678 16.1977 6.76982 16.2352 6.82773L19.6884 12.1911C19.6956 12.2025 19.6956 12.2168 19.6884 12.2282L16.2352 17.5761C16.1977 17.634 16.1951 17.707 16.228 17.7676C16.2609 17.8281 16.3241 17.8656 16.393 17.8656H18.6011C18.7381 17.8656 18.8645 17.7967 18.9387 17.6817L22.2507 12.5526C22.3847 12.3444 22.3847 12.0761 22.2507 11.8683Z" fill="#FE5000"/>
<path d="M22.9302 12.9155C22.8954 12.8618 22.8368 12.8296 22.7728 12.8296C22.7088 12.8296 22.6498 12.8618 22.615 12.9155L21.7055 14.3234C21.5121 14.6232 21.5121 15.0104 21.7063 15.3097L23.2561 17.7032C23.3216 17.8043 23.4329 17.8648 23.5532 17.8648H25.84C25.8983 17.8648 25.952 17.833 25.98 17.7819C26.008 17.7308 26.0057 17.6684 25.9739 17.6192L22.9302 12.9155Z" fill="#50007F"/>
<path d="M22.6152 11.4877C22.65 11.5414 22.7091 11.5736 22.773 11.5736C22.837 11.5736 22.896 11.5414 22.9305 11.4877L25.9738 6.78361C26.0056 6.7344 26.0079 6.67233 25.9799 6.62086C25.9519 6.56939 25.8981 6.5376 25.8398 6.5376H23.5531C23.4327 6.5376 23.3215 6.59815 23.256 6.69921L21.7061 9.09269C21.5123 9.39206 21.512 9.77924 21.7054 10.079L22.6152 11.4877Z" fill="#50007F"/>
<path d="M15.3044 6.53418H13.3704C13.2667 6.53418 13.1831 6.6182 13.1831 6.72153V13.5992C13.1797 13.7127 13.1214 13.7468 13.0563 13.6363L8.59029 6.70487C8.52178 6.59852 8.40408 6.53418 8.27729 6.53418H6.18962C6.07872 6.53418 6 6.62464 6 6.7238V17.6803C6 17.7897 6.08932 17.8699 6.18962 17.8699H8.12363C8.22733 17.8699 8.31097 17.7859 8.31097 17.6826V10.8049C8.31438 10.6914 8.37266 10.6573 8.43776 10.7678L12.9038 17.6992C12.9723 17.8056 13.0904 17.8699 13.2168 17.8699H15.3044C15.4153 17.8699 15.4941 17.7794 15.4941 17.6803V6.7238C15.4941 6.61442 15.4044 6.53418 15.3044 6.53418Z" fill="#FE5000"/>
</svg>
