<svg width="32" height="25" viewBox="0 0 32 25" fill="none" xmlns="http://www.w3.org/2000/svg">
<g clip-path="url(#clip0_8585_72027)">
<rect y="0.548828" width="32" height="24" rx="4" fill="white"/>
<path d="M9.72605 9.54883C7.89898 9.54883 6.24203 11.0096 6.02382 12.8078C5.80561 14.6061 7.11119 16.0669 8.93457 16.0669C10.7579 16.0669 12.4186 14.6061 12.6368 12.8078C12.855 11.0096 11.5494 9.54883 9.72605 9.54883ZM10.9059 12.8078C10.7986 13.6977 10.0737 14.4207 9.17497 14.4207C8.27623 14.4207 7.63638 13.6977 7.74364 12.8078C7.8509 11.918 8.66827 11.195 9.56332 11.195C10.4584 11.195 11.0094 11.918 10.9022 12.8078H10.9059ZM25.1859 9.85656C25.1748 9.76387 25.0935 9.69343 24.9973 9.69343H22.8337C22.7264 9.69343 22.6265 9.75275 22.5748 9.84915L19.3237 15.8629C19.3053 15.8963 19.3311 15.9408 19.3718 15.9408H20.8882C20.9955 15.9408 21.0953 15.8815 21.1471 15.7851L23.6029 11.195H23.6806L23.958 13.4381C23.9617 13.4678 23.9358 13.4975 23.9062 13.4975H23.0297C22.7967 13.4975 22.6894 13.7867 22.8632 13.9424L23.847 14.7951C24.0468 14.9694 24.1762 15.2104 24.2095 15.4736L24.2465 15.774C24.2576 15.8704 24.339 15.9408 24.4351 15.9408H25.9478C25.9811 15.9408 26.0033 15.9111 25.9996 15.8815L25.1896 9.86027L25.1859 9.85656ZM19.2794 14.239L18.1957 13.6606C18.0588 13.5864 17.8887 13.6198 17.7926 13.7422C17.7334 13.8163 17.6705 13.8905 17.6224 13.935C17.3006 14.2501 16.9234 14.4281 16.4389 14.4281C15.5106 14.4281 14.9854 13.7236 14.9854 12.9969C14.9854 12.2702 15.8175 11.1987 16.8161 11.1987C17.8147 11.1987 17.6964 11.4101 17.9553 11.7289C18.0477 11.8439 18.2142 11.8772 18.3473 11.8105C18.6765 11.6474 19.5605 11.2061 19.5937 11.1913C19.6196 11.1765 19.6307 11.1431 19.6196 11.1172C19.6048 11.0875 19.5863 11.0541 19.5863 11.0504C19.1092 10.168 18.1513 9.55254 16.9789 9.55254C14.9521 9.55254 13.2508 11.284 13.2508 13.2083C13.2508 15.1325 14.4972 16.0706 16.1874 16.0706C17.8776 16.0706 18.5692 15.3884 19.2535 14.3836C19.2646 14.3688 19.2831 14.3391 19.2979 14.3131C19.3163 14.2872 19.3053 14.2501 19.2794 14.2353V14.239Z" fill="#0F6EE2"/>
</g>
<rect x="0.5" y="1.04883" width="31" height="23" rx="3.5" stroke="#E5E5E5"/>
<defs>
<clipPath id="clip0_8585_72027">
<rect y="0.548828" width="32" height="24" rx="4" fill="white"/>
</clipPath>
</defs>
</svg>
