<svg width="32" height="24" viewBox="0 0 32 24" fill="none" xmlns="http://www.w3.org/2000/svg">
<rect x="0.5" y="0.5" width="31" height="23" rx="3.5" fill="white"/>
<rect x="0.5" y="0.5" width="31" height="23" rx="3.5" stroke="#E5E5E5"/>
<path d="M6 8.21934C6 7.55995 6.53675 7.0249 7.19952 7.0249H24.7977C25.4599 7.0249 25.9972 7.55995 25.9972 8.21934V15.7749C25.9972 16.4342 25.4599 16.9687 24.7977 16.9687H7.19952C6.53675 16.9687 6 16.4342 6 15.7749V8.21934Z" fill="white"/>
<path fill-rule="evenodd" clip-rule="evenodd" d="M7.11701 7C6.50785 7 6.01367 7.49196 6.01367 8.09845V8.13335H25.9998V8.09845C25.9998 7.49196 25.5062 7 24.8971 7H7.11701ZM26 15.9012V15.874H6.01383V15.9012C6.01383 16.5077 6.50802 16.9997 7.11718 16.9997H24.8972C25.5064 16.9997 26 16.5077 26 15.9012Z" fill="#FBB110"/>
<path d="M19.8458 11.9878C19.8458 13.5231 21.0956 14.7677 22.6379 14.7677C24.1795 14.7677 25.4299 13.5231 25.4299 11.9878C25.4299 10.4519 24.1795 9.20731 22.6379 9.20731C21.0956 9.20731 19.8458 10.4519 19.8458 11.9878ZM6.53383 11.9878C6.53383 13.5231 7.78421 14.7677 9.32646 14.7677C10.8682 14.7677 12.1185 13.5231 12.1185 11.9878C12.1185 10.4519 10.8682 9.20731 9.32646 9.20731C7.78421 9.20731 6.53383 10.4519 6.53383 11.9878ZM25.9998 15.3475H12.233C12.4812 15.1741 12.7122 14.9368 12.9643 14.6166L14.3667 12.8348L14.9791 13.6055L15.6607 12.7028L15.0648 11.9474L16.4921 10.1334C16.9454 9.55801 16.0786 8.8817 15.6253 9.45711L14.3639 11.0606L13.0815 9.43584C12.6276 8.86207 11.7625 9.54001 12.2164 10.1143L13.6657 11.948L12.0975 13.9403C11.5403 14.6483 10.9842 15.2973 9.88034 15.3475H6.01367V8.65918H19.7081C19.4727 8.83044 19.2504 9.06005 19.0094 9.36657L17.6076 11.1479L16.9946 10.3778L16.3135 11.2804L16.9094 12.0352L15.4816 13.8493C15.0289 14.4247 15.8956 15.101 16.3484 14.5256L17.6104 12.9226L18.8928 14.5468C19.3466 15.1211 20.2117 14.4432 19.7579 13.8689L18.3085 12.0347L19.8767 10.0429C20.3886 9.39166 20.8999 8.79062 21.8363 8.65918H25.9998V15.3475ZM20.9663 11.9878C20.9663 11.0682 21.7147 10.3232 22.6379 10.3232C23.561 10.3232 24.3089 11.0682 24.3089 11.9878C24.3089 12.9068 23.561 13.6518 22.6379 13.6518C21.7147 13.6518 20.9663 12.9068 20.9663 11.9878ZM7.65486 11.9878C7.65486 11.0682 8.40332 10.3232 9.32646 10.3232C10.249 10.3232 10.9975 11.0682 10.9975 11.9878C10.9975 12.9068 10.249 13.6518 9.32646 13.6518C8.40332 13.6518 7.65486 12.9068 7.65486 11.9878Z" fill="#E70020"/>
</svg>
