<svg width="32" height="32" viewBox="0 0 32 32" fill="none" xmlns="http://www.w3.org/2000/svg">
<g clip-path="url(#clip0_14011_2202)">
<rect width="32" height="32" rx="16" fill="white" style="mix-blend-mode:luminosity"/>
<rect width="110" height="110" transform="translate(-39 -39)" fill="#FFE600"/>
<path d="M16.003 8.38809C9.49949 8.38809 4.22793 11.7604 4.22793 15.9208C4.22793 20.0812 9.49949 23.7801 16.003 23.7801C22.5064 23.7801 27.7778 20.0809 27.7778 15.9208C27.7778 11.7607 22.5061 8.38809 16.003 8.38809Z" fill="#00BCFF"/>
<path d="M12.1714 13.5924C12.1655 13.6038 12.0505 13.7229 12.1251 13.8186C12.307 14.0512 12.8695 14.1845 13.4383 14.0569C13.777 13.9809 14.211 13.6355 14.6315 13.302C15.0329 12.9374 15.4934 12.6438 15.9933 12.4337C16.3127 12.3167 16.6616 12.3076 16.9866 12.4077C17.3166 12.5303 17.623 12.709 17.8921 12.936C18.6814 13.5296 21.8557 16.3003 22.4044 16.7791C24.0898 16.0782 25.8347 15.5301 27.6182 15.1413C27.3862 13.7191 26.5308 12.3633 25.2185 11.2979C23.3893 12.0662 21.0049 12.5262 18.8192 11.4589C18.0765 11.1227 17.2736 10.9402 16.4586 10.9221C14.7245 10.9625 13.9733 11.7128 13.1783 12.5072L12.1714 13.5924Z" fill="white"/>
<path d="M22.2757 17.0806C22.2382 17.0472 18.5433 13.814 17.7061 13.1848C17.4144 12.9253 17.0547 12.7546 16.6693 12.6925C16.5033 12.6793 16.3364 12.6954 16.176 12.74C15.6816 12.9262 15.2243 13.1987 14.8253 13.5449C14.3574 13.9178 13.916 14.2687 13.5062 14.3605C13.011 14.4623 12.4958 14.3849 12.0524 14.1421C11.9486 14.0786 11.8649 13.9869 11.8111 13.8777C11.7815 13.7941 11.7774 13.7035 11.7994 13.6175C11.8214 13.5316 11.8685 13.4541 11.9347 13.3949L12.9545 12.292C13.0732 12.1738 13.1923 12.0553 13.3149 11.9389C13.0004 11.9861 12.6897 12.0561 12.3853 12.1482C12.0347 12.2646 11.6699 12.3327 11.3009 12.3504C10.9291 12.3128 10.5596 12.255 10.194 12.1774C9.10399 11.9216 8.03996 11.5656 7.01553 11.1137C5.56578 12.193 4.62175 13.518 4.3416 15.0042C4.5499 15.0592 5.09572 15.1837 5.23679 15.215C8.51762 15.9444 9.5393 16.6958 9.72468 16.8527C9.8337 16.73 9.96913 16.6336 10.1208 16.5708C10.2724 16.508 10.4363 16.4804 10.6002 16.49C10.7641 16.4997 10.9236 16.5463 11.0668 16.6265C11.2101 16.7067 11.3332 16.8184 11.4271 16.953C11.6484 16.7741 11.9245 16.677 12.209 16.6779C12.3689 16.6794 12.5274 16.7072 12.6782 16.7601C12.8244 16.8068 12.959 16.8842 13.0729 16.9871C13.1867 17.0901 13.2773 17.2161 13.3386 17.3568C13.482 17.2919 13.6377 17.2587 13.7951 17.2597C13.9833 17.2621 14.1691 17.3031 14.3408 17.3801C14.5797 17.4921 14.7735 17.6818 14.8905 17.9182C15.0074 18.1546 15.0407 18.4238 14.9848 18.6816C15.0282 18.6769 15.0718 18.6746 15.1155 18.6747C15.4603 18.6752 15.7909 18.8125 16.0346 19.0564C16.2784 19.3003 16.4155 19.6309 16.4159 19.9757C16.4159 20.1902 16.3624 20.4012 16.2603 20.5898C16.5998 20.7973 16.9921 20.9024 17.3899 20.8923C17.4891 20.8924 17.5873 20.8719 17.6782 20.8323C17.7691 20.7926 17.8509 20.7346 17.9183 20.6619C17.9511 20.6158 17.9852 20.5619 17.9534 20.523L17.0277 19.4949C17.0277 19.4949 16.8754 19.3507 16.9257 19.2952C16.9777 19.238 17.0719 19.32 17.1388 19.3758C17.6097 19.7691 18.1847 20.3629 18.1847 20.3629C18.1948 20.3694 18.2326 20.4446 18.4453 20.4828C18.5725 20.5049 18.7028 20.5012 18.8285 20.4719C18.9542 20.4426 19.0727 20.3882 19.1769 20.3121C19.236 20.2627 19.2899 20.2075 19.338 20.1474C19.3348 20.1506 19.3311 20.1534 19.3272 20.1558C19.3921 20.0661 19.4248 19.9571 19.42 19.8465C19.4152 19.7359 19.3731 19.6301 19.3007 19.5464L18.22 18.3328C18.22 18.3328 18.0654 18.1897 18.1184 18.1327C18.1653 18.0827 18.2646 18.158 18.3325 18.2142C18.6745 18.5004 19.1579 18.9852 19.6212 19.4395C19.7757 19.544 19.9593 19.5968 20.1457 19.5903C20.332 19.5838 20.5116 19.5184 20.6584 19.4035C20.7787 19.3371 20.8782 19.2387 20.9459 19.1191C21.0136 18.9996 21.0469 18.8636 21.042 18.7263C21.0186 18.5546 20.9382 18.3957 20.8137 18.2752L19.338 16.7909C19.338 16.7909 19.1817 16.6577 19.2371 16.5905C19.2823 16.5338 19.3829 16.6153 19.4497 16.6708C19.9197 17.0643 21.1926 18.2316 21.1926 18.2316C21.3425 18.3284 21.518 18.3783 21.6964 18.3747C21.8749 18.3712 22.0482 18.3144 22.1943 18.2117C22.288 18.1569 22.367 18.0799 22.4243 17.9876C22.4816 17.8953 22.5155 17.7905 22.5231 17.6821C22.5274 17.5699 22.5076 17.4582 22.4649 17.3544C22.4222 17.2506 22.3577 17.1573 22.2757 17.0806Z" fill="white"/>
<path d="M15.1153 18.9618C14.942 18.9862 14.7708 19.0241 14.6034 19.0753C14.5851 19.0635 14.6174 18.9714 14.6387 18.9184C14.6609 18.866 14.9623 17.9588 14.2274 17.644C14.063 17.5557 13.8744 17.5229 13.6899 17.5504C13.5053 17.578 13.3345 17.6643 13.2029 17.7967C13.1722 17.8288 13.1582 17.8261 13.1548 17.7856C13.1504 17.6162 13.0931 17.4525 12.991 17.3173C12.8888 17.1822 12.7469 17.0824 12.5851 17.032C12.356 16.9615 12.1102 16.9669 11.8845 17.0474C11.6587 17.1279 11.4649 17.2791 11.3321 17.4787C11.3084 17.2998 11.2252 17.1341 11.0957 17.0085C10.9663 16.8828 10.7983 16.8044 10.6188 16.786C10.4393 16.7676 10.2589 16.8102 10.1066 16.907C9.95436 17.0038 9.83919 17.1491 9.77971 17.3194C9.72023 17.4898 9.71991 17.6752 9.77881 17.8457C9.83771 18.0162 9.95238 18.1619 10.1043 18.2593C10.2562 18.3566 10.4365 18.3998 10.6161 18.382C10.7956 18.3642 10.9639 18.2864 11.0938 18.1612C11.0984 18.1654 11.1002 18.1729 11.0979 18.1882C11.0435 18.4367 11.0805 18.6965 11.2019 18.92C11.3234 19.1435 11.5213 19.3159 11.7594 19.4055C11.888 19.455 12.0274 19.4701 12.1636 19.4491C12.2999 19.428 12.4282 19.3717 12.5359 19.2856C12.5997 19.2407 12.61 19.2596 12.601 19.3197C12.5737 19.5057 12.6085 19.9041 13.167 20.1303C13.3054 20.1981 13.462 20.2196 13.6135 20.1914C13.765 20.1632 13.9035 20.087 14.0082 19.974C14.0802 19.9088 14.0997 19.9195 14.1035 20.0206C14.1125 20.2188 14.1794 20.4099 14.2961 20.5703C14.4127 20.7307 14.5739 20.8534 14.7597 20.923C14.9454 20.9927 15.1475 21.0062 15.3408 20.9621C15.5342 20.9179 15.7103 20.8179 15.8474 20.6745C15.9845 20.5311 16.0764 20.3506 16.1118 20.1555C16.1472 19.9603 16.1245 19.759 16.0466 19.5766C15.9686 19.3943 15.8388 19.2388 15.6733 19.1295C15.5078 19.0202 15.3137 18.9619 15.1153 18.9618Z" fill="white"/>
<path d="M16.0009 8.07617C9.37351 8.07617 4.00135 11.6011 4.00135 15.9246C4.00135 16.0365 4 16.3449 4 16.3841C4 20.9714 8.69557 24.6861 15.9993 24.6861C23.3472 24.6861 28 20.9722 28 16.385V15.9246C27.9999 11.6011 22.6276 8.07617 16.0009 8.07617ZM27.459 15.0548C25.7299 15.4374 24.0419 15.9862 22.4184 16.6934C21.2799 15.7001 18.6495 13.4127 17.9372 12.8783C17.661 12.646 17.3467 12.4631 17.0083 12.3377C16.8608 12.2912 16.7072 12.2672 16.5525 12.2665C16.3557 12.2691 16.1604 12.302 15.9735 12.3641C15.4732 12.5718 15.0122 12.8637 14.6105 13.2271L14.5876 13.2451C14.1743 13.5738 13.747 13.9138 13.4237 13.9857C13.2823 14.0176 13.1378 14.0338 12.9928 14.034C12.8473 14.0461 12.7009 14.0293 12.562 13.9846C12.423 13.9399 12.2943 13.8681 12.1832 13.7735C12.1631 13.7477 12.1764 13.7061 12.2232 13.6464L12.2292 13.6383L13.2309 12.5592C14.0153 11.7748 14.7562 11.0342 16.4613 10.9951C16.4897 10.9943 16.5184 10.9937 16.5464 10.9937C17.3208 11.0253 18.0819 11.2056 18.7883 11.5247C19.7373 11.9991 20.7824 12.2498 21.8434 12.2574C23.004 12.2374 24.1462 11.9642 25.1903 11.4571C26.4068 12.4801 27.2137 13.7124 27.459 15.0548ZM16.0029 8.53964C19.5205 8.53964 22.6682 9.54787 24.7844 11.1358C23.8611 11.5576 22.8607 11.7844 21.8458 11.802C20.8529 11.7939 19.875 11.5585 18.9871 11.1139C18.2195 10.7635 17.3904 10.5677 16.5471 10.5374C16.5151 10.5374 16.4827 10.5379 16.4509 10.5386C15.4352 10.5238 14.4479 10.8743 13.6689 11.5263C13.1973 11.551 12.7307 11.6362 12.2808 11.7797C11.9645 11.8852 11.6356 11.9482 11.3027 11.9671C11.1773 11.9671 10.9516 11.9556 10.9314 11.9547C9.73463 11.744 8.5608 11.4192 7.42599 10.9846C9.53794 9.48381 12.5976 8.53964 16.0029 8.53964ZM7.01078 11.2979C8.47433 11.8965 10.2499 12.3588 10.8114 12.3952C10.968 12.4055 11.1349 12.4232 11.3019 12.4235C11.6774 12.4053 12.0487 12.3363 12.4058 12.2184C12.6183 12.1588 12.8527 12.0938 13.0994 12.0468C13.0334 12.1112 12.9678 12.1767 12.9017 12.2429L11.8845 13.3434C11.8071 13.412 11.7524 13.5024 11.7275 13.6027C11.7026 13.7031 11.7088 13.8086 11.7452 13.9054C11.8042 14.0278 11.897 14.1308 12.0126 14.2022C12.3417 14.3882 12.7145 14.4828 13.0925 14.4761C13.2373 14.4771 13.3817 14.462 13.5232 14.4311C13.9499 14.3355 14.3973 13.979 14.871 13.6022C15.2635 13.2634 15.7118 12.9951 16.1959 12.8095C16.3165 12.7775 16.4405 12.7605 16.5652 12.7589C16.5972 12.7586 16.6291 12.7605 16.6608 12.7646C17.0333 12.8258 17.3809 12.9916 17.6628 13.2427C18.4981 13.8703 22.1934 17.1032 22.2298 17.1351C22.3032 17.2046 22.3609 17.2891 22.3992 17.3827C22.4374 17.4763 22.4553 17.577 22.4516 17.6781C22.4449 17.775 22.4145 17.8688 22.363 17.9511C22.3114 18.0335 22.2404 18.1019 22.1562 18.1503C22.0125 18.2463 21.8442 18.2988 21.6714 18.3014C21.5197 18.3015 21.3711 18.2585 21.243 18.1773C21.2295 18.1662 19.9634 17.0051 19.4971 16.6149C19.4388 16.5532 19.362 16.5122 19.2784 16.498C19.2598 16.4977 19.2414 16.5016 19.2246 16.5095C19.2078 16.5174 19.193 16.5291 19.1815 16.5437C19.1082 16.634 19.1903 16.7592 19.2872 16.8413L20.7661 18.3286C20.8764 18.4361 20.9483 18.5769 20.9707 18.7292C20.9745 18.8539 20.9437 18.9772 20.8818 19.0854C20.8198 19.1936 20.729 19.2825 20.6196 19.3423C20.4658 19.4507 20.2833 19.511 20.0952 19.5157C19.945 19.5157 19.7981 19.4711 19.6733 19.3876L19.4612 19.1786C19.0733 18.7971 18.6729 18.4025 18.3798 18.158C18.3206 18.0971 18.2433 18.0569 18.1594 18.0436C18.1419 18.0433 18.1246 18.0467 18.1085 18.0535C18.0925 18.0604 18.078 18.0706 18.0662 18.0834C18.0328 18.1205 18.0094 18.1872 18.0932 18.298C18.1157 18.3277 18.1407 18.3556 18.1678 18.3812L19.2468 19.5935C19.3092 19.6641 19.3455 19.7538 19.35 19.8478C19.3545 19.9419 19.3267 20.0347 19.2714 20.1108L19.2331 20.1591C19.2015 20.1933 19.1679 20.2257 19.1325 20.256C18.9798 20.3681 18.7945 20.4268 18.6051 20.4231C18.5562 20.4233 18.5074 20.4192 18.4593 20.4108C18.3806 20.4046 18.306 20.3731 18.2466 20.3211L18.233 20.3075C18.1744 20.2465 17.6304 19.6911 17.1804 19.3154C17.1246 19.256 17.0508 19.2166 16.9704 19.2031C16.952 19.203 16.9337 19.2068 16.9169 19.2142C16.9 19.2217 16.885 19.2327 16.8728 19.2465C16.784 19.3441 16.9177 19.4898 16.9744 19.5433L17.8944 20.5587C17.8866 20.5811 17.8749 20.6021 17.86 20.6206C17.827 20.6662 17.7155 20.7779 17.3816 20.8198C17.341 20.825 17.3002 20.8275 17.2594 20.8272C16.9426 20.8069 16.6345 20.7155 16.358 20.5598C16.4565 20.3506 16.5007 20.1199 16.4863 19.8891C16.4719 19.6583 16.3994 19.4348 16.2756 19.2395C16.1517 19.0442 15.9806 18.8833 15.778 18.7718C15.5754 18.6602 15.3479 18.6017 15.1166 18.6016C15.1004 18.6016 15.0832 18.6021 15.067 18.6026C15.1064 18.3413 15.0598 18.0741 14.9342 17.8416C14.8085 17.609 14.6107 17.4236 14.3705 17.3132C14.1898 17.2322 13.9944 17.1891 13.7964 17.1867C13.6526 17.186 13.5098 17.2119 13.3754 17.263C13.2355 16.9914 12.9938 16.7862 12.7031 16.6922C12.5448 16.6361 12.3782 16.6067 12.2103 16.6054C11.9348 16.6039 11.666 16.69 11.4427 16.8514C11.3412 16.7239 11.2139 16.6192 11.0691 16.5443C10.9244 16.4695 10.7654 16.426 10.6027 16.4168C10.44 16.4077 10.2772 16.433 10.1249 16.4911C9.97267 16.5493 9.83443 16.639 9.71925 16.7543C9.43263 16.5352 8.29599 15.8132 5.25349 15.1224C5.10816 15.0895 4.77828 14.9951 4.57051 14.9341C4.85593 13.5684 5.72369 12.3212 7.01078 11.2979ZM12.6543 19.2178L12.6214 19.1883H12.5881C12.554 19.1909 12.5214 19.204 12.4951 19.226C12.3644 19.3266 12.2052 19.3832 12.0403 19.3878C11.9534 19.3871 11.8674 19.3704 11.7866 19.3385C11.5633 19.2552 11.3779 19.0936 11.2647 18.8839C11.1516 18.6741 11.1184 18.4304 11.1714 18.198C11.175 18.1811 11.1741 18.1636 11.1687 18.1472C11.1632 18.1308 11.1535 18.1161 11.1405 18.1047L11.0908 18.064L11.0442 18.1084C10.9086 18.24 10.7271 18.3136 10.5381 18.3135C10.3971 18.3141 10.259 18.274 10.1403 18.198C10.0216 18.1219 9.92734 18.0133 9.86888 17.885C9.81042 17.7567 9.79023 17.6143 9.81074 17.4748C9.83125 17.3354 9.89159 17.2048 9.9845 17.0988C10.0774 16.9928 10.199 16.9159 10.3345 16.8772C10.4701 16.8386 10.6139 16.84 10.7488 16.8811C10.8836 16.9222 11.0037 17.0014 11.0946 17.1092C11.1855 17.2169 11.2434 17.3486 11.2613 17.4884L11.2865 17.685L11.3946 17.5186C11.5163 17.3297 11.6971 17.1864 11.9088 17.111C12.1205 17.0357 12.3512 17.0326 12.5649 17.1021C12.7125 17.1485 12.8419 17.2399 12.9348 17.3635C13.0278 17.4872 13.0797 17.6369 13.0832 17.7915C13.0911 17.8869 13.159 17.8916 13.1721 17.8916C13.1885 17.8904 13.2045 17.8859 13.2191 17.8783C13.2337 17.8706 13.2466 17.8601 13.2569 17.8472C13.3265 17.7746 13.4102 17.7169 13.5029 17.6778C13.5956 17.6387 13.6953 17.6189 13.7959 17.6196C13.9353 17.6227 14.0726 17.6537 14.1998 17.7109C14.8892 18.0066 14.5766 18.8827 14.5729 18.8917C14.5135 19.0369 14.5111 19.101 14.5668 19.138L14.594 19.1508H14.6142C14.6602 19.1456 14.7052 19.1339 14.7478 19.1159C14.8653 19.0694 14.9894 19.042 15.1155 19.0346C15.239 19.0347 15.3616 19.059 15.4757 19.1063C15.5898 19.1536 15.6934 19.2229 15.7807 19.3103C15.868 19.3976 15.9373 19.5013 15.9845 19.6154C16.0317 19.7295 16.056 19.8518 16.056 19.9753C16.056 20.0988 16.0316 20.2211 15.9843 20.3352C15.937 20.4493 15.8677 20.5529 15.7804 20.6403C15.693 20.7276 15.5893 20.7968 15.4752 20.844C15.3611 20.8913 15.2388 20.9156 15.1153 20.9155C14.8731 20.917 14.6397 20.8242 14.4646 20.6568C14.2895 20.4893 14.1864 20.2604 14.177 20.0183C14.1757 19.9753 14.1712 19.8608 14.0741 19.8608C14.0299 19.8659 13.9893 19.8874 13.9601 19.9209C13.8401 20.0487 13.6743 20.1235 13.4991 20.1291C13.3945 20.1269 13.2913 20.1045 13.1952 20.0632C12.6596 19.8457 12.6523 19.478 12.6739 19.3302C12.6792 19.3111 12.6802 19.2912 12.6768 19.2718C12.6734 19.2523 12.6657 19.2339 12.6543 19.2178ZM16.0028 23.3019C9.63054 23.3019 4.46491 19.9971 4.46491 15.9208C4.4659 15.7578 4.47518 15.595 4.49271 15.433C4.54359 15.4452 5.04966 15.5662 5.15447 15.5897C8.26244 16.2802 9.28945 16.9979 9.46299 17.1337C9.3892 17.3106 9.36024 17.5031 9.37868 17.6939C9.39713 17.8847 9.46242 18.0681 9.56874 18.2276C9.67507 18.3872 9.81914 18.518 9.98818 18.6085C10.1572 18.6989 10.346 18.7463 10.5377 18.7463C10.6093 18.7464 10.6808 18.7398 10.7513 18.7265C10.7972 18.9573 10.9023 19.1722 11.0563 19.3502C11.2103 19.5281 11.4079 19.6629 11.6298 19.7414C11.762 19.7933 11.9026 19.8204 12.0447 19.8214C12.1341 19.8219 12.2232 19.8109 12.3098 19.7887C12.4165 20.0133 12.5832 20.2041 12.7914 20.3401C12.9997 20.476 13.2414 20.5518 13.49 20.5591C13.6113 20.5591 13.7317 20.5376 13.8455 20.4956C13.9317 20.7065 14.0691 20.8926 14.2453 21.0371C14.4215 21.1815 14.6309 21.2798 14.8546 21.3229C15.0783 21.3661 15.3092 21.3528 15.5265 21.2843C15.7438 21.2158 15.9406 21.0942 16.099 20.9305C16.4535 21.137 16.8521 21.2561 17.2618 21.2777C17.3206 21.2775 17.3794 21.2738 17.4377 21.2666C17.589 21.262 17.7375 21.2252 17.8734 21.1587C18.0094 21.0922 18.1296 20.9975 18.226 20.8809C18.2442 20.8558 18.2605 20.8294 18.2747 20.8019C18.3955 20.8387 18.5208 20.8583 18.647 20.8601C18.92 20.8546 19.1837 20.7603 19.3982 20.5915C19.6247 20.4428 19.7839 20.2112 19.8415 19.9465C19.842 19.9436 19.8424 19.9406 19.8426 19.9377C19.9253 19.9545 20.0096 19.963 20.0941 19.963C20.3699 19.9596 20.6385 19.8744 20.8659 19.7182C21.0388 19.618 21.1815 19.4729 21.279 19.2983C21.3764 19.1238 21.425 18.9262 21.4196 18.7263C21.5034 18.7438 21.5888 18.7526 21.6745 18.7528C21.9319 18.75 22.1829 18.6727 22.3973 18.5303C22.5397 18.4432 22.6596 18.3237 22.747 18.1815C22.8345 18.0393 22.8871 17.8785 22.9005 17.7121C22.9175 17.4805 22.8617 17.2494 22.7408 17.0512C24.2911 16.4184 25.8918 15.9171 27.5261 15.5526C27.5355 15.6747 27.5407 15.7974 27.5407 15.921C27.5407 19.9971 22.375 23.3019 16.0028 23.3019Z" fill="#0A0080"/>
</g>
<rect x="0.5" y="0.5" width="31" height="31" rx="15.5" stroke="black" stroke-opacity="0.07"/>
<defs>
<clipPath id="clip0_14011_2202">
<rect width="32" height="32" rx="16" fill="white"/>
</clipPath>
</defs>
</svg>