<svg width="32" height="24" viewBox="0 0 32 24" fill="none" xmlns="http://www.w3.org/2000/svg">
<rect x="0.5" y="0.5" width="31" height="23" rx="3.5" fill="white"/>
<rect x="0.5" y="0.5" width="31" height="23" rx="3.5" stroke="#E5E5E5"/>
<path fill-rule="evenodd" clip-rule="evenodd" d="M11.8417 7.75111C12.4694 7.75111 13.0598 7.99552 13.5037 8.43919L15.9123 10.8481C16.0858 11.0216 16.369 11.0223 16.5429 10.8479L18.9427 8.44797C19.3866 8.0043 19.977 7.75989 20.6047 7.75989H20.8938L17.8458 4.71193C16.8964 3.76269 15.3574 3.76269 14.4082 4.71193L11.3689 7.75112L11.8417 7.75111ZM20.6049 16.2401C19.9771 16.2401 19.3867 15.9957 18.9428 15.552L16.543 13.1522C16.3745 12.9833 16.0809 12.9838 15.9124 13.1522L13.5039 15.5608C13.06 16.0044 12.4696 16.2489 11.8419 16.2489H11.3689L14.4084 19.2881C15.3575 20.2373 16.8966 20.2373 17.8458 19.2881L20.8939 16.2401H20.6049ZM21.446 8.43855L23.288 10.2804C24.2372 11.2297 24.2372 12.7686 23.288 13.7178L21.446 15.5597C21.4055 15.5434 21.3615 15.5333 21.3152 15.5333H20.4777C20.0447 15.5333 19.6209 15.3577 19.3149 15.0515L16.9152 12.652C16.4803 12.2167 15.7214 12.2169 15.286 12.6518L12.8775 15.0603C12.5715 15.3665 12.1477 15.542 11.7147 15.542H10.6849C10.641 15.542 10.6 15.5524 10.5612 15.567L8.71195 13.7178C7.76268 12.7686 7.76268 11.2297 8.71195 10.2804L10.5612 8.43121C10.6 8.44581 10.641 8.45616 10.6849 8.45616H11.7147C12.1477 8.45616 12.5715 8.6317 12.8775 8.93793L15.2863 11.3466C15.5108 11.571 15.8056 11.6833 16.1007 11.6833C16.3956 11.6833 16.6906 11.571 16.9152 11.3464L19.3149 8.9467C19.6209 8.64054 20.0447 8.46493 20.4777 8.46493H21.3152C21.3615 8.46493 21.4055 8.45479 21.446 8.43855Z" fill="#4AB7A8"/>
</svg>
