<svg width="16" height="16" viewBox="0 0 16 16" fill="none" xmlns="http://www.w3.org/2000/svg">
<path d="M5.58322 7.10988L7.15737 8.62302L10.348 5.04078L11.2441 5.83891L7.22442 10.352L4.75162 7.97501L5.58322 7.10988Z" fill="black" fill-opacity="0.9"/>
<path fill-rule="evenodd" clip-rule="evenodd" d="M1.39899 3.88926C1.39899 9.52205 3.56377 13.1315 7.87225 14.5677L8.06198 14.6309L8.25172 14.5677C12.5602 13.1315 14.725 9.52205 14.725 3.88926V3.28926H14.125C12.2549 3.28926 10.3647 2.50603 8.44484 0.914948L8.06198 0.597656L7.67913 0.914948C5.75926 2.50603 3.86909 3.28926 1.99899 3.28926H1.39899V3.88926ZM8.06198 2.14653C9.86137 3.547 11.6816 4.32512 13.5169 4.46594C13.3825 9.19073 11.5701 12.1145 8.06198 13.3639C4.55389 12.1145 2.74152 9.19073 2.60707 4.46594C4.44234 4.32512 6.2626 3.547 8.06198 2.14653Z" fill="black" fill-opacity="0.9"/>
</svg>
