<svg width="32" height="25" viewBox="0 0 32 25" fill="none" xmlns="http://www.w3.org/2000/svg">
<g clip-path="url(#clip0_8585_72038)">
<rect y="0.548828" width="32" height="24" rx="4" fill="white"/>
<g clip-path="url(#clip1_8585_72038)">
<path d="M16 22.5932C21.5228 22.5932 26 18.1061 26 12.571C26 7.03592 21.5228 2.54883 16 2.54883C10.4772 2.54883 6 7.03592 6 12.571C6 18.1061 10.4772 22.5932 16 22.5932Z" fill="url(#paint0_radial_8585_72038)"/>
<path fill-rule="evenodd" clip-rule="evenodd" d="M22.2602 10.0752C22.253 10.0731 22.2455 10.0781 22.238 10.0832C22.2316 10.0875 22.2252 10.0919 22.2187 10.0919H20.4681C19.6756 10.0919 19.3177 11.0095 19.3029 11.0495C19.3017 11.0527 19.2998 11.0536 19.2998 11.0536C19.2998 11.0536 19.2979 11.0545 19.2971 11.058C19.2789 11.1401 18.8522 13.0699 18.8666 13.7071C18.8803 14.3065 19.4907 14.5244 19.8116 14.5587C19.8144 14.559 19.8172 14.5577 19.82 14.5564C19.8225 14.5553 19.8251 14.5541 19.8276 14.5541H22.2614C22.3441 14.5541 22.4112 14.4774 22.4112 14.3948C22.4112 14.3121 22.3442 14.2354 22.2614 14.2354H19.8368C19.7606 14.2354 19.1768 14.1464 19.1663 13.6824C19.1606 13.4334 19.2315 12.9568 19.3169 12.4753L22.704 12.45C22.7763 12.4495 22.8379 12.3988 22.8503 12.3275C22.8569 12.2903 23.009 11.4241 23.009 10.9047C23.0089 10.2923 22.3038 10.0878 22.2612 10.0755L22.2602 10.0752ZM22.5755 12.1544L19.3719 12.1812C19.4567 11.7311 19.5428 11.351 19.5757 11.2056L19.5872 11.1546C19.6214 11.0691 19.9153 10.4105 20.4681 10.4105H22.195C22.2885 10.4105 22.7094 10.5758 22.7094 10.9261C22.7094 11.3091 22.6174 11.8935 22.5755 12.1544ZM18.6929 10.0918H16.35L16.3408 10.0916C16.3333 10.0913 16.3259 10.0909 16.3186 10.0925C15.9458 10.1733 15.2433 10.5544 15.2469 11.3867C15.2275 11.7069 15.3678 12.2166 16.0374 12.4291H17.7075C17.7815 12.4291 18.2376 12.5335 18.2073 13.329C18.1833 13.9576 17.7581 14.1575 17.528 14.2658C17.4645 14.2956 17.4158 14.3185 17.3946 14.3415H14.8067C14.7251 14.3415 14.6589 14.4193 14.6589 14.5008C14.6589 14.5824 14.7251 14.6602 14.8067 14.6602H17.4088C17.4131 14.6602 17.4173 14.65 17.4216 14.6399C17.4257 14.6302 17.4297 14.6206 17.4338 14.6198C17.789 14.5591 18.4695 14.1947 18.5028 13.3229C18.5457 12.1956 17.7301 12.1244 17.7218 12.1239L16.0733 12.1191C15.5101 12.0161 15.5405 11.4181 15.5422 11.3921C15.5424 11.3898 15.5425 11.3942 15.5425 11.3942C15.5364 10.6391 16.254 10.4105 16.3674 10.4105H18.693C18.7746 10.4105 18.8408 10.3328 18.8408 10.2512C18.8407 10.1696 18.7745 10.0918 18.6929 10.0918ZM13.9929 10.0919C14.1342 10.0919 14.8892 10.3912 14.8014 10.989C14.801 10.9913 14.8008 10.9952 14.8006 10.9993C14.8003 11.0046 14.8 11.0102 14.7994 11.0132L14.3931 13.5024C14.3922 13.5078 14.3909 13.5131 14.3896 13.5183C14.3807 13.5494 14.1672 14.2823 13.457 14.4953C13.4448 14.499 13.4322 14.5011 13.4194 14.5014L11.9223 14.5442C11.9163 14.5447 11.9104 14.5443 11.9046 14.5437C11.8809 14.5414 11.4079 14.4911 11.0276 14.0114C10.8664 14.8971 10.7054 15.7855 10.6073 16.328C10.5946 16.3985 10.5332 16.4478 10.4641 16.4478C10.4555 16.4478 10.4468 16.447 10.4381 16.4454C10.359 16.431 10.3064 16.3552 10.3207 16.276C10.3207 16.276 10.5527 14.9927 10.7865 13.7094C10.9033 13.0677 11.0205 12.4257 11.1093 11.9445C11.1539 11.7036 11.1912 11.5023 11.2178 11.3617L11.2195 11.3529C11.2406 11.2416 11.2547 11.1669 11.2707 11.118L11.2682 11.1149C11.4329 10.6651 11.9456 10.1788 12.3232 10.1187C12.3285 10.1179 12.3339 10.116 12.3392 10.1142C12.3471 10.1114 12.355 10.1087 12.3627 10.1096C12.4028 10.1109 12.5863 10.1081 12.8308 10.1043C13.1737 10.099 13.637 10.0919 13.9929 10.0919ZM14.1073 13.4457L14.5107 10.9834C14.5527 10.709 14.1322 10.4154 13.9593 10.4167C13.8525 10.4171 13.5114 10.4183 13.17 10.4188C12.964 10.4193 12.7578 10.4194 12.6034 10.4191L12.599 10.4191C12.4956 10.4189 12.4205 10.4188 12.3654 10.4154C12.1189 10.4576 11.6793 10.8498 11.5435 11.2149C11.5178 11.3295 11.3196 12.4095 11.1037 13.5944C11.4001 14.159 11.8576 14.2431 11.9252 14.2526L13.3913 14.2107C13.9007 14.0469 14.0862 13.5116 14.1073 13.4457Z" fill="white"/>
<path fill-rule="evenodd" clip-rule="evenodd" d="M7.51048 8.17152C7.51048 7.97571 7.39159 7.8112 7.22734 7.75146C7.08859 8.00307 6.96036 8.26139 6.84338 8.52577C6.91329 8.58231 6.99935 8.61713 7.09369 8.61713C7.32392 8.61713 7.51048 8.41759 7.51048 8.17152ZM7.93131 10.0238C8.1615 10.0238 8.3481 9.82429 8.3481 9.57818C8.3481 9.33208 8.1615 9.13258 7.93131 9.13258C7.70113 9.13258 7.51453 9.33208 7.51453 9.57818C7.51453 9.82429 7.70113 10.0238 7.93131 10.0238ZM6.55043 9.26776C6.62352 9.34805 6.66888 9.4574 6.66888 9.57825C6.66888 9.79877 6.51866 9.98063 6.3219 10.0163C6.38841 9.76267 6.46479 9.51309 6.55043 9.26776ZM7.98942 15.4527C8.2196 15.4527 8.4062 15.2532 8.4062 15.0071C8.4062 14.761 8.2196 14.5615 7.98942 14.5615C7.75923 14.5615 7.57263 14.761 7.57263 15.0071C7.57263 15.2532 7.75923 15.4527 7.98942 15.4527ZM6.2207 14.6438C6.38803 14.6691 6.51712 14.8213 6.51712 15.0071C6.51712 15.1248 6.46453 15.2284 6.3841 15.2959C6.32238 15.0814 6.26809 14.8639 6.2207 14.6438ZM7.50857 16.4601C7.50857 16.2141 7.32201 16.0145 7.09178 16.0145C6.92742 16.0145 6.78676 16.1171 6.71887 16.2647C6.80514 16.4781 6.89842 16.6879 6.99882 16.8936C7.02878 16.9009 7.0597 16.9056 7.09178 16.9056C7.3219 16.9057 7.50857 16.7062 7.50857 16.4601ZM7.38019 13.6223H8.21599L8.94098 12.3445H6C6.00138 12.2732 6.00372 12.2023 6.00659 12.1315H8.03432L7.28871 10.8538H6.14098C6.15936 10.7468 6.17891 10.6402 6.20058 10.5344H7.12319H7.35766H7.4212L8.33222 12.1315H10.5484V12.3445H9.19649L8.31989 13.9416H8.29992H8.06438H7.38019C7.326 14.1546 7.17078 14.242 6.9855 14.242C6.75527 14.242 6.56871 14.0339 6.56871 13.7878C6.56871 13.5417 6.75527 13.3326 6.9855 13.3326C7.17078 13.3326 7.326 13.5158 7.38019 13.6223Z" fill="#FDB718"/>
<path fill-rule="evenodd" clip-rule="evenodd" d="M13.429 8.42611L13.3244 8.40723L13.1145 9.57518L13.2191 9.59406L13.3355 8.94601C13.3367 8.94393 13.3382 8.94139 13.34 8.93846C13.3456 8.92921 13.354 8.91633 13.365 8.90223C13.3858 8.87551 13.4133 8.84748 13.4456 8.82983L13.4494 8.82951C13.4584 8.82881 13.4714 8.82789 13.4871 8.82705C13.5188 8.82535 13.5613 8.82396 13.6053 8.82512C13.6497 8.8263 13.6936 8.83003 13.7288 8.83784C13.7464 8.84174 13.7602 8.84631 13.7702 8.85115C13.7805 8.85614 13.7841 8.86051 13.7841 8.86051L13.792 8.87175L13.8034 8.87732L13.8067 8.87948C13.8099 8.88185 13.8147 8.88588 13.8195 8.89182C13.8281 8.90255 13.8387 8.92153 13.8381 8.95387L13.7347 9.55638L13.8394 9.57443L13.9438 8.96832L13.9441 8.9614C13.9466 8.89911 13.9258 8.85429 13.902 8.82482C13.8905 8.8105 13.8786 8.80029 13.8693 8.79349L13.8628 8.78899C13.8493 8.77386 13.8326 8.76311 13.8164 8.75529C13.7966 8.74566 13.7742 8.73885 13.7518 8.73388C13.707 8.72394 13.6554 8.71993 13.6081 8.71868C13.5604 8.71742 13.5149 8.71893 13.4815 8.72072C13.4647 8.72162 13.4509 8.7226 13.4412 8.72336L13.4298 8.7243L13.4268 8.72458L13.4256 8.72469L13.4162 8.7256L13.4077 8.72967C13.3946 8.73599 13.3822 8.74325 13.3706 8.75111L13.429 8.42611ZM13.3706 8.75111C13.3321 8.77714 13.3022 8.80978 13.2812 8.83678C13.2672 8.85472 13.2565 8.8711 13.2492 8.8831C13.2456 8.88912 13.2428 8.89409 13.2408 8.89768L13.2385 8.90199L13.2374 8.90398L13.3324 8.95166L13.3338 8.9491C13.3343 8.94823 13.3349 8.9472 13.3355 8.94601L13.3706 8.75111ZM12.1998 8.83094H11.7626V8.72446H12.2171L12.2244 8.72662L12.2257 8.72702L12.2278 8.7277L12.234 8.72995C12.239 8.73187 12.2457 8.7347 12.2535 8.73863C12.2689 8.74643 12.2893 8.75897 12.309 8.77807C12.3501 8.81802 12.384 8.88306 12.3698 8.97845L12.2785 9.61855H11.7529L11.744 9.61524L11.7425 9.61467L11.7398 9.61359L11.7314 9.60985C11.7244 9.60663 11.715 9.60186 11.7043 9.59538C11.683 9.58256 11.655 9.56217 11.6308 9.53239C11.6062 9.50223 11.5853 9.46222 11.5796 9.41165C11.574 9.36115 11.584 9.30427 11.6144 9.24105L11.62 9.22937L11.6623 9.26419L11.6213 9.23034L11.6229 9.22844L11.6267 9.224C11.6299 9.22028 11.6345 9.2151 11.6403 9.20895C11.6519 9.19671 11.6683 9.18026 11.688 9.16365C11.7075 9.14718 11.7312 9.12965 11.7571 9.11604C11.7827 9.10262 11.8138 9.09127 11.8472 9.09127H11.849L12.2445 9.10461L12.2647 8.96321C12.2735 8.90431 12.2536 8.87251 12.2351 8.85457C12.2249 8.84471 12.214 8.83794 12.2056 8.83367L12.1998 8.83094ZM12.2294 9.21064L11.8465 9.19776C11.8366 9.19792 11.8232 9.20158 11.8064 9.21039C11.7895 9.21921 11.7724 9.23161 11.7565 9.24505C11.7407 9.25837 11.7272 9.27184 11.7176 9.28204C11.7132 9.2867 11.7097 9.2906 11.7072 9.2934C11.6863 9.33914 11.6823 9.37395 11.6852 9.39977C11.6882 9.42665 11.6991 9.44792 11.7131 9.46505C11.7273 9.48256 11.7446 9.49547 11.759 9.50412C11.7647 9.50757 11.7697 9.5102 11.7736 9.51207H12.1864L12.2294 9.21064ZM12.6591 8.72446H13.1186V8.83094H12.6859L12.6771 8.83676C12.6644 8.84551 12.6467 8.85927 12.6278 8.87862C12.5901 8.91718 12.5481 8.97764 12.5312 9.06577L12.5297 9.07374L12.5283 9.07588L12.5255 9.08445C12.5232 9.09213 12.5199 9.10356 12.5162 9.11804C12.5088 9.14707 12.5002 9.18795 12.4952 9.23506C12.4859 9.3239 12.4901 9.42883 12.5337 9.51868L12.5561 9.52368H12.9702V9.63016H12.5385L12.5388 9.62889L12.4638 9.61217L12.4521 9.59173C12.3825 9.46959 12.3785 9.32901 12.3896 9.22385C12.3952 9.17058 12.4049 9.12458 12.4132 9.09184C12.4174 9.07543 12.4212 9.06225 12.424 9.05303L12.4275 9.04224C12.4496 8.93154 12.5033 8.85386 12.5518 8.80417C12.5763 8.77912 12.5995 8.76103 12.6169 8.74904C12.6256 8.74303 12.6329 8.73852 12.6382 8.7354L12.6447 8.73174L12.6467 8.73067L12.6477 8.73018L12.6591 8.72446Z" fill="white"/>
</g>
</g>
<rect x="0.5" y="1.04883" width="31" height="23" rx="3.5" stroke="#E5E5E5"/>
<defs>
<radialGradient id="paint0_radial_8585_72038" cx="0" cy="0" r="1" gradientUnits="userSpaceOnUse" gradientTransform="translate(16.1788 12.5351) scale(9.99981 10.0224)">
<stop offset="0.3155" stop-color="#2D5CA8"/>
<stop offset="0.5312" stop-color="#285496"/>
<stop offset="0.7289" stop-color="#1F4272"/>
<stop offset="1" stop-color="#0D2D4D"/>
</radialGradient>
<clipPath id="clip0_8585_72038">
<rect y="0.548828" width="32" height="24" rx="4" fill="white"/>
</clipPath>
<clipPath id="clip1_8585_72038">
<rect width="20" height="20" fill="white" transform="translate(6 2.54883)"/>
</clipPath>
</defs>
</svg>
