<svg width="32" height="24" viewBox="0 0 32 24" fill="none" xmlns="http://www.w3.org/2000/svg">
<rect x="0.5" y="0.5" width="31" height="23" rx="3.5" fill="white"/>
<rect x="0.5" y="0.5" width="31" height="23" rx="3.5" stroke="#E5E5E5"/>
<path fill-rule="evenodd" clip-rule="evenodd" d="M5 10H15.6067L14.3713 14.4373H5V10Z" fill="#E30613"/>
<path fill-rule="evenodd" clip-rule="evenodd" d="M26.9998 10L25.7445 14.4373H14.3711L15.6066 10H26.9998Z" fill="#312783"/>
<path d="M17.2005 12.1053C17.2243 11.9583 17.2322 11.8352 17.2283 11.7319C17.2243 11.6286 17.2044 11.5452 17.1766 11.4777C17.1488 11.4101 17.1131 11.3545 17.0694 11.3188C17.0257 11.279 16.978 11.2512 16.9224 11.2353C16.8668 11.2194 16.8151 11.2115 16.7555 11.2115C16.6483 11.2115 16.541 11.2353 16.4417 11.279C16.3384 11.3227 16.2431 11.3942 16.1557 11.4896C16.0643 11.5849 15.9809 11.7081 15.9054 11.855C15.8299 12.006 15.7624 12.1848 15.7068 12.3913C15.6512 12.6019 15.6154 12.7807 15.6075 12.9356C15.5995 13.0865 15.6154 13.2137 15.6512 13.313C15.6869 13.4123 15.7425 13.4838 15.818 13.5315C15.8895 13.5791 15.9809 13.603 16.0882 13.603C16.1795 13.603 16.2709 13.5911 16.3583 13.5632C16.4457 13.5354 16.5291 13.4838 16.6125 13.4123C16.696 13.3408 16.7714 13.2415 16.8509 13.1143C16.9264 12.9872 16.9979 12.8243 17.0654 12.6257C16.9383 12.6257 16.8112 12.6257 16.688 12.6257C16.6562 12.7211 16.6165 12.8005 16.5728 12.868C16.5251 12.9356 16.4775 12.9872 16.4258 13.0269C16.3742 13.0627 16.3186 13.0826 16.2629 13.0826C16.1875 13.0826 16.1279 13.0548 16.0921 13.0031C16.0524 12.9515 16.0325 12.872 16.0325 12.7687C16.0325 12.6654 16.0524 12.5423 16.0921 12.3993C16.1319 12.2523 16.1795 12.1331 16.2351 12.0298C16.2908 11.9305 16.3503 11.8511 16.4179 11.7994C16.4854 11.7478 16.5569 11.72 16.6324 11.72C16.684 11.72 16.7238 11.7319 16.7595 11.7557C16.7913 11.7796 16.8151 11.8193 16.831 11.8789C16.8429 11.9345 16.8469 12.0139 16.835 12.1093C16.9502 12.1053 17.0733 12.1053 17.2005 12.1053ZM17.2481 12.3953C17.1925 12.6059 17.1647 12.7846 17.1607 12.9396C17.1568 13.0905 17.1727 13.2176 17.2124 13.3169C17.2521 13.4163 17.3117 13.4878 17.3912 13.5354C17.4706 13.5831 17.5659 13.6069 17.6772 13.6069C17.7884 13.6069 17.8957 13.5831 17.999 13.5354C18.1022 13.4878 18.1976 13.4163 18.2889 13.3169C18.3803 13.2176 18.4598 13.0945 18.5352 12.9396C18.6068 12.7886 18.6703 12.6059 18.7259 12.3953C18.7776 12.1848 18.8054 12.006 18.8054 11.859C18.8094 11.7081 18.7895 11.5849 18.7498 11.4896C18.71 11.3942 18.6504 11.3227 18.571 11.279C18.4955 11.2353 18.4002 11.2115 18.2889 11.2115C18.1817 11.2115 18.0744 11.2353 17.9751 11.279C17.8758 11.3227 17.7805 11.3942 17.6891 11.4896C17.5977 11.5849 17.5183 11.7081 17.4428 11.859C17.3673 12.01 17.2998 12.1887 17.2481 12.3953ZM17.6255 12.3953C17.6613 12.2483 17.709 12.1292 17.7646 12.0259C17.8202 11.9266 17.8798 11.8471 17.9433 11.7955C18.0109 11.7438 18.0824 11.716 18.1579 11.716C18.2333 11.716 18.2889 11.7438 18.3287 11.7955C18.3684 11.8471 18.3883 11.9226 18.3922 12.0259C18.3962 12.1252 18.3763 12.2483 18.3406 12.3953C18.3048 12.5423 18.2572 12.6654 18.2055 12.7648C18.1499 12.868 18.0903 12.9435 18.0228 12.9991C17.9553 13.0508 17.8837 13.0786 17.8083 13.0786C17.7328 13.0786 17.6732 13.0508 17.6335 12.9991C17.5938 12.9475 17.5739 12.868 17.5699 12.7648C17.5699 12.6654 17.5858 12.5423 17.6255 12.3953ZM20.3865 13.5195C20.5096 13.5195 20.6328 13.5195 20.7559 13.5195C20.8155 13.2653 20.8711 13.0111 20.9307 12.7568C20.9903 12.5065 21.0459 12.2523 21.1055 12.006C21.1373 11.863 21.1532 11.7398 21.1532 11.6405C21.1532 11.5412 21.1373 11.4618 21.1095 11.4061C21.0817 11.3466 21.0459 11.3068 20.9982 11.279C20.9506 11.2512 20.8989 11.2393 20.8433 11.2393C20.744 11.2393 20.6447 11.2751 20.5533 11.3466C20.4619 11.4181 20.3706 11.5174 20.2911 11.6524C20.2911 11.569 20.2832 11.4975 20.2673 11.434C20.2514 11.3744 20.2196 11.3267 20.1759 11.2909C20.1322 11.2552 20.0766 11.2393 20.0091 11.2393C19.9574 11.2393 19.9018 11.2512 19.8502 11.2711C19.7985 11.2949 19.7469 11.3227 19.6992 11.3585C19.6515 11.3942 19.6078 11.434 19.5681 11.4777C19.5284 11.5214 19.4966 11.569 19.4648 11.6127H19.4609C19.4887 11.5055 19.5125 11.4022 19.5403 11.2949C19.4251 11.2949 19.3059 11.2949 19.1907 11.2949C19.0993 11.6604 19.008 12.0259 18.9166 12.3953C18.8252 12.7648 18.7339 13.1422 18.6385 13.5156C18.7617 13.5156 18.8848 13.5156 19.008 13.5156C19.0596 13.313 19.1073 13.1104 19.155 12.9078C19.2026 12.7052 19.2543 12.5065 19.3019 12.3039C19.3218 12.2165 19.3496 12.1411 19.3774 12.0775C19.4092 12.0139 19.441 11.9583 19.4767 11.9186C19.5125 11.8749 19.5482 11.8471 19.588 11.8233C19.6277 11.8034 19.6634 11.7915 19.7032 11.7915C19.731 11.7915 19.7548 11.7955 19.7747 11.8074C19.7985 11.8193 19.8144 11.8392 19.8303 11.867C19.8462 11.8948 19.8541 11.9345 19.8541 11.9822C19.8541 12.0298 19.8462 12.0934 19.8303 12.1649C19.7787 12.3874 19.723 12.6098 19.6714 12.8323C19.6158 13.0548 19.5641 13.2812 19.5085 13.5076C19.6317 13.5076 19.7548 13.5076 19.878 13.5076C19.9256 13.305 19.9733 13.1024 20.021 12.8998C20.0687 12.6972 20.1163 12.4986 20.164 12.296C20.1839 12.2086 20.2117 12.1331 20.2395 12.0696C20.2673 12.006 20.303 11.9504 20.3348 11.9107C20.3706 11.867 20.4063 11.8392 20.446 11.8153C20.4818 11.7955 20.5215 11.7835 20.5573 11.7835C20.5851 11.7835 20.6089 11.7875 20.6328 11.7994C20.6566 11.8113 20.6765 11.8312 20.6884 11.859C20.7043 11.8868 20.7122 11.9266 20.7122 11.9742C20.7122 12.0219 20.7082 12.0855 20.6884 12.157C20.6367 12.3794 20.5851 12.6019 20.5334 12.8243C20.4897 13.0667 20.4381 13.2931 20.3865 13.5195ZM21.614 12.4072C21.6378 12.3 21.6696 12.2086 21.7053 12.1291C21.7411 12.0497 21.7808 11.9822 21.8245 11.9305C21.8682 11.8789 21.9119 11.8392 21.9596 11.8113C22.0073 11.7835 22.051 11.7716 22.0986 11.7716C22.1463 11.7716 22.186 11.7835 22.2218 11.8113C22.2575 11.8392 22.2853 11.8789 22.3052 11.9305C22.3251 11.9822 22.337 12.0497 22.337 12.1291C22.337 12.2086 22.3251 12.3 22.3052 12.4072C22.2814 12.5145 22.2536 12.6059 22.2178 12.6853C22.1821 12.7648 22.1423 12.8323 22.0986 12.8879C22.0549 12.9435 22.0112 12.9832 21.9636 13.0111C21.9159 13.0389 21.8682 13.0508 21.8205 13.0508C21.7729 13.0508 21.7332 13.0389 21.6974 13.0111C21.6616 12.9832 21.6338 12.9435 21.614 12.8879C21.5941 12.8323 21.5862 12.7648 21.5862 12.6853C21.5782 12.6098 21.5901 12.5145 21.614 12.4072ZM20.8155 14.3657C20.9386 14.3657 21.0618 14.3657 21.1889 14.3657C21.2286 14.183 21.2723 13.9963 21.3121 13.8135C21.3518 13.6308 21.3955 13.448 21.4352 13.2653C21.4352 13.2653 21.4352 13.2653 21.4392 13.2653C21.4471 13.3328 21.467 13.3924 21.4988 13.4441C21.5266 13.4957 21.5703 13.5354 21.6179 13.5632C21.6696 13.5911 21.7292 13.603 21.7967 13.6069C21.8841 13.6069 21.9755 13.5752 22.0629 13.5195C22.1503 13.46 22.2337 13.3805 22.3131 13.2732C22.3926 13.166 22.4641 13.0389 22.5277 12.8919C22.5912 12.7449 22.6429 12.582 22.6826 12.3993C22.7263 12.2046 22.7462 12.0338 22.7422 11.8908C22.7422 11.7438 22.7223 11.6246 22.6826 11.5293C22.6429 11.434 22.5912 11.3624 22.5277 11.3148C22.4601 11.2671 22.3807 11.2433 22.2933 11.2433C22.2416 11.2433 22.194 11.2512 22.1423 11.2711C22.0907 11.2909 22.039 11.3267 21.9834 11.3783C21.9278 11.43 21.8682 11.5015 21.8007 11.6008H21.7967C21.8205 11.5015 21.8404 11.4022 21.8642 11.3029C21.749 11.3029 21.6299 11.3029 21.5147 11.3029C21.3995 11.8034 21.2843 12.3079 21.169 12.8164C21.0499 13.3249 20.9347 13.8413 20.8155 14.3657ZM22.6389 13.5195C22.762 13.5195 22.8852 13.5195 23.0083 13.5195C23.0441 13.3567 23.0759 13.1938 23.1116 13.0349C23.1474 12.872 23.1792 12.7131 23.2149 12.5542C23.2467 12.4112 23.2864 12.2881 23.3341 12.1848C23.3818 12.0855 23.4374 12.006 23.5049 11.9544C23.5685 11.9027 23.6439 11.8749 23.7274 11.8749C23.7592 11.8749 23.7949 11.8829 23.8227 11.8948C23.8545 11.9067 23.8823 11.9226 23.9141 11.9424C23.9618 11.716 24.0094 11.4896 24.0531 11.2671C24.0333 11.2592 24.0134 11.2552 23.9896 11.2512C23.9657 11.2472 23.9459 11.2472 23.926 11.2472C23.8744 11.2472 23.8267 11.2552 23.783 11.2751C23.7393 11.2949 23.6956 11.3227 23.6519 11.3624C23.6082 11.4022 23.5685 11.4538 23.5248 11.5134C23.4811 11.573 23.4334 11.6485 23.3818 11.7319H23.3778C23.4096 11.5889 23.4374 11.4459 23.4692 11.3029C23.354 11.3029 23.2348 11.3029 23.1196 11.3029C23.0401 11.6683 22.9607 12.0338 22.8812 12.4033C22.8018 12.7687 22.7183 13.1422 22.6389 13.5195ZM24.8596 12.6098C24.8437 12.6853 24.8238 12.7528 24.796 12.8124C24.7682 12.872 24.7364 12.9237 24.7046 12.9674C24.6689 13.0111 24.6331 13.0468 24.5934 13.0786C24.5537 13.1064 24.5139 13.1302 24.4742 13.1461C24.4345 13.162 24.3948 13.166 24.359 13.166C24.3113 13.166 24.2756 13.1541 24.2438 13.1302C24.216 13.1064 24.1922 13.0706 24.1842 13.023C24.1763 12.9753 24.1763 12.9197 24.1882 12.8522C24.2001 12.7846 24.22 12.733 24.2438 12.6933C24.2676 12.6535 24.2954 12.6217 24.3272 12.6019C24.359 12.582 24.3987 12.5701 24.4424 12.5622C24.5139 12.5502 24.5894 12.5383 24.6609 12.5264C24.6967 12.5224 24.7364 12.5105 24.7761 12.4986C24.8159 12.4867 24.8556 12.4628 24.8953 12.4311C24.8874 12.4867 24.8715 12.5463 24.8596 12.6098ZM24.4027 11.9663C24.4305 11.8908 24.4583 11.8312 24.4822 11.7875C24.51 11.7438 24.5338 11.712 24.5616 11.6882C24.5894 11.6683 24.6172 11.6524 24.649 11.6485C24.6808 11.6405 24.7165 11.6405 24.7523 11.6405C24.8238 11.6405 24.8754 11.6485 24.9152 11.6683C24.9509 11.6882 24.9787 11.716 24.9867 11.7557C24.9986 11.7955 24.9986 11.8431 24.9867 11.9027C24.9748 11.9623 24.9628 12.006 24.9469 12.0378C24.9311 12.0696 24.9112 12.0934 24.8874 12.1053C24.8635 12.1172 24.8317 12.1292 24.792 12.1331C24.6609 12.153 24.5259 12.1689 24.3948 12.1848C24.3471 12.1887 24.3034 12.2007 24.2557 12.2165C24.208 12.2324 24.1604 12.2563 24.1167 12.2841C24.073 12.3119 24.0293 12.3556 23.9856 12.4033C23.9459 12.4549 23.9101 12.5185 23.8744 12.5939C23.8426 12.6694 23.8108 12.7648 23.7909 12.872C23.7631 13.0031 23.7552 13.1143 23.7592 13.2057C23.7631 13.2971 23.783 13.3726 23.8148 13.4321C23.8465 13.4917 23.8902 13.5354 23.9459 13.5593C24.0015 13.5871 24.065 13.599 24.1405 13.599C24.1842 13.599 24.2279 13.595 24.2796 13.5831C24.3312 13.5712 24.3828 13.5553 24.4345 13.5315C24.4861 13.5076 24.5378 13.4719 24.5894 13.4321C24.6411 13.3885 24.6887 13.3368 24.7324 13.2732C24.7285 13.313 24.7205 13.3527 24.7165 13.3924C24.7126 13.4321 24.7126 13.4719 24.7086 13.5116C24.8317 13.5116 24.9549 13.5116 25.078 13.5116C25.0741 13.456 25.078 13.3885 25.086 13.3169C25.0939 13.2415 25.1058 13.1541 25.1257 13.0587C25.1615 12.872 25.1972 12.6893 25.233 12.5026C25.2687 12.3198 25.3045 12.1371 25.3402 11.9544C25.3561 11.8709 25.368 11.7915 25.372 11.72C25.376 11.6445 25.372 11.577 25.3561 11.5134C25.3402 11.4498 25.3124 11.3982 25.2767 11.3545C25.2369 11.3108 25.1853 11.2751 25.1178 11.2472C25.0502 11.2234 24.9628 11.2075 24.8596 11.2075C24.8 11.2075 24.7404 11.2115 24.6808 11.2194C24.6172 11.2274 24.5616 11.2472 24.502 11.2751C24.4424 11.3029 24.3868 11.3466 24.3312 11.4022C24.2756 11.4578 24.2279 11.5293 24.1802 11.6207C24.1326 11.712 24.0928 11.8233 24.0571 11.9583C24.1683 11.9663 24.2835 11.9663 24.4027 11.9663Z" fill="white"/>
<path d="M9.5009 11.0767C9.70747 11.0767 9.91405 11.0767 10.1246 11.0767C10.1564 11.0767 10.1842 11.0807 10.212 11.0926C10.2398 11.1046 10.2597 11.1244 10.2795 11.1522C10.2954 11.18 10.3034 11.2198 10.3073 11.2674C10.3073 11.3151 10.2954 11.3787 10.2755 11.4541C10.2557 11.5256 10.2279 11.5852 10.2001 11.6329C10.1723 11.6806 10.1405 11.7203 10.1087 11.7521C10.0769 11.7839 10.0451 11.8037 10.0134 11.8196C9.98158 11.8315 9.95377 11.8395 9.92597 11.8395C9.71145 11.8395 9.49296 11.8395 9.27844 11.8395C9.342 11.5852 9.42145 11.331 9.5009 11.0767ZM8.90502 11.4144H5V11.7799H8.79379L8.73023 11.9825H5V12.3519H8.61502L8.55146 12.5545H5V12.92H8.44023L8.36475 13.1623H5V13.5278H8.24955H8.25749H8.26544H8.27338H8.27736H8.28133H8.28927H8.29722H8.30516H8.31311H8.32105H8.329H8.33694H8.34489H8.35284H8.36078H8.36872H8.37667H8.38462H8.39256H8.39653H8.4005H8.40845H8.4164H8.42434H8.43229H8.44023H8.44818H8.45612H8.46407H8.47201H8.47996H8.4879H8.49585H8.50379H8.51174H8.51968H8.75009L9.11556 12.4115C9.31022 12.4115 9.50488 12.4115 9.7035 12.4115C9.74323 12.4115 9.77501 12.4195 9.80282 12.4354C9.83063 12.4513 9.85049 12.4791 9.85843 12.5188C9.87035 12.5585 9.87035 12.6102 9.86241 12.6817C9.85446 12.7492 9.8346 12.8366 9.80282 12.9438C9.77898 13.0233 9.75912 13.0908 9.73926 13.1504C9.72337 13.21 9.70747 13.2617 9.69953 13.3014C9.68761 13.3451 9.67967 13.3848 9.6757 13.4206C9.67172 13.4563 9.66775 13.4921 9.66775 13.5278C9.84651 13.5278 10.0253 13.5278 10.204 13.5278C10.1961 13.4881 10.1921 13.4404 10.1961 13.3808C10.2001 13.3212 10.212 13.2617 10.2239 13.1941C10.2358 13.1306 10.2517 13.067 10.2676 13.0074C10.2835 12.9518 10.2954 12.9041 10.3073 12.8644C10.3272 12.8048 10.3431 12.7412 10.3629 12.6697C10.3788 12.6022 10.3947 12.5347 10.4066 12.4671C10.4186 12.3996 10.4225 12.336 10.4225 12.2765C10.4225 12.2169 10.4106 12.1692 10.3947 12.1295C10.3788 12.0897 10.351 12.0659 10.3113 12.054C10.3113 12.05 10.3113 12.05 10.3153 12.0461C10.4345 11.9825 10.5377 11.8951 10.6212 11.7719C10.7046 11.6528 10.7761 11.4978 10.8317 11.3151C10.8516 11.2515 10.8675 11.184 10.8794 11.1125C10.8913 11.037 10.8992 10.9655 10.8953 10.894C10.8953 10.8225 10.8794 10.755 10.8555 10.6954C10.8317 10.6358 10.788 10.5881 10.7324 10.5524C10.6768 10.5166 10.5973 10.4968 10.498 10.4968C10.061 10.4968 9.62405 10.4968 9.19104 10.4968L8.90502 11.4144ZM11.7891 12.8525C11.7255 12.9518 11.658 13.0233 11.5785 13.0749C11.5031 13.1266 11.4157 13.1504 11.3283 13.1504C11.2528 13.1504 11.1932 13.1306 11.1495 13.0948C11.1058 13.0591 11.074 13.0114 11.0542 12.9558C11.0343 12.9002 11.0264 12.8406 11.0303 12.777C11.0343 12.7134 11.0423 12.6539 11.0581 12.5982C11.0581 12.5943 11.0581 12.5943 11.0621 12.5903C11.4991 12.5903 11.9321 12.5903 12.3691 12.5903C12.377 12.5665 12.381 12.5466 12.3889 12.5228C12.4763 12.2367 12.5161 11.9944 12.5161 11.7918C12.5121 11.5892 12.4644 11.4383 12.3691 11.331C12.2737 11.2237 12.1268 11.1721 11.9321 11.1721C11.797 11.1721 11.6699 11.1959 11.5468 11.2436C11.4236 11.2913 11.3084 11.3628 11.1972 11.4621C11.0899 11.5614 10.9906 11.6885 10.8992 11.8435C10.8079 11.9984 10.7324 12.1811 10.6649 12.3956C10.6013 12.6102 10.5655 12.7929 10.5616 12.9478C10.5576 13.1028 10.5775 13.2299 10.6291 13.3292C10.6768 13.4285 10.7483 13.504 10.8436 13.5477C10.939 13.5953 11.0542 13.6192 11.1892 13.6192C11.3243 13.6192 11.4594 13.5914 11.5865 13.5397C11.7136 13.4881 11.8368 13.4047 11.948 13.2895C12.0632 13.1743 12.1705 13.0312 12.2658 12.8485C12.1069 12.8525 11.948 12.8525 11.7891 12.8525ZM11.1972 12.1493C11.1972 12.1454 11.1972 12.1454 11.2012 12.1414C11.2051 12.1295 11.217 12.1056 11.2329 12.0699C11.2528 12.0302 11.2766 11.9904 11.3084 11.9428C11.3402 11.8951 11.3799 11.8474 11.4276 11.8037C11.4753 11.7561 11.5269 11.7203 11.5865 11.6885C11.6461 11.6567 11.7096 11.6409 11.7811 11.6409C11.8447 11.6409 11.8964 11.6528 11.9361 11.6806C11.9758 11.7084 12.0036 11.7402 12.0235 11.7839C12.0433 11.8276 12.0553 11.8713 12.0592 11.915C12.0632 11.9626 12.0632 12.0063 12.0592 12.0461C12.0553 12.0858 12.0513 12.1215 12.0394 12.1454C12.0394 12.1493 12.0394 12.1493 12.0354 12.1533C11.7573 12.1493 11.4792 12.1493 11.1972 12.1493ZM13.0484 12.4036C13.0802 12.2963 13.1199 12.201 13.1676 12.1176C13.2152 12.0341 13.2669 11.9666 13.3225 11.911C13.3781 11.8554 13.4337 11.8156 13.4933 11.7878C13.5529 11.76 13.6085 11.7441 13.6681 11.7441C13.7237 11.7441 13.7714 11.7561 13.8151 11.7878C13.8548 11.8156 13.8866 11.8554 13.9104 11.911C13.9343 11.9666 13.9422 12.0341 13.9422 12.1176C13.9382 12.201 13.9224 12.2963 13.8906 12.4036C13.8588 12.5108 13.8191 12.6062 13.7714 12.6896C13.7237 12.773 13.6721 12.8406 13.6165 12.8962C13.5609 12.9518 13.5052 12.9915 13.4456 13.0193C13.3861 13.0471 13.3304 13.063 13.2748 13.063C13.2192 13.063 13.1676 13.0471 13.1278 13.0193C13.0841 12.9915 13.0524 12.9518 13.0325 12.8962C13.0087 12.8406 13.0007 12.773 13.0047 12.6896C13.0007 12.6062 13.0166 12.5108 13.0484 12.4036ZM13.5489 13.5318C13.6919 13.5318 13.835 13.5318 13.9819 13.5318C14.1369 13.0154 14.2878 12.5029 14.4428 11.9904C14.5937 11.478 14.7486 10.9655 14.8996 10.457C14.7526 10.457 14.6017 10.457 14.4547 10.457C14.3991 10.6358 14.3474 10.8185 14.2918 10.9973C14.2362 11.1761 14.1845 11.3588 14.1289 11.5376H14.125C14.117 11.47 14.0971 11.4104 14.0614 11.3588C14.0256 11.3072 13.9819 11.2674 13.9224 11.2396C13.8628 11.2118 13.7913 11.1959 13.7078 11.1959C13.6006 11.1959 13.4933 11.2237 13.3861 11.2833C13.2788 11.3389 13.1715 11.4224 13.0722 11.5296C12.9729 11.6369 12.8815 11.764 12.7981 11.915C12.7147 12.0659 12.6432 12.2328 12.5876 12.4155C12.528 12.6141 12.4962 12.7889 12.4883 12.9399C12.4803 13.0908 12.4962 13.214 12.5359 13.3133C12.5757 13.4126 12.6313 13.4881 12.7068 13.5397C12.7822 13.5914 12.8736 13.6152 12.9809 13.6152C13.0484 13.6152 13.1159 13.6073 13.1874 13.5834C13.2589 13.5636 13.3304 13.5238 13.4019 13.4682C13.4735 13.4126 13.5489 13.3371 13.6284 13.2418H13.6324C13.6045 13.3411 13.5767 13.4364 13.5489 13.5318Z" fill="white"/>
</svg>
