<svg width="32" height="24" viewBox="0 0 32 24" fill="none" xmlns="http://www.w3.org/2000/svg">
<rect x="0.5" y="0.5" width="31" height="23" rx="3.5" fill="white"/>
<rect x="0.5" y="0.5" width="31" height="23" rx="3.5" stroke="#E5E5E5"/>
<g clip-path="url(#clip0_10514_6379)">
<path d="M17.3105 9.24658V15.6343H22.7334V14.2541H19.338V12.7763H22.4158V11.4817H19.338V10.8221H22.7334V9.24658H17.3105Z" fill="#F3921A"/>
<path d="M23.4668 11.2863H24.1996V9.91839L25.5187 11.6771V9.13672H23.4668V11.2863Z" fill="#323184"/>
<path d="M23.4668 12.6545H24.1996V13.9736L25.5187 12.2148V15.5369H23.4668V12.6545Z" fill="#323184"/>
<path d="M26.2559 9.77079V9.24512H26.4791C26.5353 9.24512 26.5763 9.25 26.6017 9.25928C26.6272 9.26857 26.6477 9.28567 26.6628 9.3096C26.678 9.33354 26.6858 9.36139 26.6858 9.39266C26.6858 9.43223 26.6741 9.46447 26.6511 9.49037C26.6281 9.51626 26.5934 9.53238 26.547 9.53873C26.57 9.55192 26.589 9.56707 26.6037 9.5827C26.6184 9.59833 26.6389 9.62716 26.6643 9.66819L26.7283 9.77079H26.6013L26.5246 9.65647C26.4972 9.61543 26.4786 9.59003 26.4684 9.57928C26.4581 9.56853 26.4479 9.5612 26.4366 9.5573C26.4254 9.55339 26.4078 9.55143 26.3834 9.55143H26.3619V9.77079H26.2559ZM26.3619 9.4674H26.4405C26.4913 9.4674 26.5231 9.46545 26.5358 9.46105C26.5485 9.45666 26.5583 9.44933 26.5656 9.43858C26.5729 9.42783 26.5763 9.41513 26.5763 9.39901C26.5763 9.38142 26.5715 9.36725 26.5622 9.35602C26.5529 9.34478 26.5392 9.33843 26.5221 9.3355C26.5133 9.33452 26.4879 9.33354 26.4444 9.33354H26.3614V9.46692L26.3619 9.4674Z" fill="#323184"/>
<path d="M26.4925 10.0162C26.2125 10.0162 25.9844 9.78802 25.9844 9.50808C25.9844 9.22815 26.2125 9 26.4925 9C26.7724 9 27.0005 9.22815 27.0005 9.50808C27.0005 9.78802 26.7724 10.0162 26.4925 10.0162ZM26.4925 9.09771C26.2663 9.09771 26.0821 9.28189 26.0821 9.50808C26.0821 9.73428 26.2663 9.91846 26.4925 9.91846C26.7187 9.91846 26.9028 9.73428 26.9028 9.50808C26.9028 9.28189 26.7187 9.09771 26.4925 9.09771Z" fill="#323184"/>
<path d="M11.335 15.5952V9.14648H13.7982C14.639 9.14648 15.1871 9.17971 15.4426 9.24566C15.8349 9.34483 16.1637 9.55979 16.4285 9.89102C16.6933 10.2223 16.8257 10.6507 16.8257 11.1754C16.8257 11.5804 16.7495 11.9209 16.5966 12.1964C16.4441 12.4725 16.2502 12.6889 16.0147 12.8467C15.7797 13.004 15.5403 13.1086 15.2975 13.1594C14.9673 13.2224 14.4895 13.2537 13.8632 13.2537H13.3521V15.5947H11.334L11.335 15.5952ZM13.3048 10.4655V11.8823H13.805C14.1651 11.8823 14.4064 11.8564 14.5276 11.8042C14.6492 11.7519 14.744 11.6703 14.8134 11.5589C14.8823 11.4475 14.9169 11.3181 14.9169 11.1705C14.9169 10.9888 14.8686 10.8393 14.7719 10.7211C14.6751 10.6028 14.5525 10.5291 14.4045 10.4997C14.2955 10.4773 14.0762 10.4655 13.7464 10.4655H13.3048Z" fill="#323184"/>
<path d="M5 13.4359L6.85646 13.3382C6.92974 13.6738 7.0294 14.0095 7.25315 14.1834C7.47691 14.3573 7.59464 14.4443 7.9972 14.4443C8.44031 14.4443 8.48086 14.3627 8.70412 14.1985C8.85459 14.0842 8.92983 13.9303 8.92983 13.7383C8.92983 13.6074 8.88928 13.4989 8.80769 13.413C8.7222 13.3314 8.53118 13.1579 8.23414 13.0881C6.85157 12.7813 6.26874 12.5008 5.89843 12.2473C5.38595 11.8955 5.27651 11.5042 5.27651 10.8779C5.27651 10.3132 5.54717 9.9365 5.99027 9.55152C6.43338 9.16753 7.02305 9.07275 7.95421 9.07275C8.88537 9.07275 9.49947 9.21785 9.93036 9.50853C10.3613 9.79922 10.48 10.4001 10.6427 10.9688L8.7862 11.0665C8.71682 10.8129 8.66211 10.5525 8.46913 10.4172C8.27616 10.2824 8.05338 10.1871 7.80911 10.1871C7.56484 10.1871 7.45443 10.2296 7.25902 10.3562C7.12906 10.446 7.0636 10.5628 7.0636 10.7059C7.0636 10.8286 7.12027 10.9331 7.23459 11.0191C7.38897 11.1339 7.58096 11.1974 8.49356 11.4065C9.40616 11.6151 9.94599 11.92 10.308 12.2224C10.6656 12.5292 10.8449 12.9571 10.8449 13.5053C10.8449 14.1028 10.5967 14.6162 10.1009 15.0462C9.6045 15.4756 8.96842 15.6905 7.99671 15.6905C7.11441 15.6905 6.31808 15.5108 5.80414 15.1502C5.28971 14.7902 5.15878 14.0539 5 13.4359Z" fill="#323184"/>
</g>
<defs>
<clipPath id="clip0_10514_6379">
<rect width="22" height="6.69058" fill="white" transform="translate(5 9)"/>
</clipPath>
</defs>
</svg>
