<svg width="32" height="24" viewBox="0 0 32 24" fill="none" xmlns="http://www.w3.org/2000/svg">
<rect x="0.5" y="0.5" width="31" height="23" rx="3.5" fill="white"/>
<rect x="0.5" y="0.5" width="31" height="23" rx="3.5" stroke="#E5E5E5"/>
<path fill-rule="evenodd" clip-rule="evenodd" d="M10.5002 15.2897H8.59624L7.16851 9.31627C7.10075 9.04149 6.95686 8.79857 6.74521 8.68408C6.217 8.39636 5.63496 8.16738 5 8.05189V7.82191H8.06711C8.49042 7.82191 8.8079 8.16738 8.86081 8.56859L9.60159 12.8774L11.5046 7.82191H13.3556L10.5002 15.2897ZM14.4143 15.2897H12.6162L14.0969 7.82191H15.895L14.4143 15.2897ZM18.2212 9.89094C18.2742 9.48873 18.5916 9.25875 18.962 9.25875C19.5441 9.20101 20.1781 9.31649 20.7072 9.60322L21.0247 7.99537C20.4956 7.76539 19.9135 7.6499 19.3853 7.6499C17.6401 7.6499 16.3702 8.6843 16.3702 10.1199C16.3702 11.2121 17.2697 11.7855 17.9047 12.131C18.5916 12.4754 18.8562 12.7054 18.8033 13.0499C18.8033 13.5666 18.2742 13.7966 17.746 13.7966C17.111 13.7966 16.476 13.6243 15.8949 13.3366L15.5774 14.9455C16.2124 15.2322 16.8993 15.3477 17.5343 15.3477C19.4912 15.4044 20.7072 14.371 20.7072 12.8199C20.7072 10.8666 18.2212 10.7521 18.2212 9.89094ZM26.9999 15.2897L25.5722 7.82191H24.0386C23.7212 7.82191 23.4037 8.05189 23.2979 8.39636L20.6541 15.2897H22.5051L22.8746 14.1986H25.1489L25.3605 15.2897H26.9999ZM24.3033 9.83307L24.8315 12.6476H23.3509L24.3033 9.83307Z" fill="#1434CB"/>
</svg>
