<svg width="16" height="16" viewBox="0 0 16 16" fill="none" xmlns="http://www.w3.org/2000/svg">
<g clip-path="url(#clip0_14011_2203)">
<g clip-path="url(#clip1_14011_2203)">
<path d="M12.5239 3.9035L10.8723 1.70132C10.658 1.41568 10.3426 1.22292 9.99063 1.16264C9.6387 1.10235 9.27705 1.17912 8.97997 1.37718L5.14151 3.93615" stroke="black" stroke-width="1.1" stroke-linecap="round" stroke-linejoin="round"/>
<path d="M14.9682 7.07812H12.5237C12.0606 7.07812 11.6165 7.26208 11.2891 7.58953C10.9616 7.91698 10.7777 8.36109 10.7777 8.82417C10.7777 9.28725 10.9616 9.73136 11.2891 10.0588C11.6165 10.3863 12.0606 10.5702 12.5237 10.5702H14.9682V7.07812Z" stroke="black" stroke-width="1.1" stroke-linecap="round" stroke-linejoin="round"/>
<path d="M14.2698 7.07842V5.68159C14.2698 5.21851 14.0859 4.7744 13.7584 4.44695C13.431 4.1195 12.9868 3.93555 12.5238 3.93555H3.44435C2.98127 3.93555 2.53715 4.1195 2.20971 4.44695C1.88226 4.7744 1.6983 5.21851 1.6983 5.68159V11.9673C1.6983 12.4304 1.88226 12.8745 2.20971 13.202C2.53715 13.5294 2.98127 13.7134 3.44435 13.7134H12.5238C12.9868 13.7134 13.431 13.5294 13.7584 13.202C14.0859 12.8745 14.2698 12.4304 14.2698 11.9673V10.5705" stroke="black" stroke-width="1.1" stroke-linecap="round" stroke-linejoin="round"/>
</g>
</g>
<defs>
<clipPath id="clip0_14011_2203">
<rect width="16" height="16" fill="white"/>
</clipPath>
<clipPath id="clip1_14011_2203">
<rect width="16" height="16" fill="white"/>
</clipPath>
</defs>
</svg>
